<svg width="274" height="280" viewBox="0 0 274 280" fill="none" xmlns="http://www.w3.org/2000/svg">
<path d="M177.094 46.0687L177.993 118.987C178.146 131.387 175.856 149.634 156.381 148.983C139.527 147.135 135.056 131.064 134.925 119.492C134.864 114.003 134.8 109.426 134.757 108.862C134.757 108.862 116.308 107.346 114.75 88.9901C113.997 80.1199 113.924 61.7215 114.049 45.0776C114.184 27.2011 127.945 12.4347 145.644 11.1332L147.404 11.0036C166.462 10.7238 177.344 26.8715 177.094 46.0687Z" fill="#FFBE9D"/>
<path d="M135 109.122C135 109.122 146.429 108.95 158 100C158 100 153.229 114.322 135.094 113.995L135 109.122Z" fill="#EB996E"/>
<path d="M145.052 52.9519C145.438 53.2898 147.681 51.7385 150.936 51.6634C154.186 51.5469 156.621 52.9597 156.963 52.5999C157.131 52.44 156.73 51.8226 155.669 51.1832C154.623 50.5458 152.856 49.9445 150.829 50.0041C148.802 50.0656 147.119 50.7652 146.16 51.4634C145.181 52.165 144.863 52.8018 145.052 52.9519Z" fill="#263238"/>
<path d="M146.002 59.5513C146.052 60.9329 147.211 62.0272 148.591 61.9995C149.968 61.9718 151.048 60.8319 150.998 59.451C150.949 58.07 149.789 56.9735 148.411 57.0005C147.032 57.0289 145.952 58.1703 146.002 59.5513Z" fill="#263238"/>
<path d="M138 74.6615C138.002 74.4996 136.067 74.3241 132.944 74.1679C132.153 74.1458 131.399 74.0523 131.228 73.5687C131.002 73.0594 131.268 72.2584 131.582 71.3925C132.181 69.595 132.808 67.7112 133.466 65.7368C136.067 57.6902 137.889 51.0952 137.536 51.001C137.182 50.9076 134.788 57.3535 132.187 65.4009C131.564 67.3838 130.969 69.2747 130.402 71.0829C130.171 71.9239 129.734 72.8897 130.22 73.9453C130.474 74.4703 131.081 74.8234 131.593 74.914C132.108 75.0217 132.55 74.9996 132.94 74.9953C136.068 74.9404 138.002 74.8234 138 74.6615Z" fill="#263238"/>
<path d="M146.021 41.2713C146.332 41.9427 148.908 41.4374 151.993 41.586C155.081 41.6736 157.613 42.3751 157.971 41.7297C158.128 41.4213 157.649 40.8025 156.6 40.2033C155.56 39.6055 153.934 39.0806 152.084 39.0077C150.234 38.939 148.575 39.3378 147.496 39.8543C146.408 40.3715 145.885 40.9518 146.021 41.2713Z" fill="#263238"/>
<path d="M117.024 47.7367C117.338 48.3744 119.673 47.6664 122.502 47.5636C125.331 47.4002 127.68 47.8877 127.978 47.2214C128.109 46.9038 127.643 46.3322 126.657 45.8251C125.679 45.3188 124.169 44.9317 122.472 45.0101C120.776 45.0918 119.276 45.6209 118.311 46.2178C117.339 46.8164 116.886 47.4313 117.024 47.7367Z" fill="#263238"/>
<path d="M176 59.8921C176.306 59.7368 188.464 55.3189 188.985 67.6864C189.506 80.0554 176.642 78.0122 176.606 77.659C176.568 77.305 176 59.8921 176 59.8921Z" fill="#FFBE9D"/>
<path d="M181.009 73.0353C181.059 72.9927 181.217 73.1795 181.563 73.3336C181.901 73.4835 182.477 73.5723 183.071 73.3003C184.274 72.759 185.223 70.6066 185.193 68.3398C185.18 67.1954 184.918 66.1163 184.511 65.2319C184.123 64.3291 183.553 63.7111 182.933 63.6201C182.315 63.4937 181.894 63.9128 181.767 64.2729C181.625 64.631 181.708 64.8782 181.647 64.903C181.616 64.9357 181.391 64.7034 181.464 64.1806C181.502 63.9291 181.627 63.6265 181.89 63.3736C182.158 63.1165 182.561 62.973 182.991 63.0042C183.886 63.0312 184.722 63.8872 185.169 64.8583C185.666 65.8322 185.985 67.0434 186 68.3284C186.021 70.863 184.917 73.2839 183.265 73.8835C182.46 74.1499 181.773 73.914 181.411 73.6327C181.042 73.3386 180.971 73.0602 181.009 73.0353Z" fill="#EB996E"/>
<path d="M140.006 82.946C139.862 82.634 142.45 81.9103 144.271 79.642C145.18 78.5253 145.705 77.3081 146.099 76.4189C146.485 75.5228 146.777 74.9609 146.92 75.0021C147.054 75.0412 147.022 75.6477 146.809 76.6227C146.588 77.5866 146.138 78.9643 145.109 80.2324C144.094 81.5132 142.733 82.2788 141.733 82.6459C140.723 83.0277 140.04 83.0514 140.006 82.946Z" fill="#263238"/>
<path d="M89.0884 28.7396C89.2876 27.9981 89.8247 27.3881 90.4834 26.9981C91.919 26.1466 93.5737 26.2594 95.1722 26.2344C100.04 26.1566 104.87 24.6643 108.965 22.024C110.883 19.2481 113.041 16.6386 115.383 14.2133C120.943 8.4571 125.517 4.53961 130.249 2.62729C136.369 0.153498 146.604 -0.84945 152.985 0.831416C159.367 2.513 165.098 7.71132 165.985 14.2762C169.564 11.2381 174.936 11.2638 179.295 13.0232L179.404 12.9754C184.258 14.7127 187.016 19.8624 188.448 24.8329C189.88 29.804 190.491 35.1188 193.113 39.5742C193.661 40.5057 194.312 41.6222 193.833 42.5916C193.463 43.341 192.514 43.6503 191.69 43.5288C190.865 43.4074 190.134 42.9495 189.43 42.5023C189.971 43.8039 190.513 45.1054 191.054 46.4077C189.298 46.7148 187.479 46.5734 185.774 46.0541C184.743 50.7023 183.514 56.0114 182.321 59.1617C180.291 59.156 178.435 59.3017 177.183 60.4311C175.483 61.9662 174.723 64.8536 171.898 63.7578C170.46 63.1999 169.148 60.1703 168.667 58.6995C165.473 48.9386 164.413 38.4827 165.567 28.2746C163.557 26.1223 161.13 24.3635 158.462 23.1256L158.679 23.322C153.554 21.534 147.756 19.776 142.893 22.1919C139.12 24.0664 136.903 27.9967 134.083 31.1334C128.738 37.0783 121.528 40.3078 113.559 40.6529C113.288 45.8383 113.722 53.1683 113.451 58.3537L109.107 50.0466L109.103 50.088C108.748 49.4801 108.453 48.8672 108.169 48.2528L108.072 48.0664V48.0435C107.62 47.057 107.19 46.0691 106.619 45.0933C106.603 45.1083 106.586 45.1225 106.569 45.1376C103.771 47.6163 99.6483 43.8267 101.855 40.805C102.292 40.2057 102.816 39.6713 103.415 39.2306C102.137 40.4364 100.229 41.0143 98.5527 40.4964C96.876 39.9785 95.5748 38.2748 95.7207 36.5196C95.8203 35.3217 96.6732 34.2501 97.7503 33.7765C95.4902 33.9508 93.1789 33.4572 91.2083 32.3285C89.9179 31.5892 88.6502 30.3712 89.0884 28.7396Z" fill="#263238"/>
<path d="M160.001 16C159.965 16.0469 160.772 16.4846 161.847 17.6813C162.911 18.8723 164.106 20.9451 164.67 23.7663C164.96 25.1683 165.141 26.7366 165.14 28.4236C165.148 30.1113 165.012 31.9184 164.882 33.8236C164.758 35.728 164.622 37.7404 164.744 39.8332C164.805 40.8778 164.931 41.9416 165.158 43.0039C165.39 44.0478 165.665 45.1813 166.457 46.0788C167.087 46.81 168.14 47.1347 169.053 46.9485C169.973 46.7865 170.79 46.2983 171.39 45.6339C172.574 44.2575 172.869 42.5122 173.162 40.9737L172.776 41.0199C173.407 42.4028 174.055 43.7686 175.015 44.8593C175.959 45.9565 177.266 46.6828 178.594 46.8007C179.256 46.8597 179.922 46.7545 180.491 46.4696C181.07 46.1889 181.492 45.7099 181.78 45.2054C182.055 44.6902 182.199 44.1253 182.17 43.581C182.14 43.0373 181.926 42.5207 181.58 42.1555L181.385 42.3289C182.804 43.9384 184.301 44.8032 185.337 45.2822C185.86 45.5223 186.278 45.6652 186.561 45.7561C186.847 45.8407 186.996 45.8755 187 45.8641C187.004 45.8521 186.861 45.7938 186.585 45.6879C186.311 45.5756 185.904 45.4122 185.398 45.1557C184.393 44.6433 182.943 43.7558 181.583 42.159L181.388 42.3324C182.007 42.9855 182.043 44.1331 181.51 45.0555C181.242 45.5103 180.856 45.9359 180.345 46.1747C179.838 46.422 179.231 46.5144 178.626 46.454C177.406 46.3332 176.188 45.6524 175.304 44.6092C174.399 43.5674 173.772 42.2372 173.149 40.8522L172.884 40.2645L172.762 40.8991C172.468 42.4354 172.154 44.1111 171.074 45.3511C170.538 45.9466 169.788 46.3872 168.983 46.5264C168.177 46.6813 167.326 46.417 166.776 45.7902C166.085 45.0135 165.802 43.9405 165.578 42.913C165.354 41.8769 165.229 40.8351 165.165 39.8076C165.039 37.7497 165.165 35.7507 165.279 33.8484C165.397 31.9447 165.521 30.1291 165.498 28.4201C165.483 26.711 165.282 25.1221 164.968 23.7016C164.357 20.8442 163.094 18.7458 161.972 17.5697C160.838 16.3866 160.001 16 160.001 16Z" fill="#F7F7F7"/>
<path d="M104 34.0243C103.996 34.0299 104.046 34.0724 104.147 34.1489C104.271 34.2389 104.421 34.3479 104.604 34.4818C104.804 34.6312 105.059 34.8054 105.379 34.9775C105.696 35.1588 106.056 35.3783 106.493 35.5625C108.193 36.3684 110.919 37.1693 114.327 36.9689C117.704 36.7791 121.756 35.5858 125.375 32.8983C129.031 30.2744 132.241 26.4099 134.865 21.9837C136.196 19.772 137.282 17.5051 138.478 15.411C139.666 13.3162 140.978 11.3793 142.568 9.85108C144.139 8.31432 145.963 7.17839 147.842 6.65716C148.779 6.37955 149.723 6.31653 150.624 6.33777C151.527 6.38522 152.382 6.56793 153.17 6.82571C154.748 7.35402 156.021 8.22367 156.987 9.1181C157.956 10.021 158.606 10.9743 159.052 11.7915C159.885 13.4706 159.931 14.5478 159.997 14.5301C160.004 14.5293 159.999 14.4642 159.982 14.3381C159.959 14.1866 159.93 14.0032 159.895 13.7787C159.806 13.2893 159.595 12.5804 159.201 11.7164C158.77 10.8723 158.127 9.88436 157.151 8.9446C156.179 8.01334 154.887 7.10261 153.268 6.5396C152.459 6.26412 151.577 6.06654 150.641 6.00776C149.709 5.97589 148.718 6.03537 147.747 6.31511C145.795 6.84058 143.908 8.00342 142.293 9.5678C140.658 11.1251 139.315 13.0953 138.114 15.2035C136.903 17.3125 135.817 19.5738 134.497 21.7649C131.892 26.157 128.73 29.9791 125.143 32.5789C121.591 35.2423 117.634 36.4385 114.308 36.6665C110.956 36.9016 108.263 36.1602 106.561 35.4102C104.848 34.6489 104.034 33.9726 104 34.0243Z" fill="#F7F7F7"/>
<path d="M102.001 26.0057C101.986 26.0313 102.215 26.193 102.644 26.4644C103.068 26.7443 103.719 27.0883 104.548 27.4551C105.375 27.829 106.399 28.1773 107.562 28.4693C108.728 28.74 110.034 28.9401 111.416 28.9928C112.799 29.0306 114.115 28.9159 115.296 28.7229C116.474 28.5078 117.519 28.2272 118.368 27.9081C119.218 27.5961 119.889 27.2956 120.329 27.0441C120.774 26.8013 121.013 26.6545 120.999 26.6282C120.965 26.5555 119.974 27.0776 118.275 27.6189C117.428 27.8967 116.394 28.1417 115.236 28.3312C114.073 28.4993 112.784 28.599 111.43 28.5627C110.076 28.5107 108.796 28.3262 107.647 28.0826C106.503 27.8176 105.487 27.505 104.659 27.173C102.996 26.5213 102.04 25.9359 102.001 26.0057Z" fill="#F7F7F7"/>
<path d="M117.048 53.9519C117.402 54.2898 119.458 52.7385 122.441 52.6634C125.421 52.5469 127.652 53.9597 127.966 53.5999C128.121 53.4394 127.752 52.8226 126.779 52.1832C125.821 51.5458 124.201 50.9445 122.343 51.0041C120.485 51.0656 118.942 51.7652 118.063 52.4634C117.166 53.165 116.874 53.8018 117.048 53.9519Z" fill="#263238"/>
<path d="M120.002 59.5513C120.052 60.9329 121.211 62.0272 122.591 61.9995C123.968 61.9718 125.048 60.8319 124.998 59.451C124.949 58.07 123.789 56.9735 122.411 57.0005C121.031 57.0282 119.952 58.1703 120.002 59.5513Z" fill="#263238"/>
<path d="M6.17268 127.052C6.17268 121.77 11.2419 121.77 11.2419 121.77C13.1728 119.244 15.3452 120.163 15.3452 120.163L23.5518 125.674C24.7583 127.741 32.7243 135.549 32.7243 135.549C34.8966 133.941 34.8966 130.726 37.5002 126.823C40.1039 122.919 46 123.378 46 123.378C46 123.378 41.4138 133.711 40.9309 140.142C40.448 146.572 44.4564 164.507 44.4564 164.507L21.2548 171C21.2548 171 19.7905 161.161 17.1904 160.367C14.0614 159.411 12.3202 154.814 12.3202 154.814C8.93774 147.992 2.07009 138.076 1.10498 133.024C0.137741 127.971 6.17268 127.052 6.17268 127.052Z" fill="#FFBE9D"/>
<path d="M178.876 115C164.075 124.301 149.159 127.801 134.052 121.777L111.342 127.579L89 276.862L220 278L213.546 243.326L197.306 118.748L178.876 115Z" fill="#FF735C"/>
<path d="M111 128C111 128 93.3336 135.318 86.5908 148.137C79.848 160.957 69.011 196.939 69.011 196.939L49.0486 160.368L12 169.815C12 169.815 39.577 245.696 46.5 252.604C54.0791 260.166 74.7352 267.793 84.8494 261.907C94.9637 256.021 97.0214 233.683 97.0214 233.683L111 128Z" fill="#FF735C"/>
<path d="M109.815 189.618C109.917 189.618 110 182.988 110 174.81C110 166.629 109.917 160 109.815 160C109.713 160 109.63 166.629 109.63 174.81C109.63 182.988 109.713 189.618 109.815 189.618Z" fill="#263238"/>
<path d="M103.005 136.107C102.955 136.129 103.312 137.053 103.868 138.552C104.424 140.051 105.165 142.132 105.888 144.461C106.609 146.79 107.176 148.925 107.565 150.476C107.955 152.027 108.183 152.991 108.237 152.98C108.261 152.975 108.236 152.729 108.168 152.285C108.101 151.841 107.983 151.202 107.82 150.417C107.496 148.846 106.966 146.692 106.241 144.351C105.515 142.012 104.732 139.936 104.111 138.456C103.801 137.717 103.537 137.123 103.341 136.72C103.147 136.316 103.029 136.097 103.005 136.107Z" fill="#263238"/>
<path d="M199.858 174.653L195.745 118.403C195.745 118.403 226.688 121.264 236.927 143.019C245.556 161.352 269.375 216.511 271.924 224.057C279.405 246.198 267.719 276.64 219.539 274.877L214.045 244.776L199.858 174.653Z" fill="#FF735C"/>
<path d="M234.505 251.053C234.516 251.046 234.43 250.861 234.253 250.513C234.058 250.137 233.796 249.633 233.468 248.999C232.754 247.66 231.75 245.777 230.516 243.465C230.202 242.881 229.873 242.27 229.531 241.634C229.18 241.004 228.778 240.318 228.115 239.822C227.453 239.327 226.586 239.124 225.736 239.141C224.88 239.151 224.024 239.334 223.171 239.555C221.461 240.004 219.712 240.638 217.993 241.506C217.136 241.942 216.287 242.448 215.507 243.085L215.221 243.333C215.109 243.433 215.018 243.589 214.979 243.714C214.886 243.976 214.846 244.233 214.822 244.488C214.77 244.999 214.776 245.507 214.788 246.015C214.863 248.048 215.117 250.008 215.371 251.898C215.632 253.787 215.922 255.602 216.211 257.329C216.793 260.781 217.376 263.879 217.875 266.478C218.38 269.048 218.792 271.14 219.084 272.628C219.222 273.327 219.333 273.884 219.415 274.299C219.491 274.68 219.526 274.882 219.54 274.88C219.552 274.879 219.541 274.673 219.489 274.287C219.438 273.9 219.35 273.332 219.227 272.601C218.962 271.109 218.59 269.009 218.133 266.43C217.667 263.826 217.112 260.724 216.549 257.272C216.268 255.546 215.986 253.733 215.731 251.848C215.483 249.965 215.233 248.007 215.159 246.004C215.146 245.504 215.142 245.006 215.19 244.524C215.211 244.284 215.253 244.046 215.325 243.842C215.364 243.732 215.401 243.669 215.472 243.602L215.744 243.365C216.49 242.755 217.319 242.256 218.16 241.826C219.846 240.969 221.577 240.334 223.258 239.882C224.1 239.66 224.931 239.479 225.741 239.464C226.547 239.444 227.333 239.627 227.934 240.068C228.535 240.507 228.93 241.152 229.282 241.772C229.631 242.403 229.966 243.009 230.287 243.589C231.564 245.878 232.603 247.741 233.342 249.068C233.696 249.687 233.978 250.181 234.188 250.548C234.385 250.885 234.494 251.058 234.505 251.053Z" fill="#263238"/>
<path d="M256.88 224.331C256.879 224.318 256.754 224.315 256.516 224.32C256.236 224.33 255.894 224.344 255.478 224.359C254.577 224.403 253.273 224.48 251.664 224.628C250.057 224.778 248.142 225.005 246.045 225.443C243.951 225.878 241.673 226.552 239.436 227.625C237.21 228.709 235.229 230.023 233.622 231.449C232.035 232.891 230.807 234.429 230.092 235.893C229.37 237.351 229.071 238.658 229.022 239.562C228.956 240.011 229.01 240.366 229.002 240.602C229.009 240.839 229.019 240.963 229.032 240.963C229.072 240.963 229.058 240.462 229.165 239.578C229.257 238.692 229.59 237.424 230.325 236.013C231.053 234.597 232.276 233.108 233.848 231.703C235.441 230.316 237.4 229.028 239.598 227.958C241.799 226.902 244.044 226.225 246.116 225.776C248.191 225.323 250.092 225.07 251.691 224.888C253.291 224.707 254.59 224.59 255.487 224.503C255.901 224.459 256.242 224.423 256.521 224.394C256.758 224.364 256.881 224.344 256.88 224.331Z" fill="#263238"/>
<path d="M223.772 221.49C223.726 221.507 224.01 222.357 224.541 223.703C225.071 225.049 225.86 226.886 226.766 228.897C227.651 230.856 228.45 232.626 229.088 234.041C229.681 235.358 230.05 236.173 230.099 236.153C230.145 236.136 229.861 235.286 229.33 233.94C228.8 232.594 228.01 230.757 227.104 228.746C226.22 226.787 225.421 225.017 224.782 223.602C224.191 222.285 223.821 221.47 223.772 221.49Z" fill="#263238"/>
<path d="M206.648 177.213C206.751 177.213 206.833 173.647 206.833 169.25C206.833 164.852 206.751 161.287 206.648 161.287C206.546 161.287 206.463 164.852 206.463 169.25C206.463 173.647 206.546 177.213 206.648 177.213Z" fill="#263238"/>
<g opacity="0.3">
<path d="M229.032 240.963C237.172 243.793 242.674 251.154 244.897 259.454C245.129 260.325 245.285 261.353 244.701 262.04C244.1 262.747 242.943 262.727 242.146 262.249C241.348 261.77 240.827 260.955 240.334 260.168C236.412 253.914 232.584 248.121 229.032 240.963Z" fill="black"/>
</g>
<g opacity="0.3">
<path d="M239.13 224.916C243.385 222.559 248.281 221.547 253.141 221.254C255.046 221.139 256.938 221.36 258.805 221.75C261.345 222.282 264.267 223.562 264.823 225.38C258.98 223.557 250.38 224.758 244.399 226.06C238.365 227.375 233.464 230.782 230.099 236.157C231.542 231.625 234.954 227.23 239.13 224.916Z" fill="black"/>
</g>
<path d="M211.2 153.264C211.225 153.269 211.325 152.952 211.483 152.376C211.636 151.798 211.883 150.969 212.219 149.957C212.887 147.933 214.008 145.194 215.659 142.389C217.318 139.586 219.176 137.28 220.628 135.716C221.353 134.932 221.96 134.313 222.392 133.9C222.821 133.482 223.05 133.241 223.034 133.222C223.017 133.203 222.755 133.407 222.295 133.794C221.83 134.177 221.193 134.769 220.438 135.536C218.927 137.065 217.016 139.371 215.34 142.201C213.672 145.035 212.578 147.82 211.97 149.879C211.664 150.908 211.454 151.752 211.344 152.342C211.228 152.931 211.175 153.258 211.2 153.264Z" fill="#263238"/>
<path d="M199.737 278.437L234.135 195.411C235.705 191.622 233.736 188.551 229.737 188.551H222.816C219.992 188.551 218.067 186.995 217.886 184.565L217.657 181.513C217.474 179.083 215.546 177.527 212.719 177.527H179.835C177.272 177.527 174.376 178.809 172.22 180.898L169.551 183.484C167.396 185.573 164.503 186.855 161.942 186.855H120.059C116.06 186.855 111.581 189.926 110.056 193.715L75.9564 278.437H199.737Z" fill="#395A64"/>
<g opacity="0.3">
<path d="M199.737 278.437L234.135 195.411C235.705 191.622 233.736 188.551 229.737 188.551H222.816C219.992 188.551 218.067 186.995 217.886 184.565L217.657 181.513C217.474 179.083 215.546 177.527 212.719 177.527H179.835C177.272 177.527 174.376 178.809 172.22 180.898L169.551 183.484C167.396 185.573 164.503 186.855 161.942 186.855H120.059C116.06 186.855 111.581 189.926 110.056 193.715L75.9564 278.437H199.737Z" fill="black"/>
</g>
<path d="M205.422 250.24L218.395 200.06C219.249 196.756 217.086 193.442 214.076 193.442H112.389C110.378 193.442 108.612 194.967 108.058 197.179L89.1745 272.708C88.3453 276.025 89.6708 278.014 92.6846 277.976L194.997 278.008C196.979 277.983 198.713 276.478 199.27 274.3L205.422 250.24Z" fill="#E0E0E0"/>
<path d="M198.394 276.167L203.921 197.144C204.117 194.341 201.897 191.96 199.089 191.96H93.7296V276.168L198.394 276.167Z" fill="#EBEBEB"/>
<path d="M199.574 277.976L187.039 196.51C186.461 193.856 184.074 191.96 181.311 191.96H74.7274C70.5173 191.96 67.6817 196.192 69.3465 199.99L92.3608 274.543L199.574 277.976Z" fill="#FAFAFA"/>
<path d="M199.737 278.404L173.888 202.106C172.811 198.926 169.93 196.801 166.699 196.801H56.8206C53.2793 196.801 50.783 200.427 51.9133 203.929L75.9556 278.441L199.737 278.404Z" fill="#395A64"/>
<g opacity="0.3">
<path d="M146.611 265.63C146.611 265.63 150.76 265.82 152.672 265.95C161.78 266.572 171.033 264.93 179.37 261.213C181.956 260.06 184.69 258.433 185.472 255.712C186.348 252.664 184.375 249.492 181.969 247.426C179.564 245.359 176.639 243.889 174.55 241.503C172.461 239.118 171.473 235.257 173.531 232.844L174.099 233.261C175.587 237.028 179.725 238.846 183.153 241.001C189.518 245.004 194.373 251.352 196.57 258.546C197.776 262.495 198.098 267.104 195.704 270.468C194.006 272.856 191.225 274.213 188.479 275.232C180.167 278.316 171.282 278.432 162.416 278.442C159.615 278.445 151.018 278.327 151.018 278.327C148.315 277.591 147.424 276.183 145.797 273.902C144.304 271.806 144.631 267.271 146.611 265.63Z" fill="black"/>
</g>
<path d="M146.611 265.629L175.269 261.318L186.396 254.913C187.862 254.07 188.865 252.56 188.954 250.87C188.955 250.839 188.957 250.807 188.958 250.775C189.045 248.664 187.755 246.744 185.809 245.924C182.279 244.435 176.688 242.456 174.303 238.277C170.875 232.27 174.303 231.023 174.303 231.023L198.234 240.594L215.175 252.129L218.583 271.363L194.947 279.086C194.947 279.086 168.607 280.571 161.34 279.756C154.072 278.941 154.072 275.554 154.072 275.554C152.723 275.132 149.994 272.734 149.995 270.501C146.467 267.19 146.611 265.629 146.611 265.629Z" fill="#FFBE9D"/>
<path d="M183.265 273.905C183.256 273.873 182.836 273.955 182.085 274.131C181.336 274.313 180.247 274.554 178.897 274.824C176.199 275.366 172.431 275.928 168.237 276.097C164.041 276.256 160.24 275.989 157.509 275.659C156.143 275.496 155.037 275.34 154.277 275.217C153.515 275.101 153.089 275.051 153.082 275.085C153.075 275.117 153.488 275.229 154.241 275.404C154.994 275.585 156.094 275.793 157.462 276.001C160.197 276.421 164.027 276.746 168.256 276.585C172.483 276.416 176.276 275.794 178.969 275.162C180.317 274.848 181.399 274.555 182.134 274.316C182.872 274.081 183.275 273.937 183.265 273.905Z" fill="#EB996E"/>
<path d="M180.649 269.472C180.64 269.44 180.213 269.523 179.451 269.7C178.69 269.884 177.584 270.125 176.212 270.389C173.47 270.923 169.639 271.452 165.379 271.586C161.118 271.712 157.26 271.427 154.487 271.087C153.1 270.919 151.979 270.76 151.206 270.635C150.432 270.516 150.001 270.465 149.994 270.498C149.986 270.531 150.405 270.644 151.171 270.821C151.935 271.004 153.052 271.216 154.44 271.428C157.215 271.858 161.1 272.201 165.393 272.074C169.685 271.938 173.542 271.351 176.282 270.727C177.652 270.418 178.752 270.125 179.499 269.884C180.249 269.649 180.658 269.504 180.649 269.472Z" fill="#EB996E"/>
<path d="M10.8659 163.425L61.8352 173.486C65.3574 174.181 68.7765 171.892 69.4722 168.371L83.4058 97.8637C84.1016 94.3436 81.8103 90.9258 78.2882 90.2312L45.9636 83.8501L15.8478 104.686L5.74832 155.792C5.05185 159.313 7.34379 162.73 10.8659 163.425Z" fill="#EBEBEB"/>
<path d="M45.9634 83.8501L42.0419 103.694C41.3952 106.967 38.2156 109.097 34.9393 108.452L15.8476 104.686L45.9634 83.8501Z" fill="#F5F5F5"/>
<path d="M41.437 105.38C41.437 105.38 40.737 110.242 34.9421 110.742C34.7246 110.761 34.5043 110.763 34.2861 110.76C31.7057 110.713 14.719 110.391 14.7929 110.015C14.8732 109.607 15.8468 104.682 15.8468 104.682L34.9385 108.451C34.9385 108.451 39.7378 109.229 41.437 105.38Z" fill="#E0E0E0"/>
<path d="M10.8658 163.422C10.8658 163.422 10.7741 163.391 10.5908 163.341C10.406 163.298 10.1338 163.22 9.78841 163.08C9.10261 162.808 8.08565 162.277 7.1575 161.163C6.26133 160.067 5.45683 158.301 5.75674 156.209C6.12914 154.145 6.63654 151.768 7.16032 149.104C9.28455 138.435 12.3255 123.163 15.9998 104.714L15.9365 104.811C25.051 98.5125 35.2166 91.4894 46.0651 83.9932L45.9301 84.0216C51.9225 85.2064 58.1616 86.4401 64.5819 87.7094C67.792 88.3436 71.047 88.9864 74.3388 89.637C75.1618 89.7997 75.9869 89.9623 76.8149 90.1257C77.6414 90.3011 78.4878 90.4112 79.2511 90.7003C80.7968 91.2706 82.0973 92.4859 82.7796 94.0031C83.2564 95.055 83.4448 96.2404 83.2913 97.3797C83.1122 98.5232 82.8471 99.6944 82.6303 100.844C82.1741 103.153 81.7214 105.445 81.2722 107.722C80.3732 112.275 79.4877 116.761 78.6178 121.169C76.8795 129.985 75.2023 138.489 73.6054 146.589C72.808 150.64 72.0298 154.59 71.2737 158.427C70.8963 160.346 70.5239 162.237 70.1572 164.099C69.9738 165.029 69.7926 165.953 69.6121 166.869C69.416 167.784 69.3094 168.71 68.9625 169.532C68.2867 171.199 66.876 172.493 65.2478 173.077C64.4341 173.372 63.5678 173.495 62.7199 173.444C61.8799 173.385 61.0313 173.165 60.1949 173.014C56.849 172.358 53.6374 171.728 50.5715 171.127C38.3137 168.733 28.3933 166.795 21.5267 165.454C18.102 164.793 15.4412 164.28 13.6268 163.93C12.7292 163.761 12.0427 163.631 11.5708 163.543C11.1046 163.456 10.8658 163.422 10.8658 163.422C10.8658 163.422 11.1003 163.481 11.5616 163.578C12.032 163.675 12.7164 163.817 13.6105 164.001C15.422 164.367 18.0785 164.904 21.4969 165.594C28.3578 166.963 38.2704 168.939 50.5182 171.383C53.582 171.991 56.7921 172.629 60.1366 173.293C60.9766 173.445 61.8039 173.666 62.6993 173.734C63.5862 173.79 64.4931 173.663 65.3452 173.355C67.0501 172.748 68.5305 171.396 69.2426 169.649C69.6114 168.771 69.7173 167.833 69.9141 166.929C70.0961 166.013 70.2787 165.09 70.4635 164.16C70.833 162.299 71.2076 160.409 71.5885 158.491C72.3496 154.654 73.1321 150.705 73.9352 146.655C75.5392 138.555 77.2235 130.053 78.9689 121.239C79.8409 116.831 80.7286 112.346 81.629 107.794C82.0789 105.517 82.5323 103.224 82.9885 100.916C83.2074 99.7548 83.4668 98.6212 83.6544 97.4258C83.8165 96.2198 83.6182 94.9633 83.1129 93.8503C82.3909 92.2451 81.0143 90.9588 79.3768 90.3544C78.5503 90.044 77.7032 89.9389 76.8831 89.7635C76.0558 89.6001 75.23 89.4374 74.4071 89.2748C71.1152 88.6256 67.8596 87.9835 64.6494 87.35C58.2291 86.085 51.9894 84.8548 45.9955 83.6736L45.9216 83.6587L45.8597 83.7013C35.0204 91.211 24.8641 98.2469 15.7567 104.556L15.7048 104.592L15.6927 104.653C12.0725 123.113 9.07562 138.393 6.98196 149.068C6.47026 151.739 5.97845 154.107 5.61672 156.19C5.32534 158.329 6.16109 160.121 7.08141 161.222C8.03515 162.342 9.07134 162.864 9.76781 163.124C10.1189 163.258 10.3946 163.328 10.5816 163.364C10.7706 163.406 10.8658 163.422 10.8658 163.422Z" fill="#263238"/>
<path d="M15.8474 104.686C15.8453 104.699 16.0116 104.744 16.3307 104.819C16.6867 104.899 17.1515 105.002 17.73 105.13C18.9908 105.394 20.7426 105.76 22.8903 106.208C25.0842 106.653 27.6789 107.177 30.5529 107.76C31.9991 108.045 33.5157 108.345 35.087 108.656C36.7102 108.944 38.5139 108.53 39.9011 107.458C40.5962 106.927 41.1697 106.256 41.5791 105.508C42.0012 104.771 42.2045 103.916 42.3366 103.142C42.6429 101.572 42.9386 100.057 43.2207 98.6124C43.7744 95.7336 44.274 93.1355 44.6968 90.9386C45.0976 88.7829 45.4253 87.0243 45.6605 85.7593C45.7614 85.1755 45.8417 84.7067 45.9043 84.3473C45.9562 84.0234 45.9767 83.8522 45.9647 83.8501C45.9519 83.848 45.9064 84.0142 45.8311 84.3331C45.7515 84.689 45.6484 85.1535 45.5191 85.7316C45.2554 86.9909 44.8887 88.7425 44.4403 90.8882C43.9954 93.0808 43.4695 95.674 42.8867 98.5463C42.5982 99.9896 42.2954 101.503 41.9813 103.071C41.8413 103.869 41.6579 104.624 41.2564 105.332C40.8705 106.035 40.3311 106.665 39.6766 107.165C38.3704 108.173 36.6775 108.565 35.1474 108.298C33.5782 107.996 32.0638 107.704 30.6197 107.425C27.74 106.873 25.1403 106.373 22.9422 105.952C20.7853 105.551 19.0249 105.224 17.7592 104.989C17.175 104.888 16.706 104.808 16.3464 104.746C16.0209 104.694 15.8496 104.674 15.8474 104.686Z" fill="#263238"/>
<path d="M43.4269 101.749C43.407 101.849 49.4115 103.119 56.836 104.584C64.2633 106.05 70.2984 107.158 70.3183 107.057C70.3382 106.957 64.3351 105.687 56.9078 104.221C49.4833 102.756 43.4468 101.649 43.4269 101.749Z" fill="#263238"/>
<path d="M28.7117 109.128C28.6918 109.228 37.5526 111.062 48.4999 113.223C59.4515 115.385 68.3421 117.055 68.362 116.955C68.3819 116.855 59.5233 115.022 48.5717 112.86C37.6244 110.699 28.7316 109.028 28.7117 109.128Z" fill="#263238"/>
<path d="M26.7559 119.027C26.736 119.127 35.5968 120.961 46.5441 123.122C57.4957 125.284 66.3863 126.955 66.4062 126.854C66.4261 126.754 57.5675 124.921 46.6159 122.76C35.6686 120.598 26.7758 118.927 26.7559 119.027Z" fill="#263238"/>
<path d="M64.4494 136.753C64.4693 136.653 55.6086 134.819 44.6612 132.658C33.7097 130.496 24.819 128.826 24.7991 128.926C24.7792 129.026 33.6379 130.859 44.5895 133.02C55.5368 135.182 64.4295 136.853 64.4494 136.753Z" fill="#263238"/>
<path d="M22.8428 138.824C22.8229 138.924 31.6837 140.757 42.631 142.919C53.5826 145.081 62.4732 146.751 62.4931 146.651C62.513 146.551 53.6544 144.718 42.7028 142.556C31.7555 140.395 22.8627 138.724 22.8428 138.824Z" fill="#263238"/>
<path d="M20.887 148.724C20.8671 148.825 29.7279 150.659 40.6752 152.819C51.6268 154.981 60.5174 156.652 60.5373 156.552C60.5572 156.452 51.6986 154.618 40.747 152.456C29.7997 150.295 20.9069 148.624 20.887 148.724Z" fill="#263238"/>
<path d="M42.009 155.293L79.4143 162.677C81.0396 162.998 82.618 161.941 82.9385 160.316L85.6178 146.759C85.939 145.134 84.8815 143.557 83.2555 143.236L45.8502 135.852C44.2249 135.531 42.6465 136.588 42.3253 138.213L39.646 151.77C39.3262 153.396 40.3837 154.972 42.009 155.293Z" fill="#395A64"/>
<path d="M74.3401 148.049L71.0013 147.389C68.5957 146.914 66.6619 148.037 66.222 150.262C65.7821 152.487 67.1444 154.261 69.5494 154.736L72.8882 155.395L74.3401 148.049ZM69.909 153.356C68.4493 153.067 67.6661 152.008 67.944 150.601C68.2218 149.196 69.3497 148.513 70.8087 148.801L72.3623 149.108L71.4618 153.662L69.909 153.356Z" fill="white"/>
<path d="M65.4053 150.102C65.836 147.92 64.4545 145.968 62.1341 145.509C59.8237 145.053 57.7954 146.321 57.3612 148.513C56.9284 150.707 58.322 152.65 60.6324 153.106C62.9521 153.565 64.9733 152.284 65.4053 150.102ZM59.0839 148.854C59.3596 147.458 60.535 146.698 61.8477 146.956C63.1603 147.216 63.9591 148.366 63.6834 149.761C63.4069 151.157 62.2307 151.917 60.9188 151.658C59.6055 151.399 58.8074 150.249 59.0839 148.854Z" fill="white"/>
<path d="M56.5446 148.351C56.9817 146.137 55.5937 144.217 53.3046 143.765C52.0339 143.514 50.8826 143.766 50.0234 144.469L50.9167 145.692C51.5222 145.223 52.2002 145.051 52.935 145.197C54.3102 145.468 55.0962 146.627 54.8226 148.012C54.5483 149.397 53.3813 150.17 52.0055 149.898C51.2706 149.753 50.7092 149.337 50.3297 148.663L49.0384 149.454C49.5636 150.442 50.5336 151.112 51.8143 151.365C54.0927 151.814 56.1068 150.566 56.5446 148.351Z" fill="white"/>
<path d="M18.8824 110.955C18.8824 110.955 15.118 106.192 12.2191 108.856C9.32025 111.519 10.156 112.889 12.9134 117.1C12.9134 117.1 6.75965 116.777 8.73321 123.094C8.73321 123.094 2.60148 122.416 3.19134 127.586C3.19134 127.586 -1.43875 132.114 0.969034 135.032C3.37682 137.951 12.1089 143.219 14.3149 142.314C16.5209 141.408 16.5379 138.285 16.5379 138.285C16.5379 138.285 19.1617 137.104 19.8859 135.722C20.6101 134.341 19.3664 132.405 19.3664 132.405C19.3664 132.405 21.5788 130.146 22.126 129.515C22.6732 128.885 21.8261 125.955 21.8261 125.955L18.2947 122.53C18.2947 122.53 23.1572 124.642 24.1706 123.837C25.184 123.031 26.3268 122.335 25.2416 120.865C24.1571 119.395 20.2996 116.108 20.2996 116.108L18.8824 110.955Z" fill="#FFBE9D"/>
<path d="M16.0464 138.644C16.1005 138.582 15.4488 137.892 14.4531 136.71C13.4539 135.556 12.0375 133.842 9.96085 132.598C7.92972 131.356 6.06276 130.355 4.91217 129.354C3.73812 128.383 3.27691 127.533 3.19021 127.584C3.13051 127.601 3.47947 128.563 4.63504 129.662C5.76075 130.784 7.65541 131.874 9.64745 133.093C11.6487 134.29 13.0552 135.891 14.1475 136.99C15.227 138.106 15.9946 138.704 16.0464 138.644Z" fill="#EB996E"/>
<path d="M19.4526 133.316C19.567 133.201 17.3071 130.762 14.4061 127.868C12.9492 126.444 11.7005 125.059 10.6252 124.212C9.56847 123.344 8.76187 123.027 8.73273 123.094C8.6908 123.173 9.39579 123.601 10.3524 124.523C11.3253 125.421 12.5199 126.841 13.9925 128.283C16.8935 131.177 19.3382 133.43 19.4526 133.316Z" fill="#EB996E"/>
<path d="M18.2948 122.53C18.4106 122.384 17.0141 121.276 15.4655 119.801C13.8893 118.335 13.121 116.77 12.9717 116.827C12.8047 116.864 13.4031 118.682 15.0555 120.219C16.668 121.752 18.2131 122.639 18.2948 122.53Z" fill="#EB996E"/>
<path d="M18.8813 110.94C18.8714 110.945 18.8927 111.064 18.9439 111.292C19.0071 111.555 19.0874 111.885 19.1862 112.296C19.4243 113.217 19.7555 114.497 20.1762 116.126L20.1854 116.162L20.2167 116.189C20.9267 116.814 21.7248 117.531 22.5876 118.342C23.4254 119.162 24.4339 120.044 25.2128 121.145C25.3841 121.422 25.5113 121.734 25.48 122.035C25.4488 122.336 25.2626 122.618 25.006 122.865C24.7544 123.116 24.4481 123.339 24.1397 123.58C23.886 123.799 23.5491 123.796 23.1596 123.774C21.6246 123.594 20.0099 122.966 18.3896 122.296L17.2518 121.826L18.1301 122.684C19.2416 123.77 20.4242 124.925 21.6494 126.121L21.5954 126.046C22.0418 127.137 22.3246 128.519 21.7767 129.621C21.1648 130.716 20.0781 131.64 18.9915 132.457L18.7527 132.637L18.9453 132.864C19.7143 133.771 20.2579 135.206 19.253 136.091C18.3576 137.019 17.1316 137.734 15.9185 138.371L16.3321 138.6L16.3265 138.531C16.3265 138.531 16.3243 138.499 16.325 138.512L16.3243 138.518C16.2511 138.603 16.4885 138.314 16.1559 138.767C15.3621 138.393 15.9256 138.613 15.7529 138.551V138.552V138.556L15.7593 138.69L15.7565 138.977C15.7494 139.171 15.7309 139.365 15.7025 139.556C15.6471 139.941 15.5461 140.318 15.3969 140.67C15.2441 141.02 15.0387 141.344 14.7722 141.605C14.505 141.862 14.1745 142.093 13.8597 142.129C13.139 142.209 12.3047 141.947 11.5336 141.671C10.7504 141.383 9.9815 141.023 9.22321 140.632C7.78692 139.889 6.4146 139.047 5.11263 138.148C3.81991 137.242 2.56058 136.291 1.51659 135.199C0.982161 134.658 0.633909 134.06 0.582739 133.349C0.518068 132.655 0.692198 131.942 0.961546 131.28C1.51303 129.95 2.42197 128.77 3.38139 127.765L3.46884 127.674L3.46172 127.538C3.42761 126.843 3.39703 126.128 3.66993 125.518C3.90943 124.904 4.35079 124.396 4.90868 124.054C6.03724 123.376 7.45078 123.249 8.70299 123.328L9.05621 123.35L8.97162 123.001C8.87852 122.617 8.76906 122.239 8.68946 121.861C8.66601 121.481 8.55659 121.099 8.60136 120.731C8.57791 119.983 8.81883 119.275 9.236 118.731C10.1066 117.63 11.6267 117.296 12.8995 117.298L13.3111 117.299L13.0914 116.964C12.3573 115.848 11.6431 114.791 11.1093 113.734C10.8528 113.204 10.6538 112.666 10.6055 112.134C10.5529 111.603 10.6836 111.092 10.921 110.645C11.4256 109.778 12.1491 109.02 12.8555 108.544C13.6067 108.086 14.4659 108.103 15.1559 108.309C16.5588 108.751 17.438 109.594 18.0179 110.099C18.3085 110.364 18.5153 110.582 18.6575 110.725C18.801 110.874 18.8714 110.944 18.8813 110.94C18.8913 110.935 18.8323 110.844 18.7072 110.685C18.5793 110.528 18.3867 110.294 18.1067 110.012C17.8303 109.727 17.4699 109.391 17.0037 109.04C16.5411 108.688 15.9633 108.316 15.227 108.081C14.5071 107.844 13.5505 107.8 12.7084 108.294C12.5158 108.434 12.3196 108.578 12.1199 108.724C11.9458 108.89 11.7681 109.061 11.5869 109.234C11.2486 109.605 10.8819 109.988 10.6211 110.484C10.3518 110.969 10.189 111.563 10.2423 112.166C10.2892 112.768 10.501 113.349 10.7611 113.905C11.3027 115.009 12.0091 116.077 12.7325 117.203L12.9244 116.87C12.2052 116.851 11.4938 116.947 10.7796 117.176C10.0753 117.405 9.36819 117.806 8.86787 118.443C8.37181 119.074 8.09676 119.906 8.11524 120.721C8.06763 121.135 8.17635 121.535 8.20265 121.948C8.28295 122.35 8.39456 122.749 8.49192 123.155L8.76055 122.829C7.39747 122.739 5.94268 122.844 4.63432 123.605C3.99329 123.99 3.45249 124.598 3.16893 125.323C2.84913 126.048 2.88039 126.84 2.91735 127.603L2.99833 127.375C1.97638 128.439 1.04824 129.628 0.439901 131.067C0.147812 131.784 -0.0583019 132.579 0.0148983 133.408C0.0475883 133.824 0.182631 134.224 0.356749 134.609C0.580612 134.969 0.815147 135.32 1.09658 135.596C2.196 136.749 3.46667 137.705 4.78072 138.63C6.10258 139.545 7.49056 140.398 8.95527 141.157C9.7292 141.554 10.5152 141.924 11.3318 142.223C12.1519 142.505 12.9813 142.806 13.945 142.709C14.9676 142.493 15.5668 141.703 15.9299 140.902C16.1026 140.494 16.2134 140.069 16.2738 139.643C16.3044 139.43 16.3243 139.217 16.3321 139.002L16.3343 138.679L16.3258 138.509L16.3222 138.475L16.3208 138.466C16.1481 138.403 16.7109 138.622 15.9164 138.246C15.5831 138.697 15.8205 138.409 15.7473 138.497V138.521L15.7508 138.578L15.7579 138.661L15.797 139.09L16.1723 138.89C17.4394 138.216 18.661 137.516 19.6681 136.475C19.9076 136.205 20.1435 135.898 20.2665 135.517C20.3901 135.141 20.3852 134.744 20.3148 134.382C20.1599 133.652 19.8045 133.047 19.3547 132.502L19.3085 132.909C20.4477 132.035 21.5379 131.133 22.2486 129.865C22.584 129.201 22.6472 128.457 22.5733 127.779C22.5001 127.093 22.3232 126.455 22.0552 125.835L22.0375 125.793L22.0012 125.759C20.7682 124.571 19.5771 123.425 18.4578 122.347L18.1984 122.734C19.867 123.404 21.4626 124.023 23.1256 124.205C23.52 124.233 24.0409 124.221 24.3948 123.91C24.6961 123.668 25.0096 123.437 25.2896 123.152C25.5689 122.876 25.8254 122.51 25.8652 122.075C25.9022 121.642 25.7245 121.258 25.5283 120.948C24.6635 119.762 23.6664 118.936 22.8015 118.113C21.9202 117.312 21.1079 116.61 20.3802 115.999L20.42 116.062C19.946 114.439 19.5736 113.164 19.3056 112.245C19.1813 111.844 19.0818 111.522 19.0022 111.266C18.9325 111.044 18.8913 110.935 18.8813 110.94Z" fill="#EB996E"/>
</svg>
