<svg width="38" height="38" viewBox="0 0 38 38" fill="none" xmlns="http://www.w3.org/2000/svg">
<path d="M18.8125 0.187256C15.0917 0.187256 11.4545 1.29059 8.36084 3.35773C5.26714 5.42488 2.8559 8.36299 1.43202 11.8005C0.00815114 15.2381 -0.364399 19.0206 0.361485 22.6699C1.08737 26.3192 2.87909 29.6712 5.51006 32.3022C8.14104 34.9332 11.4931 36.7249 15.1424 37.4508C18.7916 38.1767 22.5742 37.8041 26.0117 36.3802C29.4493 34.9564 32.3874 32.5451 34.4545 29.4514C36.5217 26.3577 37.625 22.7205 37.625 18.9998C37.625 14.0104 35.643 9.22534 32.115 5.69731C28.5869 2.16928 23.8019 0.187256 18.8125 0.187256ZM16.125 26.5113L9.40626 19.7926L11.5428 17.656L16.125 22.2382L26.0822 12.281L28.2268 14.4122L16.125 26.5113Z" fill="#CA653B"/>
</svg>
