<svg width="43" height="43" viewBox="0 0 43 43" fill="none" xmlns="http://www.w3.org/2000/svg">
<path d="M21.5 2.68726C17.7792 2.68726 14.142 3.79059 11.0483 5.85773C7.95464 7.92488 5.5434 10.863 4.11952 14.3005C2.69565 17.7381 2.3231 21.5206 3.04899 25.1699C3.77487 28.8192 5.56659 32.1712 8.19756 34.8022C10.8285 37.4332 14.1806 39.2249 17.8299 39.9508C21.4791 40.6767 25.2617 40.3041 28.6992 38.8802C32.1368 37.4564 35.0749 35.0451 37.142 31.9514C39.2092 28.8577 40.3125 25.2205 40.3125 21.4998C40.3125 16.5104 38.3305 11.7253 34.8025 8.19731C31.2744 4.66928 26.4894 2.68726 21.5 2.68726ZM18.8125 29.0113L12.0938 22.2926L14.2303 20.156L18.8125 24.7382L28.7697 14.781L30.9143 16.9122L18.8125 29.0113Z" fill="#395A64"/>
</svg>
