<svg width="100" height="100" viewBox="0 0 100 100" fill="none" xmlns="http://www.w3.org/2000/svg">
<rect width="100" height="100" rx="50" fill="white"/>
<path d="M30.0735 43.5054H32.6889V38.6753H34.1984V43.5054H35.1639V46.0217H33.7421V44.8339H28.564V38.6753H30.0735V43.5054ZM37.0892 44.8339V43.611H40.1873V44.8339H37.0892ZM37.0892 39.8982V38.6753H40.1873V39.8982H37.0892ZM37.0892 42.1945V40.998H40.0118V42.1945H37.0892ZM36.1062 38.6753H37.528V44.8339H36.1062V38.6753ZM41.807 42.2561V40.9188H46.4585V42.2561H41.807ZM45.5194 38.6753H47.0026V44.8339H45.5194V38.6753ZM41.3945 38.6753H42.8777V44.8339H41.3945V38.6753ZM47.6795 40.0038V38.6753H52.5417V40.0038H50.8478V44.8339H49.3646V40.0038H47.6795ZM53.2135 38.6753H54.6967V44.8339H53.2135V38.6753ZM54.1438 39.8982V38.6753H55.3462C55.8669 38.6753 56.3028 38.7574 56.6539 38.9216C57.0106 39.08 57.2799 39.3088 57.4613 39.6079C57.6426 39.907 57.7334 40.2677 57.7334 40.69C57.7334 41.1006 57.6426 41.4584 57.4613 41.7634C57.2799 42.0625 57.0106 42.2942 56.6539 42.4585C56.3028 42.6168 55.8669 42.696 55.3462 42.696H54.1438V41.4731H55.3462C55.6446 41.4731 55.8785 41.4056 56.0483 41.2707C56.2179 41.1358 56.3028 40.9423 56.3028 40.69C56.3028 40.432 56.2179 40.2355 56.0483 40.1006C55.8785 39.9657 55.6446 39.8982 55.3462 39.8982H54.1438Z" fill="#133447"/>
<path d="M29.8278 51.8713C29.8278 52.2468 29.9126 52.5723 30.0823 52.8479C30.2519 53.1178 30.4743 53.323 30.7493 53.4638C31.0301 53.6045 31.3373 53.6749 31.6708 53.6749C31.9634 53.6749 32.2208 53.6369 32.4431 53.5605C32.6654 53.4842 32.8644 53.3846 33.0399 53.2614C33.2155 53.1382 33.3706 53.0063 33.5051 52.8655V54.4667C33.2594 54.6603 32.9901 54.8127 32.6977 54.9242C32.4052 55.0357 32.0336 55.0914 31.583 55.0914C31.0916 55.0914 30.6381 55.0151 30.2227 54.8626C29.8073 54.7102 29.4504 54.4903 29.152 54.2028C28.8536 53.9153 28.6225 53.5753 28.4586 53.1822C28.2948 52.7892 28.2129 52.3523 28.2129 51.8713C28.2129 51.3903 28.2948 50.9534 28.4586 50.5604C28.6225 50.1673 28.8536 49.8273 29.152 49.5398C29.4504 49.2523 29.8073 49.0324 30.2227 48.88C30.6381 48.7275 31.0916 48.6512 31.583 48.6512C32.0336 48.6512 32.4052 48.7069 32.6977 48.8184C32.9901 48.9299 33.2594 49.0823 33.5051 49.2759V50.8771C33.3706 50.7364 33.2155 50.6044 33.0399 50.4812C32.8644 50.3521 32.6654 50.2525 32.4431 50.1821C32.2208 50.1058 31.9634 50.0677 31.6708 50.0677C31.3373 50.0677 31.0301 50.1381 30.7493 50.2789C30.4743 50.4196 30.2519 50.6248 30.0823 50.8947C29.9126 51.1646 29.8278 51.4901 29.8278 51.8713ZM35.9377 51.8713C35.9377 52.2349 36.0079 52.5576 36.1483 52.8391C36.2947 53.1147 36.4965 53.3318 36.7539 53.4901C37.0172 53.6485 37.3244 53.7277 37.6754 53.7277C38.0206 53.7277 38.322 53.6485 38.5794 53.4901C38.8427 53.3318 39.0446 53.1147 39.185 52.8391C39.3313 52.5576 39.4044 52.2349 39.4044 51.8713C39.4044 51.5077 39.3342 51.1879 39.1938 50.9123C39.0533 50.6308 38.8543 50.4108 38.597 50.2525C38.3396 50.0941 38.0324 50.0149 37.6754 50.0149C37.3244 50.0149 37.0172 50.0941 36.7539 50.2525C36.4965 50.4108 36.2947 50.6308 36.1483 50.9123C36.0079 51.1879 35.9377 51.5077 35.9377 51.8713ZM34.3667 51.8713C34.3667 51.3962 34.4486 50.9622 34.6125 50.5692C34.7821 50.1761 35.0162 49.8361 35.3146 49.5486C35.613 49.2611 35.964 49.0412 36.3678 48.8888C36.7715 48.7304 37.2074 48.6512 37.6754 48.6512C38.1494 48.6512 38.5853 48.7304 38.9831 48.8888C39.3869 49.0412 39.7379 49.2611 40.0363 49.5486C40.3347 49.8361 40.5657 50.1761 40.7296 50.5692C40.8935 50.9622 40.9754 51.3962 40.9754 51.8713C40.9754 52.3464 40.8935 52.7834 40.7296 53.1822C40.5717 53.581 40.3435 53.9272 40.0451 54.2204C39.7526 54.5136 39.4044 54.7423 39.0007 54.9066C38.597 55.065 38.1553 55.1442 37.6754 55.1442C37.1899 55.1442 36.7451 55.065 36.3414 54.9066C35.9377 54.7423 35.5866 54.5136 35.2882 54.2204C34.9958 53.9272 34.7676 53.581 34.6037 53.1822C34.4457 52.7834 34.3667 52.3464 34.3667 51.8713ZM44.8636 51.1675L43.5822 54.6867H41.8708L44.8636 48.4841L47.8476 54.6867H46.1362L44.8636 51.1675ZM46.8822 54.9506H42.8362V55.9184H41.3618V53.6749H48.3566V55.9184H46.8822V54.9506ZM50.3824 54.9506V53.7277H53.4805V54.9506H50.3824ZM50.3824 50.0149V48.792H53.4805V50.0149H50.3824ZM50.3824 52.3112V51.1147H53.305V52.3112H50.3824ZM49.3995 48.792H50.8213V54.9506H49.3995V48.792ZM60.3134 50.3404L54.6877 55.2586L54.7316 53.4022L60.3573 48.4841L60.3134 50.3404ZM56.1095 48.792V53.7981L54.6877 55.2586V48.792H56.1095ZM60.3573 48.4841V54.9506H58.9267V49.9973L60.3573 48.4841ZM56.2936 46.8828H57.1627C57.1627 46.9825 57.1859 47.0735 57.2329 47.1556C57.2796 47.2319 57.347 47.2935 57.4348 47.3403C57.5225 47.3814 57.6219 47.4019 57.7332 47.4019C57.8501 47.4019 57.9495 47.3814 58.0315 47.3403C58.1193 47.2935 58.1865 47.2319 58.2334 47.1556C58.2801 47.0735 58.3036 46.9825 58.3036 46.8828H59.1725C59.1725 47.1175 59.1168 47.3344 59.0057 47.5339C58.8945 47.7274 58.7306 47.8829 58.5143 48.0002C58.3036 48.1117 58.0432 48.1673 57.7332 48.1673C57.4288 48.1673 57.1684 48.1117 56.952 48.0002C56.7355 47.8829 56.5716 47.7274 56.4606 47.5339C56.3493 47.3344 56.2936 47.1175 56.2936 46.8828ZM62.9194 51.8713C62.9194 52.2468 63.0043 52.5723 63.1739 52.8479C63.3437 53.1178 63.566 53.323 63.8409 53.4638C64.1218 53.6045 64.4289 53.6749 64.7624 53.6749C65.0551 53.6749 65.3125 53.6369 65.5348 53.5605C65.7572 53.4842 65.956 53.3846 66.1316 53.2614C66.3071 53.1382 66.4622 53.0063 66.5967 52.8655V54.4667C66.351 54.6603 66.082 54.8127 65.7893 54.9242C65.4968 55.0357 65.1253 55.0914 64.6747 55.0914C64.1832 55.0914 63.7299 55.0151 63.3143 54.8626C62.899 54.7102 62.542 54.4903 62.2436 54.2028C61.9452 53.9153 61.7141 53.5753 61.5503 53.1822C61.3866 52.7892 61.3045 52.3523 61.3045 51.8713C61.3045 51.3903 61.3866 50.9534 61.5503 50.5604C61.7141 50.1673 61.9452 49.8273 62.2436 49.5398C62.542 49.2523 62.899 49.0324 63.3143 48.88C63.7299 48.7275 64.1832 48.6512 64.6747 48.6512C65.1253 48.6512 65.4968 48.7069 65.7893 48.8184C66.082 48.9299 66.351 49.0823 66.5967 49.2759V50.8771C66.4622 50.7364 66.3071 50.6044 66.1316 50.4812C65.956 50.3521 65.7572 50.2525 65.5348 50.1821C65.3125 50.1058 65.0551 50.0677 64.7624 50.0677C64.4289 50.0677 64.1218 50.1381 63.8409 50.2789C63.566 50.4196 63.3437 50.6248 63.1739 50.8947C63.0043 51.1646 62.9194 51.4901 62.9194 51.8713ZM66.9293 50.1205V48.792H71.7915V50.1205H70.0976V54.9506H68.6144V50.1205H66.9293ZM73.5692 51.8889V51.2378H74.5609C74.7305 51.2378 74.874 51.2115 74.991 51.1587C75.1138 51.1059 75.2075 51.0326 75.2718 50.9387C75.3361 50.8391 75.3683 50.7188 75.3683 50.578C75.3683 50.3668 75.2981 50.2085 75.1577 50.1029C75.0173 49.9973 74.8183 49.9445 74.5609 49.9445H73.9466V53.7981H74.7013C74.8944 53.7981 75.0671 53.7745 75.2191 53.7277C75.3712 53.6749 75.4912 53.5929 75.579 53.4813C75.6727 53.3641 75.7194 53.2057 75.7194 53.0063C75.7194 52.8771 75.6931 52.7658 75.6404 52.6719C75.5877 52.578 75.5147 52.5019 75.421 52.4432C75.3273 52.3845 75.2191 52.3435 75.0963 52.32C74.9793 52.2908 74.8477 52.276 74.7013 52.276H73.5692V51.4666H74.8681C75.1665 51.4666 75.4561 51.4989 75.7369 51.5634C76.0178 51.6278 76.2723 51.7334 76.5005 51.8801C76.7287 52.0209 76.9101 52.2028 77.0446 52.4256C77.1851 52.6427 77.2553 52.9066 77.2553 53.2174C77.2553 53.6281 77.1559 53.9593 76.9569 54.2116C76.7638 54.4639 76.4889 54.6515 76.1319 54.7747C75.7749 54.8919 75.3536 54.9506 74.8681 54.9506H72.4633V48.792H74.7189C75.1461 48.792 75.5204 48.8507 75.8423 48.968C76.1698 49.0795 76.4274 49.2523 76.6146 49.487C76.8077 49.7158 76.9042 50.0061 76.9042 50.358C76.9042 50.6807 76.8077 50.9563 76.6146 51.1851C76.4274 51.4138 76.1698 51.5898 75.8423 51.7129C75.5204 51.8302 75.1461 51.8889 74.7189 51.8889H73.5692ZM83.9173 50.3404L78.2916 55.2586L78.3354 53.4022L83.9611 48.4841L83.9173 50.3404ZM79.7133 48.792V53.7981L78.2916 55.2586V48.792H79.7133ZM83.9611 48.4841V54.9506H82.5306V49.9973L83.9611 48.4841ZM88.1117 52.1616L86.3828 54.9506H84.6451L86.5671 52.1616H88.1117ZM89.6389 48.792V54.9506H88.1556V48.792H89.6389ZM88.7085 50.0501H87.5062C87.3131 50.0501 87.1435 50.0824 86.9971 50.1469C86.851 50.2113 86.7398 50.3053 86.6636 50.4284C86.5877 50.5457 86.5495 50.6895 86.5495 50.8595C86.5495 51.0296 86.5877 51.1763 86.6636 51.2994C86.7398 51.4167 86.851 51.5077 86.9971 51.5722C87.1435 51.6309 87.3131 51.6602 87.5062 51.6602H88.7085V52.8127H87.4009C86.8802 52.8127 86.4414 52.7276 86.0844 52.5576C85.7333 52.3875 85.4672 52.1528 85.2857 51.8537C85.1045 51.5486 85.0137 51.1998 85.0137 50.8067C85.0137 50.408 85.1045 50.0589 85.2857 49.7598C85.4672 49.4547 85.7333 49.2172 86.0844 49.0471C86.4414 48.8771 86.8802 48.792 87.4009 48.792H88.7085V50.0501Z" fill="#133447"/>
<path d="M31.4694 61.6068V59.5269H31.8871V61.9904H28.854V59.5269H29.2718V61.6068H30.167V59.5269H30.5742V61.6068H31.4694ZM32.4434 59.5269H32.8681V61.9904H32.4434V59.5269ZM33.7809 59.5269H34.2794L33.2438 60.6812L34.332 61.9904H33.823L32.7418 60.6918L33.7809 59.5269ZM34.7404 60.7586C34.7404 60.9275 34.7755 61.0789 34.8457 61.2126C34.9183 61.3439 35.0177 61.4473 35.1441 61.5223C35.2705 61.5973 35.4144 61.6349 35.5759 61.6349C35.7398 61.6349 35.8837 61.5973 36.0077 61.5223C36.1341 61.4473 36.2324 61.3439 36.3026 61.2126C36.3752 61.0789 36.4114 60.9275 36.4114 60.7586C36.4114 60.5897 36.3763 60.4395 36.3061 60.3082C36.2359 60.1744 36.1376 60.07 36.0112 59.995C35.8872 59.92 35.742 59.8823 35.5759 59.8823C35.4144 59.8823 35.2705 59.92 35.1441 59.995C35.0177 60.07 34.9183 60.1744 34.8457 60.3082C34.7755 60.4395 34.7404 60.5897 34.7404 60.7586ZM34.3016 60.7586C34.3016 60.5732 34.3331 60.4032 34.3963 60.2483C34.4595 60.0935 34.5484 59.9598 34.6631 59.8471C34.7801 59.7321 34.9159 59.643 35.0704 59.5797C35.2272 59.5163 35.3958 59.4847 35.5759 59.4847C35.7609 59.4847 35.9305 59.5163 36.0849 59.5797C36.2394 59.643 36.3739 59.7321 36.4886 59.8471C36.6056 59.9598 36.6958 60.0935 36.759 60.2483C36.8221 60.4032 36.8537 60.5732 36.8537 60.7586C36.8537 60.9416 36.8221 61.1116 36.759 61.2689C36.6958 61.4262 36.6069 61.5621 36.4922 61.6771C36.3774 61.7922 36.2418 61.8824 36.0849 61.9481C35.9305 62.0115 35.7609 62.0431 35.5759 62.0431C35.3933 62.0431 35.2237 62.0115 35.0669 61.9481C34.91 61.8824 34.7744 61.7922 34.6596 61.6771C34.5473 61.5621 34.4595 61.4262 34.3963 61.2689C34.3331 61.1116 34.3016 60.9416 34.3016 60.7586ZM39.1699 59.5269V61.9904H38.7486V59.9105H37.7691V61.0683C37.7691 61.2489 37.7421 61.4097 37.6884 61.5505C37.6346 61.6888 37.5515 61.7968 37.4391 61.8742C37.3292 61.9516 37.1888 61.9904 37.0179 61.9904V61.6349C37.074 61.6349 37.1232 61.6208 37.1653 61.5927C37.2074 61.5621 37.2425 61.5212 37.2706 61.4695C37.3011 61.4156 37.3233 61.3523 37.3373 61.2795C37.3538 61.2067 37.3619 61.127 37.3619 61.0402V59.5269H39.1699ZM40.0198 61.3569L40.0971 61.005H41.238L41.3188 61.3569H40.0198ZM40.6623 60.2237L40.2761 61.1281L40.2691 61.2196L39.9286 61.9904H39.4617L40.6623 59.3896L41.8629 61.9904H41.396L41.0625 61.2408L41.052 61.1387L40.6623 60.2237ZM43.4997 60.7586C43.4997 60.9275 43.5348 61.0789 43.605 61.2126C43.6777 61.3439 43.777 61.4473 43.9034 61.5223C44.0298 61.5973 44.1737 61.6349 44.3352 61.6349C44.4991 61.6349 44.6431 61.5973 44.767 61.5223C44.8934 61.4473 44.9917 61.3439 45.0619 61.2126C45.1345 61.0789 45.1707 60.9275 45.1707 60.7586C45.1707 60.5897 45.1356 60.4395 45.0654 60.3082C44.9952 60.1744 44.8969 60.07 44.7705 59.995C44.6466 59.92 44.5013 59.8823 44.3352 59.8823C44.1737 59.8823 44.0298 59.92 43.9034 59.995C43.777 60.07 43.6777 60.1744 43.605 60.3082C43.5348 60.4395 43.4997 60.5897 43.4997 60.7586ZM43.0609 60.7586C43.0609 60.5732 43.0925 60.4032 43.1557 60.2483C43.2189 60.0935 43.3077 59.9598 43.4225 59.8471C43.5394 59.7321 43.6752 59.643 43.8297 59.5797C43.9866 59.5163 44.1551 59.4847 44.3352 59.4847C44.5202 59.4847 44.6898 59.5163 44.8443 59.5797C44.9987 59.643 45.1332 59.7321 45.248 59.8471C45.3649 59.9598 45.4551 60.0935 45.5183 60.2483C45.5815 60.4032 45.6131 60.5732 45.6131 60.7586C45.6131 60.9416 45.5815 61.1116 45.5183 61.2689C45.4551 61.4262 45.3662 61.5621 45.2515 61.6771C45.1367 61.7922 45.0011 61.8824 44.8443 61.9481C44.6898 62.0115 44.5202 62.0431 44.3352 62.0431C44.1527 62.0431 43.9831 62.0115 43.8262 61.9481C43.6693 61.8824 43.5337 61.7922 43.419 61.6771C43.3066 61.5621 43.2189 61.4262 43.1557 61.2689C43.0925 61.1116 43.0609 60.9416 43.0609 60.7586ZM47.1841 59.5269H47.6896L46.9453 60.7094L47.7423 61.9904H47.2367L46.7101 61.0437L46.166 61.9904H45.664L46.4784 60.7094L45.7518 59.5269H46.2538L46.7137 60.361L47.1841 59.5269ZM48.042 59.5269H48.4562V61.9904H48.042V59.5269ZM48.2877 59.8929V59.5269H48.7827C48.9606 59.5269 49.1151 59.5586 49.2461 59.6219C49.3795 59.6828 49.4826 59.7708 49.555 59.8859C49.6277 59.9985 49.6639 60.1333 49.6639 60.2906C49.6639 60.4478 49.6277 60.5838 49.555 60.6988C49.4826 60.8138 49.3795 60.9029 49.2461 60.9663C49.1151 61.0272 48.9606 61.0578 48.7827 61.0578H48.2877V60.6918H48.7827C48.9255 60.6918 49.0403 60.6577 49.1267 60.5897C49.2134 60.5217 49.2566 60.4219 49.2566 60.2906C49.2566 60.1593 49.2134 60.0607 49.1267 59.995C49.0403 59.927 48.9255 59.8929 48.7827 59.8929H48.2877ZM50.1196 61.3569L50.1968 61.005H51.3377L51.4185 61.3569H50.1196ZM50.762 60.2237L50.3758 61.1281L50.3688 61.2196L50.0283 61.9904H49.5614L50.762 59.3896L51.9626 61.9904H51.4957L51.1622 61.2408L51.1517 61.1387L50.762 60.2237ZM52.4135 60.8607V60.4771H54.1653V60.8607H52.4135ZM53.8985 59.5269H54.3127V61.9904H53.8985V59.5269ZM52.2485 59.5269H52.6628V61.9904H52.2485V59.5269ZM56.7811 59.5269H57.2026V61.9904H56.7811V59.5269ZM54.8611 59.5269H55.2753V61.9904H54.8611V59.5269ZM55.1068 60.8255V60.4595H55.6018C55.7795 60.4595 55.934 60.4912 56.0652 60.5545C56.1986 60.6154 56.3015 60.7034 56.3741 60.8185C56.4465 60.9311 56.4829 61.0672 56.4829 61.2267C56.4829 61.3815 56.4465 61.5164 56.3741 61.6314C56.3015 61.7464 56.1986 61.8355 56.0652 61.8989C55.934 61.9598 55.7795 61.9904 55.6018 61.9904H55.1068V61.6244H55.6018C55.6953 61.6244 55.7773 61.6103 55.8475 61.5821C55.9199 61.5515 55.9761 61.5071 56.016 61.4484C56.0557 61.3875 56.0757 61.3136 56.0757 61.2267C56.0757 61.1376 56.0557 61.0637 56.016 61.005C55.9761 60.944 55.9199 60.8994 55.8475 60.8712C55.7773 60.8407 55.6953 60.8255 55.6018 60.8255H55.1068Z" fill="#133447" fill-opacity="0.6"/>
<path d="M34.9354 23.4459C34.9354 23.056 34.4632 22.8562 34.1765 23.1195C28.2657 28.5476 20.9037 30.9378 10.8023 31.0051C10.56 31.0067 10.3613 31.2034 10.3613 31.4464V38.7103C10.3613 38.9532 10.5588 39.1503 10.8011 39.1488C20.0143 39.0938 27.9452 37.2978 34.736 32.913C34.8606 32.8326 34.9354 32.6938 34.9354 32.5453V23.4459Z" fill="#3B80A7"/>
<path d="M34.9349 68.7967C34.9349 68.6194 34.8272 68.459 34.6648 68.3889C27.8868 65.4545 24.4543 60.7506 22.6138 56.1963C20.4228 50.7748 20.4296 45.4121 20.4329 42.8389C20.433 42.7435 20.4331 42.652 20.4331 42.5644V40.5068C20.4331 40.2638 20.2367 40.0669 19.9943 40.0669H12.8149C12.5725 40.0669 12.3761 40.2638 12.3761 40.5068V42.5644C12.3761 42.6726 12.3757 42.7904 12.3754 42.9175C12.3679 45.5905 12.349 52.3324 15.155 59.2759C17.9844 66.2774 23.628 73.3437 34.3607 76.9769C34.6426 77.0723 34.9349 76.8614 34.9349 76.5634V68.7967Z" fill="#3B80A7"/>
</svg>
