<svg width="100" height="100" viewBox="0 0 100 100" fill="none" xmlns="http://www.w3.org/2000/svg">
<rect width="100" height="100" rx="50" fill="white"/>
<path d="M78.1844 33.4612C81.5177 33.4612 84.2199 30.7523 84.2199 27.4108C84.2199 24.0692 81.5177 21.3604 78.1844 21.3604C74.8511 21.3604 72.1489 24.0692 72.1489 27.4108C72.1489 30.7523 74.8511 33.4612 78.1844 33.4612Z" fill="#375A64"/>
<path d="M59.2415 23.7795C62.5748 23.7795 65.277 21.0707 65.277 17.7291C65.277 14.3876 62.5748 11.6787 59.2415 11.6787C55.9082 11.6787 53.2061 14.3876 53.2061 17.7291C53.2061 21.0707 55.9082 23.7795 59.2415 23.7795Z" fill="#393A5A"/>
<path d="M38.9124 27.4104C42.2457 27.4104 44.9479 24.7015 44.9479 21.36C44.9479 18.0184 42.2457 15.3096 38.9124 15.3096C35.5791 15.3096 32.877 18.0184 32.877 21.36C32.877 24.7015 35.5791 27.4104 38.9124 27.4104Z" fill="#016380"/>
<path d="M24.2274 41.1873C27.5607 41.1873 30.2628 38.4784 30.2628 35.1368C30.2628 31.7953 27.5607 29.0864 24.2274 29.0864C20.8941 29.0864 18.1919 31.7953 18.1919 35.1368C18.1919 38.4784 20.8941 41.1873 24.2274 41.1873Z" fill="#03728E"/>
<path d="M21.0355 61.8645C24.3688 61.8645 27.0709 59.1556 27.0709 55.8141C27.0709 52.4725 24.3688 49.7637 21.0355 49.7637C17.7022 49.7637 15 52.4725 15 55.8141C15 59.1556 17.7022 61.8645 21.0355 61.8645Z" fill="#469497"/>
<path d="M32.0726 80.7307C35.4059 80.7307 38.108 78.0219 38.108 74.6803C38.108 71.3387 35.4059 68.6299 32.0726 68.6299C28.7393 68.6299 26.0371 71.3387 26.0371 74.6803C26.0371 78.0219 28.7393 80.7307 32.0726 80.7307Z" fill="#4F7854"/>
<path d="M53.2059 88.3201C56.5392 88.3201 59.2413 85.6112 59.2413 82.2697C59.2413 78.9281 56.5392 76.2192 53.2059 76.2192C49.8726 76.2192 47.1704 78.9281 47.1704 82.2697C47.1704 85.6112 49.8726 88.3201 53.2059 88.3201Z" fill="#C9B080"/>
<path d="M45.4666 42.8277C45.4666 44.7726 44.897 46.3782 43.7578 47.6447C42.5734 48.9676 41.0225 49.6291 39.105 49.6291C37.3341 49.6291 35.8339 49.0072 34.6045 47.7634C33.375 46.5083 32.7603 44.9931 32.7603 43.2178C32.7603 41.4312 33.3863 39.9386 34.6383 38.74C35.8903 37.5414 37.4074 36.9421 39.1896 36.9421C40.4754 36.9421 41.6316 37.2757 42.658 37.9429C43.7409 38.6326 44.491 39.5711 44.9083 40.7584H42.0659C41.3552 39.7181 40.3683 39.198 39.105 39.198C38.0221 39.198 37.1029 39.5937 36.3471 40.3853C35.6027 41.1655 35.2305 42.104 35.2305 43.2008C35.2305 44.3429 35.5914 45.3266 36.3133 46.1521C37.0465 46.9775 37.977 47.3902 39.105 47.3902C40.7856 47.3902 41.97 46.5704 42.658 44.9309H38.0729V42.8277H45.4666Z" fill="#393A5A"/>
<path d="M49.1458 49.3917H46.9294V36.3315H49.1458V49.3917Z" fill="#393A5A"/>
<path d="M52.787 44.9987C52.787 45.7563 53.0069 46.3839 53.4468 46.8814C53.898 47.3676 54.5015 47.6107 55.2572 47.6107C56.0129 47.6107 56.6107 47.3676 57.0506 46.8814C57.5018 46.3839 57.7274 45.7563 57.7274 44.9987C57.7274 44.2185 57.5075 43.5853 57.0676 43.0991C56.6277 42.6015 56.0242 42.3528 55.2572 42.3528C54.5015 42.3528 53.898 42.6015 53.4468 43.0991C53.0069 43.5966 52.787 44.2298 52.787 44.9987ZM59.9777 44.9478C59.9777 46.3273 59.5321 47.4524 58.6411 48.3231C57.7613 49.1938 56.6333 49.6291 55.2572 49.6291C53.8811 49.6291 52.7475 49.1938 51.8564 48.3231C50.9766 47.4411 50.5367 46.316 50.5367 44.9478C50.5367 43.6135 50.9879 42.5111 51.8903 41.6404C52.8039 40.7697 53.9262 40.3344 55.2572 40.3344C56.5995 40.3344 57.7218 40.7697 58.6241 41.6404C59.5265 42.5111 59.9777 43.6135 59.9777 44.9478Z" fill="#393A5A"/>
<path d="M70.642 44.9817C70.642 46.316 70.2303 47.4242 69.4069 48.3061C68.5835 49.1881 67.5119 49.6291 66.1922 49.6291C65.053 49.6291 64.1506 49.1994 63.4851 48.3401V49.3917H61.3533V36.3315H63.5528V41.4877C64.3085 40.7301 65.2222 40.3513 66.2937 40.3513C67.5909 40.3513 68.6399 40.798 69.4407 41.6913C70.2416 42.5733 70.642 43.6701 70.642 44.9817ZM65.9553 47.6616C66.6772 47.6616 67.2807 47.4015 67.7657 46.8814C68.262 46.35 68.5102 45.7167 68.5102 44.9817C68.5102 44.2581 68.2676 43.6362 67.7826 43.116C67.3089 42.5959 66.7111 42.3358 65.9892 42.3358C65.2786 42.3358 64.6808 42.6015 64.1957 43.133C63.722 43.6531 63.4851 44.275 63.4851 44.9987C63.4851 45.6998 63.722 46.3217 64.1957 46.8644C64.6808 47.3959 65.2673 47.6616 65.9553 47.6616Z" fill="#393A5A"/>
<path d="M80.9426 49.3917H78.777V48.357C78.1115 49.2051 77.1978 49.6291 76.0361 49.6291C74.7502 49.6291 73.6956 49.1825 72.8722 48.2892C72.06 47.3959 71.654 46.2934 71.654 44.9817C71.654 43.6814 72.06 42.5846 72.8722 41.6913C73.6843 40.798 74.7333 40.3513 76.0191 40.3513C77.2035 40.3513 78.1115 40.7528 78.7431 41.5556V40.6058H80.9426V49.3917ZM78.8108 45.0326C78.8108 44.2863 78.5683 43.6531 78.0833 43.133C77.5983 42.6015 76.9892 42.3358 76.256 42.3358C75.5341 42.3358 74.9419 42.5959 74.4795 43.116C74.017 43.6362 73.7858 44.2581 73.7858 44.9817C73.7858 45.6941 74.0227 46.3217 74.4964 46.8644C74.9814 47.3959 75.5792 47.6616 76.2898 47.6616C76.9779 47.6616 77.5701 47.3959 78.0664 46.8644C78.5627 46.333 78.8108 45.7224 78.8108 45.0326Z" fill="#393A5A"/>
<path d="M85.0001 49.3917H82.7837V36.3315H85.0001V49.3917Z" fill="#393A5A"/>
<path d="M33.7285 61.3137H36.3126C36.3126 61.8414 36.4501 62.2911 36.7253 62.6629C37.0244 63.0826 37.4311 63.2925 37.9455 63.2925C38.4599 63.2925 38.8727 63.1306 39.1837 62.8068C39.4947 62.471 39.6503 62.0452 39.6503 61.5296C39.6503 60.9539 39.3153 60.4502 38.6454 60.0185C38.3343 59.8026 37.7481 59.5208 36.8868 59.173C35.0086 58.4054 34.0695 57.2541 34.0695 55.7191C34.0695 54.5798 34.4702 53.6803 35.2718 53.0207C36.0254 52.4211 36.9825 52.1212 38.1429 52.1212C39.3153 52.1212 40.2484 52.451 40.9423 53.1106C41.6361 53.7702 41.9831 54.6877 41.9831 55.863H39.4888C39.405 54.8676 38.9265 54.3699 38.0532 54.3699C37.0842 54.3699 36.5997 54.8076 36.5997 55.6831C36.5997 55.9829 36.7313 56.2887 36.9944 56.6005C37.2576 56.9123 37.6584 57.1882 38.1967 57.428C39.2256 57.8838 39.9493 58.2435 40.368 58.5074C41.2055 59.0231 41.7558 59.5867 42.019 60.1984C42.1745 60.5581 42.2522 60.9899 42.2522 61.4936C42.2522 62.7648 41.8575 63.7662 41.0679 64.4978C40.2903 65.2173 39.2615 65.5771 37.9814 65.5771C36.6894 65.5771 35.6546 65.1933 34.877 64.4258C34.1113 63.6463 33.7285 62.6089 33.7285 61.3137Z" fill="#393A5A"/>
<path d="M47.623 57.8418H46.2951V65.3253H43.9623V57.8418H42.9574V56.0069H43.9623V52.9487H46.2951V56.0069H47.623V57.8418Z" fill="#393A5A"/>
<path d="M58.2316 65.3253H55.9346V64.2279C55.2288 65.1274 54.2598 65.5771 53.0276 65.5771C51.6638 65.5771 50.5453 65.1034 49.6719 64.156C48.8106 63.2085 48.3799 62.0393 48.3799 60.6481C48.3799 59.2689 48.8106 58.1056 49.6719 57.1582C50.5333 56.2108 51.6459 55.7371 53.0097 55.7371C54.2658 55.7371 55.2288 56.1628 55.8988 57.0143V56.0069H58.2316V65.3253ZM55.9705 60.7021C55.9705 59.9105 55.7133 59.2389 55.1989 58.6873C54.6845 58.1236 54.0385 57.8418 53.2609 57.8418C52.4952 57.8418 51.8672 58.1176 51.3767 58.6693C50.8862 59.221 50.641 59.8806 50.641 60.6481C50.641 61.4036 50.8922 62.0692 51.3946 62.6449C51.9091 63.2085 52.5431 63.4904 53.2968 63.4904C54.0265 63.4904 54.6546 63.2085 55.181 62.6449C55.7073 62.0812 55.9705 61.4336 55.9705 60.7021Z" fill="#393A5A"/>
<path d="M64.0064 57.8418H62.7503V65.3253H60.4174V57.8418H59.4125V56.0069H60.3995V54.3519C60.3995 52.4331 61.4822 51.4736 63.6475 51.4736H64.0064V53.2905C63.145 53.3145 62.7144 53.6983 62.7144 54.4418V56.0069H64.0064V57.8418Z" fill="#393A5A"/>
<path d="M68.808 57.8418H67.5519V65.3253H65.2191V57.8418H64.2141V56.0069H65.2011V54.3519C65.2011 52.4331 66.2838 51.4736 68.4491 51.4736H68.808V53.2905C67.9466 53.3145 67.516 53.6983 67.516 54.4418V56.0069H68.808V57.8418Z" fill="#393A5A"/>
</svg>
