<svg width="100" height="100" viewBox="0 0 100 100" fill="none" xmlns="http://www.w3.org/2000/svg">
<rect width="100" height="100" rx="50" fill="white"/>
<g clip-path="url(#clip0_1205_9369)">
<path d="M55.2652 39.4079H53.6516V37.8616H49.4185V28.8848H51.7567V36.0662H52.4489V28.8848H54.7871V36.0662H55.2627V39.4079H55.2652Z" fill="#676766"/>
<path d="M55.8857 28.8892H59.7753V30.6845H58.219V32.3853H59.6757V34.091H58.219V36.0631H59.9321V37.8585H55.8857V28.8892Z" fill="#676766"/>
<path d="M65.9657 28.8892V37.861H63.6325V34.0935H62.9353V37.861H60.6021V28.8892H62.9353V32.0964H63.6325V28.8892H65.9657Z" fill="#676766"/>
<path d="M71.6002 28.8892V30.6845H70.2157V37.861H67.8824V30.6845H66.5029V28.8892H71.6002Z" fill="#676766"/>
<path d="M72.1304 28.8892H74.481C75.116 28.8892 75.6041 28.939 75.9477 29.0386C76.2888 29.1382 76.5453 29.2826 76.7171 29.4718C76.8889 29.6611 77.006 29.8877 77.0657 30.1566C77.1255 30.4255 77.1579 30.8389 77.1579 31.4017V32.1836C77.1579 32.7563 77.0981 33.1746 76.9811 33.4361C76.8616 33.6975 76.6449 33.8992 76.3312 34.0412C76.0149 34.1806 75.6016 34.2528 75.0936 34.2528H74.4686V37.866H72.1354V28.8892H72.1304ZM74.4636 30.4231V32.7065C74.5308 32.709 74.5881 32.7115 74.6354 32.7115C74.8496 32.7115 74.999 32.6592 75.0811 32.5546C75.1633 32.45 75.2056 32.2309 75.2056 31.8972V31.1601C75.2056 30.8538 75.1583 30.6546 75.0612 30.5625C74.9641 30.4704 74.7649 30.4231 74.4636 30.4231Z" fill="#676766"/>
<path d="M54.3512 50.0161C54.3512 50.9175 54.3288 51.555 54.2865 51.931C54.2441 52.307 54.1097 52.6481 53.8881 52.9594C53.6639 53.2707 53.3626 53.5072 52.9817 53.6741C52.6007 53.8409 52.1574 53.9231 51.652 53.9231C51.1465 53.9231 50.7406 53.8434 50.3571 53.6865C49.9736 53.5296 49.6673 53.2931 49.4333 52.9793C49.2017 52.6656 49.0623 52.3244 49.0174 51.9534C48.9726 51.5849 48.9502 50.9374 48.9502 50.0136V48.4797C48.9502 47.5783 48.9726 46.9408 49.0149 46.5648C49.0573 46.1888 49.1892 45.8477 49.4134 45.5364C49.6375 45.2252 49.9388 44.9886 50.3197 44.8218C50.7007 44.6549 51.144 44.5728 51.6495 44.5728C52.13 44.5728 52.5608 44.6524 52.9443 44.8093C53.3278 44.9662 53.6341 45.2027 53.8681 45.5165C54.0997 45.8303 54.2392 46.1714 54.284 46.5424C54.3288 46.911 54.3512 47.5584 54.3512 48.4822V50.0161ZM52.018 47.0678C52.018 46.6495 51.9956 46.3831 51.9483 46.266C51.901 46.149 51.8063 46.0917 51.6619 46.0917C51.5399 46.0917 51.4478 46.139 51.383 46.2336C51.3183 46.3283 51.2859 46.6047 51.2859 47.0678V51.2562C51.2859 51.7766 51.3083 52.0978 51.3506 52.2198C51.393 52.3419 51.4926 52.4016 51.647 52.4016C51.8014 52.4016 51.9084 52.3319 51.9508 52.19C51.9956 52.0505 52.018 51.7143 52.018 51.1864V47.0628V47.0678Z" fill="#676766"/>
<path d="M59.9506 44.7622L59.1314 48.7289L60.3665 53.7315H58.2051C57.9461 52.8376 57.7096 51.7469 57.4954 50.462C57.4356 51.0323 57.3535 51.6324 57.2489 52.2698L57.0298 53.7315H54.7588L55.6079 48.7289L54.7588 44.7622H57.0148C57.0547 45.0087 57.1368 45.4221 57.2588 45.9973C57.356 46.4356 57.4356 46.8414 57.4979 47.2125L57.9959 44.7622H59.9531H59.9506Z" fill="#676766"/>
<path d="M60.6958 44.7622H63.0465C63.6814 44.7622 64.1695 44.812 64.5131 44.9116C64.8543 45.0112 65.1107 45.1556 65.2826 45.3449C65.4544 45.5341 65.5714 45.7607 65.6312 46.0297C65.6909 46.2986 65.7233 46.712 65.7233 47.2747V48.0566C65.7233 48.6293 65.6635 49.0477 65.5465 49.3091C65.427 49.5706 65.2103 49.7723 64.8966 49.9142C64.5804 50.0537 64.167 50.1259 63.659 50.1259H63.034V53.739H60.7008V44.7672L60.6958 44.7622ZM63.029 46.2961V48.5795C63.0963 48.582 63.1535 48.5845 63.2008 48.5845C63.415 48.5845 63.5644 48.5322 63.6466 48.4276C63.7287 48.323 63.7711 48.1039 63.7711 47.7702V47.0332C63.7711 46.7269 63.7238 46.5277 63.6266 46.4356C63.5295 46.3434 63.3303 46.2961 63.029 46.2961Z" fill="#676766"/>
<path d="M70.4241 44.7622L71.7588 53.734H69.3758L69.2513 52.1204H68.4171L68.2777 53.734H65.8647L67.055 44.7622H70.4266H70.4241ZM69.1865 50.5318C69.0695 49.5158 68.95 48.2608 68.8305 46.7642C68.5939 48.4824 68.4445 49.7374 68.3822 50.5318H69.1865Z" fill="#676766"/>
<path d="M77.5189 44.7622V53.734H75.1857V49.9665H74.4885V53.734H72.1553V44.7622H74.4885V47.9695H75.1857V44.7622H77.5189Z" fill="#676766"/>
<path d="M83.891 51.633C83.891 52.3029 83.8038 52.781 83.6295 53.0748C83.4552 53.3661 83.1938 53.5504 82.8402 53.6226C82.4866 53.6973 81.9238 53.7347 81.1519 53.7347H78.4526V44.7579H80.7908V47.8331H81.1519C81.8715 47.8331 82.4169 47.8755 82.7854 47.9601C83.1539 48.0448 83.4303 48.2315 83.6146 48.5229C83.7964 48.8117 83.8885 49.2674 83.8885 49.8899V51.6355L83.891 51.633ZM81.5528 51.3616V50.0643C81.5528 49.6883 81.5155 49.4592 81.4383 49.377C81.3636 49.2948 81.1469 49.25 80.7933 49.2375V52.1858C81.0896 52.1858 81.2889 52.1485 81.3934 52.0713C81.498 51.9966 81.5503 51.7575 81.5503 51.3591L81.5528 51.3616ZM87.0211 53.7322H84.6829V44.7554H87.0211V53.7322Z" fill="#676766"/>
<path d="M54.0973 61.5215V63.3094H52.7178V70.4584H50.3946V63.3094H49.02V61.5215H54.0998H54.0973Z" fill="#676766"/>
<path d="M54.6285 61.5215H56.9692C57.6016 61.5215 58.0897 61.5713 58.4284 61.6709C58.7695 61.7705 59.0235 61.9149 59.1953 62.1017C59.3671 62.2884 59.4817 62.5175 59.5439 62.784C59.6037 63.0504 59.6361 63.4638 59.6361 64.024V64.8034C59.6361 65.3737 59.5763 65.7895 59.4593 66.051C59.3422 66.3124 59.1256 66.5141 58.8093 66.6536C58.4956 66.793 58.0822 66.8627 57.5743 66.8627H56.9492V70.4634H54.626V61.5265L54.6285 61.5215ZM56.9517 63.0504V65.3239C57.019 65.3264 57.0762 65.3288 57.1235 65.3288C57.3377 65.3288 57.4846 65.2765 57.5668 65.172C57.649 65.0674 57.6913 64.8483 57.6913 64.5171V63.7825C57.6913 63.4762 57.644 63.2795 57.5469 63.1874C57.4522 63.0952 57.253 63.0504 56.9517 63.0504Z" fill="#676766"/>
<path d="M64.9065 61.5171L64.274 67.441C64.1744 68.3748 64.0673 69.0322 63.9527 69.4082C63.8382 69.7867 63.6166 70.0556 63.2904 70.2175C62.9617 70.3793 62.4238 70.4615 61.6718 70.4615H60.3147V69.3086H60.4542C60.7604 69.3086 60.9497 69.2837 61.0219 69.2339C61.0941 69.1841 61.129 69.1069 61.129 69.0048C61.129 68.9973 61.0842 68.7458 60.997 68.2478L59.7769 61.5171H61.7963L62.5359 67.0874L62.8945 61.5171H64.9114H64.9065Z" fill="#676766"/>
<path d="M72.019 72H70.4128V70.4586H66.6578V72H65.0566V68.5935H65.5323C65.7813 67.8614 65.9879 66.8977 66.1473 65.7025C66.3067 64.5073 66.3864 63.2024 66.3864 61.7856V61.5142H71.5433V68.5811H72.019V71.9975V72ZM69.2151 68.5835V63.2846H68.5253V63.3519C68.5253 65.0625 68.3411 66.8081 67.9725 68.586H69.2151V68.5835Z" fill="#676766"/>
<path d="M76.7593 61.5215L78.089 70.4584H75.7134L75.5889 68.8523H74.7572L74.6178 70.4584H72.2148L73.4001 61.5215H76.7593ZM75.5267 67.2686C75.4096 66.2552 75.2901 65.0051 75.1731 63.5136C74.9365 65.2243 74.7871 66.4768 74.7274 67.2686H75.5267Z" fill="#676766"/>
<path fill-rule="evenodd" clip-rule="evenodd" d="M44.0425 70.8869C35.5189 70.8869 28.1433 67.7718 22.1869 61.8155C16.0464 55.6749 12.9761 48.3441 12.9761 39.7757V28H25.439V40.1417C25.439 44.9078 27.1348 49.0314 30.5711 52.4204C31.3953 53.2919 32.2669 53.9792 33.2753 54.6664C36.0244 56.544 39.279 57.3707 42.668 57.3707H44.0425V70.8869Z" fill="#016380"/>
<path fill-rule="evenodd" clip-rule="evenodd" d="M26.6313 28V40.1417C26.6313 44.5865 28.1428 48.3441 31.3974 51.5961C31.9004 52.0991 32.5877 52.7864 33.2749 53.1076C36.024 55.1694 39.0943 56.1779 42.6676 56.1779H44.0421V42.709H41.6591C40.2845 42.709 38.91 42.206 37.9015 41.1502C36.8482 40.1417 36.3427 38.9514 36.3427 37.3926V28H26.6313Z" fill="#4B6951"/>
<path fill-rule="evenodd" clip-rule="evenodd" d="M37.5356 28V37.3926C37.5356 38.5829 38.0386 39.6387 38.7259 40.326C39.5974 41.1502 40.6034 41.5162 41.6592 41.5162H44.0423V28H37.5356Z" fill="#F9BD6E"/>
</g>
<defs>
<clipPath id="clip0_1205_9369">
<path d="M12.9761 28H87.0241V72H32.9761C21.9304 72 12.9761 63.0457 12.9761 52V28Z" fill="white"/>
</clipPath>
</defs>
</svg>
