<svg width="100" height="100" viewBox="0 0 100 100" fill="none" xmlns="http://www.w3.org/2000/svg">
<rect width="100" height="100" rx="50" fill="white"/>
<path d="M47.1656 76.6653C46.0031 75.6014 45.4629 75.1337 44.1043 74.4592C41.3473 73.0918 38.7913 71.0848 36.5939 68.9482C32.0231 64.504 28.7956 58.7814 27.3306 52.5785C23.0604 34.4945 34.2583 16.3728 52.3423 12.1026C52.379 12.0939 52.4147 12.0862 52.4515 12.0784C48.7881 11.8417 45.0281 12.1364 41.269 13.0235C20.8484 17.8455 8.20293 38.3096 13.0249 58.7302C17.847 79.1517 38.3111 91.7972 58.7317 86.9742C59.2458 86.8534 59.7531 86.7191 60.2566 86.579C56.5854 84.6666 48.733 78.1004 47.1656 76.6653Z" fill="#207592"/>
<path d="M86.9755 41.268C84.4128 30.4141 77.431 21.7577 68.3861 16.7521C73.3444 15.576 76.8116 15.664 76.8116 15.664C70.3091 14.028 58.6087 14.229 53.0262 18.8703C53.0262 18.8703 56.6074 18.5572 57.1418 18.8886C51.339 21.1702 41.4408 27.8495 42.6806 41.7009C43.0314 45.6252 44.0441 49.8143 42.1723 53.2805C43.5918 52.3132 44.5736 50.7284 44.8065 49.0267C46.6116 53.1365 45.2907 57.8909 43.7793 62.1176C44.7447 61.3378 45.7091 60.558 46.6744 59.7791C44.8229 65.2998 48.1433 72.2506 52.1207 75.0414C38.2683 66.9754 36.0699 48.8663 35.8524 44.1699C35.2784 31.7419 41.721 23.5783 46.9073 20.1623C38.6007 24.4625 33.7864 33.9789 33.5458 43.3292C33.3052 52.6794 36.8178 62.4452 42.4892 69.4183C46.7044 74.6007 54.2824 77.8853 54.5849 78.0216L60.4766 86.5176C79.8662 80.9718 91.6584 61.1001 86.9755 41.268Z" fill="#207592"/>
<path d="M51.7085 43.1158C51.5693 43.7227 51.3625 44.0464 50.6281 44.0116V43.6067C50.975 43.6241 51.1306 43.514 51.206 43.2086L51.2987 42.9419L50.3672 39.9588H50.8185L51.2292 41.3648L51.5065 42.3814L51.7433 41.3648L52.1076 39.9588H52.5753L51.7085 43.1158Z" fill="#EEEDED"/>
<path d="M54.2475 42.2133C54.1026 42.422 53.86 42.5312 53.6175 42.5312C53.0744 42.5312 52.8145 42.1147 52.8145 41.5717V39.9588H53.2648V41.5378C53.2648 41.878 53.4435 42.1205 53.7624 42.1205C54.034 42.1205 54.2011 41.9534 54.2475 41.647V39.9588H54.692V44.0049H54.2475V42.2133Z" fill="#EEEDED"/>
<path d="M56.538 41.7504V42.1553H55.5504V43.5942H56.7632V44.0049H55.0991V39.9588H56.7632V40.3686H55.5504V41.7504H56.538Z" fill="#EEEDED"/>
<path d="M58.0638 43.5942C58.3933 43.5942 58.544 43.427 58.544 43.0511V42.5477C58.544 42.1553 58.3701 42.0336 58.0406 42.0336H57.5661V43.5942H58.0638ZM58.0406 41.6296C58.6706 41.6296 58.9943 41.9292 58.9943 42.5766V43.0221C58.9943 43.6522 58.6996 44.0049 58.0638 44.0049H57.1216V39.9579H58.8272V40.3686H57.5661V41.6296H58.0406Z" fill="#EEEDED"/>
<path d="M59.8219 42.1843V44.0049H59.3706V39.9579H59.8219V41.7794H60.8153V39.9579H61.2666V44.0049H60.8153V42.1843H59.8219Z" fill="#EEEDED"/>
<path d="M64.2795 44.0049H63.835V39.9588H64.2795V44.0049ZM62.5517 43.5942C62.8802 43.5942 63.0136 43.4087 63.0136 43.0395V42.5022C63.0136 42.1089 62.8522 41.9582 62.5169 41.9582H62.1178V43.5942H62.5517ZM62.5169 41.5533C63.1576 41.5533 63.4591 41.8886 63.4591 42.5303V43.0163C63.4591 43.629 63.1817 44.0049 62.5517 44.0049H61.6675V39.9579H62.1178V41.5533H62.5169Z" fill="#EEEDED"/>
<path d="M66.2814 39.1259C66.2814 39.4786 66.0446 39.6931 65.6571 39.6931C65.2696 39.6931 65.0445 39.4786 65.0329 39.1259H65.316C65.3334 39.3462 65.4668 39.4216 65.6571 39.4216C65.8485 39.4216 65.9867 39.3462 66.0041 39.1259H66.2814ZM65.7615 42.0915L65.1488 44.0049H64.6802V39.9579H65.0793V42.9757L65.461 41.791L66.0852 39.9579H66.5877V44.0049H66.1828V40.7851L65.7615 42.0915Z" fill="#EEEDED"/>
<path d="M69.6747 44.5488V44.0057H67.9121V39.9587H68.3566V43.5951H69.351V39.9587H69.8081V43.6057H70.1144V44.5488H69.6747Z" fill="#EEEDED"/>
<path d="M71.9413 41.7504V42.1553H70.9528V43.5942H72.1665V44.0049H70.5024V39.9588H72.1665V40.3686H70.9528V41.7504H71.9413Z" fill="#EEEDED"/>
<path d="M73.0338 42.1843V44.0049H72.5835V39.9579H73.0338V41.7794H74.0282V39.9579H74.4794V44.0049H74.0282V42.1843H73.0338Z" fill="#EEEDED"/>
<path d="M75.5614 44.0049V40.3686H74.8154V39.9588H76.7578V40.3686H76.0118V44.0049H75.5614Z" fill="#EEEDED"/>
<path d="M77.9446 42.0055C78.2799 42.0055 78.4413 41.849 78.4413 41.4625V40.9242C78.4413 40.5541 78.3089 40.3695 77.9794 40.3695H77.5455V42.0055H77.9446ZM77.9794 39.9588C78.6153 39.9588 78.8868 40.3347 78.8868 40.9474V41.4325C78.8868 42.0741 78.5863 42.4104 77.9446 42.4104H77.5455V44.0049H77.0952V39.9588H77.9794Z" fill="#EEEDED"/>
<path d="M50.3677 46.7422H56.4189V48.5222H54.3722V59.2012H52.4144V48.5222H50.3677V46.7422Z" fill="#EEEDED"/>
<path d="M59.2337 48.5222V52.7403H60.1594C60.7817 52.7403 61.12 52.4552 61.12 51.5652V49.6973C61.12 48.8073 60.7817 48.5222 60.1594 48.5222H59.2337ZM63.0778 49.8219V51.4415C63.0778 53.4351 62.1163 54.5202 60.1594 54.5202H59.2337V59.2012H57.2759V46.7422H60.1594C62.1163 46.7422 63.0778 47.8284 63.0778 49.8219Z" fill="#EEEDED"/>
<path d="M68.3294 56.0322C67.8665 58.2741 67.1012 59.395 64.379 59.2182V57.474C65.3753 57.5445 65.9444 57.3667 66.1049 56.4593L66.1223 56.353L63.4175 46.7419H65.3569L66.4247 50.9957L67.0306 53.915L67.4925 51.014L68.3825 46.7419H70.4292L68.3294 56.0322Z" fill="#EEEDED"/>
<path d="M73.9904 55.8008C73.9373 56.7439 73.7594 57.1527 73.4386 57.4561H76.0023V48.5214H74.347L73.9904 55.8008ZM76.9097 60.873V59.2003H72.7264V60.873H70.8228V57.4561H71.5881C71.9263 57.029 72.0326 56.5661 72.0684 55.8365L72.5138 46.7414H77.9949V57.4561H78.8491V60.873H76.9097Z" fill="#EEEDED"/>
</svg>
