<svg width="100" height="100" viewBox="0 0 100 100" fill="none" xmlns="http://www.w3.org/2000/svg">
<rect width="100" height="100" rx="50" fill="white"/>
<g clip-path="url(#clip0_1205_9435)">
<path d="M23.938 19.7739H25.3629L28.2636 24.4177L31.1473 19.7739H32.5892V27.4054C32.6061 27.4054 31.775 27.4054 31.775 27.4054V20.1837C31.758 20.1837 28.6877 25.1347 28.6877 25.1347L30.0956 27.4054H29.2305L28.2636 25.8176L27.2797 27.4054H26.4146L27.8395 25.1347L24.7692 20.2178V27.4225C24.7861 27.4225 23.955 27.4225 23.955 27.4225V19.7739H23.938Z" fill="#1D1D1B" stroke="#1D1D1B" stroke-width="0.63524" stroke-miterlimit="10"/>
<path d="M48.9077 21.9251C48.8738 21.7373 48.8398 21.5324 48.7889 21.3446C48.755 21.1568 48.6363 20.9861 48.4666 20.8324C48.297 20.6617 48.0765 20.5422 47.822 20.491C47.5676 20.4227 47.2962 20.3885 47.0417 20.3715H42.9367V26.8079H48.8907V27.4054H42.1224V20.3715C42.1055 20.3715 42.1055 19.7739 42.1055 19.7739H48.9077V21.9422V21.9251ZM48.8907 26.7908H47.0248C47.2962 26.7737 47.5506 26.7225 47.8051 26.6713C48.0595 26.603 48.28 26.5006 48.4497 26.3298C48.6193 26.1762 48.7211 26.0225 48.772 25.8176C48.8059 25.6298 48.8568 25.425 48.8907 25.2372V26.7908Z" fill="#1D1D1B" stroke="#1D1D1B" stroke-width="0.63524" stroke-miterlimit="10"/>
<path d="M57.5078 21.9251C57.4739 21.7373 57.4399 21.5324 57.389 21.3446C57.3551 21.1568 57.2364 20.9861 57.0667 20.8324C56.8971 20.6617 56.6766 20.5422 56.4221 20.491C56.1677 20.4227 55.8963 20.3885 55.6418 20.3715H51.5368V26.8079H57.4908V27.4054H50.7225V20.3715C50.7056 20.3715 50.7056 19.7739 50.7056 19.7739H57.5078V21.9422V21.9251ZM57.4908 26.7908H55.6249C55.8963 26.7737 56.1507 26.7225 56.4052 26.6713C56.6596 26.603 56.8801 26.5006 57.0498 26.3298C57.2194 26.1762 57.3212 26.0225 57.3721 25.8176C57.406 25.6298 57.4569 25.425 57.4908 25.2372V26.7908Z" fill="#1D1D1B" stroke="#1D1D1B" stroke-width="0.63524" stroke-miterlimit="10"/>
<path d="M59.3057 19.7739H60.1369V27.0127C60.1538 27.0127 64.666 19.7739 64.666 19.7739H66.2097V27.4054C66.2266 27.4054 65.3954 27.4054 65.3954 27.4054V20.0129C65.3785 20.0129 60.7815 27.4054 60.7815 27.4054H59.3226V19.7739H59.3057Z" fill="#1D1D1B" stroke="#1D1D1B" stroke-width="0.63524" stroke-miterlimit="10"/>
<path d="M68.042 19.7739H75.6754V27.4054C75.6924 27.4054 68.059 27.4054 68.059 27.4054V19.7739H68.042ZM68.8732 22.3178H74.8442V21.8568C74.7594 21.2934 74.5728 20.9007 74.2844 20.7129C73.9961 20.5251 73.572 20.4056 72.9952 20.3715H68.8562V22.3178H68.8732ZM68.8901 26.7908H72.9952C73.2666 26.7737 73.5211 26.7225 73.7755 26.6713C74.03 26.603 74.2505 26.5006 74.4201 26.3298C74.5898 26.1762 74.6915 26.0225 74.7424 25.8347C74.7764 25.6469 74.8272 25.4591 74.8612 25.2884V24.4518C74.8272 24.264 74.7764 24.0762 74.7424 23.8714C74.6915 23.6836 74.5898 23.5299 74.4371 23.3933C74.2675 23.2226 74.0469 23.1031 73.7925 23.0519C73.538 22.9836 73.2666 22.9494 73.0122 22.9324H68.8732V26.8249L68.8901 26.7908Z" fill="#1D1D1B" stroke="#1D1D1B" stroke-width="0.63524" stroke-miterlimit="10"/>
<path d="M24.0059 17.1628C24.0059 16.3433 24.5487 15.9336 25.1085 15.9336C25.6682 15.9336 26.2111 16.3604 26.2111 17.1628C26.2111 17.9652 25.6513 18.375 25.1085 18.375C24.5656 18.375 24.0059 17.9823 24.0059 17.1628ZM25.787 17.1628C25.787 16.5141 25.5325 16.1555 25.1254 16.1555C24.7183 16.1555 24.4639 16.5141 24.4639 17.1628C24.4639 17.8116 24.7013 18.153 25.1254 18.153C25.5495 18.153 25.787 17.8116 25.787 17.1628Z" fill="#1D1D1B"/>
<path d="M26.9067 18.0687L27.3647 18.1541V18.3248H26.3809V18.1541L26.8049 18.0687H26.9067ZM26.9237 16.2761L26.4148 16.1907V16.0029H27.4835V16.1907L27.0255 16.2761H26.9237ZM26.5166 18.3248L27.5344 17.0614L27.704 17.1809L26.8219 18.3248H26.5335H26.5166ZM27.0255 16.0029L27.704 16.9931L28.62 18.3248H28.1789L27.4665 17.2834L26.6014 16.0029H27.0255ZM28.6878 16.0029L27.6701 17.2322L27.5174 17.1127L28.3825 16.0029H28.6878ZM28.2977 18.0516L28.8235 18.1541V18.3248H27.6531V18.1541L28.1789 18.0516H28.2807H28.2977ZM28.2638 16.2761L27.8567 16.1907V16.0029H28.7727V16.1907L28.3655 16.2761H28.2638Z" fill="#1D1D1B"/>
<path d="M30.2993 19.314V19.4847H29.061V19.314L29.6039 19.2115H29.7056L30.2993 19.314ZM29.4681 17.0604C29.4681 16.7872 29.4681 16.6336 29.4681 16.4458L29.078 16.3946V16.2238L29.7396 15.9336L29.8074 15.9848L29.8413 16.3946H29.8583V17.9652V18.4603C29.8583 18.8018 29.8583 19.1603 29.8583 19.5018H29.4512C29.4512 19.1603 29.4512 18.8189 29.4512 18.4774V17.0775L29.4681 17.0604ZM30.452 16.2068C30.2654 16.2068 30.0279 16.2921 29.6717 16.6336L29.6208 16.5482C29.9092 16.1214 30.2145 15.9336 30.5538 15.9336C31.0627 15.9336 31.4698 16.3946 31.4698 17.1458C31.4698 17.8969 31.0457 18.375 30.469 18.375C29.8922 18.375 29.8753 18.2384 29.6208 17.7262L29.6717 17.6409C29.9262 17.9652 30.1636 18.1018 30.4011 18.1018C30.7743 18.1018 31.0627 17.8116 31.0627 17.1799C31.0627 16.5482 30.8082 16.1897 30.452 16.1897V16.2068Z" fill="#1D1D1B"/>
<path d="M32.7242 17.0433C32.9277 16.975 33.233 16.8897 33.4705 16.8385V17.0092C33.25 17.0604 32.9616 17.1458 32.8259 17.197C32.3849 17.3677 32.334 17.5555 32.334 17.6921C32.334 17.9482 32.5036 18.0506 32.7242 18.0506C32.9447 18.0506 32.9956 17.9823 33.3009 17.7604L33.4027 17.6921L33.4705 17.7945L33.3348 17.9311C33.0465 18.2213 32.8768 18.3579 32.5884 18.3579C32.3001 18.3579 31.9438 18.1531 31.9438 17.7433C31.9438 17.3336 32.0965 17.2482 32.7411 17.0092L32.7242 17.0433ZM33.2839 17.8628V16.7531C33.2839 16.2751 33.1482 16.1556 32.8259 16.1556C32.5036 16.1556 32.5715 16.1556 32.3849 16.2409L32.5715 16.0873L32.4527 16.5141C32.4019 16.6507 32.334 16.736 32.1983 16.736C32.0626 16.736 31.9947 16.6677 31.9778 16.5482C32.0626 16.1726 32.4358 15.9507 32.9107 15.9507C33.3857 15.9507 33.6571 16.1726 33.6571 16.8043V17.8457C33.6571 18.0677 33.725 18.136 33.8437 18.136C33.9625 18.136 33.9794 18.0848 34.0303 18.0335L34.1321 18.136C34.0133 18.3238 33.8776 18.3921 33.725 18.3921C33.4536 18.3921 33.2839 18.2043 33.2839 17.897V17.8628Z" fill="#1D1D1B"/>
<path d="M34.3696 16.0029H35.4722V16.1737L34.9803 16.2761H34.8785L34.3696 16.1737V16.0029ZM34.3696 18.1541L34.8785 18.0516H34.9803L35.4722 18.1541V18.3248H34.3696V18.1541ZM34.7259 17.3005V17.0444C34.7259 16.7371 34.7259 16.2419 34.7259 16.02H35.1499C35.1499 16.2419 35.1499 16.7371 35.1499 17.0444V17.1809C35.1499 17.6078 35.1499 18.1029 35.1499 18.3248H34.7259C34.7259 18.1029 34.7259 17.6078 34.7259 17.3005ZM34.9125 17.0102H36.4391V17.2151H34.9125V17.0102ZM35.8963 16.0029H36.9989V16.1737L36.507 16.2761H36.4052L35.8963 16.1737V16.0029ZM35.8963 18.1541L36.4052 18.0516H36.507L36.9989 18.1541V18.3248H35.8963V18.1541ZM36.2525 17.1639V17.0273C36.2525 16.72 36.2525 16.2249 36.2525 16.0029H36.6766C36.6766 16.2249 36.6766 16.72 36.6766 17.0273V17.2834C36.6766 17.5907 36.6766 18.0858 36.6766 18.3077H36.2525C36.2525 18.0858 36.2525 17.5907 36.2525 17.1639Z" fill="#1D1D1B"/>
<path d="M37.4404 16.0029H38.543V16.1737L38.0511 16.2761H37.9493L37.4404 16.1737V16.0029ZM37.4404 18.1541L37.9493 18.0516H38.0511L38.543 18.1541V18.3248H37.4404V18.1541ZM37.7967 17.3005V17.0444C37.7967 16.7371 37.7967 16.2419 37.7967 16.02H38.2207C38.2207 16.2419 38.2207 16.7371 38.2207 17.0444V17.1809C38.2207 17.6078 38.2207 18.1029 38.2207 18.3248H37.7967C37.7967 18.1029 37.7967 17.6078 37.7967 17.3005ZM37.9833 17.0102H39.5099V17.2151H37.9833V17.0102ZM38.9671 16.0029H40.0697V16.1737L39.5778 16.2761H39.476L38.9671 16.1737V16.0029ZM38.9671 18.1541L39.476 18.0516H39.5778L40.0697 18.1541V18.3248H38.9671V18.1541ZM39.3233 17.1639V17.0273C39.3233 16.72 39.3233 16.2249 39.3233 16.0029H39.7474C39.7474 16.2249 39.7474 16.72 39.7474 17.0273V17.2834C39.7474 17.5907 39.7474 18.0858 39.7474 18.3077H39.3233C39.3233 18.0858 39.3233 17.5907 39.3233 17.1639Z" fill="#1D1D1B"/>
<path d="M41.3081 17.0433C41.5117 16.975 41.817 16.8897 42.0545 16.8385V17.0092C41.834 17.0604 41.5456 17.1458 41.4099 17.197C40.9689 17.3677 40.918 17.5555 40.918 17.6921C40.918 17.9482 41.0876 18.0506 41.3081 18.0506C41.5287 18.0506 41.5795 17.9823 41.8849 17.7604L41.9867 17.6921L42.0545 17.7945L41.9188 17.9311C41.6304 18.2213 41.4608 18.3579 41.1724 18.3579C40.8841 18.3579 40.5278 18.1531 40.5278 17.7433C40.5278 17.3336 40.6805 17.2482 41.3251 17.0092L41.3081 17.0433ZM41.8679 17.8628V16.7531C41.8679 16.2751 41.7322 16.1556 41.4099 16.1556C41.0876 16.1556 41.1555 16.1556 40.9689 16.2409L41.1555 16.0873L41.0367 16.5141C40.9858 16.6507 40.918 16.736 40.7823 16.736C40.6466 16.736 40.5787 16.6677 40.5618 16.5482C40.6466 16.1726 41.0198 15.9507 41.4947 15.9507C41.9697 15.9507 42.2411 16.1726 42.2411 16.8043V17.8457C42.2411 18.0677 42.309 18.136 42.4277 18.136C42.5464 18.136 42.5634 18.0848 42.6143 18.0335L42.7161 18.136C42.5973 18.3238 42.4616 18.3921 42.309 18.3921C42.0376 18.3921 41.8679 18.2043 41.8679 17.897V17.8628Z" fill="#1D1D1B"/>
<path d="M42.8018 18.1541L43.3107 18.0687L43.1071 18.2394L43.3446 17.7273C43.4803 17.437 43.7008 17.2663 43.9383 17.2322L43.9044 17.2834C43.2937 17.2834 43.0901 16.9931 43.0901 16.6688C43.0901 16.3444 43.3615 16.02 43.9552 16.02H44.5659V16.2249H43.9892C43.6499 16.2249 43.4972 16.3785 43.4972 16.6688C43.4972 16.959 43.6838 17.1639 44.0401 17.1639H44.5659V17.3517H44.1418C43.8874 17.3517 43.8704 17.437 43.7517 17.6931L43.4972 18.2224C43.4294 18.3419 43.3446 18.3931 43.141 18.3931C42.9375 18.3931 42.8696 18.359 42.8187 18.3419V18.1712L42.8018 18.1541ZM44.0061 18.1541L44.515 18.0516H44.6168L45.1087 18.1541V18.3248H44.0061V18.1541ZM44.3624 17.3005V17.0444C44.3624 16.7371 44.3624 16.2419 44.3624 16.02H44.7864C44.7864 16.2419 44.7864 16.7371 44.7864 17.0444V17.3005C44.7864 17.6078 44.7864 18.1029 44.7864 18.3248H44.3624C44.3624 18.1029 44.3624 17.6078 44.3624 17.3005ZM44.549 16.0029H45.0918V16.1737L44.5829 16.2761H44.549V16.0029Z" fill="#1D1D1B"/>
<path d="M46.686 17.1628C46.686 16.3433 47.2289 15.9336 47.7886 15.9336C48.3484 15.9336 48.8912 16.3604 48.8912 17.1628C48.8912 17.9652 48.3315 18.375 47.7886 18.375C47.2458 18.375 46.686 17.9823 46.686 17.1628ZM48.4502 17.1628C48.4502 16.5141 48.1958 16.1555 47.7886 16.1555C47.3815 16.1555 47.1271 16.5141 47.1271 17.1628C47.1271 17.8116 47.3646 18.153 47.7886 18.153C48.2127 18.153 48.4502 17.8116 48.4502 17.1628Z" fill="#1D1D1B"/>
<path d="M50.4854 19.314V19.4847H49.2471V19.314L49.7899 19.2115H49.8917L50.4854 19.314ZM49.6372 17.0604C49.6372 16.7872 49.6372 16.6336 49.6372 16.4458L49.2471 16.3946V16.2238L49.9086 15.9336L49.9765 15.9848L50.0104 16.3946H50.0274V17.9652V18.4603C50.0274 18.8018 50.0274 19.1603 50.0274 19.5018H49.6203C49.6203 19.1603 49.6203 18.8189 49.6203 18.4774V17.0775L49.6372 17.0604ZM50.638 16.2068C50.4514 16.2068 50.214 16.2921 49.8577 16.6336L49.8069 16.5482C50.0952 16.1214 50.4006 15.9336 50.7398 15.9336C51.2487 15.9336 51.6558 16.3946 51.6558 17.1458C51.6558 17.8969 51.2318 18.375 50.655 18.375C50.0783 18.375 50.0613 18.2384 49.8069 17.7262L49.8577 17.6409C50.1122 17.9652 50.3497 18.1018 50.5872 18.1018C50.9603 18.1018 51.2487 17.8116 51.2487 17.1799C51.2487 16.5482 50.9943 16.1897 50.638 16.1897V16.2068Z" fill="#1D1D1B"/>
<path d="M52.1138 16.0029H52.6566V16.2761H52.6227L52.1138 16.1737V16.0029ZM52.1138 18.1541L52.6057 18.0516H52.7075L53.2673 18.1541V18.3248H52.1138V18.1541ZM52.453 17.3005V17.0444C52.453 16.7371 52.453 16.2419 52.453 16.02H52.8771C52.8771 16.2419 52.8771 16.7371 52.8771 17.0444V17.3005C52.8771 17.6078 52.8771 18.1029 52.8771 18.3248H52.453C52.453 18.1029 52.453 17.6078 52.453 17.3005ZM52.6566 16.0029H53.9119L53.9458 16.8395H53.7253L53.5217 16.0029L53.7931 16.2078H52.6566V16.0029Z" fill="#1D1D1B"/>
<path d="M55.065 17.0433C55.2685 16.975 55.5739 16.8897 55.8113 16.8385V17.0092C55.5908 17.0604 55.3025 17.1458 55.1668 17.197C54.7257 17.3677 54.6748 17.5555 54.6748 17.6921C54.6748 17.9482 54.8445 18.0506 55.065 18.0506C55.2855 18.0506 55.3364 17.9823 55.6417 17.7604L55.7435 17.6921L55.8113 17.7945L55.6756 17.9311C55.3873 18.2213 55.2176 18.3579 54.9293 18.3579C54.6409 18.3579 54.2847 18.1531 54.2847 17.7433C54.2847 17.3336 54.4373 17.2482 55.0819 17.0092L55.065 17.0433ZM55.6248 17.8628V16.7531C55.6248 16.2751 55.4891 16.1556 55.1668 16.1556C54.8445 16.1556 54.9123 16.1556 54.7257 16.2409L54.9123 16.0873L54.7936 16.5141C54.7427 16.6507 54.6748 16.736 54.5391 16.736C54.4034 16.736 54.3356 16.6677 54.3186 16.5482C54.4034 16.1726 54.7766 15.9507 55.2516 15.9507C55.7265 15.9507 55.9979 16.1726 55.9979 16.8043V17.8457C55.9979 18.0677 56.0658 18.136 56.1845 18.136C56.3033 18.136 56.3202 18.0848 56.3711 18.0335L56.4729 18.136C56.3542 18.3238 56.2185 18.3921 56.0658 18.3921C55.7944 18.3921 55.6248 18.2043 55.6248 17.897V17.8628Z" fill="#1D1D1B"/>
<path d="M56.7114 16.0029H57.814V16.1737L57.3221 16.2761H57.2203L56.7114 16.1737V16.0029ZM56.7114 18.1541L57.2203 18.0516H57.3221L57.814 18.1541V18.3248H56.7114V18.1541ZM57.0677 17.3005V17.0444C57.0677 16.7371 57.0677 16.2419 57.0677 16.02H57.4917C57.4917 16.2419 57.4917 16.7371 57.4917 17.0444V17.1809C57.4917 17.6078 57.4917 18.1029 57.4917 18.3248H57.0677C57.0677 18.1029 57.0677 17.6078 57.0677 17.3005ZM57.2542 17.0102H58.7809V17.2151H57.2542V17.0102ZM58.2381 16.0029H59.3407V16.1737L58.8488 16.2761H58.747L58.2381 16.1737V16.0029ZM58.2381 18.1541L58.747 18.0516H58.8488L59.3407 18.1541V18.3248H58.2381V18.1541ZM58.5943 17.1639V17.0273C58.5943 16.72 58.5943 16.2249 58.5943 16.0029H59.0184C59.0184 16.2249 59.0184 16.72 59.0184 17.0273V17.2834C59.0184 17.5907 59.0184 18.0858 59.0184 18.3077H58.5943C58.5943 18.0858 58.5943 17.5907 58.5943 17.1639Z" fill="#1D1D1B"/>
<path d="M59.7808 16.0019H60.8834V16.1727L60.3914 16.2751H60.2897L59.7808 16.1727V16.0019ZM59.7808 18.1531L60.2897 18.0507H60.3914L60.8834 18.1531V18.3238H59.7808V18.1531ZM60.137 17.2995V17.0434C60.137 16.7361 60.137 16.241 60.137 16.019H60.5271V18.3409H60.137C60.137 18.1189 60.137 17.6238 60.137 17.3165V17.2995ZM61.8163 16.2751H62.0708L60.4084 18.0507H60.1539L61.8163 16.2751ZM61.3753 16.0019H62.4779V16.1727L61.986 16.2751H61.8842L61.3753 16.1727V16.0019ZM61.3753 18.1531L61.8842 18.0507H61.986L62.4779 18.1531V18.3238H61.3753V18.1531ZM61.7485 16.0019H62.1386C62.1386 16.2239 62.1386 16.719 62.1386 17.0263V17.2824C62.1386 17.5897 62.1386 18.0848 62.1386 18.3067H61.7485V15.9849V16.0019Z" fill="#1D1D1B"/>
<path d="M63.6654 18.1872C63.9877 18.1872 64.2083 18.0335 64.2083 17.6921C64.2083 17.3506 64.0895 17.2141 63.7333 17.2141H63.5128V16.9921H63.6994C64.0386 16.9921 64.1913 16.8385 64.1913 16.5824C64.1913 16.3263 64.0047 16.1556 63.6994 16.1556C63.394 16.1556 63.2922 16.2068 63.1565 16.2921V16.1726L63.3431 16.1385L63.2414 16.736H62.9869V16.1385C63.1735 16.019 63.4788 15.9507 63.7842 15.9507C64.2422 15.9507 64.5645 16.2068 64.5645 16.5482C64.5645 16.8897 64.344 17.0604 63.9029 17.1116V17.0604C64.3609 17.1116 64.6154 17.3336 64.6154 17.6921C64.6154 18.0506 64.2591 18.3921 63.6485 18.3921C63.0378 18.3921 62.8682 18.1531 62.8682 17.7945C62.9191 17.7092 62.9869 17.6579 63.0887 17.6579C63.1905 17.6579 63.2753 17.7775 63.3092 17.914L63.428 18.3067L63.1226 18.1189C63.2922 18.1872 63.4619 18.2213 63.6824 18.2213L63.6654 18.1872Z" fill="#1D1D1B"/>
<path d="M65.7857 17.0433C65.9892 16.975 66.2946 16.8897 66.5321 16.8385V17.0092C66.3115 17.0604 66.0232 17.1458 65.8875 17.197C65.4464 17.3677 65.3955 17.5555 65.3955 17.6921C65.3955 17.9482 65.5652 18.0506 65.7857 18.0506C66.0062 18.0506 66.0571 17.9823 66.3624 17.7604L66.4642 17.6921L66.5321 17.7945L66.3963 17.9311C66.108 18.2213 65.9383 18.3579 65.65 18.3579C65.3616 18.3579 65.0054 18.1531 65.0054 17.7433C65.0054 17.3336 65.158 17.2482 65.8026 17.0092L65.7857 17.0433ZM66.3455 17.8628V16.7531C66.3455 16.2751 66.2098 16.1556 65.8875 16.1556C65.5652 16.1556 65.633 16.1556 65.4464 16.2409L65.633 16.0873L65.5143 16.5141C65.4634 16.6507 65.3955 16.736 65.2598 16.736C65.1241 16.736 65.0563 16.6677 65.0393 16.5482C65.1241 16.1726 65.4973 15.9507 65.9723 15.9507C66.4472 15.9507 66.7186 16.1726 66.7186 16.8043V17.8457C66.7186 18.0677 66.7865 18.136 66.9052 18.136C67.024 18.136 67.0409 18.0848 67.0918 18.0335L67.1936 18.136C67.0749 18.3238 66.9392 18.3921 66.7865 18.3921C66.5151 18.3921 66.3455 18.2043 66.3455 17.897V17.8628Z" fill="#1D1D1B"/>
<path d="M67.4312 16.0029H68.5338V16.1737L68.0418 16.2761H67.94L67.4312 16.1737V16.0029ZM67.4312 18.1541L67.94 18.0516H67.974V18.3248H67.4312V18.1541ZM67.7704 17.3005V17.0444C67.7704 16.7371 67.7704 16.2419 67.7704 16.02H68.1945C68.1945 16.2419 68.1945 16.7371 68.1945 17.0444V17.3005C68.1945 17.6078 68.1945 18.1029 68.1945 18.3248H67.7704C67.7704 18.1029 67.7704 17.6078 67.7704 17.3005ZM69.6703 18.1199L69.9078 18.3248H67.974V18.1199H70.0604L70.0096 19.0589H69.789L69.6703 18.1199ZM68.9069 16.0029H70.0096V16.1737L69.5176 16.2761H69.4158L68.9069 16.1737V16.0029ZM69.2462 17.3005V17.0444C69.2462 16.7371 69.2462 16.2419 69.2462 16.02H69.6703C69.6703 16.2419 69.6703 16.7371 69.6703 17.0444V17.3005C69.6703 17.6078 69.6703 18.1029 69.6703 18.3248H69.2462C69.2462 18.1029 69.2462 17.6078 69.2462 17.3005Z" fill="#1D1D1B"/>
<path d="M70.4341 16.0019H71.5367V16.1727L71.0448 16.2751H70.943L70.4341 16.1727V16.0019ZM70.4341 18.1531L70.943 18.0507H71.0448L71.5367 18.1531V18.3238H70.4341V18.1531ZM70.7903 17.2995V17.0434C70.7903 16.7361 70.7903 16.241 70.7903 16.019H71.1805V18.3409H70.7903C70.7903 18.1189 70.7903 17.6238 70.7903 17.3165V17.2995ZM72.4697 16.2751H72.7241L71.0617 18.0507H70.8073L72.4697 16.2751ZM72.0286 16.0019H73.1312V16.1727L72.6393 16.2751H72.5375L72.0286 16.1727V16.0019ZM72.0286 18.1531L72.5375 18.0507H72.6393L73.1312 18.1531V18.3238H72.0286V18.1531ZM72.4018 16.0019H72.792C72.792 16.2239 72.792 16.719 72.792 17.0263V17.2824C72.792 17.5897 72.792 18.0848 72.792 18.3067H72.4018V15.9849V16.0019Z" fill="#1D1D1B"/>
<path d="M73.3857 18.1541L73.8946 18.0687L73.6911 18.2394L73.9286 17.7273C74.0643 17.437 74.2848 17.2663 74.5223 17.2322L74.4883 17.2834C73.8777 17.2834 73.6741 16.9931 73.6741 16.6688C73.6741 16.3444 73.9455 16.02 74.5392 16.02H75.1499V16.2249H74.5732C74.2339 16.2249 74.0812 16.3785 74.0812 16.6688C74.0812 16.959 74.2678 17.1639 74.6241 17.1639H75.1499V17.3517H74.7258C74.4714 17.3517 74.4544 17.437 74.3357 17.6931L74.0812 18.2224C74.0134 18.3419 73.9286 18.3931 73.725 18.3931C73.5214 18.3931 73.4536 18.359 73.4027 18.3419V18.1712L73.3857 18.1541ZM74.5901 18.1541L75.099 18.0516H75.2008L75.6927 18.1541V18.3248H74.5901V18.1541ZM74.9464 17.3005V17.0444C74.9464 16.7371 74.9464 16.2419 74.9464 16.02H75.3704C75.3704 16.2419 75.3704 16.7371 75.3704 17.0444V17.3005C75.3704 17.6078 75.3704 18.1029 75.3704 18.3248H74.9464C74.9464 18.1029 74.9464 17.6078 74.9464 17.3005ZM75.1499 16.0029H75.6927V16.1737L75.1838 16.2761H75.1499V16.0029Z" fill="#1D1D1B"/>
<path d="M34.0306 27.5116L36.7447 19.6753H37.8134L40.5275 27.5116H39.6794L37.101 20.1192H37.4233L34.8618 27.5116H34.0137H34.0306ZM35.235 25.6166V24.8654H39.3231V25.6166H35.235Z" fill="#1D1D1B" stroke="#1D1D1B" stroke-width="0.63524" stroke-miterlimit="10"/>
</g>
<g clip-path="url(#clip1_1205_9435)">
<path d="M63.5727 30.2319H32.0688V30.2955V34.0796V59.5189L32.1701 63.78L48.7156 73.0017L50.2013 73.7967L50.9104 73.3515L66.3753 64.3841L67.6585 63.6528V59.1373V43.2378H63.5727V61.4904L50.1338 69.313L36.1546 61.713V34.0796H63.5727V43.2696H67.6585V34.0796V30.2319H63.5727Z" fill="#1D1D1B"/>
<path d="M74.8852 67.6926L75.4254 37.9604H73.9397H71.3397H69.4826V41.8081H71.3397V65.2123L50.1345 77.9001L28.3216 65.5938V41.8081H30.28V37.9604H28.3216H24.2358V41.8081V68.3286L50.1345 82.4156L74.8852 67.6926Z" fill="#0C713F"/>
<path d="M55.1989 35.8931V37.6102H52.3963V35.8931H47.9054V37.6102H44.8327V35.8931H40.3418V37.96L40.4093 59.0746L50.0327 65.18L59.6898 59.17V37.96V37.6102V35.8931H55.1989Z" fill="#0C713F"/>
<path d="M43.4493 43.3975H45.4077L50.3038 51.5698L55.1999 43.3975H57.1246V55.6401H56.0103V43.8744L50.8441 52.492L52.735 55.6401H51.6207L50.3038 53.4142L48.9532 55.6401H47.8389L49.7298 52.492L44.5298 43.8426V55.6401H43.4155V43.3975H43.4493Z" fill="white" stroke="white" stroke-width="0.63524" stroke-miterlimit="10"/>
</g>
<defs>
<clipPath id="clip0_1205_9435">
<rect width="52" height="12.8494" fill="white" transform="translate(24 15.1929)"/>
</clipPath>
<clipPath id="clip1_1205_9435">
<rect width="52" height="52.4685" fill="white" transform="translate(24 30.0425)"/>
</clipPath>
</defs>
</svg>
