<svg width="100" height="100" viewBox="0 0 100 100" fill="none" xmlns="http://www.w3.org/2000/svg">
<rect width="100" height="100" rx="50" fill="white"/>
<g clip-path="url(#clip0_1481_2104)">
<path d="M28.5263 45.5713C28.8404 45.5773 29.0528 45.5803 29.1664 45.5803C29.304 45.5803 29.5104 45.5803 29.7857 45.5713L29.5942 48.8542C29.5942 48.893 29.5912 48.9318 29.5912 48.9767C29.5912 49.3441 29.6421 49.6189 29.7468 49.8011C29.8515 49.9863 30.004 50.1207 30.2074 50.2044C30.4108 50.288 30.6412 50.3298 30.9014 50.3298C31.066 50.3298 31.2245 50.3119 31.3741 50.2731C31.4967 50.2402 31.6074 50.1954 31.7091 50.1387C31.7899 50.0909 31.8617 50.0341 31.9245 49.9684C31.9993 49.8907 32.0591 49.7981 32.107 49.6966C32.1578 49.595 32.1967 49.4815 32.2206 49.356C32.2565 49.1648 32.2894 48.8273 32.3193 48.3523L32.4061 46.9364C32.424 46.5242 32.439 46.0701 32.451 45.5743C32.7561 45.5802 32.9864 45.5832 33.133 45.5832L33.7283 45.5743L33.6026 47.5339L33.5219 49.0932C33.4979 49.4576 33.4591 49.7264 33.4082 49.9057C33.3633 50.055 33.3035 50.1924 33.2257 50.3209C33.1509 50.4344 33.0582 50.536 32.9535 50.6256C32.8189 50.7421 32.6574 50.8436 32.4779 50.9273C32.2745 51.0229 32.0591 51.0916 31.8288 51.1334C31.5147 51.1931 31.1886 51.223 30.8536 51.223C30.5185 51.223 30.1895 51.1931 29.8933 51.1304C29.6391 51.0766 29.4028 50.993 29.1904 50.8795C28.978 50.766 28.8075 50.6375 28.6818 50.4971C28.5801 50.3836 28.5024 50.2402 28.4425 50.07C28.3737 49.8788 28.3408 49.6697 28.3408 49.4367C28.3408 49.356 28.3408 49.2515 28.3498 49.12C28.3558 48.9916 28.3648 48.8243 28.3797 48.6212L28.4156 48.0476C28.4306 47.8684 28.4455 47.6055 28.4605 47.259L28.5024 46.3748C28.5143 46.1329 28.5233 45.867 28.5323 45.5743" fill="#4F7853"/>
<path d="M34.4639 51.1269C34.5267 50.5115 34.5775 49.8185 34.6194 49.0508C34.6613 48.2831 34.6852 47.596 34.6912 46.9866C34.9425 46.9926 35.1399 46.9956 35.2895 46.9956C35.466 46.9956 35.6544 46.9956 35.8519 46.9866L35.807 47.6797C35.8908 47.5602 35.9655 47.4646 36.0284 47.3959C36.0912 47.3242 36.1749 47.2555 36.2736 47.1898C36.3724 47.1211 36.48 47.0673 36.5907 47.0285C36.7044 46.9866 36.83 46.9538 36.9706 46.9299C37.1112 46.906 37.2578 46.894 37.4074 46.894C37.6497 46.894 37.88 46.9239 38.1014 46.9866C38.3227 47.0464 38.5022 47.145 38.6368 47.2764C38.7714 47.4108 38.8612 47.5542 38.906 47.7125C38.9509 47.8708 38.9719 48.0381 38.9719 48.2144C38.9719 48.289 38.9689 48.4055 38.9599 48.5639L38.8761 50.3412C38.8642 50.5892 38.8582 50.852 38.8552 51.1298C38.6398 51.1239 38.4573 51.1209 38.3048 51.1209C38.0984 51.1209 37.889 51.1209 37.6796 51.1298C37.7005 50.8939 37.7275 50.4816 37.7604 49.8961C37.7933 49.3077 37.8082 48.9193 37.8082 48.7311C37.8082 48.5161 37.7753 48.3458 37.7065 48.2144C37.6377 48.0829 37.533 47.9844 37.3924 47.9186C37.2488 47.8499 37.0963 47.8171 36.9317 47.8171C36.7672 47.8171 36.6177 47.8469 36.4771 47.9097C36.3365 47.9724 36.2138 48.062 36.1121 48.1815C36.0044 48.304 35.9207 48.4533 35.8608 48.6326C35.798 48.8238 35.7531 49.1344 35.7232 49.5735C35.6963 49.9619 35.6754 50.4816 35.6574 51.1328C35.448 51.1269 35.2596 51.1239 35.0891 51.1239C34.9186 51.1239 34.7092 51.1239 34.4639 51.1328" fill="#4F7853"/>
<path d="M39.8345 51.1272C39.8764 50.721 39.9063 50.3804 39.9212 50.1056C39.9481 49.6725 39.9721 49.1706 39.993 48.6031C40.014 48.0355 40.0289 47.4978 40.0379 46.987C40.3011 46.993 40.5015 46.996 40.6332 46.996C40.7558 46.996 40.9503 46.996 41.2255 46.987C41.1896 47.459 41.1596 47.91 41.1357 48.3372C41.1148 48.7644 41.0968 49.2572 41.0879 49.8099C41.0759 50.3625 41.0729 50.8016 41.0729 51.1242C40.8246 51.1183 40.6272 51.1153 40.4776 51.1153C40.337 51.1153 40.1216 51.1153 39.8375 51.1242M40.0618 46.279C40.0738 45.9983 40.0768 45.7862 40.0768 45.6368V45.5054C40.3251 45.5113 40.5255 45.5143 40.681 45.5143C40.8934 45.5143 41.0908 45.5143 41.2703 45.5054C41.2614 45.5741 41.2554 45.6517 41.2554 45.7384L41.2344 46.279C41.028 46.2731 40.8366 46.2701 40.6631 46.2701C40.4896 46.2701 40.2892 46.2701 40.0588 46.279" fill="#4F7853"/>
<path d="M44.2885 46.8926C44.5996 46.8926 44.9017 46.9404 45.1859 47.033C45.4731 47.1256 45.7154 47.266 45.9158 47.4482C46.1162 47.6304 46.2658 47.8544 46.3675 48.1203C46.4692 48.3862 46.517 48.664 46.517 48.9567C46.517 49.2674 46.4632 49.5631 46.3585 49.8529C46.2538 50.1396 46.0982 50.3905 45.8978 50.5996C45.6974 50.8087 45.4461 50.9671 45.147 51.0716C44.8479 51.1762 44.5278 51.227 44.1868 51.227C43.8727 51.227 43.5735 51.1792 43.2894 51.0866C43.0052 50.994 42.7629 50.8536 42.5624 50.6654C42.362 50.4772 42.2095 50.2501 42.1048 49.9813C42.0001 49.7125 41.9492 49.4317 41.9492 49.1389C41.9492 48.8462 41.9971 48.5564 42.0928 48.2846C42.1885 48.0128 42.3351 47.7708 42.5385 47.5617C42.7419 47.3496 42.9992 47.1853 43.3133 47.0688C43.6274 46.9523 43.9534 46.8926 44.2915 46.8926M44.2915 47.732C44.0551 47.732 43.8457 47.7887 43.6603 47.9052C43.4748 48.0217 43.3372 48.192 43.2475 48.419C43.1577 48.646 43.1129 48.894 43.1129 49.1628C43.1129 49.3988 43.1488 49.6079 43.2235 49.7931C43.2983 49.9783 43.421 50.1277 43.5885 50.2412C43.759 50.3547 43.9594 50.4115 44.1927 50.4115C44.4261 50.4115 44.6385 50.3517 44.8209 50.2352C45.0004 50.1187 45.135 49.9425 45.2278 49.7154C45.3175 49.4854 45.3624 49.2345 45.3624 48.9567C45.3624 48.7327 45.3265 48.5266 45.2577 48.3414C45.1859 48.1561 45.0692 48.0098 44.9017 47.8993C44.7342 47.7887 44.5338 47.732 44.2945 47.732" fill="#4F7853"/>
<path d="M47.1836 51.1269C47.2464 50.5115 47.2973 49.8185 47.3391 49.0508C47.381 48.2831 47.405 47.596 47.4109 46.9866C47.6622 46.9926 47.8596 46.9956 48.0092 46.9956C48.1857 46.9956 48.3742 46.9956 48.5716 46.9866L48.5267 47.6797C48.6105 47.5602 48.6853 47.4646 48.7481 47.3959C48.8109 47.3242 48.8947 47.2555 48.9934 47.1898C49.0921 47.1211 49.1998 47.0673 49.3105 47.0285C49.4241 46.9866 49.5498 46.9538 49.6904 46.9299C49.831 46.906 49.9775 46.894 50.1271 46.894C50.3694 46.894 50.5997 46.9239 50.8211 46.9866C51.0425 47.0464 51.2219 47.145 51.3566 47.2764C51.4912 47.4108 51.5809 47.5542 51.6258 47.7125C51.6706 47.8708 51.6916 48.0381 51.6916 48.2144C51.6916 48.289 51.6886 48.4055 51.6796 48.5639L51.5959 50.3412C51.5839 50.5892 51.5779 50.852 51.5749 51.1298C51.3595 51.1239 51.1771 51.1209 51.0245 51.1209C50.8181 51.1209 50.6087 51.1209 50.3993 51.1298C50.4203 50.8939 50.4472 50.4816 50.4801 49.8961C50.513 49.3077 50.5279 48.9193 50.5279 48.7311C50.5279 48.5161 50.495 48.3458 50.4262 48.2144C50.3574 48.0829 50.2527 47.9844 50.1121 47.9186C49.9686 47.8499 49.816 47.8171 49.6515 47.8171C49.4869 47.8171 49.3374 47.8469 49.1968 47.9097C49.0562 47.9724 48.9335 48.062 48.8318 48.1815C48.7241 48.304 48.6404 48.4533 48.5806 48.6326C48.5177 48.8238 48.4729 49.1344 48.443 49.5735C48.416 49.9619 48.3951 50.4816 48.3771 51.1328C48.1678 51.1269 47.9793 51.1239 47.8088 51.1239C47.6383 51.1239 47.4289 51.1239 47.1836 51.1328" fill="#4F7853"/>
<path d="M52.5273 51.1278L52.635 50.2078L52.9043 46.9787L52.997 45.5747C53.3859 45.5807 53.6671 45.5837 53.8465 45.5837C53.9901 45.5837 54.2534 45.5837 54.6333 45.5747C54.6781 45.7958 54.7081 45.9511 54.732 46.0437C54.7529 46.1363 54.7948 46.2827 54.8576 46.4858C54.9204 46.6889 55.0012 46.9369 55.0999 47.2266C55.2435 47.6657 55.3721 48.0989 55.4888 48.529L55.7999 49.694L56.3443 48.2004L57.137 46.2588C57.164 46.1931 57.1909 46.1184 57.2208 46.0317C57.2507 45.9451 57.2986 45.7928 57.3644 45.5747C57.6875 45.5807 57.9746 45.5837 58.2289 45.5837C58.3964 45.5837 58.6656 45.5837 59.0366 45.5747C58.9977 46.3573 58.9708 47.2176 58.9498 48.1646C58.9319 49.1085 58.9229 49.8165 58.9229 50.2825C58.9229 50.5065 58.9229 50.7903 58.9319 51.1278C58.6626 51.1219 58.4802 51.1189 58.3815 51.1189C58.2409 51.1189 58.0524 51.1189 57.8191 51.1278C57.834 50.85 57.846 50.623 57.852 50.4438L57.9208 48.0242C57.9298 47.6836 57.9327 47.3461 57.9327 47.0145V46.6859L56.4311 50.6439L56.2576 51.1278C55.9943 51.1219 55.8119 51.1189 55.7132 51.1189C55.5905 51.1189 55.3991 51.1189 55.1358 51.1278L54.4358 48.6216C54.4119 48.532 54.3551 48.3438 54.2653 48.06L54.0141 47.2296C53.9901 47.1519 53.9722 47.0862 53.9602 47.0354C53.9482 46.9846 53.9213 46.8741 53.8794 46.7009L53.8256 47.2206C53.8106 47.3849 53.7927 47.6627 53.7658 48.0511L53.6072 50.5722C53.6012 50.6977 53.5983 50.8829 53.5953 51.1249L53.0688 51.1159C52.979 51.1159 52.8025 51.1159 52.5363 51.1249" fill="#4F7853"/>
<path d="M63.6489 50.2C63.613 50.3613 63.5621 50.648 63.4993 51.0633C63.2062 51.126 62.9579 51.1678 62.7575 51.1887C62.557 51.2096 62.3536 51.2216 62.1502 51.2216C61.7942 51.2216 61.4772 51.1857 61.196 51.117C60.9148 51.0453 60.6695 50.9169 60.4571 50.7287C60.2447 50.5405 60.0892 50.3105 59.9875 50.0357C59.8858 49.7609 59.8379 49.4741 59.8379 49.1724C59.8379 48.8378 59.8977 48.5152 60.0144 48.2016C60.131 47.8879 60.2956 47.634 60.505 47.4339C60.7144 47.2337 60.9537 47.0933 61.2229 47.0097C61.4921 46.926 61.7733 46.8872 62.0665 46.8872C62.3447 46.8872 62.6079 46.9231 62.8562 46.9918C63.1075 47.0605 63.3169 47.174 63.4844 47.3293C63.6549 47.4876 63.7835 47.6758 63.8762 47.8969C63.966 48.1179 64.0138 48.3629 64.0138 48.6347C64.0138 48.7631 63.9989 48.8946 63.972 49.029H60.9866C60.9806 49.1336 60.9776 49.2142 60.9776 49.274C60.9776 49.4562 61.0075 49.6234 61.0703 49.7758C61.1332 49.9281 61.2229 50.0566 61.3425 50.1611C61.4622 50.2657 61.6058 50.3463 61.7703 50.3941C61.9348 50.4449 62.0994 50.4688 62.2579 50.4688C62.4464 50.4688 62.6498 50.4479 62.8681 50.4091C63.0865 50.3673 63.3468 50.2985 63.6489 50.203M61.0165 48.56H62.922C62.922 48.4346 62.919 48.339 62.91 48.2762C62.9011 48.2135 62.8831 48.1418 62.8562 48.0642C62.8263 47.9835 62.7904 47.9148 62.7395 47.8521C62.6917 47.7923 62.6348 47.7415 62.569 47.6997C62.5032 47.6579 62.4284 47.628 62.3417 47.6071C62.2549 47.5862 62.1652 47.5743 62.0665 47.5743C61.9528 47.5743 61.8421 47.5922 61.7344 47.628C61.6267 47.6639 61.528 47.7147 61.4383 47.7834C61.3485 47.8521 61.2767 47.9267 61.2199 48.0104C61.1631 48.094 61.1242 48.1747 61.0943 48.2523C61.0673 48.33 61.0404 48.4316 61.0135 48.563" fill="#4F7853"/>
<path d="M68.8411 51.1274C68.6168 51.1214 68.4403 51.1185 68.3147 51.1185C68.1801 51.1185 67.9916 51.1185 67.7523 51.1274L67.7882 50.4195C67.6685 50.5748 67.5668 50.6943 67.4801 50.7779C67.3933 50.8616 67.2886 50.9392 67.163 51.0109C67.0374 51.0826 66.8997 51.1364 66.7532 51.1722C66.6066 51.2081 66.454 51.226 66.2985 51.226C66.0382 51.226 65.7929 51.1782 65.5656 51.0826C65.3383 50.987 65.1438 50.8556 64.9823 50.6823C64.8207 50.5091 64.7041 50.3059 64.6293 50.067C64.5545 49.831 64.5156 49.5831 64.5156 49.3232C64.5156 48.9677 64.5844 48.6212 64.719 48.2836C64.8537 47.9461 65.0421 47.6713 65.2754 47.4652C65.5118 47.256 65.778 47.1097 66.0771 47.0231C66.3763 46.9364 66.6963 46.8916 67.0374 46.8916C67.2856 46.8916 67.5638 46.9155 67.8749 46.9603C67.8959 46.6078 67.9048 46.2374 67.9048 45.8491V45.5713C68.1591 45.5773 68.3565 45.5803 68.4912 45.5803C68.6676 45.5803 68.8651 45.5803 69.0864 45.5713C69.0266 46.2613 68.9698 47.1993 68.9189 48.3852C68.8651 49.5711 68.8382 50.4852 68.8382 51.1244M67.8301 47.731C67.6266 47.6772 67.4322 47.6504 67.2438 47.6504C67.0284 47.6504 66.825 47.6802 66.6275 47.74C66.4331 47.7997 66.2596 47.9013 66.107 48.0447C65.9575 48.188 65.8408 48.3732 65.76 48.5973C65.6793 48.8213 65.6374 49.0394 65.6374 49.2485C65.6374 49.4576 65.6733 49.6488 65.7481 49.822C65.8229 49.9953 65.9395 50.1327 66.0951 50.2343C66.2536 50.3358 66.4301 50.3836 66.6275 50.3836C66.7771 50.3836 66.9117 50.3567 67.0344 50.303C67.157 50.2492 67.2677 50.1685 67.3694 50.058C67.4711 49.9475 67.5549 49.8071 67.6237 49.6338C67.6925 49.4606 67.7433 49.2306 67.7732 48.9408C67.7912 48.7287 67.8091 48.3255 67.8271 47.728" fill="#4F7853"/>
<path d="M28.7324 53.5107H29.1632L29.3486 54.3113H29.3516L29.5341 53.5107H29.9529V54.613H29.6837V53.7258H29.6807L29.4743 54.613H29.214L29.0076 53.7258H29.0046V54.613H28.7354V53.5107H28.7324Z" fill="#878787"/>
<path d="M30.2271 53.5107H30.5142V53.908H30.936V53.5107H31.2232V54.613H30.936V54.141H30.5142V54.613H30.2271V53.5107Z" fill="#878787"/>
<path d="M31.4302 54.063C31.4302 53.9794 31.4421 53.9017 31.4691 53.83C31.496 53.7583 31.5319 53.6956 31.5797 53.6448C31.6276 53.594 31.6874 53.5522 31.7562 53.5223C31.825 53.4925 31.9058 53.4775 31.9926 53.4775C32.0793 53.4775 32.1601 53.4925 32.2289 53.5223C32.2977 53.5522 32.3575 53.5911 32.4054 53.6448C32.4532 53.6956 32.4921 53.7583 32.516 53.83C32.543 53.9017 32.5549 53.9794 32.5549 54.063C32.5549 54.1467 32.543 54.2273 32.516 54.299C32.4891 54.3707 32.4532 54.4304 32.4054 54.4842C32.3575 54.535 32.2977 54.5768 32.2289 54.6067C32.1601 54.6366 32.0793 54.6515 31.9926 54.6515C31.9058 54.6515 31.828 54.6366 31.7562 54.6067C31.6874 54.5768 31.6276 54.538 31.5797 54.4842C31.5319 54.4334 31.493 54.3707 31.4691 54.299C31.4421 54.2273 31.4302 54.1497 31.4302 54.063ZM31.7293 54.063C31.7293 54.1048 31.7323 54.1467 31.7443 54.1855C31.7532 54.2273 31.7682 54.2632 31.7891 54.296C31.8101 54.3289 31.837 54.3558 31.8699 54.3737C31.9028 54.3916 31.9447 54.4036 31.9955 54.4036C32.0464 54.4036 32.0883 54.3946 32.1242 54.3737C32.1601 54.3558 32.187 54.3289 32.2049 54.299C32.2259 54.2691 32.2378 54.2333 32.2468 54.1915C32.2558 54.1497 32.2588 54.1078 32.2588 54.063C32.2588 54.0182 32.2558 53.9794 32.2468 53.9376C32.2378 53.8957 32.2229 53.8599 32.2049 53.83C32.184 53.8002 32.1571 53.7733 32.1242 53.7553C32.0883 53.7374 32.0464 53.7255 31.9955 53.7255C31.9447 53.7255 31.9028 53.7344 31.8699 53.7553C31.837 53.7733 31.8101 53.8002 31.7891 53.833C31.7682 53.8659 31.7532 53.9017 31.7443 53.9435C31.7353 53.9854 31.7293 54.0242 31.7293 54.066V54.063Z" fill="#878787"/>
<path d="M32.7646 53.5107H33.5065V53.7437H33.0518V54.613H32.7646V53.5107Z" fill="#878787"/>
<path d="M33.5791 54.065C33.5791 53.9813 33.5911 53.9037 33.618 53.832C33.6449 53.7603 33.6808 53.6976 33.7287 53.6468C33.7765 53.596 33.8364 53.5542 33.9052 53.5243C33.974 53.4944 34.0547 53.4795 34.1415 53.4795C34.2282 53.4795 34.309 53.4944 34.3778 53.5243C34.4466 53.5542 34.5064 53.593 34.5543 53.6468C34.6022 53.6976 34.641 53.7603 34.665 53.832C34.6919 53.9037 34.7039 53.9813 34.7039 54.065C34.7039 54.1486 34.6919 54.2293 34.665 54.301C34.638 54.3727 34.6022 54.4324 34.5543 54.4862C34.5064 54.5369 34.4466 54.5788 34.3778 54.6086C34.309 54.6385 34.2282 54.6534 34.1415 54.6534C34.0547 54.6534 33.977 54.6385 33.9052 54.6086C33.8364 54.5788 33.7765 54.5399 33.7287 54.4862C33.6808 54.4354 33.6419 54.3727 33.618 54.301C33.5911 54.2293 33.5791 54.1516 33.5791 54.065ZM33.8782 54.065C33.8782 54.1068 33.8812 54.1486 33.8932 54.1875C33.9022 54.2293 33.9171 54.2651 33.9381 54.298C33.959 54.3308 33.9859 54.3577 34.0188 54.3756C34.0517 54.3936 34.0936 54.4055 34.1445 54.4055C34.1953 54.4055 34.2372 54.3966 34.2731 54.3756C34.309 54.3577 34.3359 54.3308 34.3539 54.301C34.3748 54.2711 34.3868 54.2352 34.3957 54.1934C34.4047 54.1516 34.4077 54.1098 34.4077 54.065C34.4077 54.0202 34.4047 53.9813 34.3957 53.9395C34.3868 53.8977 34.3718 53.8618 34.3539 53.832C34.3329 53.8021 34.306 53.7752 34.2731 53.7573C34.2372 53.7394 34.1953 53.7274 34.1445 53.7274C34.0936 53.7274 34.0517 53.7364 34.0188 53.7573C33.9859 53.7752 33.959 53.8021 33.9381 53.835C33.9171 53.8678 33.9022 53.9037 33.8932 53.9455C33.8842 53.9873 33.8782 54.0261 33.8782 54.068V54.065Z" fill="#878787"/>
<path d="M34.9136 53.5107H35.9068V54.613H35.6196V53.7437H35.1978V54.613H34.9106V53.5107H34.9136Z" fill="#878787"/>
<path d="M36.172 53.5104H36.4442V53.6687H36.4472C36.4861 53.603 36.531 53.5552 36.5818 53.5223C36.6297 53.4925 36.6955 53.4775 36.7763 53.4775C36.8271 53.4775 36.878 53.4865 36.9318 53.5044C36.9856 53.5223 37.0365 53.5552 37.0814 53.597C37.1262 53.6418 37.1621 53.6986 37.1921 53.7703C37.222 53.842 37.2369 53.9316 37.2369 54.0391C37.2369 54.1287 37.228 54.2094 37.207 54.2841C37.1891 54.3588 37.1592 54.4215 37.1203 54.4753C37.0814 54.529 37.0335 54.5708 36.9737 54.6007C36.9139 54.6306 36.8451 54.6455 36.7643 54.6455C36.7104 54.6455 36.6536 54.6336 36.5968 54.6097C36.5399 54.5858 36.4951 54.541 36.4562 54.4753H36.4532V55.0368H36.166V53.5104H36.172ZM36.6955 53.7344C36.6506 53.7344 36.6117 53.7434 36.5818 53.7643C36.5519 53.7822 36.525 53.8091 36.504 53.839C36.4831 53.8689 36.4711 53.9047 36.4622 53.9435C36.4532 53.9824 36.4502 54.0212 36.4502 54.06C36.4502 54.0929 36.4532 54.1258 36.4592 54.1646C36.4652 54.2034 36.4771 54.2393 36.4951 54.2751C36.513 54.311 36.5369 54.3408 36.5698 54.3617C36.6028 54.3856 36.6446 54.3976 36.6985 54.3976C36.7523 54.3976 36.7942 54.3856 36.8271 54.3617C36.86 54.3378 36.8839 54.308 36.9019 54.2751C36.9198 54.2393 36.9318 54.2034 36.9378 54.1646C36.9438 54.1258 36.9468 54.0899 36.9468 54.06C36.9468 54.0212 36.9438 53.9824 36.9348 53.9435C36.9258 53.9047 36.9109 53.8689 36.8929 53.839C36.872 53.8091 36.848 53.7822 36.8151 53.7643C36.7852 53.7464 36.7463 53.7344 36.7015 53.7344H36.6955Z" fill="#878787"/>
<path d="M37.3804 54.065C37.3804 53.9813 37.3923 53.9037 37.4193 53.832C37.4462 53.7603 37.4821 53.6976 37.5299 53.6468C37.5778 53.596 37.6376 53.5542 37.7064 53.5243C37.7752 53.4944 37.856 53.4795 37.9427 53.4795C38.0295 53.4795 38.1103 53.4944 38.1791 53.5243C38.2479 53.5542 38.3077 53.593 38.3556 53.6468C38.4034 53.6976 38.4423 53.7603 38.4662 53.832C38.4932 53.9037 38.5051 53.9813 38.5051 54.065C38.5051 54.1486 38.4932 54.2293 38.4662 54.301C38.4393 54.3727 38.4034 54.4324 38.3556 54.4862C38.3077 54.5369 38.2479 54.5788 38.1791 54.6086C38.1103 54.6385 38.0295 54.6534 37.9427 54.6534C37.856 54.6534 37.7782 54.6385 37.7064 54.6086C37.6376 54.5788 37.5778 54.5399 37.5299 54.4862C37.4821 54.4354 37.4432 54.3727 37.4193 54.301C37.3923 54.2293 37.3804 54.1516 37.3804 54.065ZM37.6795 54.065C37.6795 54.1068 37.6825 54.1486 37.6945 54.1875C37.7034 54.2293 37.7184 54.2651 37.7393 54.298C37.7603 54.3308 37.7872 54.3577 37.8201 54.3756C37.853 54.3936 37.8949 54.4055 37.9457 54.4055C37.9966 54.4055 38.0385 54.3966 38.0744 54.3756C38.1103 54.3577 38.1372 54.3308 38.1551 54.301C38.1761 54.2711 38.188 54.2352 38.197 54.1934C38.206 54.1516 38.209 54.1098 38.209 54.065C38.209 54.0202 38.206 53.9813 38.197 53.9395C38.188 53.8977 38.1731 53.8618 38.1551 53.832C38.1342 53.8021 38.1073 53.7752 38.0744 53.7573C38.0385 53.7394 37.9966 53.7274 37.9457 53.7274C37.8949 53.7274 37.853 53.7364 37.8201 53.7573C37.7872 53.7752 37.7603 53.8021 37.7393 53.835C37.7184 53.8678 37.7034 53.9037 37.6945 53.9455C37.6855 53.9873 37.6795 54.0261 37.6795 54.068V54.065Z" fill="#878787"/>
<path d="M39.2985 54.5064H39.2955C39.2745 54.5423 39.2446 54.5751 39.2028 54.605C39.1609 54.6349 39.11 54.6498 39.0472 54.6498C38.9934 54.6498 38.9455 54.6379 38.8976 54.614C38.8498 54.5901 38.8079 54.5512 38.772 54.5034C38.7361 54.4526 38.7062 54.3929 38.6852 54.3182C38.6643 54.2465 38.6523 54.1599 38.6523 54.0643C38.6523 53.9478 38.6673 53.8522 38.6942 53.7776C38.7211 53.7029 38.7541 53.6431 38.7959 53.5983C38.8378 53.5535 38.8797 53.5236 38.9276 53.5087C38.9754 53.4908 39.0173 53.4848 39.0592 53.4848C39.104 53.4848 39.1489 53.4938 39.1908 53.5147C39.2327 53.5356 39.2686 53.5714 39.2985 53.6252H39.3015V53.1323H39.5886V53.6252H39.5916C39.6215 53.5714 39.6574 53.5356 39.6993 53.5147C39.7412 53.4938 39.7861 53.4848 39.8339 53.4848C39.8728 53.4848 39.9147 53.4938 39.9626 53.5087C40.0104 53.5266 40.0523 53.5565 40.0942 53.5983C40.1361 53.6401 40.169 53.6999 40.1959 53.7776C40.2228 53.8522 40.2378 53.9478 40.2378 54.0643C40.2378 54.1599 40.2258 54.2465 40.2049 54.3182C40.1839 54.3899 40.154 54.4526 40.1181 54.5034C40.0822 54.5542 40.0403 54.5901 39.9925 54.614C39.9446 54.6379 39.8938 54.6498 39.8429 54.6498C39.7801 54.6498 39.7262 54.6349 39.6874 54.605C39.6455 54.5751 39.6156 54.5423 39.5946 54.5064H39.5916V55.0411H39.3045V54.5064H39.2985ZM38.9365 54.0703C38.9365 54.1032 38.9365 54.136 38.9425 54.1748C38.9485 54.2137 38.9575 54.2495 38.9724 54.2824C38.9874 54.3152 39.0083 54.3421 39.0322 54.366C39.0592 54.3899 39.0951 54.3989 39.1369 54.3989C39.1998 54.3989 39.2416 54.378 39.2656 54.3391C39.2865 54.3003 39.2985 54.2465 39.2985 54.1808V53.9209C39.2985 53.8612 39.2865 53.8134 39.2656 53.7746C39.2446 53.7357 39.2028 53.7178 39.1429 53.7178C39.101 53.7178 39.0681 53.7268 39.0412 53.7477C39.0143 53.7656 38.9934 53.7925 38.9784 53.8253C38.9634 53.8582 38.9515 53.8941 38.9455 53.9359C38.9395 53.9777 38.9365 54.0225 38.9365 54.0643V54.0703ZM39.9476 54.0703C39.9476 54.0255 39.9446 53.9837 39.9386 53.9418C39.9327 53.9 39.9207 53.8612 39.9057 53.8313C39.8908 53.7985 39.8698 53.7716 39.8429 53.7537C39.816 53.7357 39.7831 53.7238 39.7412 53.7238C39.6844 53.7238 39.6425 53.7417 39.6186 53.7805C39.5946 53.8164 39.5857 53.8672 39.5857 53.9269V54.1868C39.5857 54.2197 39.5857 54.2495 39.5916 54.2764C39.5976 54.3033 39.6036 54.3272 39.6156 54.3451C39.6275 54.363 39.6425 54.378 39.6634 54.3899C39.6844 54.3989 39.7113 54.4049 39.7412 54.4049C39.7831 54.4049 39.819 54.3929 39.8459 54.372C39.8728 54.3481 39.8938 54.3212 39.9087 54.2884C39.9237 54.2555 39.9327 54.2197 39.9386 54.1808C39.9446 54.142 39.9446 54.1061 39.9446 54.0763L39.9476 54.0703Z" fill="#878787"/>
<path d="M40.4405 53.5107H40.7277V54.1888H40.7307L41.1315 53.5107H41.4306V54.613H41.1435V53.9499H41.1405L40.7516 54.613H40.4375V53.5107H40.4405Z" fill="#878787"/>
<path d="M42.7894 54.6149H42.5023V53.7456H42.1403L42.1283 54.1489C42.1283 54.2027 42.1283 54.2594 42.1194 54.3162C42.1134 54.3729 42.0984 54.4297 42.0745 54.4805C42.0536 54.5283 42.0207 54.5671 41.9728 54.597C41.9249 54.6298 41.8621 54.6448 41.7813 54.6478C41.7155 54.6478 41.6677 54.6388 41.6348 54.6269V54.3879C41.6527 54.3998 41.6826 54.4058 41.7245 54.4058C41.7664 54.4058 41.7963 54.3849 41.8113 54.3461C41.8262 54.3072 41.8352 54.2535 41.8352 54.1847L41.8531 53.5156H42.7835V54.6179L42.7894 54.6149Z" fill="#878787"/>
<path d="M43.0845 53.5113H43.3716V53.8937H43.6648C43.8024 53.8937 43.9071 53.9236 43.9849 53.9803C44.0627 54.0371 44.0985 54.1297 44.0985 54.2522C44.0985 54.3089 44.0896 54.3567 44.0746 54.3955C44.0597 54.4344 44.0387 54.4672 44.0118 54.4941C43.9849 54.521 43.958 54.5419 43.928 54.5569C43.8981 54.5718 43.8652 54.5837 43.8353 54.5897C43.8054 54.5957 43.7785 54.6017 43.7545 54.6046C43.7306 54.6046 43.7097 54.6076 43.6977 54.6076H43.0875V53.5054L43.0845 53.5113ZM43.3716 54.3985H43.6139C43.6349 54.3985 43.6588 54.3985 43.6798 54.3926C43.7007 54.3896 43.7216 54.3836 43.7396 54.3716C43.7575 54.3597 43.7725 54.3478 43.7815 54.3268C43.7934 54.3089 43.7994 54.285 43.7994 54.2522C43.7994 54.2193 43.7934 54.1984 43.7815 54.1805C43.7695 54.1625 43.7545 54.1476 43.7366 54.1357C43.7186 54.1237 43.6947 54.1177 43.6708 54.1118C43.6468 54.1088 43.6199 54.1058 43.59 54.1058H43.3716V54.3926V54.3985Z" fill="#878787"/>
<path d="M44.2876 53.5107H44.5748V53.908H44.9966V53.5107H45.2837V54.613H44.9966V54.141H44.5748V54.613H44.2876V53.5107Z" fill="#878787"/>
<path d="M45.5522 53.5113H45.8394V53.8937H46.1296C46.2672 53.8937 46.3719 53.9236 46.4497 53.9803C46.5274 54.0371 46.5633 54.1297 46.5633 54.2522C46.5633 54.3089 46.5544 54.3567 46.5394 54.3955C46.5244 54.4344 46.5035 54.4672 46.4766 54.4941C46.4497 54.521 46.4227 54.5419 46.3928 54.5569C46.3629 54.5718 46.33 54.5837 46.3001 54.5897C46.2702 54.5957 46.2433 54.6017 46.2193 54.6046C46.1954 54.6046 46.1745 54.6076 46.1625 54.6076H45.5552V53.5054L45.5522 53.5113ZM45.8394 54.3985H46.0787C46.0997 54.3985 46.1236 54.3985 46.1445 54.3926C46.1655 54.3896 46.1864 54.3836 46.2044 54.3716C46.2223 54.3597 46.2373 54.3478 46.2462 54.3268C46.2582 54.3089 46.2642 54.285 46.2642 54.2522C46.2642 54.2193 46.2582 54.1984 46.2462 54.1805C46.2343 54.1625 46.2193 54.1476 46.2014 54.1357C46.1834 54.1237 46.1595 54.1177 46.1356 54.1118C46.1116 54.1088 46.0847 54.1058 46.0548 54.1058H45.8394V54.3926V54.3985ZM46.7219 53.5113H47.009V54.6136H46.7219V53.5113Z" fill="#878787"/>
<path d="M47.2779 53.5118H47.5651V54.1899H47.5681L47.9689 53.5118H48.268V54.6141H47.9809V53.951H47.9779L47.589 54.6141H47.2749V53.5118H47.2779ZM48.1125 53.0488C48.1125 53.1564 48.0826 53.231 48.0198 53.2788C47.9569 53.3236 47.8762 53.3475 47.7745 53.3475C47.6728 53.3475 47.592 53.3236 47.5292 53.2788C47.4663 53.234 47.4364 53.1564 47.4364 53.0488H47.5531C47.5621 53.0966 47.589 53.1325 47.6279 53.1534C47.6698 53.1743 47.7176 53.1862 47.7745 53.1862C47.8313 53.1862 47.8792 53.1743 47.921 53.1534C47.9629 53.1325 47.9868 53.0966 47.9958 53.0488H48.1125Z" fill="#878787"/>
<path d="M49.124 53.5107H49.5548L49.7402 54.3113H49.7432L49.9257 53.5107H50.3445V54.613H50.0753V53.7258H50.0723L49.8659 54.613H49.6056L49.3992 53.7258H49.3962V54.613H49.127V53.5107H49.124Z" fill="#878787"/>
<path d="M50.8234 54.155C50.8234 54.17 50.8234 54.1909 50.8293 54.2207C50.8353 54.2506 50.8443 54.2775 50.8623 54.3074C50.8802 54.3372 50.9071 54.3611 50.94 54.385C50.9759 54.4059 51.0208 54.4179 51.0776 54.4179C51.1165 54.4179 51.1554 54.4059 51.1913 54.385C51.2272 54.3611 51.2511 54.3313 51.2631 54.2894H51.5592C51.5592 54.3193 51.5503 54.3552 51.5293 54.397C51.5084 54.4388 51.4785 54.4776 51.4396 54.5165C51.3977 54.5523 51.3469 54.5852 51.284 54.6121C51.2212 54.6389 51.1464 54.6509 51.0627 54.6509C50.9909 54.6509 50.9191 54.6389 50.8563 54.618C50.7905 54.5971 50.7336 54.5613 50.6888 54.5135C50.6439 54.4657 50.602 54.403 50.5751 54.3283C50.5482 54.2536 50.5332 54.161 50.5332 54.0535C50.5332 53.9788 50.5422 53.9071 50.5631 53.8384C50.5841 53.7697 50.614 53.7069 50.6558 53.6562C50.6977 53.6024 50.7516 53.5606 50.8174 53.5307C50.8832 53.5008 50.961 53.4829 51.0537 53.4829C51.1524 53.4829 51.2332 53.4978 51.299 53.5307C51.3648 53.5636 51.4186 53.6084 51.4605 53.6681C51.5024 53.7279 51.5293 53.7996 51.5473 53.8802C51.5652 53.9638 51.5742 54.0535 51.5742 54.155H50.8174H50.8234ZM51.281 53.9638C51.281 53.916 51.2751 53.8742 51.2601 53.8414C51.2451 53.8085 51.2272 53.7816 51.2063 53.7637C51.1853 53.7458 51.1614 53.7308 51.1345 53.7219C51.1075 53.7129 51.0836 53.7099 51.0597 53.7099C51.0358 53.7099 51.0118 53.7129 50.9849 53.7219C50.958 53.7308 50.934 53.7428 50.9131 53.7637C50.8922 53.7816 50.8712 53.8085 50.8593 53.8414C50.8443 53.8742 50.8383 53.9131 50.8383 53.9638H51.287H51.281Z" fill="#878787"/>
<path d="M51.668 54.3849H51.7936C51.8594 54.1937 51.9043 54.0205 51.9252 53.8621C51.9462 53.7068 51.9581 53.5903 51.9611 53.5156H52.8226V54.3849H52.9513V54.8808H52.682V54.6149H51.9372V54.8808H51.668V54.3849ZM52.5355 54.3849V53.7486H52.2064C52.2004 53.8084 52.1885 53.895 52.1705 54.0145C52.1526 54.131 52.1197 54.2564 52.0778 54.3879H52.5325L52.5355 54.3849Z" fill="#878787"/>
<path d="M53.1187 53.5107H53.4059V54.1888H53.4089L53.8097 53.5107H54.1089V54.613H53.8217V53.9499H53.8187L53.4298 54.613H53.1157V53.5107H53.1187Z" fill="#878787"/>
<path d="M54.3833 53.5118H54.6705V54.381H55.0923V53.5118H55.3794V54.381H55.4931V54.8769H55.2269V54.6111H54.3863V53.5088L54.3833 53.5118Z" fill="#878787"/>
<path d="M55.6519 53.5107H55.9391V54.1888H55.9421L56.3429 53.5107H56.6421V54.613H56.3549V53.9499H56.3519L55.963 54.613H55.6489V53.5107H55.6519Z" fill="#878787"/>
<path d="M56.917 53.5107H57.2042V53.908H57.6259V53.5107H57.9131V54.613H57.6259V54.141H57.2042V54.613H56.917V53.5107Z" fill="#878787"/>
<path d="M58.832 53.9041C58.82 53.8473 58.8021 53.8025 58.7722 53.7727C58.7453 53.7428 58.6974 53.7279 58.6376 53.7279C58.5897 53.7279 58.5508 53.7398 58.5239 53.7607C58.497 53.7816 58.473 53.8115 58.4581 53.8444C58.4431 53.8772 58.4312 53.916 58.4282 53.9549C58.4252 53.9937 58.4222 54.0325 58.4222 54.0654C58.4222 54.0983 58.4222 54.1401 58.4282 54.1789C58.4312 54.2178 58.4431 54.2566 58.4551 54.2894C58.47 54.3223 58.491 54.3492 58.5209 54.3731C58.5508 54.397 58.5897 54.4059 58.6406 54.4059C58.6735 54.4059 58.7034 54.4 58.7273 54.385C58.7512 54.3731 58.7722 54.3552 58.7871 54.3343C58.8051 54.3133 58.817 54.2924 58.823 54.2715C58.832 54.2506 58.835 54.2297 58.835 54.2118H59.1341C59.1341 54.2387 59.1252 54.2775 59.1102 54.3253C59.0952 54.3731 59.0683 54.4239 59.0324 54.4717C58.9965 54.5195 58.9457 54.5613 58.8799 54.5971C58.8141 54.633 58.7363 54.6509 58.6406 54.6509C58.473 54.6509 58.3444 54.6001 58.2547 54.5015C58.1649 54.4 58.123 54.2566 58.123 54.0684C58.123 53.9758 58.135 53.8922 58.1589 53.8175C58.1829 53.7458 58.2188 53.6831 58.2636 53.6353C58.3085 53.5875 58.3624 53.5486 58.4252 53.5217C58.488 53.4949 58.5598 53.4829 58.6376 53.4829C58.6884 53.4829 58.7423 53.4889 58.7961 53.5038C58.8499 53.5158 58.9038 53.5397 58.9487 53.5725C58.9965 53.6054 59.0354 53.6472 59.0683 53.701C59.1012 53.7547 59.1222 53.8234 59.1281 53.9071H58.829L58.832 53.9041Z" fill="#878787"/>
<path d="M59.5904 54.613H59.3032V53.5107H59.5904V53.9469H59.7041L60.0062 53.5107H60.3323L59.9613 54.0186L60.3502 54.61H60.0032L59.7011 54.141H59.5874V54.61L59.5904 54.613Z" fill="#878787"/>
<path d="M60.5635 53.5107H60.8507V54.1888H60.8537L61.2545 53.5107H61.5537V54.613H61.2665V53.9499H61.2635L60.8746 54.613H60.5605V53.5107H60.5635Z" fill="#878787"/>
<path d="M61.8292 53.5118H62.1163V54.1899H62.1193L62.5202 53.5118H62.8193V54.6141H62.5321V53.951H62.5291L62.1403 54.6141H61.8262V53.5118H61.8292ZM62.6638 53.0488C62.6638 53.1564 62.6338 53.231 62.571 53.2788C62.5082 53.3236 62.4274 53.3475 62.3257 53.3475C62.224 53.3475 62.1433 53.3236 62.0804 53.2788C62.0176 53.234 61.9877 53.1564 61.9877 53.0488H62.1044C62.1133 53.0966 62.1403 53.1325 62.1792 53.1534C62.221 53.1743 62.2689 53.1862 62.3257 53.1862C62.3826 53.1862 62.4304 53.1743 62.4723 53.1534C62.5142 53.1325 62.5381 53.0966 62.5471 53.0488H62.6638Z" fill="#878787"/>
<path d="M63.6719 53.5118H63.959V54.381H64.3808V53.5118H64.668V54.381H64.7817V54.8769H64.5154V54.6111H63.6749V53.5088L63.6719 53.5118Z" fill="#878787"/>
<path d="M65.1422 54.155C65.1422 54.17 65.1422 54.1909 65.1482 54.2207C65.1542 54.2506 65.1632 54.2775 65.1811 54.3074C65.199 54.3372 65.226 54.3611 65.2589 54.385C65.2948 54.4059 65.3396 54.4179 65.3965 54.4179C65.4354 54.4179 65.4743 54.4059 65.5102 54.385C65.546 54.3611 65.57 54.3313 65.5819 54.2894H65.8781C65.8781 54.3193 65.8691 54.3552 65.8482 54.397C65.8272 54.4388 65.7973 54.4776 65.7584 54.5165C65.7166 54.5523 65.6657 54.5852 65.6029 54.6121C65.5401 54.6389 65.4653 54.6509 65.3815 54.6509C65.3097 54.6509 65.2379 54.6389 65.1751 54.618C65.1093 54.5971 65.0525 54.5613 65.0076 54.5135C64.9627 54.4657 64.9209 54.403 64.8939 54.3283C64.867 54.2536 64.8521 54.161 64.8521 54.0535C64.8521 53.9788 64.861 53.9071 64.882 53.8384C64.9029 53.7697 64.9328 53.7069 64.9747 53.6562C65.0166 53.6024 65.0704 53.5606 65.1362 53.5307C65.202 53.5008 65.2798 53.4829 65.3726 53.4829C65.4713 53.4829 65.552 53.4978 65.6178 53.5307C65.6837 53.5636 65.7375 53.6084 65.7794 53.6681C65.8213 53.7279 65.8482 53.7996 65.8661 53.8802C65.8841 53.9638 65.893 54.0535 65.893 54.155H65.1362H65.1422ZM65.5999 53.9638C65.5999 53.916 65.5939 53.8742 65.579 53.8414C65.564 53.8085 65.546 53.7816 65.5251 53.7637C65.5042 53.7458 65.4802 53.7308 65.4533 53.7219C65.4264 53.7129 65.4025 53.7099 65.3785 53.7099C65.3546 53.7099 65.3307 53.7129 65.3037 53.7219C65.2768 53.7308 65.2529 53.7428 65.232 53.7637C65.211 53.7816 65.1901 53.8085 65.1781 53.8414C65.1632 53.8742 65.1572 53.9131 65.1572 53.9638H65.6059H65.5999Z" fill="#878787"/>
<path d="M66.0918 53.5107H66.379V53.908H66.8007V53.5107H67.0879V54.613H66.8007V54.141H66.379V54.613H66.0918V53.5107Z" fill="#878787"/>
<path d="M67.5958 53.7437H67.2607V53.5107H68.215V53.7437H67.88V54.613H67.5928V53.7437H67.5958Z" fill="#878787"/>
<path d="M68.3864 53.5124H68.6586V53.6707H68.6616C68.7004 53.605 68.7453 53.5572 68.7962 53.5243C68.844 53.4944 68.9098 53.4795 68.9906 53.4795C69.0415 53.4795 69.0923 53.4885 69.1462 53.5064C69.2 53.5243 69.2509 53.5572 69.2957 53.599C69.3406 53.6408 69.3765 53.7005 69.4064 53.7722C69.4363 53.8439 69.4513 53.9335 69.4513 54.0411C69.4513 54.1307 69.4423 54.2113 69.4214 54.286C69.4034 54.3607 69.3735 54.4234 69.3346 54.4772C69.2957 54.531 69.2479 54.5728 69.188 54.6027C69.1282 54.6325 69.0594 54.6475 68.9786 54.6475C68.9248 54.6475 68.868 54.6355 68.8111 54.6116C68.7543 54.5877 68.7094 54.5429 68.6705 54.4772H68.6675V55.0388H68.3804V53.5124H68.3864ZM68.9098 53.7364C68.865 53.7364 68.8261 53.7454 68.7962 53.7663C68.7663 53.7842 68.7393 53.8111 68.7184 53.8409C68.6975 53.8708 68.6855 53.9067 68.6765 53.9455C68.6675 53.9843 68.6646 54.0232 68.6646 54.062C68.6646 54.0948 68.6675 54.1277 68.6735 54.1665C68.6795 54.2054 68.6915 54.2412 68.7094 54.2771C68.7274 54.3129 68.7513 54.3428 68.7842 54.3637C68.8171 54.3846 68.859 54.3995 68.9128 54.3995C68.9667 54.3995 69.0086 54.3876 69.0415 54.3637C69.0744 54.3398 69.0983 54.3099 69.1162 54.2771C69.1342 54.2412 69.1462 54.2054 69.1521 54.1665C69.1581 54.1277 69.1611 54.0919 69.1611 54.062C69.1611 54.0232 69.1581 53.9843 69.1492 53.9455C69.1402 53.9067 69.1252 53.8708 69.1073 53.8409C69.0863 53.8111 69.0624 53.7842 69.0295 53.7663C68.9996 53.7483 68.9607 53.7364 68.9158 53.7364H68.9098Z" fill="#878787"/>
<path d="M81.9941 55.7821C81.9014 56.8635 81.6471 59.6266 80.4655 62.8049C78.5122 68.0564 75.2247 71.3273 73.7051 72.7701C67.8898 78.2695 60.8152 81.0834 52.939 81.8003C41.494 82.8399 31.1528 79.8587 22.1189 72.6865C20.2373 71.1929 18.5502 69.538 17.0515 67.7218C14.3174 64.4001 13.3213 62.2912 13.0191 61.5444C12.6392 60.6034 12.4029 59.7939 12.2563 59.2233C12.9862 60.1344 14.099 61.4159 15.6127 62.7751C19.5762 66.3388 23.4949 67.7965 27.4016 69.4544C31.79 71.3184 36.4027 72.328 41.0363 73.1107C46.6362 74.0576 52.2988 73.9381 57.9226 72.9404C60.89 72.4147 64.8955 71.5812 69.5052 69.0481C78.4823 64.1163 81.1207 57.3265 81.333 56.4931C81.5484 55.6507 81.6741 55.0772 81.6741 55.0772C81.9373 53.8793 82.0181 53.246 82.0689 53.252C82.1437 53.258 82.0928 54.6709 81.9971 55.7791" fill="#4F7853"/>
<path d="M18.0506 44.6243C18.1314 43.5399 18.3498 40.7768 19.4955 37.5835C21.386 32.3082 24.6317 28.9984 26.1363 27.5377C31.8797 21.9666 38.9214 19.0691 46.7887 18.2566C58.2217 17.0766 68.5958 19.9354 77.7165 26.997C79.613 28.4667 81.3241 30.1007 82.8437 31.899C85.6197 35.1878 86.6397 37.2848 86.9508 38.0286C87.3427 38.9606 87.588 39.7671 87.7436 40.3377C87.0017 39.4356 85.874 38.169 84.3454 36.8278C80.3369 33.3119 76.4033 31.9019 72.4756 30.2919C68.0633 28.4816 63.4417 27.5257 58.7961 26.7999C53.1843 25.9216 47.5246 26.1098 41.9128 27.1733C38.9543 27.7348 34.9579 28.6161 30.3781 31.2059C21.4638 36.2453 18.9062 43.065 18.7028 43.9014C18.4964 44.7467 18.3767 45.3203 18.3767 45.3203C18.1254 46.5181 18.0536 47.1544 18.0058 47.1514C17.931 47.1454 17.9639 45.7325 18.0447 44.6243" fill="#4F7853"/>
<path d="M87.6241 42.7615C87.5434 43.8459 87.325 46.609 86.1793 49.8023C84.2888 55.0776 81.0431 58.3874 79.5385 59.8481C73.792 65.4192 66.7504 68.3167 58.8831 69.1292C47.45 70.3092 37.076 67.4504 27.9553 60.3888C26.0588 58.9191 24.3477 57.2851 22.8281 55.4868C20.0521 52.198 19.032 50.101 18.7209 49.3572C18.3291 48.4252 18.0838 47.6187 17.9282 47.0481C18.6701 47.9502 19.7978 49.2168 21.3264 50.558C25.3349 54.0739 29.2685 55.4839 33.1932 57.0939C37.6054 58.9042 42.2271 59.8601 46.8727 60.5859C52.4845 61.4642 58.1442 61.276 63.756 60.2125C66.7145 59.651 70.7109 58.7697 75.2907 56.1799C84.205 51.1405 86.7626 44.3208 86.966 43.4844C87.1724 42.6391 87.2921 42.0655 87.2921 42.0655C87.5434 40.8677 87.6122 40.2314 87.663 40.2344C87.7378 40.2404 87.7049 41.6533 87.6241 42.7615Z" fill="#4F7853"/>
<path d="M35.7408 63.8347C35.6989 59.5661 39.1629 56.0531 43.4376 56.0352C47.7242 56.0173 51.2032 59.4645 51.2211 63.7481C51.2391 67.96 47.808 71.437 43.5842 71.4908C39.3095 71.5476 35.7797 68.1034 35.7378 63.8347" fill="#4F7853"/>
<path d="M12.364 56.5987C12.4568 55.5174 12.711 52.7543 13.8926 49.5759C15.846 44.3245 19.1335 41.0535 20.6531 39.6137C26.4653 34.1144 33.5429 31.3005 41.4192 30.5835C52.8642 29.544 63.2053 32.5252 72.2393 39.6974C74.1208 41.191 75.808 42.8458 77.3066 44.662C80.0408 47.9838 81.0369 50.0927 81.339 50.8395C81.7189 51.7775 81.9552 52.587 82.1018 53.1575C81.3719 52.2464 80.2591 50.965 78.7455 49.6058C74.7819 46.0391 70.8632 44.5844 66.9565 42.9265C62.5682 41.0625 57.9555 40.0528 53.3218 39.2702C47.722 38.3233 42.0593 38.4428 36.4356 39.4405C33.4711 39.9662 29.4627 40.7996 24.853 43.3327C15.8789 48.2616 13.2405 55.0514 13.0281 55.8848C12.8127 56.7272 12.6871 57.3007 12.6871 57.3007C12.4239 58.4986 12.3431 59.1319 12.2922 59.1259C12.2175 59.1199 12.2683 57.707 12.364 56.5987Z" fill="#4F7853"/>
<path d="M63.5523 35.8664C63.5434 40.1351 60.0345 43.6062 55.7628 43.5733C51.4762 43.5405 48.0391 40.0485 48.072 35.7649C48.1049 31.553 51.5779 28.1177 55.8017 28.1147C60.0764 28.1118 63.5643 31.5978 63.5523 35.8664Z" fill="#4F7853"/>
</g>
<defs>
<clipPath id="clip0_1481_2104">
<rect width="75.4872" height="64" fill="white" transform="translate(12.2563 18)"/>
</clipPath>
</defs>
</svg>
