<svg width="72" height="72" viewBox="0 0 72 72" fill="none" xmlns="http://www.w3.org/2000/svg">
<g clip-path="url(#clip0_1466_11168)">
<path d="M71.7878 39.5492C71.7863 39.5469 71.7855 39.5442 71.7839 39.542L58.7724 21.4391C58.5784 18.5384 56.2583 15.7252 53.4326 15.0537L39.4468 11.7302V8.04247C39.4468 7.16033 39.1132 6.35497 38.5663 5.74466C39.1134 5.13435 39.4468 4.32885 39.4468 3.44685C39.4468 1.54617 37.9006 0 35.9999 0C34.0992 0 32.5531 1.54617 32.5531 3.44685C32.5531 4.32899 32.8866 5.13435 33.4335 5.74466C32.8865 6.35497 32.5531 7.16047 32.5531 8.04247V11.7302L18.5674 15.0536C15.7417 15.7251 13.4216 18.5383 13.2276 21.4389L0.216 39.5421C0.214312 39.5444 0.213609 39.547 0.212062 39.5493C0.0788905 39.7366 0 39.9653 0 40.2126C0 44.2248 3.26432 47.4893 7.27663 47.4893H21.4468C25.459 47.4893 28.7234 44.2249 28.7234 40.2126C28.7234 39.9653 28.6446 39.7366 28.5114 39.5492C28.5098 39.5469 28.5091 39.5442 28.5074 39.542L16.6024 22.9786H29.1064C29.7409 22.9786 30.2553 22.4642 30.2553 21.8297C30.2553 21.1952 29.7409 20.6808 29.1064 20.6808H15.683C16.153 19.0916 17.5275 17.6626 19.0985 17.2894L32.5532 14.0923V48.2552H32.1768C32.173 48.2552 32.1693 48.2552 32.1654 48.2552H30.6382C30.0037 48.2552 29.4893 48.7696 29.4893 49.4041C29.4893 50.0284 29.9875 50.5353 30.608 50.5515L27.475 60.5768C25.0943 60.9382 23.1885 62.7652 22.7112 65.1062H17.6169C15.7162 65.1062 14.1701 66.6523 14.1701 68.553C14.1701 70.4537 15.7162 71.9999 17.6169 71.9999H54.3828C56.2835 71.9999 57.8297 70.4537 57.8297 68.553C57.8297 66.6523 56.2835 65.1062 54.3828 65.1062H49.2888C48.8117 62.765 46.9057 60.9383 44.525 60.5768L41.392 50.5515C42.0123 50.5353 42.5107 50.0284 42.5107 49.4041C42.5107 48.7696 41.9963 48.2552 41.3618 48.2552H39.8341C39.8307 48.2552 39.8273 48.2552 39.8239 48.2552H39.4468V14.0921L52.9015 17.2892C54.4727 17.6626 55.847 19.0915 56.317 20.6807H42.8936C42.2591 20.6807 41.7447 21.1951 41.7447 21.8296C41.7447 22.4641 42.2591 22.9785 42.8936 22.9785H55.3976L43.4926 39.5421C43.4909 39.5444 43.4902 39.547 43.4886 39.5493C43.3556 39.7368 43.2767 39.9654 43.2767 40.2126C43.2767 44.2248 46.541 47.4893 50.5533 47.4893H64.7235C68.7357 47.4893 72.0001 44.2249 72.0001 40.2126C71.9999 39.9653 71.921 39.7366 71.7878 39.5492ZM21.4468 45.1913H7.27663C4.92665 45.1913 2.95171 43.5547 2.43182 41.3615H26.2918C25.7716 43.5549 23.7967 45.1913 21.4468 45.1913ZM25.3337 39.0637H3.38962L14.3616 23.7983L25.3337 39.0637ZM35.9999 2.29781C36.6336 2.29781 37.1488 2.8132 37.1488 3.44671C37.1488 4.08037 36.6334 4.59562 35.9999 4.59562C35.3663 4.59562 34.851 4.08023 34.851 3.44671C34.851 2.8132 35.3663 2.29781 35.9999 2.29781ZM34.851 8.04247C34.851 7.40881 35.3664 6.89357 35.9999 6.89357C36.6336 6.89357 37.1488 7.40896 37.1488 8.04247V48.2551H34.851V8.04247ZM46.9095 65.1062H28.3404C27.7059 65.1062 27.1915 65.6206 27.1915 66.2551C27.1915 66.8896 27.7059 67.404 28.3404 67.404H54.3828C55.0165 67.404 55.5317 67.9194 55.5317 68.5529C55.5317 69.1865 55.0163 69.7018 54.3828 69.7018H17.617C16.9834 69.7018 16.4681 69.1864 16.4681 68.5529C16.4681 67.9192 16.9835 67.404 17.617 67.404H23.7446C24.3791 67.404 24.8935 66.8896 24.8935 66.2551C24.8935 64.3554 26.4383 62.8098 28.3376 62.8082C28.3443 62.8082 43.6554 62.8082 43.6554 62.8082C45.1588 62.8093 46.4354 63.7695 46.9095 65.1062ZM42.0967 60.5104H29.9031L33.0149 50.553H38.985L42.0967 60.5104ZM57.6381 23.7983L68.6101 39.0637H46.6662L57.6381 23.7983ZM64.7232 45.1913H50.553C48.2031 45.1913 46.2281 43.5547 45.7082 41.3615H69.5682C69.0481 43.5549 67.0732 45.1913 64.7232 45.1913Z" fill="white" fill-opacity="0.4"/>
</g>
<defs>
<clipPath id="clip0_1466_11168">
<rect width="72" height="72" fill="white"/>
</clipPath>
</defs>
</svg>
