<svg width="73" height="72" viewBox="0 0 73 72" fill="none" xmlns="http://www.w3.org/2000/svg">
<path d="M41.6036 19.9024C40.9772 19.9024 40.4694 20.3938 40.4694 21C40.4694 21.6062 40.9772 22.0976 41.6036 22.0976H56.7255C57.3519 22.0976 57.8597 21.6062 57.8597 21C57.8597 20.3938 57.3519 19.9024 56.7255 19.9024H41.6036Z" fill="#CA653B"/>
<path d="M40.4694 27.2195C40.4694 26.6133 40.9772 26.122 41.6036 26.122H56.7255C57.3519 26.122 57.8597 26.6133 57.8597 27.2195C57.8597 27.8257 57.3519 28.3171 56.7255 28.3171H41.6036C40.9772 28.3171 40.4694 27.8257 40.4694 27.2195Z" fill="#CA653B"/>
<path d="M45.5731 32.7073C45.0511 32.7073 44.628 33.1168 44.628 33.622C44.628 34.1271 45.0511 34.5366 45.5731 34.5366H56.9146C57.4365 34.5366 57.8597 34.1271 57.8597 33.622C57.8597 33.1168 57.4365 32.7073 56.9146 32.7073H45.5731Z" fill="#CA653B"/>
<path d="M20.4328 40.8781C20.4328 39.4164 21.6814 38.1951 23.2682 38.1951C24.855 38.1951 26.1036 39.4164 26.1036 40.8781C26.1036 42.3397 24.855 43.561 23.2682 43.561H21.756V49.1707C21.756 49.979 22.433 50.6341 23.2682 50.6341C24.1034 50.6341 24.7804 49.979 24.7804 49.1707V46.2987C27.2726 45.6622 29.128 43.49 29.128 40.8781C29.128 37.7598 26.4836 35.2683 23.2682 35.2683C20.0528 35.2683 17.4085 37.7598 17.4085 40.8781C17.4085 41.6863 18.0855 42.3415 18.9206 42.3415C19.7558 42.3415 20.4328 41.6863 20.4328 40.8781Z" fill="#CA653B"/>
<path d="M24.5914 54.1098C24.5914 54.817 23.999 55.3902 23.2682 55.3902C22.5374 55.3902 21.945 54.817 21.945 54.1098C21.945 53.4026 22.5374 52.8293 23.2682 52.8293C23.999 52.8293 24.5914 53.4026 24.5914 54.1098Z" fill="#CA653B"/>
<path fill-rule="evenodd" clip-rule="evenodd" d="M48.7865 47.7073C47.0862 47.7073 45.4304 47.5165 43.8414 47.1553C43.2543 57.6584 34.2679 66 23.2682 66C19.9572 66 16.8286 65.2442 14.0566 63.9012C13.5952 63.6776 11.7049 64.1685 9.60318 64.7142C6.77232 65.4493 3.558 66.284 2.93565 65.6065C2.44863 64.5853 4.14893 62.2943 5.47494 60.5077C6.36328 59.3107 7.08363 58.3402 6.86578 58.1293C4.22966 54.7791 2.66455 50.5969 2.66455 46.061C2.66455 35.049 11.8891 26.122 23.2682 26.122C24.6272 26.122 25.9554 26.2493 27.2409 26.4923C27.4402 15.1418 37.0102 6 48.7865 6C60.6876 6 70.3353 15.3365 70.3353 26.8537C70.3353 31.3066 68.8915 35.4369 66.4328 38.8253C66.4486 38.8488 66.4653 38.8733 66.4828 38.8988C66.7106 39.2308 66.9822 39.5963 67.2906 40.0116C67.505 40.3002 67.7375 40.6131 67.9853 40.9553C68.5498 41.7346 69.1621 42.6246 69.5809 43.456C69.7902 43.8713 69.9821 44.3315 70.0816 44.7976C70.1777 45.248 70.2223 45.8667 69.9325 46.4745L69.8386 46.6714L69.6897 46.8334C69.1298 47.4429 68.3288 47.5356 67.9275 47.5593C67.432 47.5887 66.881 47.5387 66.3499 47.4621C65.2772 47.3074 63.9838 46.9966 62.7664 46.6864C62.3865 46.5896 62.0148 46.493 61.6546 46.3995L61.6534 46.3992C60.8218 46.1832 60.0521 45.9833 59.3871 45.8333C58.9125 45.7263 58.5458 45.6576 58.2881 45.6277C58.2532 45.6236 58.2231 45.6206 58.1975 45.6184C55.3523 46.957 52.1579 47.7073 48.7865 47.7073ZM48.7865 8.92683C59.0172 8.92683 67.3109 16.9529 67.3109 26.8537C67.3109 30.916 65.9165 34.659 63.5648 37.6645C63.1557 38.1393 63.171 38.6807 63.2014 38.9179C63.2369 39.1948 63.3338 39.4305 63.4019 39.578C63.5449 39.8878 63.7593 40.2206 63.9634 40.518C64.214 40.8832 64.5493 41.3353 64.8909 41.7958L64.8914 41.7966L64.8927 41.7984C65.1018 42.0802 65.3131 42.3652 65.5088 42.6353C66.0122 43.3303 66.463 43.9934 66.771 44.5637C65.8851 44.4339 64.7481 44.1648 63.5366 43.856C63.1943 43.7688 62.8445 43.678 62.4959 43.5875C61.6399 43.3652 60.7902 43.1445 60.0736 42.9829C59.5673 42.8687 59.0728 42.771 58.6486 42.7217C58.4373 42.6971 58.2051 42.6799 57.9765 42.6874C57.7807 42.6939 57.425 42.7211 57.0676 42.8943C54.5773 44.1008 51.7661 44.7805 48.7865 44.7805C47.0481 44.7805 45.3676 44.5491 43.7752 44.1172C42.9469 35.8321 36.8792 29.0304 28.8181 26.8537H30.2621C30.2621 16.9529 38.5558 8.92683 48.7865 8.92683ZM66.1577 38.3711C66.1575 38.371 66.1587 38.3742 66.1617 38.3808C66.1593 38.3745 66.1578 38.3712 66.1577 38.3711ZM58.0794 45.6125C58.0661 45.613 58.0691 45.6138 58.0854 45.6124L58.0794 45.6125ZM67.8553 44.624C67.8543 44.6233 67.8416 44.625 67.8199 44.631C67.8454 44.6277 67.8562 44.6247 67.8553 44.624ZM67.1302 45.4532C67.1302 45.4586 67.1304 45.4615 67.1305 45.4616C67.1307 45.4617 67.1307 45.459 67.1302 45.4532ZM23.2682 63.0732C32.977 63.0732 40.8475 55.4566 40.8475 46.061C40.8475 36.6654 32.977 29.0488 23.2682 29.0488C13.5594 29.0488 5.68894 36.6654 5.68894 46.061C5.68894 49.9042 7.00224 53.4424 9.21968 56.2894C9.99533 57.2034 9.95646 58.2295 9.90352 58.642C9.84065 59.1318 9.67392 59.5238 9.58074 59.7255C9.38065 60.1589 9.10193 60.5838 8.88582 60.8988C8.65317 61.2378 8.33859 61.6656 8.0215 62.0939C8.26418 62.0314 8.51246 61.967 8.76252 61.902C9.65297 61.6708 10.5659 61.4338 11.3281 61.2618C11.8641 61.1409 12.4347 61.0263 12.9518 60.9662C13.2089 60.9364 13.5294 60.9105 13.8681 60.9217C14.1412 60.9307 14.7597 60.9687 15.4106 61.284C17.7718 62.428 20.4378 63.0732 23.2682 63.0732Z" fill="#CA653B"/>
</svg>
