<svg width="72" height="72" viewBox="0 0 72 72" fill="none" xmlns="http://www.w3.org/2000/svg">
<path d="M58.265 14.432L36.953 7.13238C36.6959 7.04413 36.3509 7 36.0059 7C35.661 7 35.316 7.04413 35.0589 7.13238L13.7469 14.432C13.2263 14.6085 12.7998 15.2137 12.7998 15.7684V46.1773C12.7998 46.732 13.1573 47.4632 13.5901 47.8099L35.2094 64.7416C35.4289 64.9118 35.7112 65 35.9997 65C36.2882 65 36.5767 64.9118 36.7899 64.7416L58.4093 47.8099C58.842 47.4695 59.1995 46.7383 59.1995 46.1773V15.7684C59.2121 15.2137 58.7856 14.6148 58.265 14.432ZM54.6963 44.967L36.0059 59.6041L17.3156 44.967V18.0125L36.0059 11.608L54.6963 18.0125V44.967ZM29.2448 32.2966C29.0566 32.0381 28.7556 31.8806 28.4295 31.8806H24.9673C24.5597 31.8806 24.3213 32.347 24.5597 32.6811L32.4874 43.6495C32.5811 43.7785 32.7038 43.8834 32.8455 43.9557C32.9872 44.028 33.1438 44.0657 33.3027 44.0657C33.4616 44.0657 33.6183 44.028 33.76 43.9557C33.9017 43.8834 34.0244 43.7785 34.1181 43.6495L47.4522 25.1987C47.6905 24.8646 47.4522 24.3981 47.0445 24.3981H43.5824C43.2626 24.3981 42.9552 24.5557 42.7671 24.8142L33.3027 37.9132L29.2448 32.2966Z" fill="#CA653B"/>
</svg>
