<svg width="72" height="72" viewBox="0 0 72 72" fill="none" xmlns="http://www.w3.org/2000/svg">
<path d="M61.372 47.5413C59.085 44.8179 55.9633 43.2727 52.4605 43.2727H45.9393V38.2623C47.3938 36.5775 48.6037 34.6705 49.5511 32.7588C51.413 32.4441 53.2825 30.5139 54.2549 27.7578C55.443 24.3891 54.9123 21.3656 52.986 20.281C53.7955 15.9152 52.603 10.7011 49.7739 6.77212C46.6294 2.40509 41.7679 0 36.0748 0C30.3814 0 25.5172 2.40533 22.3727 6.77261C19.5526 10.6897 18.3492 15.8834 19.1439 20.2405C17.1582 21.288 16.5756 24.3459 17.7785 27.7581C18.7834 30.6041 20.6219 32.5149 22.5356 32.7736C23.5376 34.793 24.6059 36.8046 26.3029 38.5549V43.2727H19.7014C16.1984 43.2727 12.9957 44.8179 10.7087 47.5413C8.58022 50.0764 7.39404 53.4776 7.39404 57.0371V63.8727C7.39404 64.5755 7.80883 65.2172 8.44107 65.5246C18.5986 70.4681 28.2016 72 36.1948 71.9998C40.4025 71.9998 44.1705 71.575 47.3366 71.0002C57.3048 69.1906 63.4937 65.6138 63.755 65.4623C64.3223 65.1341 64.6064 64.528 64.6064 63.8725V57.0368C64.6059 53.4778 63.5007 50.0764 61.372 47.5413ZM38.1817 55.3479C38.1817 56.0429 37.6183 56.6061 36.9235 56.6061H35.0765C34.3814 56.6061 33.8183 56.0427 33.8183 55.3479V53.5008C33.8183 52.8058 34.3817 52.2427 35.0765 52.2427H36.9235C37.6185 52.2427 38.1817 52.8061 38.1817 53.5008V55.3479ZM39.3618 49.144C38.6668 48.7697 37.8719 48.6061 37.0268 48.6061H35.1342C34.2893 48.6061 33.4942 48.7697 32.7991 49.144L29.741 46.0698C29.8723 45.8167 29.939 45.505 29.939 45.2V41.9278C31.636 43.1898 33.7897 43.9644 35.9982 43.9644C38.3043 43.9644 40.3633 43.1171 42.3026 41.7539V45.2C42.3026 45.4393 42.4231 45.6916 42.506 45.9016L39.3618 49.144ZM25.3574 8.91952C27.0801 6.52655 30.339 3.67418 36.0806 3.67418C41.8222 3.67418 45.0808 6.5263 46.8035 8.91903C49.4837 12.6412 49.9686 17.0984 49.3012 20.0463C37.2777 22.9876 31.5189 11.6955 31.2816 11.2172C30.9305 10.5006 30.1596 10.0943 29.3671 10.209C28.5773 10.3241 27.9521 10.9367 27.8197 11.7239C27.8064 11.8036 26.5092 18.8594 22.8685 20.0815C22.189 17.135 22.6663 12.6567 25.3574 8.91952ZM20.8745 23.8608C25.954 24.2623 28.981 19.8822 30.3111 16.3789C31.1148 17.3908 32.1305 18.5086 33.3642 19.5745C36.9157 22.6436 41.0137 24.2085 45.4052 24.2085C46.9662 24.2085 49.5487 24.0107 51.1727 23.6124C51.2818 24.1047 51.3136 25.1813 50.836 26.5358C50.2854 28.0965 49.4874 28.8844 49.1424 29.0882C48.7521 28.9491 48.3228 28.9452 47.9266 29.0819C47.4447 29.2482 47.0534 29.6068 46.8467 30.0727C44.7516 34.7862 40.675 40.2904 36.0803 40.2904C31.4753 40.2904 27.3957 34.7697 25.3012 30.0419C25.0869 29.5585 24.6745 29.1905 24.1693 29.0325C23.9902 28.9767 23.8054 28.9491 23.6214 28.9491C23.3856 28.9491 23.1509 28.9947 22.9305 29.0841C22.5817 28.8735 21.7911 28.0856 21.244 26.536C20.8207 25.3348 20.7986 24.4012 20.8745 23.8608ZM11.0302 57.0371C11.0302 52.1893 14.1116 46.9091 19.7014 46.9091H25.5458L30.429 51.8659C30.276 52.3421 30.1817 52.9125 30.1817 53.4393V55.3319C30.1817 56.711 30.7589 57.9564 31.6714 58.8516L30.0418 68C24.242 67.3884 17.818 65.8342 11.0302 62.7127V57.0371ZM33.7727 68.2604L35.1746 60.2424H36.9863L38.3906 68.2681C36.9172 68.3224 35.3742 68.3273 33.7727 68.2604ZM60.9696 62.7627C59.0302 63.769 53.7526 66.1118 46.4874 67.4121C45.1184 67.6572 43.6539 67.871 42.0626 68.0308L40.3969 58.8519C41.3092 57.9569 41.8178 56.7113 41.8178 55.3321V53.4395C41.8178 52.9127 41.8042 52.3423 41.6513 51.8662L46.6151 46.9093H52.46C58.0493 46.9093 60.9693 52.1896 60.9693 57.0373V62.7627H60.9696Z" fill="white" fill-opacity="0.4"/>
</svg>
