<svg width="73" height="72" viewBox="0 0 73 72" fill="none" xmlns="http://www.w3.org/2000/svg">
<path d="M37.3345 3.05629C37.0245 2.31457 35.9756 2.31457 35.6655 3.05629L33.5874 8.02728C33.457 8.33933 33.1639 8.55262 32.8274 8.5805L27.4666 9.02451C26.6667 9.09076 26.3425 10.0902 26.9508 10.6149L31.0273 14.1312C31.2832 14.3519 31.3951 14.697 31.3176 15.0263L30.0825 20.2717C29.8982 21.0543 30.7468 21.6721 31.4328 21.2546L36.0303 18.4568C36.3189 18.2811 36.6811 18.2811 36.9697 18.4568L41.5672 21.2546C42.2532 21.6721 43.1018 21.0543 42.9175 20.2717L41.6824 15.0263C41.6049 14.697 41.7168 14.3519 41.9727 14.1312L46.0492 10.6149C46.6575 10.0902 46.3334 9.09076 45.5335 9.02451L40.1726 8.5805C39.8361 8.55262 39.5431 8.33933 39.4126 8.02728L37.3345 3.05629Z" fill="#CA653B"/>
<path d="M10.0304 13.632C10.3405 12.8903 11.3894 12.8903 11.6995 13.632L13.7776 18.603C13.908 18.915 14.201 19.1283 14.5375 19.1562L19.8984 19.6002C20.6983 19.6665 21.0224 20.6659 20.4142 21.1906L16.3376 24.7069C16.0817 24.9276 15.9698 25.2727 16.0473 25.602L17.2825 30.8474C17.4667 31.6301 16.6182 32.2478 15.9322 31.8303L11.3346 29.0325C11.046 28.8569 10.6839 28.8569 10.3953 29.0325L5.79773 31.8303C5.11173 32.2478 4.26315 31.6301 4.44744 30.8474L5.68256 25.602C5.76009 25.2727 5.64817 24.9276 5.39227 24.7069L1.31573 21.1906C0.707465 20.6659 1.0316 19.6665 1.83149 19.6002L7.19236 19.1562C7.52888 19.1283 7.8219 18.915 7.95235 18.603L10.0304 13.632Z" fill="#CA653B"/>
<path fill-rule="evenodd" clip-rule="evenodd" d="M47.0556 43.9672C47.0556 49.808 42.3297 54.5429 36.5 54.5429C30.6703 54.5429 25.9444 49.808 25.9444 43.9672C25.9444 38.1264 30.6703 33.3915 36.5 33.3915C42.3297 33.3915 47.0556 38.1264 47.0556 43.9672ZM42.5148 40.7316C42.9659 41.2228 42.9341 41.9874 42.4438 42.4394L34.9041 49.3891C34.6433 49.6295 34.2903 49.7428 33.9387 49.6991C33.5871 49.6554 33.2724 49.459 33.0782 49.162L30.2131 44.7807C29.848 44.2223 30.0038 43.4731 30.5611 43.1073C31.1184 42.7415 31.8662 42.8976 32.2313 43.4559L34.3171 46.6455L40.8103 40.6604C41.3006 40.2085 42.0637 40.2403 42.5148 40.7316Z" fill="#CA653B"/>
<path fill-rule="evenodd" clip-rule="evenodd" d="M55.1985 43.9672C55.1985 54.3138 46.8269 62.7013 36.5 62.7013C26.1731 62.7013 17.8015 54.3138 17.8015 43.9672C17.8015 33.6206 26.1731 25.2331 36.5 25.2331C46.8269 25.2331 55.1985 33.6206 55.1985 43.9672ZM52 43.9672C52 52.5 44.6429 59.5 36.5 59.5C28.3571 59.5 21 53.5 21 43.9672C21 34.5 28 28.5 36.5 28.5C45 28.5 52 35.5 52 43.9672Z" fill="#CA653B"/>
<path d="M20.6666 58.1689C22.9587 60.707 26.7486 62.651 28.3571 63.3056L24.8888 69.5L21.4206 65.2697L15.992 66.1762C17.0978 64.2625 19.5809 59.9819 20.6666 58.1689Z" fill="#CA653B"/>
<path d="M52.3334 58.1689C50.0414 60.707 46.2514 62.651 44.6429 63.3056L48.1112 69.5L51.5795 65.2697L57.0081 66.1762C55.9022 64.2625 53.4192 59.9819 52.3334 58.1689Z" fill="#CA653B"/>
<path d="M61.3005 13.632C61.6106 12.8903 62.6595 12.8903 62.9696 13.632L65.0477 18.603C65.1781 18.915 65.4711 19.1283 65.8076 19.1562L71.1685 19.6002C71.9684 19.6665 72.2925 20.6659 71.6843 21.1906L67.6077 24.7069C67.3518 24.9276 67.2399 25.2727 67.3174 25.602L68.5526 30.8474C68.7369 31.6301 67.8883 32.2478 67.2023 31.8303L62.6048 29.0325C62.3162 28.8569 61.954 28.8569 61.6654 29.0325L57.0678 31.8303C56.3818 32.2478 55.5333 31.6301 55.7176 30.8474L56.9527 25.602C57.0302 25.2727 56.9183 24.9276 56.6624 24.7069L52.5858 21.1906C51.9776 20.6659 52.3017 19.6665 53.1016 19.6002L58.4625 19.1562C58.799 19.1283 59.092 18.915 59.2225 18.603L61.3005 13.632Z" fill="#CA653B"/>
</svg>
