<svg width="72" height="72" viewBox="0 0 72 72" fill="none" xmlns="http://www.w3.org/2000/svg">
<path d="M46.4102 52.5713H25.5893C24.4849 52.5713 23.4258 53.0078 22.6448 53.7848C21.8639 54.5617 21.4252 55.6155 21.4252 56.7142V60.8571C21.4252 61.9559 21.8639 63.0096 22.6448 63.7866C23.4258 64.5635 24.4849 65 25.5893 65H46.4102C47.5146 65 48.5738 64.5635 49.3547 63.7866C50.1356 63.0096 50.5744 61.9559 50.5744 60.8571V56.7142C50.5744 55.6155 50.1356 54.5617 49.3547 53.7848C48.5738 53.0078 47.5146 52.5713 46.4102 52.5713ZM46.4102 60.8571H25.5893V56.7142H46.4102V60.8571ZM62.4568 32.4638L37.4718 7.60649C37.0814 7.21815 36.5519 7 35.9998 7C35.4477 7 34.9182 7.21815 34.5277 7.60649L9.54271 32.4638C9.25162 32.7535 9.05339 33.1226 8.97309 33.5243C8.89279 33.9261 8.93402 34.3425 9.09157 34.721C9.24912 35.0994 9.51592 35.4229 9.85824 35.6505C10.2006 35.8782 10.603 35.9997 11.0147 35.9998H21.4252V44.2856C21.4263 45.384 21.8654 46.4371 22.6461 47.2138C23.4267 47.9905 24.4853 48.4273 25.5893 48.4284H46.4102C47.5141 48.4268 48.5723 47.9898 49.3529 47.2132C50.1335 46.4366 50.5727 45.3838 50.5744 44.2856V35.9998H60.9848C61.3965 35.9997 61.799 35.8782 62.1413 35.6505C62.4836 35.4229 62.7504 35.0994 62.908 34.721C63.0655 34.3425 63.1068 33.9261 63.0265 33.5243C62.9462 33.1226 62.7479 32.7535 62.4568 32.4638ZM46.4102 31.8569V44.2856H25.5893V31.8569H16.0409L35.9998 12L55.9586 31.8569H46.4102Z" fill="#CA653B"/>
</svg>
