<svg width="72" height="72" viewBox="0 0 72 72" fill="none" xmlns="http://www.w3.org/2000/svg">
<path fill-rule="evenodd" clip-rule="evenodd" d="M38.7828 1.88628C37.5561 1.31425 36.2617 1.08762 34.899 1.20643C31.9651 2.70145 30.9018 5.05827 31.7088 8.27694L15.2028 24.4575C13.9145 24.3784 12.6199 24.3784 11.319 24.4575C8.1475 25.9184 7.26904 28.2299 8.68361 31.3921L22.6929 45.1252C22.8778 45.2159 23.0628 45.3065 23.2477 45.3971C23.4327 45.4877 23.6177 45.5784 23.8025 45.669C28.7061 45.941 30.5556 43.7654 29.3508 39.1424L33.9281 34.6554L62.3628 62.5295C64.5743 63.7551 66.7936 63.7551 69.0206 62.5295C71.6985 60.2574 72.2073 57.5834 70.5464 54.5072L42.1117 26.6331L46.689 22.146C46.8971 22.3163 47.1284 22.4522 47.3825 22.5539C52.4986 22.7209 54.3017 20.4094 52.7921 15.6194L38.7828 1.88628ZM35.4538 3.92585C36.0161 3.88177 36.571 3.92708 37.1183 4.06183L50.5728 17.251C50.8161 19.6956 49.7528 20.466 47.3825 19.5626L35.0377 7.46111C34.0285 6.14648 34.1672 4.96808 35.4538 3.92585ZM33.512 10.1807C37.2831 13.4238 40.8895 16.8684 44.331 20.5145C38.8752 26.0439 33.327 31.4828 27.6863 36.8311C24.08 33.4772 20.566 30.0325 17.1447 26.4973C22.6064 21.0527 28.0622 15.6139 33.512 10.1807ZM11.8739 27.0411C12.8153 26.922 13.6475 27.1485 14.3706 27.721L26.7154 39.8224C27.637 42.1459 26.8511 43.1883 24.3574 42.9497L10.9029 29.7605C10.718 29.2166 10.718 28.6728 10.9029 28.1289C11.2846 27.8012 11.6082 27.4387 11.8739 27.0411ZM39.8925 28.6728C41.3927 29.7334 42.7797 30.9571 44.0536 32.344L39.7537 36.5591C38.4549 35.3313 37.2066 34.0624 36.0087 32.7519C36.4615 32.2766 36.9136 31.802 37.365 31.328C38.21 30.4406 39.0525 29.5555 39.8925 28.6728ZM45.7181 34.3836C53.3699 41.4761 60.9061 48.728 68.3271 56.139C69.3053 58.7986 68.3807 60.3397 65.553 60.762C65.0074 60.7506 64.4986 60.6146 64.0273 60.3541L41.973 38.7347C41.788 38.5533 41.788 38.3722 41.973 38.1908C43.2777 36.9575 44.5261 35.6884 45.7181 34.3836Z" fill="white" fill-opacity="0.4"/>
<path d="M26.2993 56.139C28.3302 56.3617 28.7 57.2229 27.4089 58.7225C25.3491 58.5821 24.9793 57.7212 26.2993 56.139Z" fill="white" fill-opacity="0.4"/>
<path fill-rule="evenodd" clip-rule="evenodd" d="M43.2214 48.6606C32.2179 48.5246 21.2138 48.4792 10.2094 48.5246C7.08548 50.1198 5.88337 52.6579 6.60306 56.139C3.86779 55.5543 1.87966 56.4607 0.63871 58.8585C0.453763 62.5751 0.453763 66.2915 0.63871 70.0081L1.33224 70.688C18.3467 70.8693 35.3615 70.8693 52.376 70.688L53.0695 70.0081C53.2545 66.2915 53.2545 62.5751 53.0695 58.8585C51.8001 56.5565 49.8119 55.6501 47.1052 56.139C47.1512 54.7763 47.1049 53.4166 46.9665 52.0599C46.3387 50.2659 45.0903 49.1327 43.2214 48.6606ZM42.944 51.38C32.2178 51.2441 21.4912 51.1987 10.7642 51.2441C10.2163 51.5557 9.8002 52.009 9.51585 52.6038C9.37743 53.7789 9.33119 54.9572 9.37714 56.139C13.262 56.0936 17.1458 56.139 21.0284 56.275C21.2825 56.3767 21.5139 56.5127 21.722 56.6829C22.0582 57.5896 21.8271 58.2694 21.0284 58.7225L3.82891 58.9944L3.41279 59.4023C3.27415 62.3015 3.2279 65.2023 3.27409 68.1045H50.4341C50.5229 65.1362 50.4305 62.1903 50.1567 59.2664C44.263 58.9098 38.345 58.7285 32.4023 58.7225C31.6625 57.9067 31.6625 57.0908 32.4023 56.275C36.3773 56.139 40.3538 56.0936 44.331 56.139C44.3771 54.9572 44.3307 53.7789 44.1923 52.6038C43.9612 52.0145 43.5451 51.6066 42.944 51.38Z" fill="white" fill-opacity="0.4"/>
</svg>
