<svg width="1468" height="720" viewBox="0 0 1468 720" fill="none" xmlns="http://www.w3.org/2000/svg">
<g opacity="0.12">
<path d="M267.021 298.244C267.021 298.244 274.165 294.507 283.606 289.525C284.882 288.902 285.52 288.487 285.775 288.383C303.253 279.25 302.998 279.457 304.401 278.523C311.291 274.268 323.155 266.587 329.917 253.613C333.107 247.593 334.127 242.196 334.51 238.771C335.403 223.825 330.427 215.418 325.452 210.436C321.369 206.388 318.563 205.869 315.501 201.406C307.463 189.989 314.225 176.704 312.311 176.288C310.015 175.769 307.463 194.348 290.495 203.689C285.264 206.596 282.841 206.284 278.886 209.709C272.634 215.21 275.569 218.739 268.679 229.43C265.107 234.827 262.811 236.488 262.811 240.432C262.811 244.272 265.235 245.621 265.49 249.462C265.617 252.264 264.724 256.208 259.238 261.19C247.884 269.597 243.801 277.174 242.143 282.675C241.25 285.996 241.76 286.619 240.357 290.252C237.933 296.998 236.529 303.329 231.044 309.349C228.492 312.048 222.496 318.587 214.458 318.587C210.758 318.587 210.758 317.237 207.441 317.445C200.042 317.756 193.025 325.022 189.963 329.173C188.942 330.627 188.049 332.287 185.753 333.221C183.201 334.259 181.543 333.221 178.609 334.467C177.46 334.986 177.588 335.193 174.526 337.165C174.526 337.165 172.485 338.515 170.188 339.864C165.723 342.563 160.109 343.082 159.089 343.289C154.624 344.223 151.179 356.886 155.389 408.47C160.237 485.172 165.085 561.874 169.933 638.576C166.744 641.275 163.682 643.87 160.492 646.568C153.603 566.545 146.714 486.625 139.697 406.602L141.483 359.065C140.08 358.65 138.421 357.82 137.4 356.471C135.997 354.395 137.145 352.319 137.4 350.762C138.549 344.223 126.556 341.94 125.025 334.155C123.494 326.475 133.318 317.237 133.318 317.237C136.125 314.746 140.59 311.633 146.969 310.18C151.817 309.142 153.22 310.18 159.472 309.142C162.406 308.727 175.291 306.858 177.46 300.942C178.353 298.555 176.44 298.036 176.822 294.403C177.46 289.836 180.905 288.176 182.946 284.335C185.753 279.25 183.584 274.787 182.946 270.843C181.798 262.747 187.539 259.529 210.12 230.675C217.648 221.023 221.475 216.041 223.133 212.823C225.813 207.737 227.726 202.029 233.595 194.452C235.381 192.065 237.04 190.197 238.188 188.951L262.3 155.842C264.469 150.756 268.552 143.594 276.206 137.055C280.161 133.63 281.31 133.63 284.627 130.828C295.726 121.175 291.261 114.221 298.916 105.918C309.505 94.5007 327.493 97.9258 330.3 88.9997C332.086 83.0836 325.452 77.4789 328.131 75.7144C331.193 73.7424 342.42 79.2433 342.42 79.2433C348.161 78.932 354.54 81.423 359.643 79.4509C361.046 78.932 361.812 78.5168 362.577 77.6865C365.384 74.3651 360.536 69.3831 357.857 62.3253C356.581 59.1077 355.433 54.4371 355.943 48.4172C354.795 47.1717 353.009 45.0959 351.478 42.3973C346.885 34.3016 348.161 28.0741 347.013 14.3736C346.758 11.4674 346.375 7.10816 345.482 1.81479C347.651 1.08825 350.968 0.15413 354.923 0.257921C362.067 0.361713 364.874 3.47547 371.125 3.99443C377.759 4.51338 381.969 1.8148 385.797 0.673097C392.941 -1.40273 405.444 0.465509 428.791 18.629C435.297 25.9982 441.931 30.1499 446.652 32.6409C457.624 38.4532 468.851 40.2177 468.723 43.9542C468.723 45.1997 467.32 46.1338 465.151 47.3793C455.455 52.5689 443.335 53.3992 435.552 53.3992C429.939 60.8722 430.322 64.0898 431.725 65.6466C433.766 67.9301 438.104 66.8921 439.507 69.2793C441.293 72.2893 435.68 75.7144 437.721 79.8661C438.614 81.9419 440.528 82.2533 440.273 83.0836C439.252 85.886 419.478 81.6305 416.416 86.0936C415.14 87.858 417.053 90.5566 418.967 92.7362C420.881 93.8779 423.305 95.7462 424.325 98.5486C425.474 101.662 423.815 103.012 425.091 106.229C426.367 109.239 428.536 109.447 430.704 112.768C433.128 116.297 433.001 119.514 433.128 121.279C434.022 129.894 446.397 133.423 455.837 143.698C465.789 154.492 467.064 166.636 467.702 172.137C468.723 181.789 465.533 180.233 465.406 196.32C465.406 211.059 467.958 213.861 464.768 222.164C462.982 226.731 460.941 229.43 461.451 234.204C461.579 235.553 461.961 236.695 462.344 237.629C464.513 242.3 466.937 245.621 467.575 246.452C473.698 254.028 464.64 264.511 470.637 278.835C472.933 284.336 473.061 282.986 477.909 290.044C480.078 293.262 481.481 300.216 484.16 314.02C486.839 327.409 487.349 331.872 492.325 334.986C494.239 336.128 496.535 336.854 498.194 339.241C500.235 342.251 498.832 344.223 499.342 349.309C499.725 352.838 500.107 357.093 503.425 360.311C504.445 361.349 507.89 364.255 515.672 364.878C543.484 350.347 571.297 335.92 599.109 321.389C602.298 324.918 605.615 328.343 608.804 331.872C580.61 346.818 552.542 361.868 524.347 376.814C517.203 384.287 516.182 389.58 516.565 393.213C516.693 394.874 517.458 398.195 515.417 399.44C514.013 400.271 511.844 399.959 510.314 399.544C508.145 401.931 505.976 403.073 504.317 403.696C502.276 404.422 501.383 404.215 499.469 405.356C497.3 406.602 497.428 407.536 495.259 408.366C493.601 408.989 493.091 408.574 491.432 409.404C489.901 410.131 489.901 410.754 488.498 411.169C487.094 411.584 486.584 411.169 484.925 411.376C481.736 411.688 481.353 413.452 479.184 413.348C476.505 413.348 475.867 410.442 474.209 410.546C471.019 410.754 469.871 425.803 469.744 426.53C469.233 433.588 469.744 434.418 469.106 438.258C467.83 445.939 464.13 451.129 462.344 453.931C457.879 460.989 456.986 469.915 455.2 487.352C451.372 526.066 456.348 552.533 452.265 564.158C451.883 565.092 449.841 571.008 450.096 578.066C450.351 587.407 453.924 586.992 457.623 602.353C458.899 607.854 460.047 610.968 463.62 613.043C467.447 615.223 472.168 617.195 472.168 617.195C474.081 618.026 475.995 618.648 476.505 620.205C477.016 621.451 476.505 622.696 475.867 623.423C477.016 623.526 478.036 623.734 479.184 623.838C479.822 624.979 480.333 626.121 480.971 627.263C485.308 629.131 489.518 630.999 493.856 632.764C500.873 636.708 506.742 637.746 510.952 638.057C521.286 638.68 528.813 634.84 534.426 638.161C536.723 639.614 537.743 641.69 538.253 643.143C536.34 644.285 534.554 645.53 532.64 646.672C530.599 647.917 528.43 649.163 526.006 650.616C522.178 652.796 520.775 653.522 518.734 653.834C517.33 654.041 516.437 653.937 514.013 653.834C510.441 653.73 512.1 653.834 504.19 653.834C494.366 653.73 489.391 653.626 487.86 653.315C483.522 652.484 482.374 651.446 472.805 647.295C467.319 644.908 462.854 643.143 459.92 642.105C457.751 642.313 455.71 642.52 453.541 642.728L454.562 651.758L452.393 653.937C452.393 653.937 432.618 654.041 432.108 653.937C426.622 652.484 429.174 645.426 422.412 639.407C421.391 638.472 420.243 637.538 419.35 635.878C417.436 632.141 418.329 627.471 418.329 627.471C418.329 627.471 421.009 622.385 421.264 621.866C422.667 619.167 423.815 614.185 422.667 604.014C419.222 599.447 415.14 592.493 414.374 583.67C413.992 579.83 414.629 578.377 414.374 575.263C413.609 564.78 406.209 560.11 400.596 551.599C386.052 545.787 397.534 499.703 401.744 482.474C402.765 478.53 404.806 470.641 404.678 460.158C404.678 452.478 403.403 446.873 402.51 442.618C399.448 428.087 397.917 420.821 392.813 419.576C388.093 418.33 380.438 425.181 365.129 438.777C352.881 449.676 349.692 454.346 350.457 459.224C350.967 462.546 353.136 464.518 351.733 467.424C349.309 472.198 340.123 473.236 338.975 473.34C329.662 474.274 322.007 470.122 318.307 468.047C307.974 462.338 306.953 456.63 302.488 457.045C298.278 457.46 297.385 462.753 290.24 472.198C285.265 478.841 282.968 479.775 277.992 485.38C266.255 498.665 262.173 512.366 260.131 518.801C255.539 534.058 257.963 535.511 253.753 546.202C250.946 553.363 248.394 551.495 237.677 565.715C229.13 577.028 224.92 582.633 223.133 590.624C220.072 604.533 228.492 606.816 223.771 618.337C221.22 624.461 216.117 628.301 214.458 637.538C213.82 640.86 213.82 643.662 213.948 645.53C214.331 646.361 214.713 647.606 214.331 649.059C213.948 650.72 212.672 651.758 211.269 652.899C206.931 656.428 204.89 658.193 203.359 658.816C200.424 660.061 198.766 659.75 190.984 660.165C188.049 660.372 183.839 660.58 178.864 661.099C174.271 661.514 170.444 661.929 168.02 662.241C162.661 662.863 160.875 663.279 158.706 662.344C156.792 661.514 155.772 660.165 154.241 657.985C152.965 656.221 151.945 654.768 152.455 653.418C152.838 652.277 153.858 651.862 155.517 650.72C156.92 649.786 158.579 648.229 160.109 645.842C165.34 642.105 168.402 638.057 171.719 636.085C176.822 633.179 177.588 630.169 178.098 627.678C178.736 624.149 177.078 621.658 179.119 620.101C180.65 618.96 182.436 619.79 184.477 619.063C189.325 617.299 189.198 608.892 189.07 607.439C188.942 598.305 190.984 577.339 194.301 547.759C198.894 537.068 201.955 527.934 203.997 520.877C206.293 513.3 204.379 509.771 205.655 503.336C207.059 496.174 210.886 486.314 221.475 475.001C229.768 463.48 236.529 453.516 241.76 445.524C246.991 437.636 248.905 434.522 247.374 431.097C244.057 423.416 226.195 419.368 213.31 422.897C208.462 424.247 205.017 426.426 203.104 427.568C193.918 433.276 193.025 438.881 184.222 441.684C179.374 443.137 177.205 442.306 176.695 441.995C174.016 440.749 173.633 437.636 173.378 436.079C171.592 421.34 171.847 415.009 170.316 409.301C167.254 398.299 160.11 398.506 161.258 391.967C161.258 391.967 162.023 387.504 182.691 372.558C182.691 372.558 250.563 305.924 266 297.725L267.021 298.244Z" fill="#C1C1C1"/>
<path d="M62.2584 670.439C66.596 669.401 70.8062 668.674 102.956 666.391C135.234 664.004 151.436 662.862 169.552 662.032C208.847 660.267 403.532 653.106 669.789 644.076C670.299 651.964 672.468 664.834 680.633 679.053C688.416 692.546 698.494 701.784 705.384 707.285C470.256 711.333 235.128 715.381 0 719.325C22.3263 684.347 47.4593 674.071 62.3861 670.439H62.2584Z" fill="#C1C1C1"/>
<path d="M571.941 291.182C575.003 289.002 577.938 286.822 580.999 284.539C595.799 294.088 610.47 303.637 625.269 313.289C628.969 316.611 632.669 320.036 636.241 323.357C639.813 332.491 643.386 341.624 646.958 350.758C641.982 353.56 637.007 356.259 632.031 359.061C620.039 346.918 607.791 333.84 595.544 319.621C587.123 309.968 579.341 300.419 572.069 291.078L571.941 291.182Z" fill="#C1C1C1"/>
<path d="M882.462 260.877V290.769H820.969V530.008H783.716V290.769H722.223V260.877H882.589H882.462Z" fill="#C1C1C1"/>
<path d="M1058.77 403.279C1058.77 410.752 1057.37 417.187 1054.69 422.48C1051.88 427.774 1048.18 432.029 1043.33 435.247C1038.49 438.464 1032.87 440.851 1026.62 442.408C1020.37 443.965 1013.61 444.692 1006.46 444.692H972.018V530.008H934.766V260.877H1006.46C1015.78 260.877 1023.82 262.018 1030.45 264.198C1037.08 266.378 1042.44 269.388 1046.65 273.124C1050.86 276.861 1053.92 281.22 1055.84 286.306C1057.75 291.392 1058.77 296.685 1058.77 302.393V403.175V403.279ZM1021.01 302.497C1021.01 299.383 1019.99 296.685 1017.82 294.401C1015.65 292.118 1011.95 290.873 1006.46 290.873H972.018V415.007H1006.46C1010.68 415.007 1014.12 414.177 1016.93 412.516C1019.61 410.856 1021.01 407.846 1021.01 403.383V302.601V302.497Z" fill="#C1C1C1"/>
<path d="M1214.81 495.549C1212.51 505.41 1207.28 513.609 1199.11 520.148C1190.82 526.791 1178.96 530.008 1163.52 530.008H1137.37V500.116H1163.52C1167.73 500.116 1170.92 499.39 1173.22 497.833C1175.51 496.276 1176.92 494.511 1177.55 492.436L1188.65 444.38H1155.23L1102.92 260.98H1141.19L1181.89 414.592H1195.03L1229.86 260.98H1267.62L1214.81 495.653V495.549Z" fill="#C1C1C1"/>
<path d="M1467.28 500.22V565.713H1441.64L1434.37 530.008H1318.53L1315.08 565.713H1285.1V500.22H1306.92C1313.68 496.587 1317.25 490.671 1317.63 482.368L1328.73 260.877H1441.64V500.116H1467.28V500.22ZM1404.26 500.22V290.769H1364.58L1354.38 483.51C1353.74 490.256 1351.19 495.757 1346.59 500.22H1404.26Z" fill="#C1C1C1"/>
<path d="M755.519 142.249H734.851V218.432H730.514V138.824H755.519V142.249Z" fill="#C1C1C1"/>
<path d="M786.395 138.824C791.243 138.824 794.688 139.861 796.729 141.937C798.77 144.013 799.791 146.919 799.791 150.552V184.907C799.791 188.54 798.77 191.446 796.729 193.522C794.688 195.598 791.243 196.635 786.395 196.635H775.933V218.535H771.596V138.927H786.395V138.824ZM795.453 149.825C795.453 147.853 794.815 146.089 793.539 144.532C792.264 142.975 790.095 142.249 787.033 142.249H775.933V193.003H787.033C790.095 193.003 792.264 192.276 793.539 190.719C794.815 189.266 795.453 187.502 795.453 185.53V149.825Z" fill="#C1C1C1"/>
<path d="M851.073 138.824L839.336 209.609C838.826 212.412 837.55 214.488 835.509 216.045C833.467 217.601 830.278 218.432 826.068 218.432H822.24V215.007H826.706C829.385 215.007 831.426 214.384 832.702 213.242C833.978 212.1 834.743 210.647 835.126 208.987L837.677 193.107H826.578L816.244 138.824H820.709L830.278 189.681H838.315L846.608 138.824H851.073Z" fill="#C1C1C1"/>
<path d="M895.349 138.824V218.432H891.011V142.249H872.002V218.432H867.664V138.824H895.349Z" fill="#C1C1C1"/>
<path d="M943.315 138.824V218.432H938.978V142.249H919.968V218.432H915.631V138.824H943.315Z" fill="#C1C1C1"/>
<path d="M960.406 218.432L971.761 138.824H984.902L996.256 218.432H991.791L989.367 200.995H967.296L964.872 218.432H960.406ZM967.678 197.57H988.729L980.947 142.249H975.461L967.551 197.57H967.678Z" fill="#C1C1C1"/>
<path d="M1037.47 138.824H1041.8V164.771H1052.9L1064.13 138.824H1068.72L1056.86 166.432L1070.51 218.432H1066.04L1052.9 168.197H1042.06V218.432H1037.72V138.824H1037.47Z" fill="#C1C1C1"/>
<path d="M1115.04 207.541C1115.04 211.174 1114.02 213.976 1112.1 216.052C1110.19 218.128 1106.74 219.165 1101.9 219.165H1098.58C1093.73 219.165 1090.29 218.128 1088.25 216.052C1086.2 213.976 1085.18 211.174 1085.18 207.541V149.833C1085.18 146.2 1086.2 143.294 1088.25 141.218C1090.29 139.142 1093.73 138.104 1098.58 138.104H1101.9C1106.74 138.104 1110.19 139.142 1112.1 141.218C1114.02 143.294 1115.04 146.2 1115.04 149.833V207.541ZM1110.7 149.106C1110.7 147.134 1110.06 145.37 1108.79 143.813C1107.51 142.256 1105.34 141.529 1102.28 141.529H1097.94C1094.88 141.529 1092.71 142.256 1091.44 143.813C1090.16 145.37 1089.52 147.134 1089.52 149.106V208.06C1089.52 210.032 1090.16 211.796 1091.44 213.353C1092.71 214.91 1094.88 215.637 1097.94 215.637H1102.28C1105.34 215.637 1107.51 214.91 1108.79 213.353C1110.06 211.796 1110.7 210.032 1110.7 208.06V149.106Z" fill="#C1C1C1"/>
<path d="M1182.65 138.824V218.432H1178.32V200.995L1178.7 142.249H1174.87L1163.01 200.995H1154.46L1142.59 142.249H1138.77L1139.15 200.995V218.432H1134.81V138.824H1146.04L1157.77 197.57H1159.82L1171.68 138.824H1182.78H1182.65Z" fill="#C1C1C1"/>
<path d="M1230.63 138.824V218.432H1226.29V142.249H1207.28V218.432H1202.94V138.824H1230.63Z" fill="#C1C1C1"/>
<path d="M1247.72 218.432L1259.07 138.824H1272.21L1283.57 218.432H1279.1L1276.68 200.995H1254.61L1252.18 218.432H1247.72ZM1254.99 197.57H1276.04L1268.26 142.249H1262.77L1254.86 197.57H1254.99Z" fill="#C1C1C1"/>
<path d="M1329.88 138.824V218.432H1325.54V168.197H1304.62V218.432H1300.28V138.824H1304.62V164.771H1325.54V138.824H1329.88Z" fill="#C1C1C1"/>
<path d="M1379.25 218.432H1374.91V163.215L1354.5 179.51V218.432H1350.16V138.824H1354.5V175.047L1374.91 158.752V138.824H1379.25V218.432Z" fill="#C1C1C1"/>
<path d="M1424.16 138.828H1428.49V218.436H1424.16V163.219L1403.74 179.514V218.436H1399.41V138.828H1403.74V175.051L1424.16 158.756V138.828ZM1420.84 127.515V131.044H1406.93V127.515H1420.84Z" fill="#C1C1C1"/>
</g>
</svg>
