<svg width="216" height="311" viewBox="0 0 216 311" fill="none" xmlns="http://www.w3.org/2000/svg">
<path d="M21.4173 123.8C21.4173 123.8 21.4672 124.149 21.4872 124.808C21.4972 125.536 21.5172 126.495 21.5471 127.682C21.5471 128.311 21.5671 129.01 21.5671 129.758C21.597 130.517 21.6869 131.335 21.7468 132.224C21.8966 133.99 21.9765 136.006 22.316 138.212C22.4658 139.32 22.6155 140.478 22.7753 141.685C22.9451 142.893 23.2047 144.131 23.4244 145.418C23.8438 148.003 24.4828 150.738 25.1019 153.622C26.44 159.371 28.1075 165.639 29.9049 172.217C31.6923 178.794 33.3099 185.092 34.5681 190.881C35.1373 193.785 35.7264 196.53 36.0759 199.145C36.2656 200.452 36.4853 201.7 36.6251 202.917C36.7449 204.135 36.8547 205.303 36.9746 206.411C37.2442 208.636 37.2442 210.663 37.3141 212.439C37.334 213.327 37.384 214.156 37.374 214.914C37.344 215.673 37.3141 216.362 37.2841 217C37.2242 218.198 37.1743 219.146 37.1343 219.875C37.0944 220.534 37.0545 220.873 37.0345 220.873C37.0145 220.873 36.9945 220.524 36.9945 219.865C36.9945 219.136 37.0045 218.178 37.0145 216.99C37.0145 216.362 37.0345 215.663 37.0445 214.914C37.0245 214.156 36.9646 213.337 36.9246 212.449C36.8148 210.683 36.7848 208.666 36.4753 206.451C36.3555 205.343 36.2257 204.185 36.0859 202.977C35.9261 201.77 35.6964 200.522 35.4967 199.235C35.1273 196.64 34.5082 193.905 33.929 191.01C32.6409 185.251 31.0133 178.974 29.2159 172.396C27.4185 165.819 25.7709 159.531 24.4628 153.762C23.8637 150.868 23.2446 148.123 22.8452 145.518C22.6355 144.221 22.3959 142.973 22.2361 141.755C22.0963 140.548 21.9565 139.38 21.8267 138.262C21.5172 136.046 21.4672 134.01 21.3574 132.244C21.3174 131.355 21.2475 130.527 21.2376 129.768C21.2475 129.01 21.2675 128.321 21.2775 127.682C21.3075 126.485 21.3374 125.526 21.3574 124.798C21.3873 124.139 21.4073 123.8 21.4373 123.8H21.4173Z" fill="#263238"/>
<path d="M158.736 171.595L172.855 121.361L190.24 124.515C190.24 124.515 186.076 129.256 186.076 133.628C186.076 137.999 183.19 179.1 183.19 179.1C183.19 179.1 165.895 184.16 158.916 172.463" fill="#FFBE9D"/>
<path d="M172.856 121.371C172.856 121.371 170.919 116.131 172.457 111.6C173.994 107.069 179.197 103.555 178.877 100.831C178.558 98.106 181.324 91.5885 183.81 92.0975C186.306 92.6065 188.144 95.0718 186.037 99.2637C183.93 103.456 182.712 107.787 182.712 107.787C182.712 107.787 208.684 94.2634 210.801 93.9739C212.918 93.6845 215.044 93.3851 215.594 95.0818C216.143 96.7685 210.96 98.9344 210.96 98.9344L203.991 108.017C203.991 108.017 202.143 113.726 199.148 117.778C196.152 121.83 190.251 124.545 190.251 124.545L182.682 133.658C182.682 133.658 171.198 129.735 172.866 121.391L172.856 121.371Z" fill="#FFBE9D"/>
<path d="M210.512 99.2833C210.512 99.2833 210.282 99.1335 209.873 98.9339C209.473 98.7443 208.814 98.5746 208.025 98.7044C206.448 98.9938 204.441 100.351 202.793 102.258C201.125 104.184 200.067 106.28 199.288 107.777C198.519 109.284 198.03 110.222 197.94 110.182C197.85 110.142 198.18 109.144 198.839 107.557C199.508 105.99 200.516 103.805 202.264 101.778C204.001 99.7823 206.138 98.395 207.965 98.1954C208.884 98.1055 209.613 98.395 210.012 98.6844C210.422 98.9838 210.542 99.2533 210.512 99.2733V99.2833Z" fill="#EB996E"/>
<path d="M200.996 102.687C201.096 102.857 199.418 104.005 197.261 105.242C195.094 106.48 193.267 107.348 193.167 107.179C193.067 107.009 194.745 105.861 196.902 104.623C199.069 103.386 200.896 102.518 200.996 102.687Z" fill="#EB996E"/>
<path d="M187.236 108.515C187.156 108.346 189.193 107.657 191.6 108.475C194.016 109.274 195.224 111.061 195.055 111.14C194.905 111.29 193.567 109.863 191.37 109.154C189.193 108.396 187.266 108.725 187.236 108.515Z" fill="#EB996E"/>
<path d="M132.983 174.498C132.853 175.246 152.654 201.955 159.075 206.965C174.832 219.252 186.415 202.634 185.257 188.571C184.098 174.508 143.168 108.415 143.168 108.415L129.917 139.625L132.983 174.498Z" fill="#6E6E6E"/>
<path d="M29.3529 101.34L65.3603 92.8862L68.7553 87.1572L104.873 87.7261L113.26 96.7088L137.335 108.516L117.125 193.293L49.3437 196.776L29.3529 101.34Z" fill="#263238"/>
<path d="M70.554 86.0391L57.0837 94.403L28.7751 100.551L37.742 214.142C37.742 214.142 11.2507 265.783 7.19659 310.637H78.6222C78.6222 310.637 85.3923 253.606 84.6734 230.731C83.9644 207.855 84.4038 167.872 84.4038 167.872L65.9707 99.054L70.554 86.0491V86.0391Z" fill="#6E6E6E"/>
<path d="M107.401 94.4426L104.884 86.6875L114.291 96.1493C114.291 96.1493 119.873 98.0856 121.061 98.5247C130.417 102.008 143.178 108.416 143.178 108.416L127.232 209.391C127.232 209.391 148.621 266.402 146.893 310.636C146.893 310.636 97.9945 311.455 78.6328 310.636L83.8551 165.655C83.8551 165.655 100.83 145.624 103.656 125.473C106.482 105.322 107.401 94.4426 107.401 94.4426Z" fill="#6E6E6E"/>
<path d="M82.9745 181.595C82.9745 181.595 82.7449 181.395 82.3454 180.986C81.9161 180.517 81.3469 179.908 80.628 179.139C79.1102 177.453 76.9733 175.087 74.3371 172.163C68.975 166.134 61.5458 157.77 53.0482 148.209L52.9184 148.059L52.9684 147.87C54.0468 143.977 55.1851 139.885 56.3534 135.683C56.8627 133.866 57.3619 132.07 57.8512 130.293L58.1907 130.762C53.2479 130.573 48.5049 130.393 44.0714 130.223L43.5921 130.204L43.7618 129.754C47.5862 119.454 50.8714 110.621 53.228 104.293C54.3963 101.219 55.3349 98.7641 56.0039 96.9975C56.3235 96.199 56.5731 95.5602 56.7728 95.0612C56.9525 94.622 57.0524 94.4025 57.0724 94.4124C57.0923 94.4124 57.0224 94.652 56.8826 95.1011C56.7129 95.6101 56.4932 96.2589 56.2236 97.0773C55.5945 98.8639 54.7258 101.349 53.6374 104.443C51.3507 110.801 48.1554 119.654 44.4208 129.994L44.1113 129.525C48.5448 129.685 53.2879 129.854 58.2307 130.024L58.7 130.044L58.5702 130.493C58.0809 132.26 57.5816 134.056 57.0724 135.883C55.9041 140.085 54.7557 144.167 53.6673 148.059L53.5875 147.72C62.0151 157.351 69.3744 165.775 74.6866 171.843C77.2629 174.828 79.3398 177.243 80.8177 178.96C81.4867 179.758 82.0259 180.407 82.4353 180.896C82.7948 181.345 82.9845 181.575 82.9645 181.595H82.9745Z" fill="#263238"/>
<path d="M78.7308 310.636C78.5211 310.636 79.4697 277.909 80.8277 237.567C82.1957 197.215 83.4638 164.508 83.6636 164.518C83.8633 164.518 82.9246 197.235 81.5666 237.587C80.1986 277.929 78.9305 310.636 78.7308 310.626V310.636Z" fill="#263238"/>
<path d="M114.189 95.7705C114.189 95.7705 114.269 96.05 114.349 96.579C114.439 97.1778 114.549 97.9563 114.689 98.9244C114.968 101.05 115.358 104.015 115.847 107.698C116.776 115.243 118.074 125.703 119.552 137.66L119.612 138.139L119.132 138.059C116.626 137.63 113.99 137.171 111.304 136.712L111.703 136.193C112.172 137.251 112.682 138.388 113.191 139.526C114.199 141.772 115.188 143.988 116.127 146.094L116.227 146.303L116.077 146.483C107.489 156.434 99.8904 165.237 94.3784 171.634C91.6624 174.738 89.4556 177.244 87.8879 179.05C87.149 179.869 86.5598 180.527 86.1105 181.026C85.7011 181.476 83.005 183.492 82.9951 183.482C82.9851 183.472 85.6312 181.416 86.0107 180.937C86.44 180.418 86.9892 179.729 87.6882 178.881C89.2259 177.044 91.3628 174.489 94.009 171.325C99.471 164.897 107.01 156.034 115.528 146.024L115.468 146.413C114.529 144.307 113.53 142.101 112.532 139.846C112.023 138.708 111.513 137.57 111.044 136.512L110.764 135.873L111.453 135.993C114.14 136.462 116.776 136.921 119.282 137.36L118.863 137.76C117.485 125.783 116.286 115.323 115.418 107.757C115.028 104.075 114.709 101.1 114.479 98.9644C114.389 97.9863 114.319 97.2077 114.259 96.5989C114.219 96.06 114.209 95.7805 114.229 95.7705H114.189Z" fill="#263238"/>
<path d="M74.2288 264.435C72.7909 262.539 69.8851 261.361 68.3973 263.218L68.4572 263.188C67.0193 264.336 66.2804 266.392 66.9095 268.138C67.7183 270.384 70.644 271.592 72.7809 270.524C74.9178 269.456 75.6867 266.332 74.2388 264.425L74.2288 264.435Z" fill="#263238"/>
<path d="M76.4542 226.049C75.0163 224.152 72.1105 222.975 70.6227 224.831L70.6826 224.801C69.2447 225.949 68.5058 228.005 69.1349 229.752C69.9437 231.997 72.8694 233.205 75.0063 232.137C77.1432 231.069 77.912 227.945 76.4642 226.039L76.4542 226.049Z" fill="#263238"/>
<g opacity="0.3">
<path d="M44.0988 129.866C44.3385 130.635 49.4111 131.413 50.2898 133.549C51.1785 135.685 50.7392 138.131 50.1101 140.366C49.481 142.592 48.6622 144.848 48.8219 147.153C49.1015 151.295 52.3768 154.529 55.4323 157.344C63.9798 165.208 74.4245 173.732 82.9721 181.597C75.3931 171.935 65.5176 161.935 57.1398 152.962C55.9016 151.635 54.6135 150.247 54.0942 148.511C53.4352 146.335 54.0942 143.999 54.7333 141.813C55.5921 138.919 56.4508 136.035 57.3096 133.14C57.5292 132.402 58.0085 131.144 58.1184 130.735C58.1184 130.735 55.7618 130.266 54.943 130.345C54.943 130.345 47.404 129.547 44.0988 129.866Z" fill="black"/>
</g>
<path d="M141.84 125.512C141.84 125.512 141.84 125.811 141.75 126.38C141.65 127.019 141.52 127.827 141.371 128.835C141.001 131.051 140.492 134.105 139.863 137.838C138.575 145.513 136.817 155.973 134.88 167.521C132.933 179.119 131.096 189.608 129.688 197.184C128.979 200.966 128.39 204.031 127.96 206.146C127.75 207.145 127.581 207.943 127.451 208.572C127.321 209.121 127.251 209.41 127.221 209.41C127.201 209.41 127.221 209.111 127.311 208.542C127.411 207.903 127.541 207.095 127.691 206.087C128.06 203.871 128.569 200.817 129.198 197.084C130.487 189.409 132.244 178.949 134.181 167.391C136.128 155.803 137.956 145.314 139.374 137.738C140.082 133.955 140.672 130.891 141.101 128.775C141.311 127.777 141.48 126.979 141.61 126.35C141.74 125.801 141.81 125.512 141.84 125.512Z" fill="#263238"/>
<path d="M29.2946 100.432C29.2946 100.432 21.7057 102.468 16.3235 110.422C10.3423 119.265 -0.0225865 205.05 0.37683 210.999C0.776246 216.947 5.92872 232.018 19.8184 230.042C33.7081 228.056 70.6242 202.276 70.6242 202.276L57.9228 177.683L30.9322 190.378L34.6068 147.88L29.2846 100.432H29.2946Z" fill="#6E6E6E"/>
<g opacity="0.3">
<path d="M111.148 221.807C110.269 217.945 105.486 216.707 101.562 216.208C80.223 213.483 58.8941 210.769 37.5553 208.044L32.0034 226.039C32.5726 230.161 33.1518 234.353 34.9092 238.136C36.6666 241.909 39.7921 245.272 43.8361 246.26C47.4109 247.139 51.1455 246.081 54.6703 245.043C70.3574 240.402 86.0545 235.751 101.742 231.11C104.078 230.421 106.485 229.692 108.412 228.185C110.339 226.678 111.687 224.193 111.148 221.807Z" fill="black"/>
</g>
<g opacity="0.3">
<path d="M32.3303 147.58C31.5614 144.536 30.3932 141.093 27.4674 139.945C24.352 138.727 20.7273 140.993 19.3493 144.037C17.9713 147.081 18.2609 150.594 18.7502 153.908C20.4477 165.396 24.5018 178.161 28.2563 189.16L41.3871 184.339C39.6496 172.163 35.3459 159.507 32.3303 147.59V147.58Z" fill="black"/>
</g>
<path d="M167.973 137.101L155.052 175.996L171.828 188.172L185.348 193.602C185.348 193.532 187.874 174.169 187.245 180.926L190.251 140.953L167.983 137.101H167.973Z" fill="#6E6E6E"/>
<path d="M167.971 137.101C167.971 137.101 167.891 137.72 167.661 138.827C167.441 139.935 167.052 141.522 166.553 143.478C165.534 147.381 163.827 152.701 161.76 158.49C159.683 164.278 157.925 169.548 156.827 173.421C156.278 175.357 155.838 176.924 155.559 178.012C155.269 179.1 155.089 179.699 155.05 179.689C155.01 179.689 155.129 179.07 155.359 177.962C155.579 176.854 155.968 175.267 156.467 173.311C157.486 169.409 159.193 164.089 161.26 158.3C163.337 152.511 165.085 147.241 166.193 143.369C166.742 141.432 167.182 139.865 167.461 138.777C167.751 137.69 167.931 137.091 167.971 137.101Z" fill="#263238"/>
<path d="M163.749 195.727C163.689 195.767 163.06 194.989 162.141 193.661C161.222 192.334 160.034 190.438 158.876 188.262C157.718 186.086 156.819 184.04 156.23 182.533C155.641 181.026 155.361 180.068 155.421 180.048C155.491 180.018 155.9 180.926 156.569 182.393C157.238 183.85 158.187 185.856 159.335 188.022C160.484 190.188 161.612 192.094 162.451 193.462C163.289 194.839 163.809 195.677 163.749 195.727Z" fill="#263238"/>
<path d="M29.2926 187.854C29.2326 187.983 27.4353 187.305 25.2085 186.516C22.9818 185.718 21.1544 185.119 21.1944 184.979C21.2243 184.839 23.1315 185.229 25.3783 186.027C27.625 186.826 29.3425 187.724 29.2926 187.854Z" fill="#263238"/>
<path d="M33.3577 132.648C33.3577 132.648 33.1879 132.349 32.9583 131.78C32.7286 131.211 32.439 130.383 32.0995 129.335C31.4405 127.249 30.6816 124.314 30.1723 121.011C29.6731 117.707 29.5133 114.683 29.5233 112.497C29.5233 111.399 29.5532 110.521 29.6032 109.912C29.6531 109.303 29.693 108.964 29.723 108.964C29.8029 108.964 29.7929 110.311 29.8828 112.487C29.9626 114.663 30.1823 117.657 30.6816 120.931C31.1809 124.205 31.8798 127.129 32.449 129.225C33.0182 131.321 33.4276 132.608 33.3477 132.638L33.3577 132.648Z" fill="#263238"/>
<g opacity="0.3">
<path d="M115.838 140.563C117.416 140.673 118.993 140.783 120.571 140.883C118.584 138.188 114.949 136.83 111.684 137.549C111.784 140.394 114.76 142.609 114.58 145.444C114.48 146.971 113.472 148.268 112.513 149.456C108.948 153.868 107.311 155.884 103.736 160.295L104.355 165.725C107.95 160.585 111.594 155.794 115.189 150.654C116.287 149.087 117.416 147.45 117.775 145.574C118.135 143.687 117.516 141.481 115.838 140.563Z" fill="black"/>
</g>
<g opacity="0.3">
<path d="M162.71 154.986L164.138 150.784C161.732 158 153.564 163.54 150.878 170.666C148.621 176.644 149.789 183.781 153.823 188.741C154.752 189.879 156.35 190.977 157.568 190.148C158.427 189.56 159.126 188.402 158.736 187.434C158.347 186.465 155.551 180.617 155.052 179.699C154.672 179 155.511 176.994 156.629 173.241C158.596 166.614 160.743 161.623 162.71 154.996V154.986Z" fill="black"/>
</g>
<path d="M58.7206 40.8652C58.3511 53.6506 63.7832 66.4859 73.2094 75.1293C75.3663 68.8813 77.5231 62.6233 79.68 56.3754" fill="#263238"/>
<path d="M107.54 3.56804C101.978 0.533877 95.2683 0.0947263 89.0574 1.34232C82.8464 2.58992 77.0549 5.39452 71.5729 8.56841C68.4974 10.345 65.4319 12.3012 63.2151 15.0859C59.181 20.1661 55.1868 28.5 54.7974 34.9676C54.4879 40.1975 56.4849 53.3023 58.7017 58.0631C60.7287 62.4247 70.2349 65.7483 74.928 66.8262L117.975 16.7826C116.457 11.2233 112.593 6.3427 107.54 3.57802V3.56804Z" fill="#263238"/>
<path d="M114.969 10.3152L104.644 8.46875C110.286 21.9029 111.814 52.6038 115.039 66.8164C118.844 61.297 127.681 44.4894 127.202 37.8123C126.732 31.1251 127.221 9.17738 114.959 10.3152H114.969Z" fill="#263238"/>
<path d="M120.872 32.2134C120.203 21.9133 113.343 9.27759 103.068 10.3855L79.3028 16.4438C71.6739 18.39 66.6013 24.8276 66.0421 32.6725C66.0122 33.0618 65.9722 32.5827 65.9822 32.8821L71.2845 94.4037L89.1284 129.796L104.875 92.677C104.875 87.6567 104.875 83.6644 104.885 83.6943C104.885 83.6943 118.056 81.4786 120.742 64.2917C122.08 55.7481 121.621 43.6614 120.872 32.2134Z" fill="#FFBE9D"/>
<path d="M116.718 45.1883C116.757 46.356 115.809 47.3441 114.601 47.414C113.392 47.4839 112.364 46.5956 112.324 45.4278C112.284 44.2601 113.233 43.262 114.441 43.2021C115.659 43.1322 116.678 44.0205 116.718 45.1883Z" fill="#263238"/>
<path d="M118.284 38.9403C118.014 39.2298 116.337 37.9922 113.97 38.0121C111.604 37.9922 109.866 39.2098 109.607 38.9204C109.477 38.7906 109.756 38.2716 110.515 37.7227C111.264 37.1737 112.532 36.6348 114.01 36.6348C115.488 36.6348 116.736 37.1837 117.445 37.7327C118.174 38.2916 118.424 38.8106 118.294 38.9403H118.284Z" fill="#263238"/>
<path d="M96.1383 45.1883C96.1782 46.356 95.2296 47.3441 94.0214 47.414C92.8132 47.4839 91.7847 46.5956 91.7447 45.4278C91.7048 44.2601 92.6534 43.272 93.8616 43.2021C95.0799 43.1322 96.0984 44.0205 96.1383 45.1883Z" fill="#263238"/>
<path d="M95.7582 38.9403C95.4886 39.2298 93.811 37.9922 91.4445 38.0121C89.0779 37.9922 87.3405 39.2098 87.0809 38.9204C86.951 38.7906 87.2306 38.2716 87.9895 37.7227C88.7384 37.1737 90.0066 36.6348 91.4844 36.6348C92.9623 36.6348 94.2105 37.1837 94.9194 37.7327C95.6484 38.2916 95.898 38.8106 95.7682 38.9403H95.7582Z" fill="#263238"/>
<path d="M103.176 57.5647C103.166 57.4349 104.634 57.1754 107.031 56.866C107.64 56.8061 108.209 56.6764 108.309 56.2672C108.449 55.828 108.199 55.1793 107.9 54.4706C107.33 53.0035 106.731 51.4764 106.102 49.8695C103.596 43.3121 101.789 37.9225 102.048 37.8227C102.318 37.7229 104.554 42.9628 107.061 49.5202C107.66 51.1371 108.239 52.6741 108.788 54.1513C109.018 54.8399 109.417 55.6184 109.108 56.5267C108.948 56.9758 108.499 57.3052 108.109 57.415C107.72 57.5347 107.38 57.5447 107.081 57.5647C104.674 57.7044 103.186 57.7144 103.176 57.5747V57.5647Z" fill="#263238"/>
<path d="M82.0771 77.5752C82.0771 77.5752 87.6689 89.3725 104.864 87.7257V83.6834C104.864 83.6834 93.5404 84.432 82.0771 77.5752Z" fill="#EB996E"/>
<path d="M95.0189 30.3768C94.7893 31.0256 92.4127 30.7261 89.6368 31.0655C86.8508 31.3549 84.6041 32.1734 84.2347 31.5945C84.0649 31.315 84.4544 30.7062 85.363 30.0874C86.2617 29.4586 87.6996 28.8697 89.3672 28.6801C91.0347 28.4904 92.5625 28.7599 93.581 29.1691C94.5995 29.5784 95.1188 30.0874 95.0189 30.3868V30.3768Z" fill="#263238"/>
<path d="M117.514 31.694C117.095 32.233 115.467 31.6741 113.5 31.6541C111.533 31.5643 109.875 32.0234 109.486 31.4645C109.316 31.195 109.576 30.656 110.305 30.137C111.024 29.628 112.222 29.2088 113.57 29.2487C114.918 29.2887 116.086 29.7777 116.775 30.3267C117.474 30.8756 117.704 31.4345 117.514 31.694Z" fill="#263238"/>
<path d="M116.197 16.523C115.149 13.938 112.313 12.391 109.517 12.2413C106.731 12.1015 104.005 13.1595 101.589 14.5468C91.3536 20.4554 86.0913 34.7479 75.976 40.8661C73.4897 42.3732 70.2544 40.9959 68.1375 42.9821C66.0206 44.9782 64.6526 48.1621 65.8209 50.817C64.4628 48.9506 63.0849 47.0542 62.316 44.8884C61.5471 42.7126 61.4473 40.1875 62.5956 38.1913C63.4743 36.6742 65.012 35.5164 65.4414 33.8197C65.8109 32.3226 65.2217 30.7656 65.2916 29.2285C65.3615 27.6616 66.0905 26.2143 66.8693 24.847C70.8335 17.8405 76.2856 11.5127 83.2953 7.57025C87.8786 4.99521 93.121 3.48811 98.3833 3.66777C103.636 3.84742 108.888 5.77371 112.732 9.35681C114.999 11.4628 117.376 13.6485 116.197 16.503" fill="#263238"/>
<path d="M68.3864 45.1193C68.2066 44.6302 59.2397 41.3965 59.1199 50.9181C59.0001 60.1703 68.3464 58.3538 68.3664 58.0843C68.3864 57.8149 68.3864 45.1193 68.3864 45.1193Z" fill="#FFBE9D"/>
<path d="M65.5384 54.5507C65.5384 54.5507 65.3787 54.6605 65.0991 54.7802C64.8295 54.9 64.3701 54.9798 63.8908 54.7902C62.9123 54.4209 62.1035 52.8639 62.0735 51.1971C62.0535 50.3587 62.2433 49.5503 62.5428 48.8916C62.8324 48.2129 63.2718 47.7438 63.771 47.6639C64.2603 47.5541 64.6098 47.8536 64.7196 48.1131C64.8395 48.3726 64.7795 48.5522 64.8295 48.5722C64.8594 48.5921 65.0292 48.4225 64.9593 48.0332C64.9193 47.8536 64.8195 47.634 64.5998 47.4543C64.3801 47.2747 64.0506 47.1749 63.7111 47.2148C62.9922 47.2547 62.3431 47.9035 62.0136 48.6321C61.6441 49.3607 61.4145 50.2589 61.4344 51.2071C61.4744 53.0735 62.413 54.8301 63.751 55.2294C64.4001 55.409 64.9493 55.2094 65.2289 54.9998C65.5185 54.7702 65.5684 54.5706 65.5384 54.5507Z" fill="#EB996E"/>
<path d="M64.702 40.3671C64.702 40.3671 64.9017 40.2673 65.2612 40.0577C65.6107 39.8281 66.1599 39.5287 66.8089 39.0696C68.107 38.1314 69.8944 36.6542 71.8116 34.5183C73.7288 32.4024 75.7459 29.6477 77.9227 26.5836C80.1095 23.5195 82.506 20.136 85.5615 17.0719C87.1193 15.5748 88.7569 14.2374 90.4943 13.1794C92.2218 12.1115 94.0391 11.333 95.8165 10.7641C99.3813 9.61629 102.806 9.36677 105.622 9.5564C108.458 9.73606 110.695 10.3349 112.193 10.8439C112.952 11.0735 113.521 11.333 113.91 11.4827C114.3 11.6324 114.509 11.7123 114.519 11.6923C114.519 11.6823 114.33 11.5825 113.95 11.4029C113.571 11.2332 113.011 10.9437 112.253 10.6942C110.765 10.1353 108.508 9.48654 105.652 9.26696C102.806 9.0374 99.3314 9.25698 95.7067 10.3948C93.8994 10.9537 92.0521 11.7522 90.2846 12.8301C88.5172 13.8981 86.8497 15.2654 85.272 16.7725C82.1765 19.8666 79.78 23.28 77.6131 26.3541C75.4463 29.4381 73.4792 32.1828 71.5919 34.3187C69.7247 36.4646 67.9772 37.9617 66.7191 38.9299C66.09 39.4089 65.5608 39.7283 65.2212 39.9778C64.8817 40.2174 64.702 40.3471 64.712 40.3571L64.702 40.3671Z" fill="#455A64"/>
<path d="M64.4933 56.1869C63.5946 56.0172 62.616 56.646 62.3963 57.5343C62.1767 58.4226 62.7358 59.4406 63.6146 59.7101C64.4933 59.9896 65.5318 59.4905 65.8713 58.6322C66.2008 57.7738 65.7714 56.7059 64.9326 56.3166" fill="white"/>
<path d="M64.9231 56.327C64.8732 56.3769 65.5222 56.6464 65.7519 57.5746C65.8617 58.0138 65.8018 58.6026 65.3924 59.0318C65.003 59.461 64.304 59.7205 63.665 59.5308C63.0359 59.3212 62.6165 58.7024 62.5466 58.1335C62.4567 57.5447 62.7463 57.0356 63.0958 56.7362C63.8147 56.1174 64.5037 56.2771 64.4938 56.2072C64.4938 56.1873 64.354 56.1074 64.0644 56.1074C63.7748 56.1074 63.3354 56.1873 62.9061 56.5066C62.4867 56.8061 62.0773 57.4349 62.1671 58.1734C62.237 58.8821 62.7163 59.6606 63.5451 59.9301C64.3839 60.1796 65.2227 59.8303 65.692 59.2913C66.1913 58.7324 66.2212 57.9938 66.0515 57.5047C65.8917 56.9957 65.5822 56.6663 65.3425 56.5066C65.1029 56.347 64.9431 56.317 64.9331 56.337L64.9231 56.327Z" fill="#263238"/>
<path d="M67.0426 42.9814C66.8928 45.5065 66.783 48.1814 67.9513 50.4271C69.1196 52.6727 72.0653 54.1998 74.262 52.9422C76.0594 51.9142 76.5886 49.6186 76.8982 47.5825C77.7769 41.6939 78.1763 35.7353 79.105 29.8467L67.0426 42.9914V42.9814Z" fill="#263238"/>
<path d="M97.3458 62.0643C96.4571 63.2321 96.1775 64.8389 96.6269 66.2462C97.0762 67.6435 98.2345 68.7913 99.6425 69.2305C100.202 69.4002 100.821 69.4601 101.37 69.2604C102.339 68.8911 102.818 67.8332 103.207 66.875C103.527 66.0766 103.846 65.2781 104.166 64.4796C104.276 64.2102 104.376 63.9008 104.256 63.6413C104.126 63.3618 103.776 63.262 103.477 63.1821C101.5 62.7031 99.5127 62.224 97.5356 61.7549" fill="#EB996E"/>
<path d="M101.229 68.9628C101.229 69.0226 100.18 69.1424 98.5327 68.6234C97.7339 68.3439 96.7553 67.7751 96.1662 66.6971C95.8666 66.1881 95.7368 65.4695 95.8067 64.8607C95.8466 64.2319 95.9964 63.5731 96.276 62.9643C96.5456 62.3655 96.945 61.8365 97.3944 61.4173L97.5542 61.2676L97.7539 61.3374C101.688 62.7248 104.764 63.4234 104.734 63.5931C104.704 63.7628 101.538 63.3436 97.5242 61.9962L97.8737 61.9163C97.4942 62.2856 97.1647 62.7347 96.9251 63.2537C96.4757 64.3117 96.296 65.5394 96.7553 66.3877C97.2047 67.276 98.0035 67.8349 98.7224 68.1443C100.2 68.7432 101.259 68.823 101.239 68.9528L101.229 68.9628Z" fill="#263238"/>
<path d="M113.922 12.1217C113.912 12.1716 113.103 11.972 111.625 11.9221C110.147 11.8822 107.971 12.0818 105.494 13.04C104.266 13.519 102.948 14.1578 101.66 15.0162C100.362 15.8745 99.0337 16.9025 97.6956 18.0403C95.0395 20.3359 92.2935 23.0906 89.947 26.3943C88.7687 28.0411 87.7302 29.7378 86.6018 31.3148C85.4835 32.8917 84.2353 34.319 82.8873 35.4867C80.1912 37.8223 77.4253 39.4591 75.0687 40.7167C72.7022 41.9643 70.725 42.8426 69.357 43.4514C68.708 43.7309 68.1888 43.9505 67.7694 44.1301C67.3999 44.2798 67.2102 44.3497 67.2002 44.3297C67.2002 44.3098 67.3699 44.2099 67.7194 44.0303C68.1188 43.8307 68.6281 43.5812 69.2572 43.2718C70.5952 42.613 72.5524 41.6848 74.879 40.3973C77.2056 39.1098 79.9316 37.453 82.5578 35.1274C83.8658 33.9697 85.0741 32.5823 86.1725 31.0154C87.2808 29.4584 88.3193 27.7616 89.5076 26.0948C91.8841 22.7513 94.6701 19.9766 97.3761 17.681C98.7341 16.5432 100.082 15.5152 101.41 14.6668C102.738 13.8085 104.086 13.1797 105.354 12.7106C107.891 11.7724 110.127 11.6327 111.615 11.7325C112.364 11.7824 112.943 11.8822 113.333 11.972C113.722 12.0618 113.912 12.1217 113.912 12.1417L113.922 12.1217Z" fill="#455A64"/>
<path d="M66.7797 37.264C66.7797 37.264 66.5101 37.4836 65.9609 37.813C65.3218 38.1822 64.543 38.6414 63.6143 39.1903C63.3647 39.34 63.0951 39.4897 62.8255 39.6394C62.5359 39.7991 62.2064 39.9389 61.8169 39.9788C61.6272 39.9888 61.3975 39.9788 61.1879 39.8291C60.9881 39.6893 60.8583 39.4598 60.8384 39.2203C60.8184 38.7312 61.078 38.3719 61.2777 38.0525C62.1165 36.7151 63.0252 35.2479 64.0037 33.7009L64.3732 34.0402C63.5045 34.679 62.4959 35.198 61.3975 35.5273C60.2992 35.8567 59.1708 35.9865 58.0824 35.9166C57.8128 35.9166 57.5232 35.8767 57.2436 35.7769C56.974 35.6771 56.6545 35.4974 56.5247 35.1481C56.3849 34.8087 56.5247 34.4395 56.6844 34.2099C56.8442 33.9704 57.0439 33.8007 57.2137 33.631C58.5917 32.3036 59.6201 30.8963 60.3691 29.6587C61.8569 27.1535 62.2763 25.3669 62.3761 25.3969C62.4061 25.3969 62.3262 25.856 62.0865 26.6445C61.8369 27.423 61.4175 28.5508 60.6886 29.8483C59.9696 31.1358 58.9511 32.593 57.5532 33.9803C57.2037 34.3097 56.8642 34.679 56.994 34.9784C57.1038 35.2679 57.6331 35.4176 58.1124 35.4176C59.1309 35.4675 60.2093 35.3477 61.2478 35.0383C62.2863 34.7289 63.2448 34.2498 64.0736 33.641L65.182 32.8325L64.4431 33.9803C63.4545 35.5274 62.5159 36.9746 61.6672 38.302C61.4575 38.6214 61.2578 38.9408 61.2777 39.2003C61.2877 39.4598 61.5174 39.6195 61.807 39.5895C62.4061 39.5596 62.9453 39.1504 63.4745 38.9009C64.4331 38.4118 65.2419 37.9926 65.891 37.6632C66.4602 37.3838 66.7797 37.244 66.7997 37.264H66.7797Z" fill="#455A64"/>
<path d="M20.6307 144.951L37.4661 233.43C38.1451 236.973 41.5601 239.299 45.1049 238.62L109.76 226.184C113.315 225.505 115.632 222.062 114.923 218.519L97.109 128.532C96.4 124.949 92.8851 122.644 89.3103 123.432L25.6334 137.385C22.1784 138.144 19.9616 141.507 20.6207 144.971L20.6307 144.951Z" fill="#AD4A2B"/>
<path d="M63.7365 177.648L69.1087 174.973C69.1087 174.973 70.8561 165.751 73.702 162.497C76.5478 159.243 80.7217 155.501 80.6917 154.622C80.6618 153.754 81.9998 147.666 81.9998 147.666C81.9998 147.666 84.5062 145.48 85.0054 149.851C85.5047 154.223 85.0054 157.497 85.0054 157.497C85.0054 157.497 100.093 153.744 101.841 153.305C103.588 152.866 105.765 153.035 105.545 154.782C105.326 156.529 104.397 157.427 103.049 158.515C102.18 159.213 101.451 159.453 101.451 159.453C101.451 159.453 104.247 162.038 104.247 164.573C104.247 167.108 107.133 172.997 104.507 175.831C101.881 178.666 89.8683 187.189 83.5276 188.277C77.1869 189.365 75.6491 191.242 72.7034 195.004L63.7365 177.628V177.648Z" fill="#FFBE9D"/>
<path d="M86.4039 157.177C86.4738 157.307 84.4767 158.484 82.22 160.211C79.9533 161.928 78.2957 163.554 78.1859 163.445C78.086 163.355 79.5938 161.548 81.9005 159.802C84.1971 158.045 86.344 157.057 86.3939 157.177H86.4039Z" fill="#EB996E"/>
<path d="M102.44 158.963C102.499 159.103 100.702 159.911 98.4055 160.61C96.1088 161.309 94.2615 161.887 94.2116 161.768C94.1517 161.628 95.9491 160.819 98.2457 160.121C100.542 159.422 102.39 158.843 102.44 158.963Z" fill="#EB996E"/>
<path d="M26.2126 190.264L63.2984 174.564L77.1981 202.281L26.2126 228.261V190.264Z" fill="#6E6E6E"/>
<path d="M62.5879 175.412C62.6378 175.541 52.6225 179.673 40.2106 184.624C27.7987 189.584 17.6935 193.497 17.6436 193.357C17.5936 193.227 27.609 189.095 40.0209 184.135C52.4327 179.174 62.538 175.272 62.5879 175.402V175.412Z" fill="#263238"/>
<g opacity="0.3">
<path d="M28.6604 188.567C24.157 189.466 19.7435 190.793 15.4897 192.53C13.7622 193.238 12.0247 194.037 10.6068 195.254C9.18889 196.472 8.09049 198.179 7.98065 200.045C9.11899 199.367 10.457 198.947 11.3957 198.009C15.5995 193.787 22.8589 191.332 29.0199 188.997L28.6505 188.577L28.6604 188.567Z" fill="black"/>
</g>
</svg>
