<svg width="288" height="277" viewBox="0 0 288 277" fill="none" xmlns="http://www.w3.org/2000/svg">
<path fill-rule="evenodd" clip-rule="evenodd" d="M66.4689 63.757C68.1468 60.9773 70.675 59.9158 74.0533 60.5722C77.4064 61.9555 79.8372 64.2172 81.3459 67.3572C82.0282 59.0836 83.2438 50.8679 84.9923 42.7096C86.5549 37.6436 90.1039 34.6435 95.6396 33.7091C102.347 32.4327 109.056 32.4327 115.767 33.7091C120.522 34.7681 125.286 35.7836 130.061 36.7554C132.577 37.088 135.105 37.2265 137.645 37.1708C139.051 42.858 139.829 48.6275 139.979 54.4795C139.977 55.0425 139.88 55.5501 139.687 56.0027C139.687 58.0335 139.687 60.0645 139.687 62.0953C141.426 52.9561 142.739 43.7246 143.625 34.4014C145.783 32.6296 147.631 30.5988 149.168 28.3088C153.764 18.7635 151.965 10.5015 143.771 3.52277C143.494 3.35184 143.251 3.39798 143.042 3.66124C142.904 4.29238 142.612 4.84626 142.167 5.32287C140.674 2.98249 138.633 1.22853 136.041 0.0610352C131.16 2.86282 125.958 4.93987 120.435 6.29216C113.672 7.29387 106.865 7.84775 100.015 7.95379C90.9635 8.69457 82.6983 11.464 75.2201 16.262C72.2103 18.6999 70.8489 21.7924 71.1362 25.5394C66.9239 26.5369 64.1527 29.0294 62.8225 33.0167C61.4323 37.7446 61.1406 42.5451 61.9474 47.4176C63.0442 52.9674 64.5515 58.414 66.4689 63.757Z" fill="#263238"/>
<path fill-rule="evenodd" clip-rule="evenodd" d="M139.396 10.0308C136.493 18.5534 130.367 23.5844 121.018 25.1239C117.431 25.4499 113.833 25.6343 110.225 25.6778C111.042 26.019 111.917 26.2037 112.85 26.2317C119.186 27.0611 125.166 26.0918 130.79 23.3238C135.812 20.1604 138.68 15.7293 139.396 10.0308Z" fill="#4B4B4C"/>
<path fill-rule="evenodd" clip-rule="evenodd" d="M148.73 16.1235C145.61 25.3041 138.9 30.0583 128.603 30.3859C134.856 31.4371 140.156 29.8218 144.501 25.5395C146.946 22.8332 148.356 19.6945 148.73 16.1235Z" fill="#4B4C4C"/>
<path fill-rule="evenodd" clip-rule="evenodd" d="M255.787 26.9237C253.691 37.5928 254.031 48.2087 256.808 58.7717C259.263 69.2341 263.396 79.0192 269.205 88.1272C270.412 89.3083 271.482 90.6005 272.414 92.0043C273.856 93.5992 275.606 94.8454 277.665 95.743C280.368 96.7632 282.556 96.1631 284.228 93.9429C286.408 90.1646 287.575 86.1027 287.729 81.7576C288.074 64.1454 283.796 47.6213 274.894 32.1855C272.745 28.4375 269.877 25.2527 266.288 22.6312C264.092 21.0915 261.758 20.8145 259.287 21.8003C257.718 23.2565 256.551 24.9641 255.787 26.9237Z" fill="#475C66"/>
<path fill-rule="evenodd" clip-rule="evenodd" d="M261.329 22.77C264.346 31.7356 266.583 40.8746 268.038 50.1869C270.471 50.6915 272.173 52.0762 273.143 54.341C274.585 57.6585 274.974 61.0739 274.31 64.5877C273.945 66.1832 272.924 67.014 271.247 67.0802C273.082 74.6248 276.34 81.5483 281.019 87.8506C282.002 88.8301 283.023 89.7534 284.082 90.62C285.818 85.2388 286.451 79.7 285.978 74.0037C284.863 61.2764 281.557 49.0911 276.06 37.4477C273.635 32.2366 270.183 27.7593 265.705 24.0162C264.419 23.071 262.96 22.6556 261.329 22.77Z" fill="#DFDFDF"/>
<path fill-rule="evenodd" clip-rule="evenodd" d="M255.787 26.9241C253.423 29.3071 250.992 31.6611 248.494 33.986C237.874 41.979 226.109 48.0257 213.198 52.1255C212.859 60.0667 213.782 67.9135 215.969 75.6653C216.233 76.4435 216.573 77.1818 216.99 77.8808C228.215 77.8415 239.202 79.3646 249.953 82.4503C256.228 84.4359 262.499 86.4208 268.768 88.4045C268.991 88.3851 269.137 88.2929 269.205 88.1275C263.396 79.0196 259.263 69.2345 256.808 58.772C254.031 48.209 253.691 37.5931 255.787 26.9241Z" fill="#DFDFDF"/>
<path fill-rule="evenodd" clip-rule="evenodd" d="M81.346 67.3568C81.2722 68.0013 81.4667 68.5551 81.9294 69.0185C82.6385 62.9136 83.4649 56.821 84.4089 50.7405C84.875 46.5654 86.2364 42.6882 88.4928 39.1091C91.8562 36.0428 95.8917 34.4272 100.599 34.2627C103.71 34.0779 106.822 34.0779 109.933 34.2627C116.609 35.1425 123.221 36.3425 129.769 37.8629C132.012 38.0442 134.249 38.2752 136.479 38.5552C137.046 40.2778 137.483 42.0316 137.791 43.817C138.331 47.9323 138.963 51.9939 139.687 56.0023C139.88 55.5498 139.977 55.0422 139.979 54.4792C139.829 48.6272 139.051 42.8577 137.645 37.1705C135.105 37.2262 132.577 37.0877 130.061 36.7551C125.286 35.7833 120.522 34.7678 115.767 33.7088C109.056 32.4324 102.347 32.4324 95.6396 33.7088C90.1039 34.6432 86.555 37.6432 84.9923 42.7093C83.2438 50.8676 82.0283 59.0833 81.346 67.3568Z" fill="#E5A98A"/>
<path fill-rule="evenodd" clip-rule="evenodd" d="M81.346 67.3572C79.8373 64.2173 77.4065 61.9555 74.0533 60.5722C70.675 59.9159 68.1468 60.9774 66.4689 63.757C65.9523 66.1977 66.0982 68.5976 66.9065 70.9574C68.4169 73.6368 70.313 76.037 72.5948 78.1578C73.8526 78.5694 75.1169 78.9848 76.387 79.4041C77.2781 79.5796 78.1532 79.5337 79.0123 79.2656C79.1532 78.6093 79.4933 78.4245 80.0333 78.7117C81.6359 83.3665 84.2613 87.4284 87.9094 90.897C94.1429 96.9268 101.484 101.312 109.933 104.052C113.501 104.81 117.098 104.948 120.726 104.467C122.562 103.826 124.312 102.949 125.977 101.836C133.398 95.7335 137.823 88.0254 139.25 78.7117C139.313 73.1663 139.458 67.6275 139.687 62.0954C139.687 60.0646 139.687 58.0335 139.687 56.0027C138.963 51.9943 138.331 47.9327 137.791 43.8174C137.483 42.032 137.046 40.2782 136.479 38.5556C134.249 38.2756 132.012 38.0446 129.769 37.8633C123.221 36.3429 116.609 35.1429 109.933 34.2631C106.822 34.0783 103.71 34.0783 100.599 34.2631C95.8917 34.4276 91.8562 36.0432 88.4928 39.1095C86.2364 42.6886 84.875 46.5658 84.4089 50.7409C83.4649 56.8214 82.6385 62.914 81.9294 69.0189C81.4667 68.5555 81.2722 68.0017 81.346 67.3572Z" fill="#FEBD9C"/>
<path fill-rule="evenodd" clip-rule="evenodd" d="M132.686 47.971C130.504 47.8538 128.462 48.2692 126.56 49.2172C125.317 49.7766 124.927 50.6537 125.394 51.8481C127.499 51.5668 129.59 51.1976 131.665 50.7404C133.473 50.9968 135.272 51.2738 137.062 51.5712C136.412 49.4767 134.953 48.2764 132.686 47.971Z" fill="#2B353A"/>
<path fill-rule="evenodd" clip-rule="evenodd" d="M106.141 48.248C103.69 48.1455 101.259 48.284 98.8483 48.6634C97.9732 49.1251 97.0981 49.5865 96.223 50.0481C95.6083 50.3982 95.3166 50.9058 95.3478 51.5713C97.496 51.0974 99.6838 50.8205 101.911 50.7405C104.531 50.8884 107.108 51.2113 109.641 51.7098C110.174 51.3038 110.32 50.7961 110.079 50.1866C108.983 49.0896 107.671 48.4435 106.141 48.248Z" fill="#2C363B"/>
<path fill-rule="evenodd" clip-rule="evenodd" d="M266.288 51.5713C265.72 52.7452 265.428 53.9915 265.413 55.31C265.68 58.4945 266.604 61.4946 268.184 64.3105C268.991 65.218 269.915 65.9563 270.956 66.526C271.398 66.5229 271.739 66.3385 271.977 65.9721C273.375 63.4248 273.667 60.7477 272.852 57.9409C272.315 56.0912 271.537 54.3374 270.518 52.679C269.403 51.3251 267.993 50.9557 266.288 51.5713Z" fill="#DEDEDE"/>
<path fill-rule="evenodd" clip-rule="evenodd" d="M213.198 52.1255C201.584 55.2973 189.916 58.2976 178.193 61.126C175.058 63.2834 173.21 66.1912 172.65 69.8496C172.246 78.654 174.482 86.7777 179.36 94.2202C179.119 94.4656 178.827 94.5578 178.484 94.4971C178.908 94.7192 179.394 94.8577 179.943 94.9125C180.939 96.0444 182.106 96.9674 183.443 97.6819C186.125 98.0419 188.702 97.719 191.174 96.7126C192.616 98.8656 194.318 100.804 196.279 102.528C197.434 101.893 198.407 101.062 199.196 100.036C198.671 98.4593 198.185 96.8899 197.737 95.3279C202.487 94.2238 207.251 93.162 212.031 92.1431C212.739 91.9485 213.42 91.9944 214.073 92.2816C214.095 91.9354 214.29 91.7048 214.656 91.5893C217.51 90.965 220.33 90.3652 223.116 89.7892C220.691 86.0153 218.649 82.046 216.99 77.8808C216.574 77.1818 216.233 76.4435 215.969 75.6653C213.782 67.9135 212.859 60.0667 213.198 52.1255Z" fill="#455A64"/>
<path fill-rule="evenodd" clip-rule="evenodd" d="M133.27 59.3259C132.803 60.9253 131.977 61.1097 130.79 59.8798C130.645 59.147 130.597 58.4084 130.644 57.6643C131.553 57.6349 132.331 57.9119 132.978 58.4951C131.973 56.9011 130.612 56.5779 128.894 57.5258C127.506 58.7696 127.068 60.2927 127.582 62.0953C128.413 64.004 129.823 64.5116 131.811 63.6185C133.197 62.4177 133.684 60.987 133.27 59.3259Z" fill="#2B363B"/>
<path fill-rule="evenodd" clip-rule="evenodd" d="M106.724 58.7721C106.724 59.5107 106.724 60.249 106.724 60.9876C104.847 60.7298 104.021 59.7143 104.245 57.9413C104.718 57.7754 105.156 57.5907 105.558 57.3874C102.793 56.7596 101.238 57.7749 100.89 60.4338C101.081 63.5352 102.637 64.5045 105.558 63.3416C107.199 62.0475 107.589 60.5243 106.724 58.7721Z" fill="#2A353A"/>
<path fill-rule="evenodd" clip-rule="evenodd" d="M133.27 59.3263C133.339 58.9688 133.242 58.6919 132.978 58.4955C132.331 57.9123 131.553 57.6354 130.644 57.6647C130.597 58.4088 130.645 59.1474 130.79 59.8802C131.977 61.1101 132.803 60.9257 133.27 59.3263Z" fill="#F5F5F6"/>
<path fill-rule="evenodd" clip-rule="evenodd" d="M105.558 57.3875C105.156 57.5907 104.718 57.7754 104.245 57.9413C104.021 59.7143 104.847 60.7298 106.724 60.9877C106.724 60.2491 106.724 59.5107 106.724 58.7721C106.327 58.3038 105.938 57.8422 105.558 57.3875Z" fill="#F1F1F1"/>
<path fill-rule="evenodd" clip-rule="evenodd" d="M121.893 63.2026C121.738 64.4638 121.884 65.756 122.331 67.0798C123.184 68.544 124.662 70.4363 125.559 71.9262C126.58 73.7263 125.851 74.6956 123.955 75.2495C121.621 75.6649 120.149 75.2791 118.393 75.6649C118.095 75.8039 118.046 75.9883 118.247 76.2188C120.725 76.9612 123.205 76.915 125.685 76.0803C128.184 74.9725 127.878 73.0603 126.415 71.2339C124.143 68.9516 122.636 66.2744 121.893 63.2026Z" fill="#263238"/>
<path fill-rule="evenodd" clip-rule="evenodd" d="M72.5947 64.0338C70.2479 63.99 68.8868 65.0515 68.5108 67.2186C68.7141 68.9791 69.5405 70.41 70.9903 71.5111C71.039 71.3264 71.0874 71.142 71.1362 70.9572C70.6236 69.9378 70.2348 68.8763 69.9693 67.7724C70.3176 66.0695 71.3873 65.5157 73.1781 66.1108C73.8371 66.5858 74.4692 67.0934 75.0742 67.634C78.9749 73.2677 79.4609 72.8986 76.5327 66.5262C75.4167 65.3764 74.104 64.5456 72.5947 64.0338Z" fill="#263238"/>
<path fill-rule="evenodd" clip-rule="evenodd" d="M261.329 22.77C259.458 23.4856 258.243 24.7781 257.683 26.6472C257.089 28.7439 256.603 30.8672 256.224 33.0168C255.943 38.7555 256.137 44.479 256.808 50.187C256.872 50.5852 257.017 50.9544 257.245 51.2947C259.884 50.275 262.607 49.5364 265.413 49.0792C266.023 49.0753 266.558 49.2598 267.017 49.6331C267.02 50.3371 266.776 50.9834 266.288 51.5716C267.993 50.956 269.403 51.3254 270.518 52.6794C271.537 54.3377 272.315 56.0916 272.852 57.9412C273.667 60.748 273.375 63.4252 271.976 65.9725C271.738 66.3389 271.398 66.5233 270.955 66.5263C271.085 67.3198 270.891 68.0121 270.372 68.6034C268.063 69.7646 265.633 70.5954 263.079 71.0958C262.783 71.2396 262.589 71.4705 262.496 71.7882C264.918 78.1428 268.176 84.0507 272.268 89.5123C274.038 91.851 276.323 93.5589 279.123 94.6356C280.858 94.897 282.171 94.2969 283.061 92.8355C283.485 92.1235 283.826 91.3849 284.082 90.62C283.023 89.7535 282.002 88.8302 281.019 87.8506C276.34 81.5483 273.082 74.6249 271.247 67.0802C272.924 67.014 273.945 66.1832 274.31 64.5878C274.974 61.074 274.585 57.6585 273.143 54.341C272.172 52.0762 270.471 50.6915 268.038 50.187C266.583 40.8746 264.346 31.7356 261.329 22.77Z" fill="#AFB6B7"/>
<path fill-rule="evenodd" clip-rule="evenodd" d="M172.65 69.8501C172.297 69.9697 172.006 70.1545 171.775 70.404C169.341 76.071 169.487 81.702 172.213 87.2972C173.477 89.4205 174.741 91.5435 176.005 93.6668C176.601 94.0617 177.234 94.3387 177.901 94.4976C178.096 94.4976 178.29 94.4976 178.484 94.4976C178.827 94.5583 179.119 94.4661 179.36 94.2207C174.482 86.7783 172.246 78.6545 172.65 69.8501Z" fill="#4D4D4D"/>
<path fill-rule="evenodd" clip-rule="evenodd" d="M171.775 70.4038C163.964 72.3094 160.901 77.0174 162.586 84.5277C164.017 92.8943 169.122 96.2176 177.901 94.4975C177.234 94.3385 176.601 94.0616 176.005 93.6667C174.741 91.5434 173.477 89.4204 172.213 87.2971C169.487 81.7018 169.341 76.0708 171.775 70.4038Z" fill="#485860"/>
<path fill-rule="evenodd" clip-rule="evenodd" d="M216.99 77.8811C218.649 82.0463 220.691 86.0156 223.116 89.7895C230.284 88.9373 237.479 88.6142 244.702 88.8202C253.985 89.5319 263.223 90.5937 272.414 92.005C271.482 90.6012 270.412 89.309 269.205 88.1278C269.137 88.2932 268.991 88.3854 268.768 88.4048C262.499 86.4211 256.228 84.4363 249.953 82.4506C239.202 79.365 228.215 77.8418 216.99 77.8811Z" fill="#B1B7B8"/>
<path fill-rule="evenodd" clip-rule="evenodd" d="M72.5947 78.1577C74.9817 82.4481 77.7042 86.5099 80.7625 90.343C80.6082 86.585 80.0248 82.8923 79.0123 79.2655C78.1532 79.5335 77.2781 79.5795 76.3869 79.4039C75.1168 78.9847 73.8525 78.5692 72.5947 78.1577Z" fill="#283439"/>
<path fill-rule="evenodd" clip-rule="evenodd" d="M79.0123 79.2655C80.0248 82.8923 80.6082 86.585 80.7625 90.3431C80.9571 90.7122 81.1514 91.0817 81.3459 91.4508C82.9602 92.941 84.3701 94.6027 85.5757 96.4357C90.4355 101.698 96.3181 105.529 103.224 107.929C109.319 109.701 115.251 109.286 121.018 106.682C120.845 105.955 120.748 105.216 120.726 104.467C117.098 104.948 113.501 104.81 109.933 104.052C101.484 101.312 94.1428 96.9267 87.9093 90.897C84.2613 87.4283 81.6359 83.3664 80.0333 78.7117C79.4933 78.4245 79.1532 78.6092 79.0123 79.2655Z" fill="#E6A98A"/>
<path fill-rule="evenodd" clip-rule="evenodd" d="M109.642 81.7584C110.048 82.3699 110.632 82.7853 111.392 83.0046C113.026 83.4436 114.679 83.7665 116.351 83.9739C119.684 84.1625 122.893 83.6546 125.977 82.4507C126.33 82.163 126.622 81.8398 126.852 81.4815C127.042 80.9456 127.139 80.3917 127.144 79.8198C121.357 80.8943 115.523 81.1713 109.642 80.6506C109.642 81.0198 109.642 81.3892 109.642 81.7584Z" fill="#FEFAF9"/>
<path fill-rule="evenodd" clip-rule="evenodd" d="M109.35 81.7579C109.447 81.7579 109.544 81.7579 109.642 81.7579C109.642 81.3888 109.642 81.0193 109.642 80.6502C115.523 81.1708 121.357 80.8939 127.144 79.8193C127.139 80.3912 127.042 80.9451 126.852 81.481C127.047 81.5732 127.241 81.6657 127.436 81.7579C127.876 80.9149 128.071 79.9916 128.019 78.9885C126.088 79.3643 124.144 79.6872 122.185 79.9578C117.908 80.0963 113.629 80.1425 109.35 80.0963C109.35 80.6502 109.35 81.204 109.35 81.7579Z" fill="#FF806B"/>
<path fill-rule="evenodd" clip-rule="evenodd" d="M126.852 81.481C126.622 81.8393 126.33 82.1625 125.977 82.4502C122.893 83.6541 119.684 84.162 116.351 83.9734C117.838 85.005 119.393 85.9743 121.018 86.8813C121.97 87.5991 122.699 88.4762 123.206 89.5122C123.402 89.7204 123.645 89.8129 123.935 89.7891C126.004 87.5035 127.171 84.8264 127.436 81.7579C127.241 81.6657 127.047 81.5732 126.852 81.481Z" fill="#AC412D"/>
<path fill-rule="evenodd" clip-rule="evenodd" d="M109.642 81.7583C109.544 81.7583 109.447 81.7583 109.35 81.7583C109.281 88.0166 112.539 91.2476 119.122 91.4512C120.397 91.5002 121.612 91.2692 122.768 90.7588C123.3 90.576 123.689 90.2528 123.935 89.7895C123.645 89.8133 123.402 89.7208 123.206 89.5126C122.699 88.4766 121.97 87.5995 121.018 86.8817C119.393 85.9747 117.838 85.0054 116.351 83.9738C114.679 83.7664 113.026 83.4435 111.392 83.0045C110.632 82.7852 110.048 82.3698 109.642 81.7583Z" fill="#FE725E"/>
<path fill-rule="evenodd" clip-rule="evenodd" d="M81.3457 91.4509C81.3457 96.0667 81.3457 100.682 81.3457 105.298C81.4382 106.462 81.3408 107.569 81.054 108.621C81.0039 110.849 80.8093 113.065 80.4706 115.268C88.2948 120.232 95.8792 125.54 103.224 131.192C105.261 132.597 107.449 133.751 109.787 134.653C112.392 133.425 114.483 131.671 116.059 129.392C117.29 126.963 118.602 124.563 119.997 122.191C121.428 119.014 121.963 115.783 121.601 112.498C121.368 112.071 121.271 111.61 121.31 111.114C121.021 109.69 120.924 108.213 121.018 106.683C115.251 109.286 109.319 109.701 103.224 107.929C96.3179 105.529 90.4353 101.698 85.5755 96.4358C84.3699 94.6028 82.96 92.9411 81.3457 91.4509Z" fill="#FDBD9C"/>
<path fill-rule="evenodd" clip-rule="evenodd" d="M214.656 94.22C212.919 95.59 211.168 96.9747 209.405 98.3741C205.619 96.8789 202.216 97.4328 199.196 100.036C198.407 101.062 197.434 101.893 196.279 102.528C194.467 104.964 193.495 107.688 193.362 110.698C193.793 116.229 196.224 120.799 200.654 124.406C199.779 127.917 198.904 131.424 198.029 134.93C203.029 138.276 208.62 139.845 214.802 139.638C216.635 139.685 218.434 139.501 220.199 139.084C220.49 141.662 220.587 144.247 220.49 146.838C220.78 144.119 220.877 141.35 220.782 138.53C218.069 139.642 215.784 139.088 213.927 136.869C209.719 127.191 205.684 117.452 201.821 107.652C203.848 107.997 205.793 107.766 207.655 106.959C208.286 107.027 208.772 107.304 209.114 107.79C207.267 109.586 207.17 111.479 208.822 113.467C209.685 114.108 210.657 114.523 211.739 114.713C209.774 117.375 210.357 119.359 213.489 120.668C214.457 120.806 215.429 120.852 216.406 120.806C216.189 122.77 217.113 123.877 219.178 124.129C222.063 123.165 225.028 122.427 228.075 121.914C229.127 120.776 230.246 119.668 231.429 118.591C232.42 116.985 232.372 115.415 231.283 113.883C230.734 113.223 230.15 112.623 229.533 112.083C230.621 109.11 229.746 106.756 226.908 105.021C228.638 101.667 227.666 99.2669 223.991 97.8202C223.165 91.3119 220.053 90.1119 214.656 94.22Z" fill="#FEBD9C"/>
<path fill-rule="evenodd" clip-rule="evenodd" d="M199.196 100.036C202.216 97.433 205.619 96.8792 209.405 98.3744C211.168 96.975 212.919 95.5903 214.656 94.2203C214.578 93.5376 214.384 92.8912 214.073 92.2817C213.42 91.9945 212.739 91.9485 212.031 92.1432C207.251 93.1621 202.487 94.2239 197.737 95.328C198.185 96.89 198.671 98.4594 199.196 100.036Z" fill="#4E4E4F"/>
<path fill-rule="evenodd" clip-rule="evenodd" d="M81.346 105.297C79.0701 105.371 76.8336 105.694 74.6367 106.267C70.7842 107.31 67.8671 109.479 65.8855 112.775C64.0218 113.578 62.2716 114.548 60.6348 115.683C58.8875 116.882 57.7207 118.451 57.1343 120.391C57.2335 121.086 57.5252 121.686 58.0095 122.191C68.7087 127.408 79.599 132.254 90.6806 136.73C91.3104 137.023 91.7967 137.439 92.1392 137.976C93.4373 137.695 94.5557 138.064 95.4938 139.084C96.9978 145.255 98.408 151.44 99.7236 157.639C101.314 157.54 102.432 158.186 103.078 159.577C103.261 161.155 103.212 162.724 102.932 164.285C106.244 164.661 107.557 166.415 106.87 169.547C106.48 170.328 106.043 171.066 105.558 171.763C106.543 173.505 106.883 175.352 106.579 177.301C106.045 177.981 105.51 178.627 104.974 179.24C106.023 180.69 106.072 182.167 105.12 183.671C103.83 185.404 102.226 186.789 100.307 187.825C100.485 213.396 100.679 238.967 100.89 264.537C111.382 265.316 121.689 264.393 131.811 261.768C129.327 220.89 126.604 180.041 123.644 139.222C124.591 138.518 125.612 137.918 126.706 137.422C126.76 138.216 126.906 138.954 127.144 139.638C127.096 138.802 127.145 137.971 127.29 137.145C133.115 134.293 138.171 130.508 142.459 125.791C143.157 124.807 143.789 123.791 144.355 122.745C144.588 120.973 144.005 119.496 142.604 118.313C140.026 116.581 137.303 115.058 134.437 113.744C131.262 109.215 126.789 106.861 121.018 106.682C120.925 108.212 121.022 109.69 121.31 111.113C121.31 110.467 121.31 109.821 121.31 109.175C122.382 109.245 123.209 109.706 123.789 110.559C124.026 111.719 123.978 112.827 123.644 113.882C123.867 116.181 123.429 118.396 122.331 120.529C120.739 123.836 118.649 126.79 116.059 129.391C114.483 131.67 112.393 133.424 109.787 134.653C107.449 133.751 105.261 132.597 103.224 131.191C95.8794 125.539 88.2951 120.231 80.4709 115.267C78.1367 114.487 76.1431 113.195 74.4909 111.39C73.9104 110.043 74.348 109.073 75.8036 108.482C77.6066 108.255 79.3569 108.301 81.0543 108.621C81.3411 107.569 81.4385 106.461 81.346 105.297Z" fill="#6E6E6D"/>
<path fill-rule="evenodd" clip-rule="evenodd" d="M220.782 138.53C223.8 137.313 226.814 136.067 229.825 134.792C231.538 133.701 232.17 132.178 231.721 130.222C230.898 127.278 229.682 124.509 228.075 121.914C225.028 122.427 222.063 123.165 219.178 124.13C217.113 123.878 216.189 122.77 216.406 120.806C215.429 120.852 214.457 120.806 213.489 120.668C210.357 119.36 209.774 117.375 211.739 114.714C210.657 114.523 209.685 114.108 208.822 113.468C207.17 111.479 207.267 109.587 209.114 107.79C208.772 107.304 208.286 107.027 207.655 106.959C205.793 107.766 203.848 107.997 201.821 107.652C205.683 117.452 209.719 127.191 213.927 136.869C215.784 139.089 218.069 139.642 220.782 138.53Z" fill="#465B64"/>
<path fill-rule="evenodd" clip-rule="evenodd" d="M80.4708 115.267C80.8095 113.064 81.004 110.849 81.0542 108.621C79.3568 108.302 77.6065 108.256 75.8035 108.482C74.3479 109.074 73.9103 110.043 74.4908 111.39C76.143 113.195 78.1366 114.488 80.4708 115.267Z" fill="#4E4E4D"/>
<path fill-rule="evenodd" clip-rule="evenodd" d="M121.31 111.114C121.271 111.61 121.368 112.072 121.602 112.499C122.345 112.896 123.025 113.357 123.644 113.883C123.978 112.828 124.026 111.72 123.789 110.56C123.209 109.707 122.382 109.246 121.31 109.175C121.31 109.821 121.31 110.468 121.31 111.114Z" fill="#263238"/>
<path fill-rule="evenodd" clip-rule="evenodd" d="M121.602 112.499C121.963 115.784 121.428 119.014 119.997 122.191C118.603 124.563 117.29 126.963 116.059 129.392C118.649 126.791 120.739 123.836 122.331 120.53C123.429 118.397 123.867 116.182 123.644 113.883C123.025 113.357 122.345 112.896 121.602 112.499Z" fill="#FC715E"/>
<path fill-rule="evenodd" clip-rule="evenodd" d="M134.145 115.822C130.357 123.382 125.544 130.306 119.705 136.592C119.511 136.777 119.511 136.961 119.705 137.146C124.335 133.03 128.419 128.507 131.957 123.576C133.595 121.233 134.325 118.648 134.145 115.822Z" fill="#495C65"/>
<path fill-rule="evenodd" clip-rule="evenodd" d="M76.6786 116.652C76.5202 116.668 76.423 116.761 76.3869 116.929C78.1444 119.569 80.2835 121.923 82.8044 123.991C89.072 128.926 95.5867 133.542 102.349 137.838C102.981 138.438 103.613 139.038 104.245 139.638C104.232 139.145 104.037 138.684 103.661 138.253C96.9175 132.172 89.7707 126.587 82.221 121.498C80.3162 119.92 78.4688 118.304 76.6786 116.652Z" fill="#495C65"/>
<path fill-rule="evenodd" clip-rule="evenodd" d="M58.0094 122.191C50.1257 124.502 42.5414 127.503 35.2563 131.192C31.2739 133.497 28.3081 136.682 26.3592 140.746C23.9523 145.663 21.7158 150.648 19.6499 155.701C11.9296 176.25 5.80378 197.205 1.2724 218.566C-0.180298 224.777 -0.0811157 230.962 1.56411 237.121C4.98146 246.751 12.0309 251.228 22.7129 250.552C28.888 248.977 34.1387 245.976 38.465 241.552C38.4826 241.401 38.5797 241.309 38.7568 241.275C39.136 242.053 39.136 242.791 38.7568 243.49C38.4721 250.136 38.3262 256.782 38.3192 263.43C38.8988 265.411 40.2115 266.703 42.2572 267.307C59.7518 271.697 77.5459 273.912 95.6396 273.954C96.4304 274.042 97.111 273.857 97.6816 273.4C97.4996 245.245 97.4024 217.089 97.3899 188.933C94.0638 189.555 90.7092 190.017 87.326 190.318C84.8077 190.267 82.3769 189.805 80.0333 188.933C78.5832 190.079 77.1734 191.279 75.8036 192.534C70.8232 189.606 66.8852 185.729 63.9894 180.902C63.4311 180.127 63.1394 179.296 63.1143 178.41C65.3669 176.733 67.7005 175.163 70.1153 173.702C70.4822 170.637 70.9685 167.59 71.5738 164.563C72.4883 161.497 73.4606 158.45 74.4909 155.424C74.6968 152.349 74.4538 149.302 73.7616 146.285C74.0848 144.839 74.9599 144.424 76.387 145.039C77.6547 146.11 78.6757 147.356 79.4499 148.777C80.7777 152.649 81.4099 156.618 81.346 160.686C86.4153 160.238 91.3743 159.407 96.223 158.193C94.8616 151.454 93.5003 144.715 92.1391 137.977C91.7967 137.439 91.3104 137.024 90.6806 136.73C79.599 132.255 68.7087 127.408 58.0094 122.191Z" fill="#AD4A2B"/>
<path fill-rule="evenodd" clip-rule="evenodd" d="M144.355 122.745C143.789 123.791 143.157 124.807 142.459 125.791C138.171 130.509 133.115 134.294 127.29 137.145C127.144 137.971 127.096 138.802 127.144 139.638C130.363 184.387 133.183 229.159 135.603 273.953C145.47 273.097 155.194 271.48 164.774 269.107C166.374 268.586 167.929 267.986 169.441 267.307C170.887 266.442 172.103 265.334 173.088 263.983C173.406 262.482 173.552 260.959 173.525 259.414C172.279 244.861 170.869 230.321 169.296 215.796C169.101 214.688 169.101 213.581 169.296 212.473C172.709 217.099 176.647 221.299 181.11 225.073C188.026 230.247 195.513 231.17 203.571 227.843C209.636 223.769 213.574 218.277 215.385 211.365C218.715 189.975 220.417 168.466 220.49 146.838C220.587 144.247 220.49 141.662 220.198 139.084C218.434 139.501 216.635 139.685 214.802 139.638C208.62 139.845 203.029 138.276 198.029 134.93C195.708 144.478 192.84 153.894 189.423 163.178C188.951 164.525 188.368 165.817 187.673 167.055C184.035 159.777 180.242 152.577 176.297 145.454C173.842 140.883 171.022 136.544 167.837 132.437C165.979 130.562 163.791 129.131 161.274 128.145C155.699 126.15 150.06 124.35 144.355 122.745Z" fill="#AD4A2B"/>
<path fill-rule="evenodd" clip-rule="evenodd" d="M131.811 261.768C132.061 266.861 132.45 271.937 132.978 277C145.716 277 158.454 277 171.192 277C170.758 273.743 170.175 270.511 169.442 267.307C167.929 267.986 166.374 268.586 164.774 269.107C155.194 271.48 145.47 273.097 135.604 273.953C133.183 229.159 130.363 184.387 127.144 139.638C126.906 138.954 126.76 138.216 126.706 137.422C125.612 137.918 124.591 138.518 123.644 139.222C126.604 180.041 129.327 220.89 131.811 261.768Z" fill="#4F4D4D"/>
<path fill-rule="evenodd" clip-rule="evenodd" d="M92.1392 137.977C93.5003 144.715 94.8617 151.454 96.2231 158.193C97.4115 158.115 98.5784 157.931 99.7236 157.639C98.408 151.441 96.9979 145.256 95.4938 139.084C94.5557 138.065 93.4373 137.696 92.1392 137.977Z" fill="#4E4D4D"/>
<path fill-rule="evenodd" clip-rule="evenodd" d="M97.3899 188.933C98.3397 188.577 99.312 188.208 100.307 187.826C102.226 186.789 103.83 185.405 105.12 183.671C106.072 182.167 106.023 180.69 104.974 179.24C105.51 178.628 106.045 177.982 106.579 177.302C106.883 175.352 106.543 173.506 105.558 171.763C106.043 171.067 106.48 170.328 106.87 169.548C107.557 166.415 106.244 164.661 102.932 164.286C103.212 162.724 103.261 161.155 103.078 159.578C102.432 158.187 101.314 157.541 99.7236 157.639C98.5783 157.931 97.4115 158.115 96.2231 158.193C91.3743 159.407 86.4153 160.238 81.346 160.686C81.4099 156.618 80.7778 152.649 79.4499 148.777C78.6757 147.356 77.6547 146.109 76.387 145.039C74.96 144.423 74.0848 144.839 73.7616 146.285C74.4538 149.302 74.6968 152.349 74.4909 155.424C73.4606 158.45 72.4883 161.497 71.5738 164.563C70.9685 167.59 70.4823 170.637 70.1153 173.702C67.7005 175.163 65.3669 176.733 63.1143 178.41C63.1394 179.296 63.4311 180.127 63.9894 180.902C66.8852 185.729 70.8233 189.606 75.8036 192.534C77.1734 191.278 78.5833 190.078 80.0333 188.933C82.3769 189.805 84.8077 190.267 87.326 190.318C90.7092 190.017 94.0639 189.555 97.3899 188.933Z" fill="#FEBD9C"/>
<path fill-rule="evenodd" clip-rule="evenodd" d="M56.5509 182.287C56.0302 182.405 55.7385 182.728 55.6757 183.256C58.0298 188.725 61.6277 193.341 66.4689 197.103C68.1042 198.11 70.1655 199.033 72.0307 199.596C72.4196 199.134 72.4976 198.534 72.8865 198.072C69.5374 197.152 66.669 195.49 64.2811 193.087C61.2646 189.756 58.6879 186.156 56.5509 182.287Z" fill="#AB3E2B"/>
<path fill-rule="evenodd" clip-rule="evenodd" d="M100.307 187.825C99.3118 188.208 98.3395 188.577 97.3898 188.933C97.4023 217.089 97.4994 245.245 97.6815 273.4C97.6981 273.707 97.7952 273.984 97.9732 274.23C98.9113 274.377 99.8351 274.563 100.744 274.784C100.89 271.37 100.939 267.954 100.89 264.537C100.679 238.967 100.485 213.396 100.307 187.825Z" fill="#4E4D4D"/>
<path fill-rule="evenodd" clip-rule="evenodd" d="M38.465 241.552C38.7474 242.135 38.8448 242.781 38.7567 243.49C39.1359 242.791 39.1359 242.053 38.7567 241.275C38.5796 241.309 38.4825 241.401 38.465 241.552Z" fill="#FFAFA4"/>
<path fill-rule="evenodd" clip-rule="evenodd" d="M131.811 261.768C121.688 264.394 111.382 265.317 100.89 264.538C100.939 267.955 100.89 271.37 100.744 274.784C99.8352 274.563 98.9114 274.377 97.9732 274.231C97.1317 274.316 96.3537 274.222 95.6396 273.954C77.5459 273.912 59.7517 271.697 42.2572 267.307C41.623 270.508 41.1367 273.738 40.7987 277C71.525 277 102.252 277 132.978 277C132.45 271.938 132.061 266.861 131.811 261.768Z" fill="#263238"/>
<path fill-rule="evenodd" clip-rule="evenodd" d="M97.6816 273.4C97.111 273.857 96.4305 274.042 95.6396 273.954C96.3537 274.222 97.1317 274.317 97.9733 274.231C97.7954 273.984 97.6982 273.707 97.6816 273.4Z" fill="#91524B"/>
<path d="M62.5503 180.661C54.7715 184.647 35.4799 197.23 20.5445 215.665C37.7915 198.017 52.924 185.911 62.5503 180.661Z" fill="#263238"/>
<path d="M75.0938 196.705C72.2253 204.678 61.0335 225.788 39.2138 246.441C60.8001 223.979 71.1557 205.748 75.0938 196.705Z" fill="#263238"/>
<path d="M168.877 214.644C168.489 209.247 167.215 195.683 165.231 184.598C166.515 195.916 168.197 209.345 168.877 214.644Z" fill="#263238"/>
<path d="M55.2573 122.611C62.4916 127.045 82.8722 135.057 92.1582 138.509C92.061 138.169 91.5456 137.371 90.2621 136.905C81.0734 132.821 65.0781 125.431 58.0285 121.736C57.7854 121.784 56.8909 122.028 55.2573 122.611Z" fill="#D76352"/>
<path d="M144.374 122.319C142.274 127.92 132.122 134.765 127.309 137.488C137.344 134.687 144.423 126.694 146.708 123.048C146.513 122.999 145.774 122.786 144.374 122.319Z" fill="#D76352"/>
</svg>
