<svg width="216" height="353" viewBox="0 0 216 353" fill="none" xmlns="http://www.w3.org/2000/svg">
<g clip-path="url(#clip0_947_10452)">
<path d="M166.44 261.883C166.44 261.883 178.673 286.607 180.097 310.298C181.521 333.989 179.16 353.188 179.16 353.188L119.173 352.902C119.173 352.902 116.439 337.984 116.439 338.844C116.439 339.704 112.951 352.902 112.951 352.902L44.6777 353.169C44.6777 353.169 50.1729 294.262 61.4021 262.696L87.0333 255.948H164.481L166.44 261.893V261.883Z" fill="#AD4A2B"/>
<path d="M117.08 331.695H180.356C180.595 326.506 180.585 321.145 180.356 315.621H117.281L117.09 331.695H117.08Z" fill="#E0E0E0"/>
<path d="M117.08 320.667H180.528V326.63H117.08V320.667Z" fill="white"/>
<path d="M49.4465 314.847L117.615 315.621C117.873 320.81 117.328 326.171 117.08 331.695L46.9618 331.495L49.4465 314.847Z" fill="#E0E0E0"/>
<path d="M48.5769 320.686H116.841V326.64H47.6212L48.5769 320.686Z" fill="white"/>
<path d="M162.914 242.894L165.982 260.517C165.982 260.517 142.319 261.816 112.731 265.333C83.1437 268.85 61.4116 262.696 61.4116 262.696V244.5L162.914 242.894Z" fill="#263238"/>
<path d="M116.592 268.344C116.459 268.344 116.344 284.38 116.344 304.162C116.344 323.945 116.459 339.981 116.592 339.981C116.726 339.981 116.841 323.945 116.841 304.162C116.841 284.38 116.726 268.344 116.592 268.344Z" fill="#263238"/>
<path d="M139.796 72.3057C139.796 72.3057 148.168 107.561 149.018 113.648C149.869 119.736 144.402 119.965 144.402 119.965L77.3807 122.154C77.3807 122.154 71.0159 116.305 71.3218 105.305C71.6276 94.315 76.6162 61.3059 76.6162 61.3059L139.786 72.3057H139.796Z" fill="#455A64"/>
<path d="M153.644 121.141C131.033 112.167 105.335 111.211 82.1212 118.474C80.9266 118.847 79.6556 119.296 78.9197 120.309C77.3428 122.45 79.0535 125.403 80.7355 127.467C88.2375 136.68 96.4372 145.874 107.265 150.767C110.619 152.286 114.375 153.366 117.978 152.592C121.361 151.866 124.18 149.62 126.856 147.441C136.862 139.308 146.973 131.061 154.6 120.663" fill="#FF725E"/>
<g opacity="0.3">
<path d="M153.644 121.141C131.033 112.167 105.335 111.211 82.1212 118.474C80.9266 118.847 79.6556 119.296 78.9197 120.309C77.3428 122.45 79.0535 125.403 80.7355 127.467C88.2375 136.68 96.4372 145.874 107.265 150.767C110.619 152.286 114.375 153.366 117.978 152.592C121.361 151.866 124.18 149.62 126.856 147.441C136.862 139.308 146.973 131.061 154.6 120.663" fill="black"/>
</g>
<path d="M78.4223 90.5399C74.0548 82.4835 71.8377 73.2804 72.067 64.125C72.153 60.5507 72.6596 56.8332 74.6378 53.8419C76.7212 50.6977 84.185 47.1617 87.4821 45.3459L85.7619 57.5021C85.7619 57.5021 78.9861 65.4056 78.5752 66.2848C78.1642 67.164 78.4223 90.5399 78.4223 90.5399Z" fill="#263238"/>
<path d="M134.865 95.7007C136.92 89.0588 138.946 82.369 139.825 75.4691C140.705 68.5691 140.399 61.4015 137.885 54.922C137.503 53.9377 134.282 47.3531 133.231 47.4773C132.486 47.5633 134.502 53.7179 134.13 54.3773C130.603 60.637 129.724 68.1295 130.402 75.2779C131.081 82.4359 132.667 88.8581 134.865 95.7007Z" fill="#263238"/>
<path d="M135.172 69.1616C135.487 51.7301 125.605 37.0127 108.174 37.1752L106.559 37.2803C90.3506 38.3793 77.707 51.7397 77.4968 67.9766C77.3056 83.0858 77.2865 99.791 77.9364 107.847C79.2743 124.524 96.1516 125.986 96.1516 125.986C96.1898 125.986 95.9317 153.443 95.9317 153.443L135.525 154.465L135.172 69.1521V69.1616Z" fill="#FFBF9D"/>
<path d="M96.1516 125.996C96.1516 125.996 106.712 125.9 117.444 118.092C117.444 118.092 113.029 131.997 96.2662 131.625L96.1516 125.986V125.996Z" fill="#FF9A6C"/>
<path d="M85.7153 81.6141C85.7535 82.8756 86.8621 83.8791 88.1809 83.8599C89.4998 83.8408 90.5319 82.8087 90.4937 81.5472C90.4554 80.2857 89.3469 79.2823 88.0376 79.2918C86.7188 79.3109 85.6866 80.3526 85.7249 81.6141H85.7153Z" fill="#263238"/>
<path d="M81.5385 74.6758C81.8539 74.9625 83.5741 73.5099 86.1353 73.3378C88.6965 73.1371 90.6652 74.3222 90.9232 73.9877C91.0475 73.8443 90.713 73.2996 89.8529 72.7549C89.0023 72.2197 87.5879 71.7323 85.9919 71.847C84.396 71.9617 83.0867 72.6402 82.3604 73.2996C81.6149 73.959 81.3856 74.542 81.5385 74.6662V74.6758Z" fill="#263238"/>
<path d="M108.594 80.8494C108.632 82.1109 109.74 83.1143 111.059 83.0952C112.378 83.0761 113.41 82.044 113.372 80.7825C113.334 79.521 112.225 78.5175 110.916 78.5366C109.597 78.5558 108.565 79.5974 108.603 80.8589L108.594 80.8494Z" fill="#263238"/>
<path d="M106.741 74.0068C107.056 74.2935 108.776 72.8409 111.337 72.6689C113.899 72.4682 115.867 73.6532 116.125 73.3188C116.25 73.1659 115.915 72.6307 115.055 72.0859C114.205 71.5412 112.79 71.0634 111.194 71.178C109.598 71.2927 108.289 71.9713 107.563 72.6307C106.817 73.2901 106.588 73.8731 106.741 73.9973V74.0068Z" fill="#263238"/>
<path d="M98.8755 94.3436C98.8755 94.2002 97.2604 94.0282 94.661 93.8753C94.0016 93.8562 93.3708 93.7606 93.2275 93.321C93.0459 92.8623 93.2657 92.1359 93.5333 91.3523C94.0398 89.7276 94.575 88.017 95.1293 86.2299C97.3369 78.9476 98.8851 72.9746 98.5984 72.8886C98.3021 72.8026 96.2761 78.6322 94.0685 85.9241C93.5429 87.7207 93.0364 89.4314 92.549 91.0656C92.3483 91.8301 91.9851 92.6998 92.3865 93.6555C92.5967 94.1333 93.1033 94.4582 93.5238 94.5442C93.9538 94.6398 94.317 94.6303 94.6419 94.6207C97.2509 94.5825 98.866 94.4869 98.866 94.3436H98.8755Z" fill="#263238"/>
<path d="M106.539 95.605C106.118 95.605 106.3 98.3956 104.054 100.536C101.808 102.677 98.8171 102.572 98.8267 102.964C98.798 103.145 99.5243 103.461 100.776 103.413C102.009 103.375 103.777 102.859 105.153 101.549C106.52 100.24 107.036 98.5771 107.055 97.4303C107.084 96.2548 106.721 95.5859 106.539 95.6241V95.605Z" fill="#263238"/>
<path d="M106.166 63.5898C106.463 64.2683 109.005 63.7618 112.044 63.9243C115.083 64.0198 117.568 64.7366 117.921 64.0867C118.074 63.7714 117.615 63.1502 116.583 62.5385C115.561 61.9269 113.974 61.3917 112.149 61.3153C110.333 61.2388 108.699 61.6402 107.628 62.1563C106.558 62.6723 106.033 63.2649 106.166 63.5898Z" fill="#263238"/>
<path d="M82.0178 66.0749C82.5052 66.6292 84.235 65.9029 86.3566 65.7309C88.4686 65.4824 90.3035 65.8551 90.6763 65.2148C90.8387 64.909 90.5138 64.3451 89.6919 63.8482C88.8796 63.3512 87.5512 62.9881 86.0986 63.1314C84.6459 63.2748 83.4131 63.8864 82.7155 64.5363C82.0083 65.1861 81.798 65.8073 82.0178 66.0749Z" fill="#263238"/>
<path d="M134.646 81.6141C134.923 81.4707 145.885 77.4473 146.296 88.8772C146.707 100.317 135.143 98.3671 135.105 98.0421C135.076 97.7172 134.646 81.6141 134.646 81.6141Z" fill="#FFBF9D"/>
<path d="M138.45 93.5887C138.498 93.5505 138.651 93.7225 138.995 93.8659C139.33 94.0092 139.893 94.0857 140.486 93.8468C141.681 93.3594 142.627 91.4098 142.608 89.3455C142.608 88.3038 142.35 87.3195 141.948 86.5167C141.566 85.6948 141.002 85.131 140.39 85.045C139.779 84.9303 139.358 85.303 139.234 85.6375C139.091 85.9624 139.177 86.1918 139.11 86.2109C139.081 86.2396 138.861 86.0293 138.928 85.5515C138.966 85.3221 139.091 85.045 139.349 84.8156C139.616 84.5863 140.018 84.4525 140.438 84.4811C141.327 84.5098 142.149 85.2935 142.579 86.1822C143.066 87.071 143.372 88.1796 143.382 89.3455C143.382 91.6487 142.292 93.8563 140.648 94.3915C139.855 94.6304 139.167 94.4106 138.814 94.1526C138.45 93.885 138.383 93.627 138.422 93.6078L138.45 93.5887Z" fill="#FF9A6C"/>
<path d="M84.3864 48.8439C82.5038 47.8691 87.9033 41.7241 92.395 39.5356C99.1899 36.229 109.635 34.0214 116.019 35.6556C123.713 37.6147 130.154 41.2367 134.177 48.0793C138.201 54.922 139.854 62.9783 139.854 70.92C139.854 73.3379 139.672 75.8704 138.43 77.9538C136.901 80.5245 133.881 82.2065 134.11 85.6852C134.196 86.9562 133.862 88.256 133.021 89.2116C130.985 91.4957 128.367 89.4697 127.134 87.4054C124.496 82.9902 124.076 77.648 123.713 72.5255C123.454 68.8844 123.206 65.1573 124.143 61.6308C124.649 59.7099 125.5 57.8846 125.901 55.935C126.302 53.9854 126.188 51.7969 124.936 50.2487C124.735 50.0003 124.401 49.6849 123.98 49.3313C120.664 46.5789 116.105 45.8526 112.082 47.4008C105.698 49.8569 94.7938 53.5554 91.8598 51.4433C87.6453 48.4138 86.5941 46.3878 86.5941 46.3878L84.3864 48.8534V48.8439Z" fill="#263238"/>
<path d="M115.39 34.1169C109.044 32.1865 101.896 32.4923 96.095 35.7034C93.0177 37.4045 90.2653 40.0708 89.4052 43.4826C88.5451 46.8943 90.1029 51.0228 93.4 52.2652L93.6293 52.399C98.5511 53.909 101.705 53.1731 106.531 51.3573C110.583 49.8283 114.157 47.2001 118.228 45.6997C122.548 44.0942 127.355 43.8266 131.828 44.9352C127.317 40.0708 121.745 36.057 115.409 34.1265L115.39 34.1169Z" fill="#263238"/>
<path d="M136.126 83.7548C136.126 83.7548 136.145 83.6306 136.165 83.3726C136.174 83.0763 136.193 82.694 136.203 82.2162C136.222 81.1458 136.26 79.6454 136.298 77.7245C136.356 73.7393 136.432 68.0053 136.528 60.7995V60.7326L136.489 60.6753C133.355 55.6197 129.599 49.5799 125.413 42.8328L125.327 42.6894H125.155C114.748 42.1065 102.697 41.4279 89.6613 40.7112H89.4797L89.3555 40.8354C84.8256 45.6138 80.1141 50.5738 75.2784 55.6771L75.1637 55.8013V55.9733C75.2784 58.2765 75.3931 60.7421 75.5078 63.2269C75.8518 70.6238 76.1959 77.8392 76.5208 84.8061C76.6068 86.5454 76.6832 88.2752 76.7693 89.9858C76.817 91.6774 76.9508 93.4645 77.3905 95.1083C78.2028 98.4244 79.8179 101.483 82.0637 103.872C84.3095 106.28 87.1957 107.876 90.12 108.803C91.5631 109.376 93.0826 109.539 94.5353 109.854C96.0166 110.017 97.4788 110.122 98.9123 110.189C104.723 110.237 109.941 108.306 114.174 105.927C118.437 103.528 121.848 100.67 124.639 98.004C127.43 95.3281 129.609 92.7955 131.3 90.6739C132.992 88.5523 134.196 86.813 134.989 85.6184C135.381 85.0163 135.668 84.5576 135.859 84.2422C136.04 83.9268 136.136 83.7548 136.117 83.7548C136.107 83.7548 136.002 83.8982 135.782 84.204C135.553 84.5385 135.238 84.9781 134.855 85.5324C134.024 86.6888 132.781 88.3899 131.061 90.4828C129.341 92.5662 127.133 95.0509 124.333 97.679C121.533 100.298 118.121 103.098 113.907 105.43C109.711 107.742 104.589 109.596 98.9314 109.52C97.5265 109.453 96.0835 109.338 94.6404 109.176C93.226 108.851 91.7351 108.698 90.3398 108.134C87.5015 107.217 84.7396 105.678 82.5989 103.365C80.4582 101.072 78.91 98.1282 78.1359 94.9267C77.7154 93.3116 77.6007 91.6965 77.5434 89.9667C77.4669 88.2561 77.3904 86.5263 77.3044 84.787C76.9795 77.8105 76.645 70.5856 76.301 63.1887C76.1863 60.7039 76.0716 58.2383 75.9569 55.9351L75.8518 56.2314C80.678 51.128 85.3799 46.1585 89.9098 41.3802L89.6135 41.5044C102.649 42.1829 114.71 42.8041 125.117 43.3488L124.859 43.1959C129.102 49.9143 132.896 55.9255 136.069 60.962L136.031 60.8282C136.031 68.0053 136.031 73.7298 136.031 77.6958C136.04 79.6263 136.059 81.1363 136.059 82.2066C136.069 82.694 136.078 83.0763 136.088 83.3726C136.088 83.6401 136.107 83.7739 136.117 83.7739L136.126 83.7548Z" fill="#263238"/>
<path d="M75.3825 50.5638L87.3093 45.5848C87.424 45.537 87.5482 45.4987 87.682 45.4701L107.015 41.3511C107.398 41.2651 107.799 41.2938 108.172 41.4371L121.79 46.4544C121.943 46.5118 122.086 46.5882 122.22 46.6742L135.447 55.4664C135.982 55.82 136.316 56.403 136.374 57.0338L136.89 63.5706C136.89 63.6566 136.89 63.7426 136.89 63.8286L135.628 90.6162C135.581 91.7248 134.663 92.604 133.545 92.604C132.36 92.604 131.414 91.6197 131.462 90.4346L131.758 83.2384C131.815 75.0482 134.271 59.6236 123.157 53.2684C112.042 46.9131 99.6949 48.49 93.9226 49.5699C88.1599 50.6403 80.5527 53.9947 79.1287 57.5211C77.9246 60.4933 77.5136 83.5155 77.4085 90.5684C77.3894 91.7057 76.4624 92.6136 75.3251 92.6136H75.2678C74.1688 92.6136 73.2513 91.7535 73.194 90.6544L71.3304 59.5663C71.3113 59.2605 71.3591 58.9547 71.4738 58.668L74.2452 51.7298C74.4555 51.2137 74.8569 50.7932 75.3729 50.5829L75.3825 50.5638Z" fill="#263238"/>
<path d="M75.3832 50.5639C75.3832 50.5639 75.1348 50.6116 74.7716 50.927C74.59 51.0799 74.3893 51.3093 74.246 51.6342C74.1122 51.9591 73.9593 52.3319 73.7873 52.7524C73.4432 53.6029 73.0132 54.6542 72.5067 55.8965C72.2582 56.5177 71.981 57.1867 71.6943 57.9034C71.5605 58.2666 71.3694 58.6106 71.2834 59.0407C71.2069 59.4708 71.2834 59.9008 71.2929 60.3309C71.6943 67.3073 72.2677 77.3706 72.9845 89.7943C73.0227 90.1862 73.0036 90.5589 73.0801 90.9889C73.1661 91.4094 73.3859 91.8013 73.6917 92.1071C74.3033 92.7378 75.2877 92.9385 76.1191 92.6327C76.9601 92.3364 77.5909 91.4955 77.61 90.578C77.6291 89.7466 77.6386 88.9056 77.6578 88.055C77.7151 84.6528 77.8011 81.1168 77.9158 77.4566C78.0305 73.7963 78.1642 70.0119 78.3936 66.1223C78.5083 64.1727 78.6421 62.204 78.8715 60.2162C78.9192 59.7192 78.9957 59.2223 79.0817 58.7349C79.1199 58.4864 79.1677 58.2379 79.2346 58.0181C79.3015 57.7888 79.3493 57.5498 79.4831 57.3396C79.9131 56.4795 80.6299 55.7436 81.3944 55.0938C82.9809 53.8227 84.8158 52.8384 86.7367 52.0165C88.6576 51.185 90.6836 50.5256 92.767 50.0382C96.9528 49.1495 101.359 48.6716 105.812 48.8341C108.039 48.9201 110.285 49.159 112.502 49.5891C114.719 50.0382 116.917 50.6881 119.048 51.5386C121.17 52.4083 123.243 53.4882 125.078 54.8835C126.885 56.3266 128.299 58.2379 129.322 60.3404C130.344 62.4525 130.965 64.7365 131.3 67.0397C131.644 69.3429 131.768 71.6652 131.768 73.9779C131.768 76.2906 131.653 78.5747 131.567 80.8588C131.51 83.1428 131.424 85.3982 131.329 87.6345L131.262 89.307C131.262 89.8708 131.147 90.3964 131.281 91.0367C131.415 91.6388 131.806 92.1835 132.342 92.4989C132.867 92.8238 133.527 92.9194 134.119 92.7665C134.712 92.6136 135.237 92.2218 135.553 91.6961C135.705 91.4286 135.811 91.1419 135.849 90.836C135.887 90.5207 135.878 90.2817 135.897 89.995C135.944 88.9056 136.002 87.8257 136.05 86.7457C136.25 82.4356 136.441 78.2211 136.632 74.1022C136.728 72.0475 136.824 70.0119 136.91 68.0049C136.957 67.0015 137.005 66.0076 137.043 65.0137C137.053 64.5072 137.11 64.058 137.091 63.5037C137.053 63.0163 137.015 62.5289 136.977 62.0415C136.9 61.0667 136.824 60.1015 136.747 59.1458C136.709 58.668 136.671 58.1901 136.632 57.7123L136.575 57.0051C136.556 56.7471 136.489 56.489 136.384 56.2501C136.183 55.7723 135.763 55.3805 135.361 55.1415L134.196 54.3674C133.421 53.8514 132.647 53.3449 131.883 52.8384C128.825 50.8123 125.881 48.8628 123.043 46.9801C122.68 46.7507 122.364 46.5022 121.925 46.3015C121.523 46.1295 121.131 46.0053 120.74 45.8619C119.956 45.5752 119.182 45.2885 118.417 45.0114C116.888 44.4475 115.388 43.9028 113.926 43.3676C112.463 42.8324 111.04 42.3068 109.644 41.8003C109.3 41.6761 108.947 41.5423 108.612 41.418C108.278 41.2938 107.905 41.1409 107.513 41.1409C107.112 41.1218 106.758 41.246 106.414 41.3129C106.07 41.3894 105.716 41.4658 105.382 41.5327C102.639 42.1252 100.049 42.6795 97.6314 43.2052C95.2135 43.7308 92.9581 44.2182 90.8843 44.6673C89.8522 44.8871 88.8583 45.1069 87.9122 45.3076C87.4248 45.3936 86.9756 45.6135 86.5646 45.7855C86.1441 45.9671 85.7332 46.1391 85.3318 46.3111C82.1303 47.6682 79.6455 48.729 77.9444 49.4457C77.113 49.8089 76.4727 50.0765 76.0331 50.2772C75.603 50.4683 75.3832 50.5734 75.3832 50.5734C75.3832 50.5734 75.6126 50.497 76.0522 50.3249C76.5014 50.1434 77.1512 49.8853 77.9827 49.5413C79.6933 48.8341 82.1877 47.8115 85.4083 46.4927C85.8097 46.3302 86.2206 46.1582 86.6507 45.9766C87.0903 45.795 87.4916 45.6039 87.9695 45.5274C88.9156 45.3268 89.9095 45.1261 90.9416 44.9063C93.0155 44.4666 95.2709 43.9984 97.6887 43.4919C100.107 42.9853 102.696 42.4406 105.449 41.8576C105.793 41.7812 106.137 41.7143 106.49 41.6378C106.844 41.5709 107.188 41.4658 107.513 41.4754C107.848 41.4754 108.153 41.6092 108.507 41.743C108.851 41.8672 109.195 42.001 109.539 42.1252C110.925 42.6413 112.358 43.1669 113.811 43.7117C115.273 44.2564 116.764 44.8107 118.293 45.3745C119.058 45.6612 119.832 45.9479 120.615 46.2346C120.998 46.378 121.409 46.5213 121.781 46.6743C122.116 46.8176 122.479 47.0948 122.833 47.3241C125.661 49.2068 128.605 51.1755 131.653 53.2015C132.418 53.708 133.183 54.2241 133.957 54.7402L135.123 55.5143C135.524 55.7532 135.811 56.0399 135.992 56.4413C136.078 56.6324 136.136 56.8426 136.145 57.0529L136.202 57.7601C136.241 58.2379 136.279 58.7158 136.317 59.1936C136.394 60.1493 136.47 61.1145 136.537 62.0893C136.575 62.5767 136.613 63.0641 136.652 63.5515C136.671 63.9911 136.613 64.5167 136.604 65.0041C136.556 65.9885 136.508 66.9919 136.46 67.9954C136.365 70.0023 136.269 72.0283 136.164 74.0926C135.964 78.2116 135.763 82.4261 135.562 86.7362C135.514 87.8161 135.457 88.896 135.409 89.9855C135.381 90.5493 135.4 91.0463 135.132 91.4572C134.884 91.8777 134.473 92.1931 133.995 92.3078C133.039 92.5754 131.95 91.9255 131.749 90.9412C131.644 90.4824 131.749 89.8899 131.749 89.3356L131.816 87.6632C131.911 85.4269 132.007 83.162 132.064 80.8875C132.15 78.6129 132.265 76.3098 132.265 73.9875C132.265 71.6652 132.141 69.3142 131.787 66.9824C131.453 64.641 130.822 62.3091 129.771 60.1397C128.72 57.9799 127.257 56.0017 125.384 54.5108C123.473 53.0677 121.38 51.9878 119.22 51.099C117.051 50.2389 114.824 49.5795 112.578 49.1303C110.323 48.6907 108.058 48.4518 105.812 48.3754C101.301 48.2129 96.8859 48.7003 92.6427 49.5986C90.5307 50.0956 88.4856 50.7645 86.536 51.6151C84.5864 52.4561 82.7228 53.4596 81.0791 54.7688C80.2859 55.4474 79.5309 56.2023 79.053 57.1676C78.9097 57.3969 78.8523 57.6645 78.7854 57.913C78.6994 58.171 78.6612 58.4195 78.623 58.6775C78.537 59.1841 78.4605 59.681 78.4127 60.1875C78.1834 62.1944 78.0496 64.1727 77.9444 66.1223C77.7246 70.0214 77.6004 73.8154 77.4953 77.4757C77.3902 81.1359 77.3233 84.6815 77.2659 88.0741C77.2564 88.9247 77.2372 89.7657 77.2277 90.5971C77.2277 91.3617 76.6925 92.0689 75.9853 92.3173C75.2877 92.5754 74.4467 92.4129 73.9402 91.8777C73.6821 91.6197 73.5006 91.2948 73.4241 90.9412C73.3572 90.6067 73.3572 90.1766 73.3285 89.7943C72.5449 77.3706 71.9141 67.3073 71.4841 60.3404C71.4745 59.9008 71.3885 59.4803 71.4554 59.098C71.5223 58.7158 71.723 58.3526 71.8472 57.9895C72.1339 57.2727 72.392 56.6037 72.6405 55.973C73.1278 54.7306 73.5388 53.6698 73.8828 52.8097C74.0453 52.3892 74.1982 52.0069 74.3224 51.682C74.4562 51.3666 74.6474 51.1373 74.8098 50.9748C75.1539 50.6594 75.4023 50.5925 75.3928 50.5734L75.3832 50.5639Z" fill="#455A64"/>
<path d="M72.4884 58.7064C73.4441 53.8707 78.2798 45.174 103.147 44.2088C121.429 43.5016 128.826 50.7839 133.336 55.935C134.894 57.7125 135.993 60.4935 135.974 62.9018C135.974 62.9018 136.404 70.7384 136.404 73.2231L136.318 81.2795L143.639 78.0589C149.497 74.8382 150.233 70.2988 147.834 67.1833C147.834 67.1833 147.834 62.7203 147.222 54.2243C146.448 43.5398 140.886 31.7468 132.037 27.15C123.187 22.5532 111.757 20.5176 111.757 20.5176L110.725 16.6949C110.543 16.0164 109.941 15.5481 109.244 15.5481H100.576C99.8877 15.5481 99.2856 16.0164 99.104 16.6854L98.1197 20.2787C98.1197 20.2787 81.7394 26.2612 76.0053 34.2507C70.2617 42.2306 68.035 56.6039 68.035 56.6039C68.035 56.6039 67.4329 64.2111 67.9108 69.2953C65.2731 71.8947 65.2062 76.1857 67.777 78.8521C69.6979 80.8494 72.756 83.296 72.756 83.296L72.5936 72.9173L72.4884 58.7351V58.7064Z" fill="#AD4A2B"/>
<path d="M138.449 74.628C138.449 74.628 138.63 74.4655 138.908 74.1023C139.185 73.7392 139.576 73.1945 140.054 72.4681C140.962 71.006 142.367 68.8748 143.294 65.8549C144.173 62.7585 143.313 58.7255 140.867 55.3424C139.634 53.6318 138.019 52.1791 136.375 50.6692C134.703 49.1783 132.887 47.7352 130.937 46.3782C128.988 45.0211 127 43.817 125.022 42.7753C123.043 41.7145 121.065 40.8735 119.316 39.8796C117.567 38.8952 116.029 37.7102 115.025 36.2767C114.003 34.8527 113.534 33.209 113.152 31.7468C112.464 28.7651 112.244 26.2612 111.957 24.5505C111.824 23.6904 111.709 23.031 111.604 22.5819C111.499 22.1327 111.441 21.9033 111.413 21.9129C111.355 21.9224 111.48 22.8686 111.652 24.5888C111.843 26.2994 111.977 28.8129 112.607 31.871C112.961 33.381 113.41 35.0917 114.49 36.659C115.56 38.2263 117.175 39.4878 118.963 40.5199C120.75 41.5711 122.728 42.4217 124.668 43.4729C126.618 44.5146 128.567 45.7092 130.498 47.0472C132.418 48.3851 134.215 49.8091 135.868 51.2712C137.503 52.7525 139.108 54.1861 140.284 55.7916C142.644 58.9836 143.514 62.854 142.759 65.7306C141.947 68.655 140.628 70.8339 139.796 72.3248C138.936 73.8156 138.411 74.6184 138.458 74.6471L138.449 74.628Z" fill="#263238"/>
<g opacity="0.3">
<path d="M138.45 74.6278C138.45 74.6278 143.352 67.852 143.352 63.6757C143.352 62.8921 143.266 62.1275 143.142 61.4012C142.607 58.4673 141.087 55.801 138.994 53.6698C134.55 49.1399 129.342 45.3363 123.637 42.4597C120.492 40.8829 117.062 39.4685 114.95 36.697C112.255 33.161 112.283 26.5764 111.433 21.884C111.433 21.884 113.812 31.7275 116.479 35.0915C119.078 38.3599 130.47 41.1218 140.504 51.5195C150.539 61.9173 143.821 69.6774 141.097 72.2004C139.95 73.2612 138.45 74.6182 138.45 74.6182V74.6278Z" fill="black"/>
</g>
<path d="M69.4396 56.9574C69.6212 57.0339 70.0608 54.2242 72.9183 50.9176C75.7088 47.6109 80.6784 44.0654 86.7278 41.3417C88.2378 40.6536 89.7764 39.9655 91.0474 38.8952C92.3185 37.8248 93.169 36.4582 93.8189 35.1489C95.0517 32.4826 95.9787 30.0838 96.8197 28.0482C97.6321 26.0127 98.2341 24.3402 98.5877 23.1647C98.9509 21.9893 99.0942 21.3298 99.0369 21.3107C98.9796 21.2916 98.7406 21.9224 98.2915 23.0596C97.8423 24.1969 97.1733 25.8311 96.2941 27.8284C95.3958 29.8067 94.3923 32.2532 93.1595 34.8144C92.5096 36.0759 91.6973 37.3279 90.5409 38.2931C89.3846 39.2679 87.9128 39.9273 86.3933 40.6154C80.2674 43.3677 75.231 47.0566 72.4787 50.5544C71.1025 52.2937 70.2615 53.9088 69.8792 55.0939C69.6403 55.6673 69.583 56.1547 69.497 56.4605C69.4301 56.7759 69.4109 56.9479 69.4396 56.9574Z" fill="#263238"/>
<g opacity="0.3">
<path d="M75.5756 45.5372C78.3661 43.3965 81.6537 42.0108 84.6163 40.1377C90.7517 36.2576 94.7846 29.1187 98.5022 22.9451C96.4284 28.3638 95.272 32.9988 92.319 36.831C89.041 41.0647 83.2687 42.2879 78.7102 45.0976C75.1551 47.2957 72.2689 50.5641 70.5391 54.3677C70.4531 50.8508 72.7754 47.6875 75.566 45.5468L75.5756 45.5372Z" fill="black"/>
</g>
<path d="M159.224 142.691C159.224 142.691 162.062 137.588 160.103 134.214C158.144 130.841 155.487 129.245 155.487 129.245V120.367C155.487 120.367 135.963 122.144 126.722 129.598C117.49 137.053 110.924 147.173 110.924 147.173C110.924 147.173 99.5612 136.346 93.5214 132.437C87.4815 128.528 78.7848 116.812 78.7848 116.812L73.4617 119.478L74.5225 123.912C74.5225 123.912 64.9371 134.205 63.6947 140.426C63.6947 140.426 63.1595 142.911 65.4723 143.981C67.785 145.052 75.8031 147.288 75.8031 147.288C75.8031 147.288 65.9023 156.94 63.6469 164.223C61.3915 171.505 56.2405 221.038 59.442 230.795C62.6339 240.562 65.4723 244.48 65.4723 244.48L161.699 242.865L166.43 144.144L158.526 142.615" fill="#AD4A2B"/>
<path d="M163.583 203.663C115.312 178.061 58.9936 203.663 58.9936 203.663L60.4748 186.069C60.4748 186.069 78.4033 176.398 109.138 174.19C139.872 171.973 164.481 185.047 164.481 185.047L163.592 203.673L163.583 203.663Z" fill="#E0E0E0"/>
<path d="M159.683 197.002C113.266 176.14 59.2891 199.315 59.2891 199.315L59.6905 189.653C59.6905 189.653 78.7945 179.542 109.529 178.175C140.264 176.809 161.489 187.436 161.489 187.436L159.673 197.002H159.683Z" fill="white"/>
<path d="M151.474 142.376C151.474 142.376 170.55 141.497 174.363 150.002L162.914 254.802L153.816 255.939L151.465 142.376H151.474Z" fill="#263238"/>
<path d="M78.7373 147.776C78.7373 147.776 71.8469 146.514 65.5967 148.951C58.4196 151.751 57.98 153.663 57.0721 162.369C56.1642 171.065 55.6195 183.031 55.6195 197.175C55.6195 211.319 61.9365 248.246 61.9365 255.949L78.2786 255.48C78.2786 255.48 70.6045 204.141 72.3629 190.81C74.1214 177.478 78.7373 147.776 78.7373 147.776Z" fill="#263238"/>
<path d="M71.1505 146.361C71.141 146.419 71.8004 146.6 72.995 146.877C74.352 147.193 76.0531 147.575 78.0696 148.034C82.3606 148.999 88.2667 150.365 94.7653 152C101.264 153.643 107.122 155.239 111.356 156.415C113.353 156.969 115.035 157.428 116.373 157.801C117.558 158.116 118.227 158.269 118.246 158.212C118.265 158.154 117.625 157.906 116.469 157.495C115.312 157.084 113.621 156.53 111.518 155.87C107.323 154.551 101.474 152.86 94.966 151.216C88.4578 149.582 82.5039 148.301 78.1843 147.47C76.0245 147.059 74.266 146.743 73.0523 146.562C71.8386 146.371 71.1601 146.294 71.1505 146.352V146.361Z" fill="#263238"/>
<path d="M73.8155 122.154C73.8155 122.154 73.9779 122.679 74.4366 123.559C74.8954 124.428 75.6408 125.661 76.6825 127.085C78.7468 129.952 82.1681 133.507 86.5164 136.699C90.8552 139.891 95.1366 142.233 98.2425 143.867C99.8003 144.679 101.071 145.31 101.96 145.73C102.849 146.151 103.355 146.361 103.375 146.313C103.432 146.208 101.549 145.119 98.5101 143.37C95.4806 141.611 91.2757 139.213 86.9847 136.059C82.6937 132.905 79.2724 129.484 77.1221 126.741C74.9527 124.017 73.9302 122.087 73.8059 122.154H73.8155Z" fill="#263238"/>
<path d="M127.907 139.146C128.012 139.241 129.178 137.961 131.337 136.25C133.488 134.539 136.737 132.485 140.684 131.051C144.64 129.627 148.444 129.13 151.196 129.073C153.949 129.006 155.659 129.245 155.679 129.101C155.679 129.044 155.268 128.949 154.493 128.805C153.729 128.652 152.592 128.538 151.187 128.499C148.387 128.413 144.459 128.834 140.397 130.287C136.345 131.758 133.058 133.947 130.955 135.801C129.904 136.728 129.101 137.54 128.604 138.142C128.098 138.744 127.84 139.088 127.887 139.127L127.907 139.146Z" fill="#263238"/>
<path d="M132.333 156.109C132.409 156.185 133.766 154.924 135.754 152.716C137.77 150.566 140.389 147.307 144.279 145.128C148.187 142.987 152.344 142.443 155.24 142.481C158.174 142.51 159.952 143.073 159.98 142.93C159.999 142.882 159.569 142.691 158.767 142.462C157.964 142.232 156.76 142.003 155.259 141.907C152.278 141.726 147.977 142.185 143.887 144.421C139.806 146.714 137.235 150.107 135.324 152.334C133.451 154.637 132.256 156.013 132.333 156.099V156.109Z" fill="#263238"/>
<g opacity="0.3">
<path d="M101.521 252.498C101.683 249.612 102.075 246.525 103.958 244.327C105.764 242.215 108.689 241.307 111.47 241.374C114.251 241.441 116.936 242.349 119.526 243.362C123.664 244.977 127.955 247.127 130.057 251.036C132.303 255.212 131.481 260.316 130.593 264.97C128.375 276.629 126.168 288.288 123.951 299.948L126.072 307.115C121.638 307.784 117.548 304.009 116.114 299.766C114.681 295.513 115.178 290.897 115.359 286.415C115.541 281.933 115.292 277.136 112.674 273.495C110.275 270.159 106.232 268.296 103.901 264.913C101.454 261.377 101.282 256.78 101.521 252.489V252.498Z" fill="black"/>
</g>
<path d="M153.978 243.047C153.978 243.047 152.745 233.939 150.213 228.711C147.68 223.484 116.028 225.223 111.737 226.179C107.456 227.125 104.608 235.669 103.174 242.865C101.741 250.061 104.149 260.239 104.149 260.239L137.856 254.639L153.978 243.037V243.047Z" fill="#263238"/>
<path d="M152.574 239.253L155.947 142.347H150.5L149.019 234.455L152.574 239.253Z" fill="#455A64"/>
<path d="M123.406 229.916H134.731C145.361 229.916 153.978 238.533 153.978 249.163V250.339C153.978 260.969 145.361 269.586 134.731 269.586H123.406C112.776 269.586 104.159 260.969 104.159 250.339V249.163C104.159 238.533 112.776 229.916 123.406 229.916Z" fill="#E0E0E0"/>
<path d="M123.406 269.586C123.425 269.462 121.322 269.634 117.796 268.592C116.066 268.009 113.992 267.082 111.938 265.496C109.902 263.919 107.828 261.701 106.423 258.758C105.659 257.315 105.181 255.662 104.808 253.941C104.493 252.202 104.426 250.348 104.522 248.418C104.636 244.604 106.07 240.572 108.765 237.246C111.479 233.939 115.512 231.416 120.109 230.613C122.383 230.183 124.801 230.346 127.267 230.317C129.723 230.317 132.207 230.317 134.721 230.317C139.671 230.308 144.421 232.324 147.756 235.564C151.139 238.784 153.089 243.123 153.509 247.376C153.653 249.507 153.682 251.657 153.309 253.636C152.946 255.633 152.315 257.516 151.426 259.207C150.518 260.88 149.419 262.38 148.186 263.651C146.915 264.884 145.587 265.973 144.173 266.767C141.372 268.439 138.419 269.118 135.849 269.309C133.259 269.442 130.975 269.385 129.14 269.433C127.343 269.462 125.929 269.49 124.887 269.509C124.438 269.528 124.075 269.538 123.778 269.548C123.53 269.557 123.406 269.576 123.406 269.586C123.406 269.595 123.53 269.614 123.778 269.624C124.075 269.634 124.438 269.643 124.887 269.662C125.929 269.681 127.343 269.71 129.14 269.739C130.994 269.739 133.23 269.844 135.877 269.748C138.505 269.605 141.554 268.946 144.459 267.254C145.931 266.451 147.307 265.343 148.636 264.081C149.916 262.772 151.073 261.243 152.028 259.513C152.965 257.774 153.634 255.815 154.016 253.75C154.092 253.225 154.198 252.709 154.245 252.173C154.274 251.638 154.303 251.103 154.331 250.558C154.379 249.498 154.312 248.408 154.255 247.29C153.844 242.865 151.827 238.345 148.311 234.981C144.841 231.607 139.891 229.486 134.73 229.505C132.217 229.505 129.723 229.505 127.276 229.505C124.839 229.543 122.393 229.371 119.984 229.83C115.196 230.671 111.011 233.318 108.21 236.768C105.42 240.237 103.967 244.442 103.872 248.379C103.786 250.329 103.872 252.24 104.216 254.047C104.617 255.824 105.133 257.525 105.926 258.997C107.408 262.017 109.568 264.263 111.68 265.84C113.811 267.426 115.942 268.324 117.719 268.879C119.516 269.366 120.959 269.548 121.934 269.586C122.383 269.586 122.746 269.595 123.043 269.605C123.291 269.605 123.415 269.605 123.415 269.586H123.406Z" fill="#455A64"/>
<path d="M120.091 270.159C120.034 266.891 121.84 263.661 124.659 262.008C127.478 260.354 131.186 260.354 133.996 262.008C136.815 263.661 138.631 266.891 138.564 270.15V294.462H120.081V270.15L120.091 270.159Z" fill="#455A64"/>
<path d="M139.348 280.729H118.925C117.912 280.729 117.08 281.551 117.08 282.573V282.688C117.08 283.701 117.902 284.533 118.925 284.533H139.348C140.361 284.533 141.192 283.711 141.192 282.688V282.573C141.192 281.56 140.37 280.729 139.348 280.729Z" fill="#455A64"/>
<path d="M118.925 284.523C118.925 284.523 118.734 284.485 118.418 284.37C118.112 284.255 117.654 283.978 117.405 283.414C117.166 282.879 117.176 281.971 117.807 281.407C118.122 281.121 118.543 280.958 119.039 280.996C119.584 280.996 120.148 281.016 120.741 281.025C125.5 281.102 132.084 281.14 139.348 281.14C140.074 281.13 140.724 281.723 140.781 282.42C140.886 283.166 140.456 283.844 139.806 284.064C139.644 284.122 139.491 284.141 139.3 284.141H138.669C138.249 284.141 137.828 284.141 137.417 284.141C136.595 284.141 135.792 284.141 134.999 284.15C131.893 284.179 129.074 284.208 126.637 284.236C124.382 284.284 122.489 284.332 120.999 284.36C119.67 284.408 118.934 284.466 118.934 284.513C118.934 284.561 119.67 284.618 120.999 284.666C122.489 284.705 124.382 284.743 126.637 284.791C129.074 284.819 131.893 284.848 134.999 284.877C135.792 284.877 136.595 284.877 137.417 284.886C137.828 284.886 138.249 284.886 138.669 284.886H139.3C139.539 284.886 139.806 284.857 140.055 284.781C141.068 284.485 141.746 283.338 141.574 282.306C141.479 281.216 140.475 280.289 139.348 280.308C132.084 280.308 125.5 280.356 120.741 280.423C120.148 280.433 119.584 280.442 119.039 280.452C118.457 280.433 117.864 280.672 117.501 281.054C116.727 281.837 116.794 282.908 117.119 283.519C117.463 284.169 118.017 284.418 118.371 284.494C118.734 284.571 118.925 284.513 118.925 284.494V284.523Z" fill="#263238"/>
<path d="M129.141 308.119C122.997 308.119 118.017 303.138 118.017 296.995C118.017 290.851 122.997 285.871 129.141 285.871C135.284 285.871 140.265 290.851 140.265 296.995C140.265 303.138 135.284 308.119 129.141 308.119Z" fill="#455A64"/>
<path d="M115.694 240.896C115.694 240.896 115.99 241.307 116.631 241.929C117.271 242.559 118.227 243.439 119.45 244.48C121.877 246.573 125.385 249.316 129.484 252.011C133.584 254.696 137.493 256.828 140.379 258.223C141.822 258.921 143.007 259.456 143.839 259.79C144.67 260.125 145.138 260.297 145.167 260.239C145.215 260.125 143.447 259.236 140.637 257.716C137.827 256.197 133.995 254.008 129.924 251.332C125.853 248.657 122.326 246.009 119.813 244.041C117.3 242.072 115.78 240.801 115.694 240.887V240.896Z" fill="white"/>
<path d="M125.365 242.875C125.26 243.075 129.235 245.293 134.052 248.15C138.878 250.998 142.73 253.416 142.863 253.225C142.988 253.053 139.318 250.329 134.463 247.462C129.618 244.595 125.47 242.684 125.375 242.875H125.365Z" fill="white"/>
<path d="M119.449 294.472C119.449 294.472 119.354 294.672 119.249 295.083C119.163 295.494 119.096 296.115 119.134 296.908C119.249 298.495 119.86 300.798 121.485 303.168C122.297 304.344 123.358 305.548 124.849 306.437C126.34 307.287 128.203 307.717 130.124 307.564C132.036 307.411 134.023 306.695 135.658 305.347C137.292 304 138.458 302.031 138.936 299.862C139.729 296.507 138.783 292.981 136.776 290.63C134.788 288.202 131.892 287.065 129.36 286.845H129.331H129.312C127.276 286.979 125.413 287.447 123.941 288.25C122.469 289.034 121.428 290.114 120.778 291.088C120.128 292.082 119.803 292.942 119.631 293.545C119.459 294.147 119.421 294.472 119.449 294.481C119.564 294.529 119.774 293.162 121.093 291.308C121.762 290.4 122.785 289.426 124.199 288.718C125.604 288.002 127.391 287.591 129.36 287.495H129.312C131.72 287.753 134.387 288.852 136.202 291.108C138.047 293.315 138.907 296.564 138.171 299.68C137.722 301.687 136.652 303.512 135.17 304.745C133.689 305.987 131.854 306.666 130.076 306.828C128.299 306.991 126.569 306.618 125.183 305.854C123.807 305.07 122.766 303.942 121.953 302.834C120.329 300.597 119.66 298.39 119.449 296.87C119.268 295.332 119.535 294.481 119.449 294.462V294.472Z" fill="#263238"/>
<g opacity="0.3">
<path d="M116.841 157.791C109.645 157.972 102.382 157.753 95.3575 156.157C88.3333 154.561 81.8825 152.296 76.6167 147.384C89.805 150.576 102.535 153.404 115.494 157.409" fill="black"/>
</g>
<g opacity="0.2">
<path d="M104.303 49.6179C103.051 49.6466 102.057 50.6309 102.009 51.8829C101.694 60.2546 100.585 91.228 101.35 94.4773C102.143 97.8318 124.468 83.1048 129.284 79.8842C129.877 79.4923 130.249 78.8616 130.316 78.1544C130.727 73.787 131.396 57.8845 120.377 53.2113C112.827 50.0097 107.198 49.5701 104.303 49.6275V49.6179Z" fill="white"/>
</g>
<path d="M96.9535 106.366C96.9535 106.366 97.1829 106.366 97.6129 106.347C98.043 106.318 98.6833 106.27 99.4956 106.156C101.13 105.946 103.481 105.515 106.29 104.627C109.1 103.747 112.369 102.381 115.685 100.326C117.348 99.3036 119.02 98.1185 120.654 96.7615C122.269 95.3949 123.904 93.8849 125.222 92.0213C125.882 91.0943 126.417 90.0909 126.799 89.0396C127.172 87.9884 127.382 86.9085 127.497 85.8477C127.717 83.7165 127.602 81.6714 127.583 79.7313C127.516 75.8513 127.354 72.344 126.99 69.4196C126.637 66.4952 126.111 64.1634 125.643 62.5865C125.404 61.8029 125.213 61.1912 125.05 60.7899C124.897 60.3885 124.811 60.1782 124.792 60.1782C124.773 60.1782 124.831 60.4076 124.955 60.8185C125.079 61.2295 125.251 61.8411 125.452 62.6343C125.863 64.2207 126.321 66.543 126.637 69.4578C126.952 72.3726 127.076 75.8609 127.115 79.7313C127.115 81.6714 127.22 83.7165 127 85.7903C126.885 86.8225 126.685 87.8641 126.321 88.8676C125.958 89.8711 125.442 90.8267 124.802 91.7346C123.531 93.5313 121.925 95.0317 120.329 96.3792C118.724 97.7267 117.07 98.9118 115.436 99.9343C112.158 101.979 108.947 103.365 106.176 104.283C103.404 105.21 101.072 105.678 99.4574 105.955C98.6546 106.108 98.0238 106.175 97.5938 106.242C97.1637 106.309 96.9439 106.347 96.9439 106.366H96.9535Z" fill="white"/>
<path d="M81.8827 60.073C82.0069 60.1686 83.4595 58.133 86.0016 56.4892C88.5246 54.8168 90.9711 54.3007 90.9329 54.1478C90.9329 54.0236 88.3526 54.339 85.7245 56.0783C83.0868 57.789 81.768 60.0348 81.8827 60.0826V60.073Z" fill="white"/>
<path d="M34.175 228.892C44.0472 221.411 55.477 216.51 67.3848 212.507C71.1692 211.235 75.9572 213.939 76.8268 217.497C77.8112 221.518 75.5176 224.925 71.4655 226.286C69.0572 227.095 66.668 227.958 64.2979 228.847C64.2024 228.883 64.1259 228.91 64.0494 228.936C63.973 228.972 63.8774 229.008 63.7627 229.052C63.3709 229.212 62.9791 229.372 62.5873 229.532C61.2206 230.102 59.8636 230.689 58.5256 231.302C54.0722 233.348 49.8386 235.714 45.8247 238.427C45.5571 238.623 45.1271 238.917 45.0315 238.988C44.7066 239.237 44.3816 239.486 44.0567 239.744C43.0915 240.509 42.1454 241.301 41.2375 242.119C40.32 242.937 39.4408 243.791 38.5902 244.672C38.1889 245.081 37.8066 245.499 37.4243 245.926C37.367 245.988 37.2523 246.104 37.1376 246.229C35.5703 247.812 34.3661 249.973 33.2862 251.868C32.818 252.686 32.3879 253.531 31.9674 254.376C31.9387 254.439 31.9101 254.483 31.8814 254.537C31.8623 254.59 31.8432 254.652 31.8145 254.723C31.5469 255.417 31.2602 256.111 31.0117 256.814C30.4097 258.53 29.3871 260.861 29.4922 262.702C29.4922 262.693 29.4922 262.684 29.4922 262.667C29.4922 262.782 29.4922 262.898 29.4922 262.969C29.4444 263.512 29.3966 264.054 29.3775 264.597C29.3202 265.86 29.3489 267.132 29.454 268.395C29.454 268.44 29.5113 268.849 29.5495 269.151C29.5973 269.409 29.6451 269.685 29.6547 269.721C29.8745 270.788 30.1612 271.846 30.5148 272.887C30.6964 273.412 30.9066 273.928 31.0977 274.444C31.1169 274.488 31.1264 274.524 31.1455 274.568C31.1742 274.622 31.2124 274.684 31.2507 274.755C31.7954 275.725 32.3019 276.703 32.8944 277.655C37.9308 285.687 45.108 292.154 49.0645 300.827C56.2129 316.5 46.1783 341.326 43.5502 352.943H27.8198C28.3932 350.417 35.3218 327.53 35.7806 324.986C35.8952 324.345 36.0004 323.705 36.115 323.065C36.1437 322.922 36.1628 322.807 36.1819 322.718C36.1819 322.629 36.201 322.531 36.2106 322.406C36.3731 320.921 36.5355 319.426 36.6024 317.932C36.6598 316.66 36.6693 315.397 36.612 314.125C36.5833 313.493 36.5451 312.862 36.4782 312.239C36.4591 312.052 36.2679 310.958 36.2871 310.985C36.1246 310.176 35.943 309.366 35.7137 308.566C35.5416 307.952 35.3409 307.347 35.1211 306.742C34.9778 306.351 34.3853 304.011 34.7771 305.817C34.5668 304.856 33.6876 303.753 33.1716 302.908C32.5886 301.956 31.9674 301.031 31.3175 300.115C29.8936 298.123 28.3454 296.21 26.7876 294.307C23.9206 290.811 20.9771 287.324 18.76 283.419C7.97038 264.41 17.1449 241.781 34.175 228.883V228.892Z" fill="#455A64"/>
<g opacity="0.3">
<path d="M29.473 261.483C29.473 261.483 20.633 262.32 15.157 257.063L18.0431 248.746L32.8274 252.748L29.473 261.475V261.483Z" fill="black"/>
</g>
<path d="M116.851 183.245L119.97 201.716L113.899 202.604L110.781 184.133L116.851 183.245Z" fill="#E0E0E0"/>
<path d="M79.5395 207.837L52.2931 218.165L77.0738 224.907L86.6401 222.354L79.5395 207.837Z" fill="#455A64"/>
<path d="M118.099 204.008C116.262 197.57 118.853 191.342 123.888 190.097C128.923 188.852 134.494 193.061 136.332 199.499C138.17 205.938 135.578 212.166 130.543 213.411C125.509 214.656 119.937 210.447 118.099 204.008Z" fill="#E0E0E0"/>
<path d="M115.187 204.608C117.118 211.378 122.183 215.745 127.219 214.5C128.366 214.215 131.204 213.343 132.246 212.765C135.725 210.835 134.903 205.329 133.412 200.099C132.16 195.704 129.723 191.453 126.521 189.932C124.792 189.113 121.886 190.189 120.157 190.732C115.675 192.146 113.257 197.848 115.187 204.617V204.608Z" fill="#E0E0E0"/>
<path d="M77.247 217.461C78.9863 223.563 83.564 227.504 88.1035 226.383C89.1356 226.125 90.9705 225.912 91.7446 225.209C94.3823 222.852 95.0321 218.102 93.6942 213.387C92.5569 209.42 90.3684 205.586 87.4727 204.208C85.915 203.469 83.2869 204.439 81.7291 204.928C77.6866 206.209 75.4981 211.35 77.247 217.453V217.461Z" fill="#E0E0E0"/>
<path d="M92.5475 222.576L122.737 211.867L116.296 195.046L85.724 205.898C80.8501 207.624 78.3558 212.667 80.1046 217.239C81.9109 221.954 87.5302 224.364 92.5571 222.585L92.5475 222.576Z" fill="#E0E0E0"/>
<path d="M5.63791 205.186C10.9324 196.06 31.2309 176.695 31.2309 176.695C31.2309 176.695 33.429 170.433 37.3568 166.662C43.7503 160.533 60.465 152.038 60.465 152.038C56.174 170.513 55.6389 191.097 57.3304 212.934L52.294 218.156L62.4624 220.922L50.6216 255.524L31.6705 254.225C18.291 251.308 7.27211 242.448 2.31215 230.529C2.28348 230.466 2.26438 230.413 2.23571 230.351C-0.191711 224.489 0.353016 214.295 5.64746 205.178L5.63791 205.186Z" fill="#AD4A2B"/>
<path d="M120.816 203.034C122.355 208.424 126.579 212.054 130.258 211.146C133.938 210.239 135.667 205.133 134.129 199.743C132.59 194.352 128.366 190.723 124.687 191.63C121.007 192.538 119.278 197.644 120.816 203.034Z" fill="#263238"/>
<path d="M118.264 191.657C118.264 191.657 117.872 191.755 117.289 192.155C116.706 192.555 115.97 193.285 115.387 194.361C114.327 196.54 113.591 199.921 114.317 203.541C115.024 207.179 117.098 210.043 118.885 211.733C119.783 212.587 120.605 213.183 121.198 213.557C121.79 213.93 122.144 214.099 122.154 214.073C122.211 214.002 120.844 213.237 119.143 211.502C117.452 209.794 115.492 206.983 114.804 203.452C114.088 199.938 114.766 196.629 115.703 194.495C116.219 193.445 116.888 192.707 117.413 192.28C117.939 191.853 118.293 191.684 118.273 191.639L118.264 191.657Z" fill="#263238"/>
<path d="M120.261 212.738C120.261 212.738 120.184 212.747 120.041 212.792C119.869 212.845 119.668 212.907 119.41 212.987C118.818 213.183 118.024 213.441 117.011 213.77C114.89 214.482 111.898 215.487 108.219 216.732C104.502 218.004 100.086 219.508 95.1932 221.18C93.97 221.598 92.7085 222.034 91.4279 222.47C90.7971 222.683 90.1664 222.897 89.5261 223.119C89.421 223.146 89.335 223.101 89.1534 223.03C88.9909 222.977 88.838 222.914 88.6851 222.843C88.3697 222.71 88.0735 222.559 87.7868 222.381C85.4167 221.002 84.0405 218.405 83.3907 215.736C82.6166 212.605 82.9128 209.367 84.0118 206.601L83.8685 206.734C92.8327 203.532 100.641 200.748 106.26 198.746C109.012 197.741 111.22 196.941 112.797 196.371C113.523 196.096 114.106 195.882 114.536 195.713C114.928 195.562 115.138 195.473 115.129 195.464C115.129 195.455 114.909 195.509 114.507 195.642C114.068 195.784 113.475 195.98 112.73 196.229C111.153 196.772 108.917 197.537 106.145 198.48C100.507 200.445 92.6798 203.185 83.6869 206.316L83.5818 206.352L83.5436 206.45C82.4063 209.296 82.1005 212.623 82.8937 215.843C83.2377 217.23 83.7538 218.565 84.5088 219.774C85.2542 220.984 86.2768 222.043 87.5192 222.763C87.825 222.95 88.1499 223.11 88.4748 223.252C88.6373 223.324 88.7998 223.395 88.9718 223.448C89.1056 223.502 89.3541 223.608 89.6025 223.555C90.348 223.324 90.9309 223.101 91.5904 222.879C92.871 222.434 94.1229 221.998 95.3462 221.571C100.23 219.863 104.626 218.333 108.334 217.035C111.994 215.736 114.966 214.686 117.078 213.939C118.072 213.575 118.865 213.29 119.448 213.076C119.697 212.979 119.897 212.907 120.06 212.845C120.194 212.792 120.261 212.756 120.261 212.747V212.738Z" fill="#263238"/>
<path d="M91.314 212.054L97.4112 211.395L94.5441 188.259L111.01 184.15C110.886 184.185 110.762 184.15 110.724 184.123L116.869 183.403C116.611 181.739 115.607 180.263 114.107 179.346C112.692 178.475 111.03 178.217 109.424 178.617L92.7857 182.771C89.9665 183.474 88.0933 186.035 88.4278 188.74L91.314 212.045V212.054Z" fill="#E0E0E0"/>
<path d="M112.588 194.886C112.588 194.886 112.588 194.823 112.578 194.699C112.559 194.556 112.54 194.379 112.502 194.156C112.426 193.649 112.32 192.946 112.187 192.048C111.89 190.18 111.46 187.503 110.916 184.122L110.896 183.98L110.744 184.016C106.367 185.11 100.852 186.489 94.5066 188.081L94.3346 188.125L94.3537 188.285C95.1756 195.019 96.1408 202.909 97.1825 211.422L97.4023 211.173C95.4623 211.377 93.3981 211.6 91.3051 211.822L91.5823 212.026C91.3911 210.505 91.1905 208.878 90.9898 207.232C90.4737 203.096 89.9767 199.049 89.4893 195.144C89.2409 193.196 89.0019 191.274 88.7726 189.397C88.6197 188.446 88.591 187.574 88.8586 186.702C89.1071 185.848 89.604 185.065 90.2443 184.434C90.8942 183.811 91.6874 183.331 92.5571 183.073C93.4363 182.824 94.3633 182.61 95.2425 182.388C97.0201 181.943 98.7403 181.507 100.403 181.089C103.729 180.253 106.825 179.47 109.664 178.759C111.049 178.438 112.473 178.67 113.601 179.239C114.738 179.808 115.608 180.671 116.124 181.614C116.688 182.548 116.783 183.562 116.955 184.478C117.118 185.394 117.271 186.231 117.405 186.987C117.672 188.472 117.892 189.637 118.035 190.456C118.112 190.829 118.169 191.132 118.217 191.354C118.255 191.559 118.284 191.657 118.293 191.657C118.293 191.657 118.293 191.55 118.265 191.345C118.236 191.114 118.188 190.821 118.141 190.438C118.016 189.611 117.835 188.446 117.596 186.96C117.472 186.204 117.338 185.359 117.194 184.443C117.041 183.535 116.955 182.477 116.382 181.49C115.847 180.502 114.949 179.586 113.764 178.972C112.588 178.358 111.069 178.1 109.597 178.43C106.758 179.123 103.652 179.888 100.317 180.716C98.6543 181.125 96.9245 181.552 95.1469 181.997C94.2582 182.228 93.3694 182.424 92.4328 182.681C91.4963 182.957 90.6362 183.473 89.929 184.14C89.2313 184.816 88.7057 185.661 88.4285 186.586C88.1227 187.503 88.1705 188.534 88.3139 189.451C88.5432 191.328 88.7822 193.249 89.0211 195.197C89.4989 199.102 90.0054 203.14 90.5119 207.285C90.7126 208.922 90.9133 210.55 91.1044 212.08L91.1331 212.311L91.3816 212.284C93.4745 212.062 95.5483 211.831 97.4788 211.626L97.7273 211.6L97.6986 211.377C96.6282 202.865 95.6439 194.983 94.7933 188.25L94.6404 188.454C100.977 186.818 106.472 185.403 110.849 184.274L110.667 184.167C111.269 187.538 111.737 190.216 112.072 192.075C112.234 192.973 112.368 193.667 112.464 194.165C112.512 194.387 112.54 194.565 112.578 194.699C112.607 194.823 112.626 194.877 112.626 194.877L112.588 194.886Z" fill="#263238"/>
<g opacity="0.3">
<path d="M100.535 254.065L86.6395 255.533C86.6395 255.533 80.3416 262.569 71.0716 263.628C61.8015 264.686 58.4279 264.437 58.4279 264.437L62.4609 250.276L93.5395 248.123L100.535 255.133" fill="black"/>
</g>
<path d="M87.1466 220.611C87.1466 220.611 95.5948 216.999 97.3437 216.928C99.0926 216.857 115.607 221.696 115.836 224.907C116.065 228.118 113.093 229.043 111.268 229.186C109.443 229.328 103.087 227.513 103.317 227.584C103.546 227.656 109.443 229.328 109.519 232.583C109.595 235.839 106.059 237.894 106.059 237.894C106.059 237.894 111.736 240.767 112.663 244.432C113.122 246.246 112.434 247.323 112.434 247.323C112.434 247.323 117.518 248.097 117.594 251.423C117.671 254.75 110.742 254.892 109.223 254.892C107.703 254.892 86.6497 252.553 86.6497 252.553C86.6497 252.553 80.3805 255.595 77.867 255.951C75.3536 256.307 69.954 256.734 69.954 256.734L48.7476 257.41C48.7476 257.41 44.8198 243.738 49.3019 232.13C52.5703 223.662 60.3304 219.392 60.3304 219.392L77.0834 224.907L87.1562 220.611H87.1466Z" fill="#263238"/>
<path d="M87.1463 220.611C86.4774 220.886 83.3714 222.176 77.0257 224.818H77.1022C72.7634 223.368 67.0962 221.491 60.3683 219.25L60.2918 219.223L60.2249 219.259C57.6446 220.788 55.2268 222.861 53.0765 225.396C50.9644 227.94 49.2251 231.036 48.279 234.496C46.3485 241.425 46.5014 249.413 48.4988 257.472L48.537 257.641H48.7282C54.7011 257.445 60.9608 257.25 67.4307 257.045C68.2431 257.018 69.0554 256.992 69.8677 256.965C70.68 256.885 71.5019 256.805 72.3238 256.734C73.9676 256.574 75.6209 256.413 77.2838 256.244C78.1152 256.209 78.9849 255.951 79.7685 255.702C80.5713 255.435 81.3549 255.133 82.129 254.821C83.6868 254.19 85.2159 253.496 86.7449 252.766L86.6016 252.793C87.089 252.847 87.6146 252.909 88.1498 252.962C94.8873 253.692 101.481 254.439 107.894 255.035C109.528 255.222 111.143 255.088 112.73 254.875C113.523 254.759 114.307 254.59 115.071 254.332C115.826 254.065 116.572 253.727 117.145 253.131L117.508 252.642C117.594 252.455 117.661 252.268 117.738 252.082C117.776 251.886 117.785 251.69 117.814 251.494C117.824 251.299 117.776 251.112 117.766 250.916C117.642 250.151 117.202 249.457 116.638 248.942C115.473 247.901 113.972 247.385 112.472 247.1L112.634 247.429C113.188 246.38 113.141 245.241 112.835 244.209C112.52 243.169 111.898 242.261 111.191 241.479C109.748 239.904 107.999 238.694 106.164 237.707V238.063C107.187 237.431 108.028 236.648 108.687 235.732C109.337 234.816 109.739 233.74 109.729 232.646C109.729 231.507 109.012 230.52 108.2 229.817C107.359 229.114 106.403 228.59 105.428 228.154C104.941 227.94 104.444 227.744 103.938 227.575L103.555 227.451L103.46 227.424L103.412 227.406H103.393C103.345 227.086 103.498 227.825 103.269 227.753L103.45 227.807L104.205 228.011C105.209 228.278 106.212 228.527 107.196 228.75C108.19 228.972 109.165 229.177 110.159 229.301C111.162 229.461 112.204 229.283 113.112 228.972C114.039 228.661 114.89 228.118 115.415 227.344C115.922 226.561 116.094 225.654 115.979 224.791C115.893 224.32 115.597 223.946 115.281 223.653C114.976 223.341 114.622 223.083 114.268 222.843C113.561 222.363 112.816 221.963 112.08 221.598C109.117 220.166 106.231 219.187 103.613 218.36C102.303 217.951 101.042 217.595 99.8473 217.302C99.2452 217.159 98.6718 217.017 98.0984 216.919C97.8117 216.875 97.525 216.812 97.2287 216.848C96.9325 216.875 96.6744 216.946 96.4068 217.008C94.333 217.604 92.6606 218.307 91.294 218.84C89.9273 219.392 88.8857 219.828 88.188 220.13C87.8535 220.281 87.5955 220.397 87.4044 220.477C87.2323 220.557 87.1368 220.611 87.1463 220.611C87.1559 220.611 87.2419 220.584 87.4235 220.513C87.6146 220.433 87.8822 220.326 88.2262 220.193C88.9526 219.908 89.9943 219.49 91.3513 218.956C92.7275 218.44 94.419 217.755 96.4642 217.186C96.7222 217.124 96.9802 217.061 97.2478 217.035C97.5059 217.008 97.783 217.061 98.0602 217.106C98.624 217.213 99.1974 217.346 99.7899 217.497C100.975 217.8 102.217 218.164 103.527 218.582C106.126 219.419 109.003 220.415 111.927 221.856C112.653 222.221 113.38 222.612 114.068 223.083C114.402 223.324 114.746 223.573 115.023 223.866C115.32 224.142 115.568 224.489 115.625 224.836C115.721 225.619 115.559 226.472 115.1 227.166C114.622 227.86 113.848 228.367 112.978 228.652C111.201 229.354 109.242 228.812 107.282 228.394C106.298 228.171 105.304 227.922 104.31 227.656L103.555 227.451L103.364 227.398C103.106 227.318 103.297 228.074 103.259 227.762H103.278L103.326 227.78L103.421 227.807L103.794 227.931C104.282 228.1 104.769 228.287 105.247 228.501C106.193 228.928 107.12 229.443 107.913 230.111C108.687 230.778 109.299 231.667 109.299 232.655C109.328 234.692 107.789 236.551 105.935 237.725L105.639 237.912L105.944 238.081C107.722 239.041 109.452 240.242 110.838 241.763C111.516 242.519 112.099 243.382 112.386 244.334C112.672 245.268 112.672 246.371 112.223 247.216L112.08 247.483L112.386 247.545C113.791 247.812 115.253 248.328 116.294 249.271C116.811 249.742 117.174 250.347 117.288 251.005C117.422 251.672 117.279 252.348 116.782 252.847C116.304 253.345 115.606 253.674 114.899 253.914C114.182 254.154 113.427 254.323 112.653 254.439C111.115 254.643 109.509 254.777 107.942 254.59C101.539 253.985 94.9446 253.247 88.2071 252.508C87.6815 252.446 87.1463 252.393 86.6589 252.34H86.5825L86.5156 252.366C85.0056 253.087 83.4765 253.781 81.9283 254.403C81.1542 254.715 80.3801 255.017 79.5965 255.275C78.8033 255.533 78.0579 255.764 77.2073 255.8C75.554 255.96 73.9102 256.129 72.276 256.289C71.4637 256.369 70.6514 256.449 69.839 256.529C69.0267 256.556 68.2144 256.582 67.4021 256.609C60.9321 256.823 54.682 257.027 48.709 257.214L48.9384 257.374C46.9506 249.404 46.7786 241.452 48.6613 234.612C49.5883 231.187 51.2798 228.145 53.3632 225.627C55.4657 223.128 57.874 221.046 60.3874 219.543H60.2536C67.0007 221.749 72.6774 223.599 77.0257 225.014L77.0639 225.031L77.1022 225.014C83.3905 222.265 86.4678 220.922 87.1272 220.628L87.1463 220.611Z" fill="#455A64"/>
<path d="M98.3285 225.939C98.2807 226.063 99.8863 226.677 101.893 227.353C103.91 228.02 105.544 228.527 105.592 228.42C105.649 228.296 104.082 227.584 102.065 226.917C100.049 226.241 98.3763 225.823 98.3285 225.939Z" fill="#455A64"/>
<path d="M94.7438 234.185C94.7247 234.247 95.365 234.487 96.3971 234.861C97.6395 235.314 98.9774 235.803 100.44 236.346C103.603 237.52 106.279 238.214 106.327 238.081C106.346 238.018 105.705 237.778 104.673 237.405C103.431 236.951 102.093 236.462 100.631 235.919C97.4675 234.745 94.7916 234.051 94.7533 234.185H94.7438Z" fill="#455A64"/>
<path d="M113.485 247.607C113.504 247.483 109.051 246.869 103.536 246.237C98.0222 245.606 93.5496 245.206 93.5305 245.33C93.5114 245.455 97.9648 246.068 103.479 246.7C108.984 247.331 113.466 247.732 113.485 247.607Z" fill="#455A64"/>
<path d="M89.4879 219.748C85.2925 229.017 82.6644 238.774 89.7459 252.802L86.64 252.562L84.7573 253.309C77.6758 239.281 79.8451 231.258 84.0406 221.98" fill="#E0E0E0"/>
<path d="M73.5377 246.789C73.6237 246.771 73.3561 245.526 73.1076 243.489C72.8687 241.452 72.6967 238.614 73.1268 235.519C73.3466 233.971 73.7002 232.521 74.1111 231.231C74.5316 229.941 75.019 228.803 75.4777 227.878C76.4047 226.019 77.1597 224.96 77.0833 224.907C77.0546 224.889 76.8443 225.147 76.4907 225.618C76.1276 226.09 75.6689 226.81 75.1624 227.735C74.6558 228.66 74.1302 229.799 73.6715 231.098C73.2319 232.405 72.8592 233.882 72.6298 235.456C72.1997 238.605 72.4291 241.487 72.7636 243.524C72.9356 244.547 73.1076 245.365 73.2606 245.926C73.4135 246.486 73.509 246.789 73.5377 246.789Z" fill="#455A64"/>
<path d="M11.573 243.952C11.573 243.952 6.55567 236.168 14.4782 222.052C21.5885 209.394 30.438 206.521 30.438 206.521L43.741 214.331C43.741 214.331 25.0098 230.049 26.1279 252.758C22.439 251.361 16.6381 249.138 11.5634 243.961L11.573 243.952Z" fill="#E0E0E0"/>
<path d="M14.7078 246.745C14.7078 246.745 11.4203 238.241 19.3524 224.124C26.4626 211.467 34.5859 209.287 34.5859 209.287L39.2113 211.885C39.2113 211.885 19.2282 227.576 20.3463 250.285L14.7078 246.745Z" fill="white"/>
<path d="M53.0873 218.271C53.0873 218.271 52.6572 218.058 51.8545 217.711C51.0517 217.373 49.9144 216.848 48.5192 216.163C45.7286 214.793 41.9823 212.739 37.9016 210.364C35.8756 209.163 33.8973 208.033 31.986 207.206C30.0842 206.37 28.2779 205.8 26.7202 205.48C25.1624 205.16 23.8723 205.089 22.9835 205.107C22.5439 205.107 22.1998 205.142 21.9609 205.16C21.7316 205.187 21.6073 205.204 21.6073 205.222C21.6073 205.329 23.5856 205.089 26.6342 205.8C28.1537 206.147 29.9121 206.743 31.7757 207.588C33.6488 208.424 35.5889 209.545 37.6245 210.746C41.7052 213.13 45.5088 215.149 48.3471 216.448C49.7711 217.097 50.937 217.586 51.7684 217.871C52.5999 218.165 53.0682 218.289 53.0777 218.262L53.0873 218.271Z" fill="#263238"/>
<path d="M39.516 181.499C39.516 181.499 39.7549 181.961 40.2709 182.735C40.8348 183.589 41.5611 184.701 42.4499 186.044C44.2848 188.846 46.7409 192.751 49.2638 197.163C51.7773 201.575 53.8798 205.658 55.3515 208.638C56.0491 210.07 56.6321 211.262 57.0813 212.169C57.4922 213.005 57.7311 213.459 57.7598 213.45C57.7885 213.441 57.6164 212.961 57.2628 212.098C56.9092 211.235 56.3741 210.008 55.6764 208.504C54.2907 205.489 52.236 201.37 49.713 196.941C47.19 192.52 44.6766 188.624 42.7652 185.866C41.8096 184.487 41.0164 183.384 40.4525 182.628C39.8887 181.872 39.5637 181.472 39.5351 181.49L39.516 181.499Z" fill="#263238"/>
<g opacity="0.3">
<path d="M23.4516 201.184C24.2066 200.739 25.1432 200.641 26.0319 200.632C31.269 200.561 36.3055 202.811 40.3384 205.916C44.3714 209.029 47.5538 212.97 50.6979 216.866L50.6215 217.293C41.619 213.37 33.3142 208.682 24.3117 204.759C23.5663 204.43 22.7444 204.039 22.4768 203.309C22.1806 202.527 22.6966 201.628 23.4516 201.175V201.184Z" fill="black"/>
</g>
<path d="M174.362 149.902C175.834 150.446 182.285 155.657 185.811 159.762C189.328 163.875 206.349 201.681 210.458 229.084C214.567 256.486 215.15 302.243 215.15 302.243L182.285 300.869L165.99 221.499L174.362 149.893V149.902Z" fill="#AD4A2B"/>
<path d="M213.698 263.499C213.698 263.499 206.512 258.824 193.295 260.501C181.444 262 175.682 268.692 175.682 268.692L178.367 281.827C178.367 281.827 197.051 271.378 214.492 279.418L213.698 263.508V263.499Z" fill="#E0E0E0"/>
<path d="M213.974 267.925C213.974 267.925 206.787 263.249 193.57 264.927C181.72 266.426 176.444 272.395 176.444 272.395L177.371 276.687C177.371 276.687 196.791 264.855 214.232 272.895L213.983 267.925H213.974Z" fill="white"/>
<path d="M182.934 165.454C182.877 165.445 182.638 166.159 182.227 167.48C181.826 168.8 181.281 170.71 180.65 173.083C179.379 177.83 177.764 184.415 176.015 191.697C174.266 198.906 172.69 205.429 171.495 210.328C170.931 212.603 170.453 214.503 170.09 215.967C169.765 217.296 169.603 218.046 169.66 218.055C169.717 218.073 169.976 217.35 170.396 216.038C170.816 214.727 171.39 212.817 172.049 210.452C173.378 205.723 175.06 199.147 176.799 191.857C178.5 184.638 180.039 178.107 181.205 173.199C181.74 170.915 182.189 169.014 182.533 167.542C182.839 166.204 182.992 165.463 182.934 165.445V165.454Z" fill="#263238"/>
<path d="M185.554 332.777C185.363 339.647 182.066 340.861 175.863 339.736C175.863 335.703 175.567 329.198 178.501 323.577C181.435 317.956 185.841 310.746 185.841 310.746C185.936 308.667 185.439 306.597 184.397 304.759C184.034 304.116 183.681 303.483 183.394 302.992C183.394 302.992 186.328 301.109 191.049 301.439C194.413 301.68 198.532 301.261 201.858 301.814L214.329 304.009C214.329 304.009 213.46 314.904 213.46 319.348C213.46 320.4 214.329 332.482 214.329 332.482L213.374 337.648C213.374 337.648 197.567 350.524 195.455 350.221C193.343 349.917 193.343 349.159 193.343 349.159C193.343 349.159 191.068 352.202 189.271 352.202C187.475 352.202 184.388 353.87 183.738 352.202C183.088 350.533 183.9 347.214 185.525 344.84C186.337 343.654 188.01 342.502 189.472 341.655C191.183 340.655 192.177 338.88 192.158 337.006L192.033 326.977C192.033 326.977 185.774 328.725 185.563 332.794L185.554 332.777Z" fill="#263238"/>
<path d="M214.329 301.395V305.446L184.388 304.759L181.454 300.021L214.329 301.395Z" fill="#455A64"/>
<path d="M167.807 148.501C167.807 148.501 168.046 148.563 168.514 148.626C168.973 148.697 169.661 148.76 170.521 148.983C172.241 149.348 174.697 150.16 177.297 151.838C179.906 153.498 182.563 156.067 184.942 159.28C187.322 162.501 189.405 166.364 191.374 170.505C195.302 178.794 198.207 186.557 200.252 192.178C201.236 194.962 202.039 197.238 202.613 198.862C202.88 199.62 203.09 200.218 203.253 200.682C203.406 201.092 203.492 201.316 203.511 201.307C203.53 201.307 203.473 201.075 203.348 200.655C203.215 200.191 203.024 199.576 202.804 198.808C202.307 197.211 201.571 194.909 200.596 192.071C198.627 186.414 195.78 178.625 191.833 170.317C189.864 166.168 187.752 162.287 185.324 159.039C182.907 155.8 180.183 153.221 177.497 151.561C174.822 149.884 172.308 149.116 170.559 148.795C169.69 148.599 168.992 148.563 168.524 148.528C168.055 148.492 167.807 148.474 167.807 148.492V148.501Z" fill="#263238"/>
</g>
<defs>
<clipPath id="clip0_947_10452">
<rect width="214.301" height="352.358" fill="white" transform="matrix(-1 0 0 1 215.15 0.642334)"/>
</clipPath>
</defs>
</svg>
