<svg width="40" height="40" viewBox="0 0 40 40" fill="none" xmlns="http://www.w3.org/2000/svg">
<path fill-rule="evenodd" clip-rule="evenodd" d="M20 0C8.954 0 0 8.954 0 20C0 23.78 1.05 27.32 2.876 30.336L1.092 36.4C0.989569 36.7481 0.982829 37.1175 1.07249 37.4691C1.16215 37.8208 1.3449 38.1418 1.60152 38.3985C1.85814 38.6551 2.17916 38.8378 2.53083 38.9275C2.8825 39.0172 3.25183 39.0104 3.6 38.908L9.664 37.124C12.7814 39.0102 16.3564 40.0049 20 40C31.046 40 40 31.046 40 20C40 8.954 31.046 0 20 0ZM15.476 24.526C19.522 28.57 23.384 29.104 24.748 29.154C26.822 29.23 28.842 27.646 29.628 25.808C29.7272 25.5793 29.7632 25.3282 29.7323 25.0809C29.7013 24.8336 29.6045 24.5991 29.452 24.402C28.356 23.002 26.874 21.996 25.426 20.996C25.1237 20.787 24.7522 20.7031 24.3893 20.762C24.0265 20.8209 23.7006 21.018 23.48 21.312L22.28 23.142C22.2169 23.2404 22.1186 23.3109 22.0052 23.3392C21.8918 23.3674 21.7719 23.3513 21.67 23.294C20.856 22.828 19.67 22.036 18.818 21.184C17.966 20.332 17.222 19.2 16.804 18.438C16.7522 18.3412 16.7372 18.2289 16.7618 18.1219C16.7865 18.0148 16.8491 17.9204 16.938 17.856L18.786 16.484C19.0497 16.2547 19.2199 15.9364 19.2642 15.5897C19.3084 15.243 19.2237 14.8922 19.026 14.604C18.13 13.292 17.086 11.624 15.572 10.518C15.3766 10.3764 15.1477 10.2881 14.9079 10.2618C14.668 10.2355 14.4254 10.2721 14.204 10.368C12.364 11.156 10.772 13.176 10.848 15.254C10.898 16.618 11.432 20.48 15.476 24.526Z" fill="#25D366"/>
</svg>
