<svg width="185" height="270" viewBox="0 0 185 270" fill="none" xmlns="http://www.w3.org/2000/svg">
<path d="M176.8 174.66C181.218 174.66 184.8 178.242 184.8 182.66V195.903C184.8 200.321 181.218 203.903 176.8 203.903H158C153.582 203.903 150 207.485 150 211.903V262C150 266.418 146.418 270 142 270H122.4C117.982 270 114.4 266.418 114.4 262V211.903C114.4 207.485 110.818 203.903 106.4 203.903H8.00001C3.58173 203.903 0 200.321 0 195.903V179.174C0 178.047 0.238265 176.932 0.699176 175.903L77.2157 5.10775C78.988 1.15181 83.5885 -0.672953 87.5905 0.992667L103.652 7.67745C107.794 9.40126 109.709 14.1934 107.896 18.2968L43.764 163.426C41.427 168.715 45.2995 174.66 51.0814 174.66H107.147C111.428 174.66 114.95 171.291 115.139 167.014L117.661 110.199C117.85 105.923 121.372 102.554 125.653 102.554H142C146.418 102.554 150 106.135 150 110.554V166.66C150 171.078 153.582 174.66 158 174.66H176.8Z" fill="#F2F7FA"/>
</svg>
