<svg width="169" height="273" viewBox="0 0 169 273" fill="none" xmlns="http://www.w3.org/2000/svg">
<path d="M150.226 0C155.213 0 158.985 4.51356 158.099 9.42146L155.788 22.2215C155.1 26.0299 151.785 28.8 147.915 28.8H58.2C53.7817 28.8 50.2 32.3817 50.2 36.8V94.4898C50.2 100.477 56.5807 104.396 62.2287 102.411C72.388 98.8391 82.694 97.2 93 97.2C138.2 97.2 169 128.8 169 182C169 235.2 131.8 272.4 76.2 272.4C45.2835 272.4 22.3047 261.816 2.75244 243.957C-0.509411 240.978 -0.444399 235.892 2.70846 232.797L12.9436 222.752C16.0761 219.677 21.0796 219.732 24.3791 222.627C39.4063 235.809 55.2492 242.4 75.8 242.4C109.4 242.4 130.6 220.4 130.6 181.2C130.6 140 109.4 125.6 81.8 125.6C68.0111 125.6 57.5231 128.534 45.4191 134.051C44.3512 134.538 43.1916 134.8 42.018 134.8H23C18.5817 134.8 15 131.218 15 126.8V8.00001C15 3.58173 18.5817 0 23 0H150.226Z" fill="#F2F7FA"/>
</svg>
