<svg width="176" height="277" viewBox="0 0 176 277" fill="none" xmlns="http://www.w3.org/2000/svg">
<path d="M101.2 95.6C140.4 95.6 175.2 123.6 175.2 180.8C175.2 239.2 137.2 276.4 90 276.4C24.8 276.4 0 222.8 0 146C0 58.4 38 0 101.2 0C119.885 0 135.877 4.48994 149.951 12.4341C153.65 14.5221 154.71 19.2635 152.551 22.9218L146.135 33.7943C143.862 37.6444 138.89 38.844 134.861 36.9071C124.322 31.8406 112.825 29.2 100.8 29.2C67.916 29.2 46.2375 58.2193 39.1736 104.326C37.9727 112.164 48.6171 116.304 54.8167 111.36C68.521 100.431 84.0243 95.6 101.2 95.6ZM90 247.2C121.6 247.2 138 221.2 138 182C138 139.6 120 124.8 94.8 124.8C71.5424 124.8 52.0411 138.699 38.4803 159.579C37.6304 160.888 37.2208 162.453 37.2747 164.013C39.2368 220.75 54.894 247.2 90 247.2Z" fill="#F2F7FA"/>
</svg>
