<svg width="24" height="24" viewBox="0 0 24 24" fill="none" xmlns="http://www.w3.org/2000/svg">
<path d="M3.61795 5.47803L20.3798 5.47803C21.658 5.47803 22.4346 6.59657 21.7389 7.45797L13.3579 17.9234C13.212 18.1066 13.0101 18.2575 12.7711 18.3621C12.5321 18.4667 12.2636 18.5215 11.9908 18.5215C11.7179 18.5215 11.4495 18.4667 11.2104 18.3621C10.9714 18.2575 10.7695 18.1066 10.6236 17.9234L2.25888 7.45797C2.10104 7.26405 2.01199 7.03987 2.00113 6.80909C1.99027 6.5783 2.05799 6.34946 2.19716 6.14671C2.33633 5.94397 2.54179 5.77483 2.79185 5.65713C3.04191 5.53944 3.32731 5.47757 3.61795 5.47803Z" fill="#395A64"/>
</svg>
