<svg width="24" height="24" viewBox="0 0 24 24" fill="none" xmlns="http://www.w3.org/2000/svg">
<path d="M3.61795 18.522L20.3798 18.522C21.658 18.522 22.4346 17.4034 21.7389 16.542L13.3579 6.07663C13.212 5.89341 13.0101 5.74249 12.7711 5.63791C12.5321 5.53333 12.2636 5.47849 11.9908 5.47849C11.7179 5.47849 11.4495 5.53333 11.2104 5.63791C10.9714 5.74249 10.7695 5.89341 10.6236 6.07663L2.25888 16.542C2.10104 16.736 2.01199 16.9601 2.00113 17.1909C1.99027 17.4217 2.05799 17.6505 2.19716 17.8533C2.33633 18.056 2.54179 18.2252 2.79185 18.3429C3.04191 18.4606 3.32731 18.5224 3.61795 18.522Z" fill="#CA653B"/>
</svg>
