<svg width="16" height="16" viewBox="0 0 16 16" fill="none" xmlns="http://www.w3.org/2000/svg">
<path d="M0.829989 13.5766C0.390004 14.0166 0.390004 14.73 0.829989 15.1699C1.26998 15.61 1.98333 15.61 2.42332 15.1699L0.829989 13.5766ZM15.4999 1.62666C15.4999 1.00442 14.9955 0.5 14.3733 0.5H4.2334C3.61116 0.5 3.10675 1.00442 3.10675 1.62666C3.10675 2.24889 3.61116 2.75331 4.2334 2.75331H13.2466V11.7665C13.2466 12.3888 13.751 12.8932 14.3733 12.8932C14.9955 12.8932 15.4999 12.3888 15.4999 11.7665V1.62666ZM2.42332 15.1699L15.1699 2.42332L13.5766 0.82999L0.829989 13.5766L2.42332 15.1699Z" fill="#395A64"/>
</svg>
