<svg width="83" height="110" viewBox="0 0 83 110" fill="none" xmlns="http://www.w3.org/2000/svg">
<path fill-rule="evenodd" clip-rule="evenodd" d="M18.8138 81.893H12.1738V79.6797H18.8138V81.893Z" fill="#223642"/>
<path fill-rule="evenodd" clip-rule="evenodd" d="M49.8002 81.893H23.2402V79.6797H49.8002V81.893Z" fill="#223642"/>
<path fill-rule="evenodd" clip-rule="evenodd" d="M18.8138 73.0405H12.1738V70.8271H18.8138V73.0405Z" fill="#223642"/>
<path fill-rule="evenodd" clip-rule="evenodd" d="M63.0802 73.0395H23.2402V70.8262H63.0802V73.0395Z" fill="#223642"/>
<path fill-rule="evenodd" clip-rule="evenodd" d="M18.8138 64.187H12.1738V61.9736H18.8138V64.187Z" fill="#223642"/>
<path fill-rule="evenodd" clip-rule="evenodd" d="M40.9456 22.1333H29.8789V19.9199H40.9456V22.1333Z" fill="#223642"/>
<path fill-rule="evenodd" clip-rule="evenodd" d="M40.9456 30.9868H29.8789V28.7734H40.9456V30.9868Z" fill="#223642"/>
<path fill-rule="evenodd" clip-rule="evenodd" d="M40.9457 39.8403L9.95898 39.8403L9.95898 37.627L40.9457 37.627L40.9457 39.8403Z" fill="#223642"/>
<path fill-rule="evenodd" clip-rule="evenodd" d="M65.2923 48.6938H58.6523V46.4805H65.2923V48.6938Z" fill="#223642"/>
<path fill-rule="evenodd" clip-rule="evenodd" d="M65.2923 39.8403H58.6523V37.627H65.2923V39.8403Z" fill="#223642"/>
<path fill-rule="evenodd" clip-rule="evenodd" d="M65.2923 30.9868H58.6523V28.7734H65.2923V30.9868Z" fill="#223642"/>
<path fill-rule="evenodd" clip-rule="evenodd" d="M65.2923 22.1333H58.6523V19.9199H65.2923V22.1333Z" fill="#223642"/>
<path fill-rule="evenodd" clip-rule="evenodd" d="M8.76211 2.5678C9.89638 0.866395 12.0268 0 15.4929 0C18.5187 0 20.3825 1.29746 21.3582 3.06087C22.2807 4.72802 22.3291 6.66108 22.1179 7.9286L19.9346 7.56473C20.0923 6.61892 20.03 5.23198 19.4216 4.13247C18.8665 3.12921 17.7792 2.21333 15.4929 2.21333C12.3191 2.21333 11.1294 3.00694 10.6037 3.79553C9.99564 4.70764 9.95958 5.9911 9.95958 7.74667V25.4533C9.95958 27.8733 10.9016 29.1886 11.9775 29.9417C13.1174 30.7396 14.5313 30.9867 15.4929 30.9867C16.6404 30.9867 17.9912 30.9638 19.0735 30.3144C20.0326 29.7389 21.0262 28.5038 21.0262 25.4533C21.0262 24.245 21.0627 23.0983 21.0957 22.0579C21.1085 21.6531 21.1209 21.2645 21.1304 20.8946C21.165 19.5431 21.161 18.4522 21.0374 17.5865C20.9129 16.7152 20.6878 16.2357 20.4166 15.9646C20.1724 15.7204 19.7368 15.4933 18.8129 15.4933C18.0923 15.4933 17.6907 15.6157 17.4577 15.7537C17.2514 15.876 17.0827 16.0657 16.9441 16.4352C16.7945 16.8342 16.699 17.396 16.6493 18.1907C16.6 18.979 16.5996 19.9092 16.5996 21.0267H14.3862V20.9997C14.3862 19.9143 14.3862 18.9172 14.4403 18.0526C14.4944 17.1874 14.6063 16.3658 14.8717 15.6581C15.1481 14.921 15.6019 14.2807 16.3294 13.8496C17.0301 13.4343 17.8735 13.28 18.8129 13.28C20.1024 13.28 21.1884 13.6063 21.9817 14.3996C22.7481 15.1659 23.0763 16.2082 23.2285 17.2735C23.3814 18.3444 23.3775 19.6052 23.343 20.9513C23.3328 21.3461 23.32 21.7496 23.3069 22.1632C23.2742 23.1919 23.2396 24.2825 23.2396 25.4533C23.2396 29.0428 22.0199 31.1278 20.2123 32.2123C18.5638 33.2014 16.6426 33.2005 15.5623 33.2C15.5387 33.2 15.5156 33.2 15.4929 33.2C14.2412 33.2 12.3351 32.8937 10.7083 31.7549C9.01751 30.5714 7.74624 28.5667 7.74624 25.4533V7.74667C7.74624 7.69692 7.74621 7.64669 7.74617 7.59601C7.74505 6.05317 7.74363 4.09552 8.76211 2.5678Z" fill="#223642"/>
<path fill-rule="evenodd" clip-rule="evenodd" d="M63.0802 64.187H23.2402V61.9736H63.0802V64.187Z" fill="#223642"/>
<path fill-rule="evenodd" clip-rule="evenodd" d="M76.3594 17.7069H73.0394V13.2803H76.3594C80.0266 13.2803 82.9994 16.2531 82.9994 19.9203V102.92C82.9994 106.587 80.0266 109.56 76.3594 109.56H14.3861C10.7189 109.56 7.74609 106.587 7.74609 102.92V100.707H12.1728V102.92C12.1728 104.143 13.1637 105.134 14.3861 105.134H76.3594C77.5818 105.134 78.5728 104.143 78.5728 102.92V19.9203C78.5728 18.6979 77.5818 17.7069 76.3594 17.7069Z" fill="#223642"/>
<path fill-rule="evenodd" clip-rule="evenodd" d="M63.0795 85.2138C61.8571 85.2138 60.8661 86.2047 60.8661 87.4271V98.4938H56.4395V87.4271C56.4395 83.7599 59.4123 80.7871 63.0795 80.7871H73.0395V85.2138H63.0795Z" fill="#223642"/>
<path fill-rule="evenodd" clip-rule="evenodd" d="M68.6141 12.1737H48.6941V7.74707H68.6141C72.2813 7.74707 75.2541 10.7199 75.2541 14.3871V83.3802C75.2541 85.1412 74.5545 86.8301 73.3093 88.0753L61.5157 99.8689C60.2705 101.114 58.5815 101.814 56.8205 101.814H7.74742C4.08025 101.814 1.10742 98.8409 1.10742 95.1737V54.2271H5.53409V95.1737C5.53409 96.3961 6.52503 97.3871 7.74742 97.3871H56.8205C57.4075 97.3871 57.9705 97.1539 58.3856 96.7388L70.1792 84.9452C70.5942 84.5301 70.8274 83.9672 70.8274 83.3802V14.3871C70.8274 13.1647 69.8365 12.1737 68.6141 12.1737Z" fill="#223642"/>
<path fill-rule="evenodd" clip-rule="evenodd" d="M6.64 9.96011C5.41761 9.96011 4.42667 10.9511 4.42667 12.1734V49.8001C4.42667 51.0225 5.41761 52.0134 6.64 52.0134H45.3733C46.5957 52.0134 47.5867 51.0225 47.5867 49.8001V12.1734C47.5867 10.9511 46.5957 9.96011 45.3733 9.96011H6.64ZM0 12.1734C0 8.50628 2.97283 5.53345 6.64 5.53345H45.3733C49.0405 5.53345 52.0133 8.50628 52.0133 12.1734V49.8001C52.0133 53.4673 49.0405 56.4401 45.3733 56.4401H6.64C2.97283 56.4401 0 53.4673 0 49.8001V12.1734Z" fill="#223642"/>
</svg>
