<svg width="85" height="110" viewBox="0 0 85 110" fill="none" xmlns="http://www.w3.org/2000/svg">
<path fill-rule="evenodd" clip-rule="evenodd" d="M39.3508 18.7381C40.9831 16.6161 43.2834 15.6475 45.8249 15.6475C48.3664 15.6475 50.6667 16.6161 52.299 18.7381C53.7501 20.6245 54.5967 23.3217 54.7432 26.8239H57.0014V29.0592H34.6484V26.8239H36.9066C37.0531 23.3217 37.8997 20.6245 39.3508 18.7381ZM39.144 26.8239H52.5058C52.361 23.6642 51.5976 21.4925 50.5273 20.101C49.3654 18.5906 47.754 17.8828 45.8249 17.8828C43.8958 17.8828 42.2844 18.5906 41.1225 20.101C40.0521 21.4925 39.2888 23.6642 39.144 26.8239Z" fill="#223642"/>
<path fill-rule="evenodd" clip-rule="evenodd" d="M75.9998 94.9999H14.5293V92.7646H75.9998V94.9999Z" fill="#223642"/>
<path fill-rule="evenodd" clip-rule="evenodd" d="M26.824 49.1762V45.8232H29.0593V49.1762H44.7063V45.8232H46.9416V49.1762H61.471V45.8232H63.7063V49.1762H67.0593V51.4115H63.7063V53.2097C63.7063 53.3236 63.7328 53.436 63.7838 53.5379L68.8676 63.7056H72.6475V64.8232C72.6475 66.8285 72.1723 69.5769 70.6767 71.8618C69.1398 74.2098 66.5614 75.9997 62.5887 75.9997C60.216 75.9997 58.346 75.5547 56.8872 74.7646C55.4184 73.969 54.4305 72.8576 53.779 71.6359C52.529 69.2923 52.5295 66.5429 52.5299 64.8985L52.5299 63.7056H56.3316L61.5642 53.9477C61.5025 53.7074 61.471 53.4594 61.471 53.2097V51.4115H46.9416V78.235H54.7651V80.4703H36.8828V78.235H44.7063V51.4115H29.0593V53.2097C29.0593 53.3236 29.0858 53.436 29.1368 53.5379L34.2206 63.7056H38.0005V64.8232C38.0005 66.8285 37.5252 69.5769 36.0297 71.8618C34.4928 74.2098 31.9144 75.9997 27.9416 75.9997C25.569 75.9997 23.6989 75.5547 22.2402 74.7646C20.7714 73.969 19.7835 72.8576 19.132 71.6359C17.882 69.2923 17.8825 66.5429 17.8828 64.8985C17.8828 64.8731 17.8828 64.848 17.8828 64.8232V63.7056H21.6845L26.9172 53.9477C26.8555 53.7074 26.824 53.4594 26.824 53.2097V51.4115H24.5887V49.1762H26.824ZM28.1024 56.4674L24.221 63.7056H31.7215L28.1024 56.4674ZM62.7494 56.4674L58.868 63.7056H66.3685L62.7494 56.4674ZM20.1287 65.9409C20.1664 67.4418 20.337 69.1454 21.1043 70.584C21.5704 71.458 22.259 72.2326 23.3048 72.7991C24.3608 73.3711 25.8437 73.7644 27.9416 73.7644C31.1218 73.7644 33.014 72.3876 34.1594 70.6376C35.1034 69.1954 35.5616 67.4573 35.7096 65.9409H20.1287ZM54.7758 65.9409C54.8135 67.4418 54.984 69.1454 55.7513 70.584C56.2174 71.458 56.906 72.2326 57.9519 72.7991C59.0078 73.3711 60.4908 73.7644 62.5887 73.7644C65.7689 73.7644 67.661 72.3876 68.8065 70.6376C69.7504 69.1954 70.2086 67.4573 70.3566 65.9409H54.7758ZM58.1181 93.882H60.3534V98.3526H65.9416V93.882H68.1769V102.823H65.9416V100.588H60.3534V102.823H58.1181V93.882Z" fill="#223642"/>
<path fill-rule="evenodd" clip-rule="evenodd" d="M6.61 7.44823C5.01829 9.03993 4.47058 11.3501 4.47058 14.5294V93.8823H0V14.5294C0 11.0028 0.569936 7.16593 3.44882 4.28705C6.30566 1.43021 10.9495 0 17.8823 0V4.47058C11.4034 4.47058 8.22374 5.83449 6.61 7.44823Z" fill="#223642"/>
<g filter="url(#filter0_d_2001_1617)">
<path fill-rule="evenodd" clip-rule="evenodd" d="M10.0586 6.70588C10.0586 3.00232 13.0609 0 16.7645 0H73.7644C77.468 0 80.4703 3.00232 80.4703 6.70587V82.7058C80.4703 86.4093 77.468 89.4117 73.7644 89.4117H16.7645C13.0609 89.4117 10.0586 86.4093 10.0586 82.7058V6.70588ZM16.7645 4.47058C15.53 4.47058 14.5292 5.47136 14.5292 6.70588V82.7058C14.5292 83.9403 15.53 84.9411 16.7645 84.9411H73.7644C74.9989 84.9411 75.9997 83.9403 75.9997 82.7058V6.70587C75.9997 5.47136 74.9989 4.47058 73.7644 4.47058H16.7645Z" fill="#223642"/>
</g>
<path fill-rule="evenodd" clip-rule="evenodd" d="M5.6214 86.4238C8.63376 84.4521 12.163 83.8235 14.5294 83.8235V88.2941C12.7978 88.2941 10.1799 88.7831 8.06976 90.1643C6.0801 91.4667 4.47058 93.587 4.47058 97.2352C4.47058 99.6951 5.02128 101.23 5.73069 102.223C6.4361 103.21 7.45646 103.884 8.80979 104.335C10.1916 104.796 11.833 104.994 13.6342 105.06C14.8544 105.105 16.0277 105.09 17.2039 105.074C17.7997 105.067 18.3962 105.059 19 105.059H73.7646V87.1764H78.2352V105.059H79.3529V109.529H19C18.5128 109.529 17.9784 109.536 17.4148 109.543C16.1767 109.559 14.7976 109.577 13.4687 109.528C11.4978 109.455 9.3672 109.233 7.39607 108.576C5.39647 107.91 3.48301 106.767 2.09283 104.821C0.70666 102.881 0 100.364 0 97.2352C0 91.9423 2.48851 88.4744 5.6214 86.4238Z" fill="#223642"/>
<path fill-rule="evenodd" clip-rule="evenodd" d="M45.8237 40.2354C54.4654 40.2354 61.4708 33.23 61.4708 24.5884C61.4708 15.9468 54.4654 8.94135 45.8237 8.94135C37.1821 8.94135 30.1767 15.9468 30.1767 24.5884C30.1767 33.23 37.1821 40.2354 45.8237 40.2354ZM45.8237 42.4707C55.6999 42.4707 63.7061 34.4645 63.7061 24.5884C63.7061 14.7122 55.6999 6.70605 45.8237 6.70605C35.9476 6.70605 27.9414 14.7122 27.9414 24.5884C27.9414 34.4645 35.9476 42.4707 45.8237 42.4707Z" fill="#223642"/>
<defs>
<filter id="filter0_d_2001_1617" x="6.05859" y="0" width="78.4116" height="97.4116" filterUnits="userSpaceOnUse" color-interpolation-filters="sRGB">
<feFlood flood-opacity="0" result="BackgroundImageFix"/>
<feColorMatrix in="SourceAlpha" type="matrix" values="0 0 0 0 0 0 0 0 0 0 0 0 0 0 0 0 0 0 127 0" result="hardAlpha"/>
<feOffset dy="4"/>
<feGaussianBlur stdDeviation="2"/>
<feComposite in2="hardAlpha" operator="out"/>
<feColorMatrix type="matrix" values="0 0 0 0 0 0 0 0 0 0 0 0 0 0 0 0 0 0 0.25 0"/>
<feBlend mode="normal" in2="BackgroundImageFix" result="effect1_dropShadow_2001_1617"/>
<feBlend mode="normal" in="SourceGraphic" in2="effect1_dropShadow_2001_1617" result="shape"/>
</filter>
</defs>
</svg>
