<svg width="80" height="80" viewBox="0 0 80 80" fill="none" xmlns="http://www.w3.org/2000/svg">
<g opacity="0.15">
<path fill-rule="evenodd" clip-rule="evenodd" d="M73 14C73 17.3137 70.3136 20 67 20C66.4624 20 65.9416 19.9293 65.446 19.7968L62.9212 22.3214C62.8296 22.413 62.7336 22.4973 62.634 22.5745C65.314 25.8745 67.2732 29.7799 68.266 34.0444C68.5064 34.0152 68.7516 34 69 34C72.3136 34 75 36.6864 75 40C75 43.3136 72.3136 46 69 46H68.4488C67.3684 51.3456 64.7736 56.0956 61.0984 59.8164L65.6452 64.4024C66.1408 64.27 66.6616 64.1992 67.1992 64.1992C70.5128 64.1992 73.1992 66.8856 73.1992 70.1992C73.1992 73.5128 70.5128 76.1992 67.1992 76.1992C63.8856 76.1992 61.1992 73.5128 61.1992 70.1992C61.1992 69.6616 61.27 69.1408 61.4024 68.6452L56.8788 64.1212C56.7164 63.9588 56.5764 63.7824 56.4588 63.596C54.5724 64.8168 52.5252 65.8128 50.354 66.5468L49.4872 68.9996C48.2532 72.4912 44.9236 75 41 75C37.0764 75 33.7468 72.4912 32.5128 68.9996L31.5232 66.1992C29.5436 65.4552 27.6669 64.4964 25.9219 63.3508L20.416 68.994C20.7926 69.922 21 70.9368 21 72C21 76.4184 17.4183 80 13 80C8.58172 80 5 76.4184 5 72C5 67.5816 8.58172 64 13 64C14.153 64 15.2491 64.244 16.2394 64.6828L21.2604 59.5368C18.0672 56.312 15.6341 52.3332 14.2612 47.9012C13.8504 47.9664 13.4292 48 13 48C8.58172 48 5 44.4184 5 40C5 35.5816 8.58172 32 13 32C13.3442 32 13.6834 32.0216 14.0161 32.064C15.026 28.4411 16.7532 25.1259 19.0368 22.279L16.1246 19.3668C15.1647 19.7745 14.1087 20 13 20C8.58172 20 5 16.4183 5 12C5 7.58172 8.58172 4 13 4C17.4183 4 21 7.58172 21 12C21 13.1084 20.7746 14.1642 20.3671 15.124L23.2796 18.0364C27.3762 14.7503 32.4426 12.6167 38 12.1143V11.1973C36.2064 10.1599 35 8.22084 35 6C35 2.68628 37.6864 0 41 0C44.3136 0 47 2.68628 47 6C47 8.22084 45.7936 10.1599 44 11.1973V12.2106C49.4168 12.8748 54.3768 15.0781 58.4256 18.366C58.5028 18.2662 58.5872 18.1703 58.6784 18.0788L61.2032 15.5541C61.0708 15.0584 61 14.5375 61 14C61 10.6863 63.6864 8 67 8C70.3136 8 73 10.6863 73 14ZM40 44C40 37.9248 44.9248 33 51 33C57.0752 33 62 37.9248 62 44C62 50.0752 57.0752 55 51 55C44.9248 55 40 50.0752 40 44ZM35 32C38.3136 32 41 29.3137 41 26C41 25.7679 40.9868 25.539 40.9612 25.3138C40.7416 23.3838 39.606 21.7317 38 20.8027C37.1176 20.2922 36.0928 20 35 20C31.6863 20 29 22.6863 29 26C29 29.3137 31.6863 32 35 32ZM29 48C31.2091 48 33 46.2092 33 44C33 41.7908 31.2091 40 29 40C26.7909 40 25 41.7908 25 44C25 46.2092 26.7909 48 29 48Z" fill="white"/>
<path d="M46 44C46 41.2384 48.2384 39 51 39C53.7616 39 56 41.2384 56 44C56 46.7616 53.7616 49 51 49C48.2384 49 46 46.7616 46 44Z" fill="white"/>
</g>
</svg>
