<svg width="80" height="80" viewBox="0 0 80 80" fill="none" xmlns="http://www.w3.org/2000/svg">
  <g opacity="0.15">
    <path d="M3.99963 76H75.9996M3.99963 64H75.9996M15.293 4.00148C16.9528 5.46732 17.9996 7.6114 17.9996 10C17.9996 14.4183 14.4179 18 9.99963 18C7.61103 18 5.46695 16.9532 4.00111 15.2933M15.293 4.00148C15.7654 4 16.2667 4 16.7996 4H63.1996C63.7324 4 64.234 4 64.7064 4.00148M15.293 4.00148C11.7937 4.01232 9.87543 4.10372 8.36771 4.87196C6.86239 5.63892 5.63855 6.86276 4.87159 8.36808C4.10335 9.8758 4.01195 11.7941 4.00111 15.2933M4.00111 15.2933C3.99963 15.7658 3.99963 16.267 3.99963 16.8V39.2C3.99963 39.7328 3.99963 40.2344 4.00111 40.7068M64.7064 4.00148C63.0464 5.46732 61.9996 7.6114 61.9996 10C61.9996 14.4183 65.5812 18 69.9996 18C72.388 18 74.5324 16.9532 75.998 15.2933M64.7064 4.00148C68.2056 4.01232 70.124 4.10372 71.6316 4.87196C73.1368 5.63892 74.3608 6.86276 75.1276 8.36808C75.896 9.8758 75.9872 11.7941 75.998 15.2933M4.00111 40.7068C5.46695 39.0468 7.61103 38 9.99963 38C14.4179 38 17.9996 41.5816 17.9996 46C17.9996 48.3884 16.9528 50.5328 15.293 51.9984M4.00111 40.7068C4.01195 44.206 4.10335 46.124 4.87159 47.632C5.63855 49.1372 6.86239 50.3612 8.36771 51.128C9.87543 51.8964 11.7937 51.9876 15.293 51.9984M15.293 51.9984C15.7654 52 16.2667 52 16.7996 52H63.1996C63.7324 52 64.234 52 64.7064 51.9984M64.7064 51.9984C63.0464 50.5328 61.9996 48.3884 61.9996 46C61.9996 41.5816 65.5812 38 69.9996 38C72.3888 38 74.5336 39.0476 75.9996 40.7084M64.7064 51.9984C68.2056 51.9876 70.124 51.8964 71.6316 51.128C73.1368 50.3612 74.3608 49.1372 75.1276 47.632C75.8956 46.1244 75.9888 44.2064 75.9996 40.7084M75.9996 40.7084C76.0012 40.2356 75.9996 39.7336 75.9996 39.2V16.8C75.9996 16.267 75.9996 15.7658 75.998 15.2933M47.9996 28C47.9996 32.4184 44.418 36 39.9996 36C35.5812 36 31.9996 32.4184 31.9996 28C31.9996 23.5817 35.5812 20 39.9996 20C44.418 20 47.9996 23.5817 47.9996 28Z" stroke="white" stroke-width="6" stroke-linecap="round" stroke-linejoin="round" />
  </g>
</svg>
