<svg width="80" height="80" viewBox="0 0 80 80" fill="none" xmlns="http://www.w3.org/2000/svg">
<g opacity="0.15">
<path fill-rule="evenodd" clip-rule="evenodd" d="M7.5 11V67.8235C7.5 74.5486 12.9565 80 19.6875 80H60.3125C67.0437 80 72.5 74.5486 72.5 67.8235V27.2353C72.5 20.5104 67.0437 15.0588 60.3125 15.0588H11.5625C9.31886 15.0588 7.5 13.2416 7.5 11ZM20.7031 39.4118C20.7031 37.7306 22.0673 36.3676 23.75 36.3676H56.25C57.9327 36.3676 59.2969 37.7306 59.2969 39.4118C59.2969 41.0929 57.9327 42.4559 56.25 42.4559H23.75C22.0673 42.4559 20.7031 41.0929 20.7031 39.4118ZM20.7031 53.6176C20.7031 51.9365 22.0673 50.5735 23.75 50.5735H46.0938C47.7764 50.5735 49.1406 51.9365 49.1406 53.6176C49.1406 55.2988 47.7764 56.6618 46.0938 56.6618H23.75C22.0673 56.6618 20.7031 55.2988 20.7031 53.6176Z" fill="white"/>
<path d="M9 6.94799C10.4102 7.55751 11.3925 8.92243 11.3925 10.5085H59.9533C61.3506 10.5085 62.7067 10.6791 64 11V7.8019C64 3.05495 59.6376 -0.591444 54.7621 0.0798609L11.0671 6.09598C10.2882 6.20324 9.58241 6.50586 9 6.94799Z" fill="white"/>
</g>
</svg>
