<svg width="32" height="32" viewBox="0 0 32 32" fill="none" xmlns="http://www.w3.org/2000/svg">
<rect width="32" height="32" rx="16" fill="#F7F7F7"/>
<g clip-path="url(#clip0_1154_8068)">
<path d="M8.82999 21.5766C8.39 22.0166 8.39 22.73 8.82999 23.1699C9.26998 23.61 9.98333 23.61 10.4233 23.1699L8.82999 21.5766ZM23.4999 9.62666C23.4999 9.00442 22.9955 8.5 22.3733 8.5H12.2334C11.6112 8.5 11.1067 9.00442 11.1067 9.62666C11.1067 10.2489 11.6112 10.7533 12.2334 10.7533H21.2466V19.7665C21.2466 20.3888 21.751 20.8932 22.3733 20.8932C22.9955 20.8932 23.4999 20.3888 23.4999 19.7665V9.62666ZM10.4233 23.1699L23.1699 10.4233L21.5766 8.82999L8.82999 21.5766L10.4233 23.1699Z" fill="#395A64"/>
</g>
<defs>
<clipPath id="clip0_1154_8068">
<rect width="16" height="16" fill="white" transform="translate(8 8)"/>
</clipPath>
</defs>
</svg>
