<svg width="56" height="56" viewBox="0 0 56 56" fill="none" xmlns="http://www.w3.org/2000/svg">
<path opacity="0.24" d="M52 28C52 41.2547 41.2547 52 28 52C14.7452 52 4 41.2547 4 28C4 14.7452 14.7452 4 28 4C41.2547 4 52 14.7452 52 28Z" fill="#4194C8"/>
<path d="M27.5 15C28.8807 15 30 16.1193 30 17.5C30 18.8807 28.8807 20 27.5 20C26.1193 20 25 18.8807 25 17.5C25 16.1193 26.1193 15 27.5 15Z" fill="#4194C8"/>
<path d="M27.5 40C28.6045 40 29.5 39.2389 29.5 38.3V24.7C29.5 23.7611 28.6045 23 27.5 23C26.3955 23 25.5 23.7611 25.5 24.7V38.3C25.5 39.2389 26.3955 40 27.5 40Z" fill="#4194C8"/>
</svg>
