<svg width="80" height="81" viewBox="0 0 80 81" fill="none" xmlns="http://www.w3.org/2000/svg">
<g opacity="0.15">
<path fill-rule="evenodd" clip-rule="evenodd" d="M10.9087 3.85092C12.1303 2.65363 13.8454 1.873 17.0841 1.44622C20.4181 1.00688 24.8368 1 31.1724 1H48.8276C55.1632 1 59.582 1.00688 62.916 1.44622C66.1548 1.873 67.8696 2.65363 69.0912 3.85092C70.3128 5.04825 71.1092 6.72921 71.5448 9.90358C71.9928 13.1713 72 17.5022 72 23.712V55.076H21.3825C17.7722 55.0748 15.3086 55.074 13.196 55.629C11.307 56.1248 9.55468 56.9352 8 58V23.712C8 17.5022 8.00704 13.1713 8.45528 9.90362C8.89072 6.72921 9.68716 5.04825 10.9087 3.85092ZM22.3448 16.1413C20.5166 16.1413 19.0345 17.594 19.0345 19.3858C19.0345 21.1778 20.5166 22.6304 22.3448 22.6304H57.6552C59.4836 22.6304 60.9656 21.1778 60.9656 19.3858C60.9656 17.594 59.4836 16.1413 57.6552 16.1413H22.3448ZM19.0345 34.5272C19.0345 32.7352 20.5166 31.2826 22.3448 31.2826H44.4136C46.242 31.2826 47.724 32.7352 47.724 34.5272C47.724 36.3192 46.242 37.7718 44.4136 37.7718H22.3448C20.5166 37.7718 19.0345 36.3192 19.0345 34.5272Z" fill="white"/>
<path d="M21.8018 61C17.4757 61 15.9633 61.0273 14.8044 61.3238C11.6234 62.1377 9.08751 64.3951 8 67.3297C8.06725 68.8232 8.17261 70.137 8.33784 71.3102C8.77411 74.4085 9.57207 76.0492 10.796 77.2177C12.0199 78.3862 13.7382 79.1478 16.9831 79.5645C20.3234 79.9934 24.7506 80 31.0982 80H48.7871C55.1347 80 59.562 79.9934 62.9023 79.5645C66.1473 79.1478 67.8653 78.3862 69.0893 77.2177C69.9573 76.3886 70.6114 75.3224 71.0738 73.6668H22.2539C20.4221 73.6668 18.9372 72.2491 18.9372 70.5002C18.9372 68.7513 20.4221 67.3336 22.2539 67.3336H71.885C71.9671 65.5136 71.9924 63.4265 72 61H21.8018Z" fill="white"/>
</g>
</svg>
