<svg width="80" height="80" viewBox="0 0 80 80" fill="none" xmlns="http://www.w3.org/2000/svg">
<g opacity="0.15">
<path d="M52.2459 56.612C52.8751 56.1213 53.4456 55.5507 54.587 54.4093L68.8142 40.1821C69.1579 39.8384 69.0005 39.2459 68.541 39.0863C66.8617 38.5039 64.677 37.4099 62.6336 35.3665C60.5901 33.323 59.4961 31.1383 58.9137 29.459C58.7541 28.9994 58.1616 28.842 57.8179 29.186L43.5907 43.413C42.4493 44.5544 41.8788 45.125 41.388 45.7541C40.8092 46.4965 40.3127 47.2993 39.9079 48.1492C39.5646 48.8693 39.3093 49.635 38.7992 51.1662L38.1395 53.1445L37.0908 56.2902L36.1076 59.24C35.8566 59.9935 36.0526 60.824 36.6141 61.3859C37.176 61.9474 38.0065 62.1434 38.76 61.8924L41.7098 60.9092L44.8555 59.8605L46.8339 59.2008C48.3647 58.6907 49.1308 58.4354 49.8509 58.0921C50.7007 57.6873 51.5035 57.1908 52.2459 56.612Z" fill="white"/>
<path d="M73.769 35.0027C76.7437 32.0281 76.7437 27.2054 73.769 24.2309C70.7946 21.2564 65.9721 21.2564 62.9973 24.2309L62.5494 24.679C62.1169 25.1113 61.9211 25.7152 62.0292 26.3171C62.0972 26.6956 62.2229 27.2491 62.4522 27.9096C62.9103 29.2305 63.7756 30.9643 65.4058 32.5942C67.0356 34.2244 68.7696 35.0896 70.0903 35.5478C70.7509 35.7771 71.3042 35.9028 71.6827 35.9708C72.2846 36.0789 72.8885 35.8831 73.321 35.4506L73.769 35.0027Z" fill="white"/>
<path fill-rule="evenodd" clip-rule="evenodd" d="M8.23067 8.21765C4 12.4353 4 19.2235 4 32.8V47.2C4 60.7763 4 67.5648 8.23067 71.7822C12.4614 76 19.2705 76 32.8889 76H40.1111C53.7293 76 60.5388 76 64.7692 71.7822C68.9321 67.6322 68.9989 60.9938 69 47.8484L58.8228 57.9942C57.8485 58.9659 57.0508 59.7618 56.1499 60.4628C55.094 61.2836 53.9518 61.9874 52.7431 62.5616C51.7114 63.0515 50.6408 63.4072 49.3332 63.841L40.9854 66.6152C38.2821 67.5134 35.3018 66.8121 33.2868 64.8033C31.2722 62.7945 30.5684 59.8234 31.4697 57.1284L32.4574 54.175L34.173 49.0436L34.2521 48.8067C34.6876 47.5031 35.044 46.4354 35.5355 45.4068C36.1114 44.2019 36.8174 43.0632 37.6411 42.011C38.3438 41.1124 39.1423 40.3172 40.1173 39.3459L54.5848 24.9228L58.6 20.9201L59.0593 20.4622C61.6427 17.8867 65.0289 16.5993 68.415 16.6C67.8686 12.89 66.812 10.2542 64.7692 8.21765C60.5388 4 53.7293 4 40.1111 4H32.8889C19.2705 4 12.4614 4 8.23067 8.21765ZM19.3472 29.2C19.3472 27.7088 20.5598 26.5 22.0556 26.5H45.5278C47.0235 26.5 48.2361 27.7088 48.2361 29.2C48.2361 30.6912 47.0235 31.9 45.5278 31.9H22.0556C20.5598 31.9 19.3472 30.6912 19.3472 29.2ZM19.3472 43.6C19.3472 42.1089 20.5598 40.9 22.0556 40.9H31.0833C32.5791 40.9 33.7917 42.1089 33.7917 43.6C33.7917 45.0911 32.5791 46.3 31.0833 46.3H22.0556C20.5598 46.3 19.3472 45.0911 19.3472 43.6ZM19.3472 58C19.3472 56.5089 20.5598 55.3 22.0556 55.3H27.4722C28.968 55.3 30.1806 56.5089 30.1806 58C30.1806 59.4911 28.968 60.7 27.4722 60.7H22.0556C20.5598 60.7 19.3472 59.4911 19.3472 58Z" fill="white"/>
</g>
</svg>
