<svg width="56" height="56" viewBox="0 0 56 56" fill="none" xmlns="http://www.w3.org/2000/svg">
<path d="M28 16.3333V48.9999" stroke="#C1C1C1" stroke-width="4" stroke-linecap="round" stroke-linejoin="round"/>
<path d="M37.3335 28H42.0002" stroke="#C1C1C1" stroke-width="4" stroke-linecap="round" stroke-linejoin="round"/>
<path d="M37.3335 18.6667H42.0002" stroke="#C1C1C1" stroke-width="4" stroke-linecap="round" stroke-linejoin="round"/>
<path d="M6.99984 42C6.381 42 5.78751 41.7542 5.34992 41.3166C4.91234 40.879 4.6665 40.2855 4.6665 39.6667V9.33333C4.6665 8.71449 4.91234 8.121 5.34992 7.68342C5.78751 7.24583 6.381 7 6.99984 7H18.6665C21.1419 7 23.5158 7.98333 25.2662 9.73367C27.0165 11.484 27.9998 13.858 27.9998 16.3333C27.9998 13.858 28.9832 11.484 30.7335 9.73367C32.4838 7.98333 34.8578 7 37.3332 7H48.9998C49.6187 7 50.2122 7.24583 50.6498 7.68342C51.0873 8.121 51.3332 8.71449 51.3332 9.33333V39.6667C51.3332 40.2855 51.0873 40.879 50.6498 41.3166C50.2122 41.7542 49.6187 42 48.9998 42H34.9998C33.1433 42 31.3628 42.7375 30.0501 44.0503C28.7373 45.363 27.9998 47.1435 27.9998 49C27.9998 47.1435 27.2623 45.363 25.9496 44.0503C24.6368 42.7375 22.8564 42 20.9998 42H6.99984Z" stroke="#C1C1C1" stroke-width="4" stroke-linecap="round" stroke-linejoin="round"/>
<path d="M14 28H18.6667" stroke="#C1C1C1" stroke-width="4" stroke-linecap="round" stroke-linejoin="round"/>
<path d="M14 18.6667H18.6667" stroke="#C1C1C1" stroke-width="4" stroke-linecap="round" stroke-linejoin="round"/>
</svg>
