<svg width="80" height="80" viewBox="0 0 80 80" fill="none" xmlns="http://www.w3.org/2000/svg">
  <g opacity="0.15">
    <path d="M25.3195 14.1628C25.32 11.4682 26.117 8.82967 27.6169 6.55678C29.1169 4.28388 31.2576 2.47095 33.7879 1.33072C36.3181 0.190497 39.133 -0.229713 41.902 0.119402C44.6711 0.468518 47.2795 1.57248 49.4212 3.30173C51.5629 5.03098 53.149 7.31377 53.9934 9.88223C54.8377 12.4507 54.9053 15.1982 54.1882 17.8025C53.4711 20.4067 51.9991 22.7595 49.9449 24.5849C47.8907 26.4103 45.3395 27.6324 42.5907 28.1079V38.3335H58.1347C60.196 38.3335 62.1728 39.1236 63.6303 40.53C65.0879 41.9363 65.9067 43.8438 65.9067 45.8327V51.8853C69.5184 52.51 72.7569 54.4168 74.9845 57.2302C77.2121 60.0436 78.2672 63.5598 77.9423 67.0863C77.6173 70.6129 75.9358 73.8943 73.2287 76.2844C70.5217 78.6745 66.9853 80 63.316 80C59.6467 80 56.1104 78.6745 53.4034 76.2844C50.6963 73.8943 49.0148 70.6129 48.6898 67.0863C48.3649 63.5598 49.42 60.0436 51.6476 57.2302C53.8751 54.4168 57.1136 52.51 60.7254 51.8853V45.8327C60.7254 45.1697 60.4524 44.5339 59.9666 44.0651C59.4807 43.5963 58.8218 43.3329 58.1347 43.3329H21.8653C21.1782 43.3329 20.5193 43.5963 20.0334 44.0651C19.5476 44.5339 19.2746 45.1697 19.2746 45.8327V51.8853C22.8864 52.51 26.1249 54.4168 28.3524 57.2302C30.58 60.0436 31.6351 63.5598 31.3102 67.0863C30.9852 70.6129 29.3037 73.8943 26.5966 76.2844C23.8896 78.6745 20.3533 80 16.684 80C13.0147 80 9.47832 78.6745 6.77129 76.2844C4.06425 73.8943 2.38269 70.6129 2.05773 67.0863C1.73277 63.5598 2.78795 60.0436 5.0155 57.2302C7.24306 54.4168 10.4815 52.51 14.0933 51.8853V45.8327C14.0933 43.8438 14.9121 41.9363 16.3697 40.53C17.8272 39.1236 19.804 38.3335 21.8653 38.3335H37.4093V28.1079C34.0188 27.5214 30.95 25.8032 28.7398 23.2538C26.5297 20.7045 25.319 17.4865 25.3195 14.1628Z" fill="white" />
  </g>
</svg>