<svg width="56" height="56" viewBox="0 0 56 56" fill="none" xmlns="http://www.w3.org/2000/svg">
<path opacity="0.24" fill-rule="evenodd" clip-rule="evenodd" d="M4 28C4 14.7452 14.7452 4 28 4C41.2549 4 52 14.7452 52 28C52 41.2549 41.2549 52 28 52C14.7452 52 4 41.2549 4 28Z" fill="#FF735C"/>
<path fill-rule="evenodd" clip-rule="evenodd" d="M27.5 13C28.6045 13 29.5 13.8585 29.5 14.9176V33.0824C29.5 34.1414 28.6045 35 27.5 35C26.3955 35 25.5 34.1414 25.5 33.0824V14.9176C25.5 13.8585 26.3955 13 27.5 13Z" fill="#FF735C"/>
<path fill-rule="evenodd" clip-rule="evenodd" d="M25 40.5C25 39.1193 26.1137 38 27.4876 38H27.5124C28.8863 38 30 39.1193 30 40.5C30 41.8807 28.8863 43 27.5124 43H27.4876C26.1137 43 25 41.8807 25 40.5Z" fill="#FF735C"/>
</svg>
