<svg width="80" height="80" viewBox="0 0 80 80" fill="none" xmlns="http://www.w3.org/2000/svg">
  <g opacity="0.15" clip-path="url(#clip0_850_2113)">
    <path d="M77.6429 35.5693L71.6374 29.5564C70.6102 28.5278 69.7805 26.5103 69.7805 25.0861V16.5413C69.7805 13.0601 66.9358 10.2118 63.4589 10.2118H54.9643C53.5419 10.2118 51.5269 9.38108 50.4997 8.35253L44.4942 2.33951C42.0446 -0.11317 38.0145 -0.11317 35.5649 2.33951L29.4805 8.35253C28.4927 9.38108 26.4777 10.2118 25.0159 10.2118H16.5212C13.0444 10.2118 10.1997 13.0601 10.1997 16.5413V25.0466C10.1997 26.4707 9.36996 28.4882 8.3427 29.5168L2.33721 35.5298C-0.112402 37.9825 -0.112402 42.0175 2.33721 44.4702L8.3427 50.4832C9.36996 51.5118 10.1997 53.5293 10.1997 54.9534V63.4587C10.1997 66.9399 13.0444 69.7882 16.5212 69.7882H25.0159C26.4382 69.7882 28.4532 70.6189 29.4805 71.6475L35.4859 77.6605C37.9355 80.1132 41.9655 80.1132 44.4151 77.6605L50.4206 71.6475C51.4479 70.6189 53.4629 69.7882 54.8853 69.7882H63.3799C66.8567 69.7882 69.7014 66.9399 69.7014 63.4587V54.9534C69.7014 53.5293 70.5311 51.5118 71.5584 50.4832L77.5639 44.4702C80.132 42.0571 80.132 38.022 77.6429 35.5693ZM24.1861 28.1718C24.1861 25.996 25.9641 24.2158 28.1371 24.2158C30.3102 24.2158 32.0881 25.996 32.0881 28.1718C32.0881 30.3475 30.3497 32.1277 28.1371 32.1277C25.9641 32.1277 24.1861 30.3475 24.1861 28.1718ZM30.2312 54.004C29.6385 54.5974 28.8878 54.8743 28.1371 54.8743C27.3864 54.8743 26.6358 54.5974 26.0431 54.004C24.8973 52.8568 24.8973 50.9579 26.0431 49.8107L49.749 26.0751C50.8948 24.9279 52.7912 24.9279 53.937 26.0751C55.0828 27.2223 55.0828 29.1212 53.937 30.2684L30.2312 54.004ZM51.843 55.8633C49.6304 55.8633 47.8525 54.0831 47.8525 51.9073C47.8525 49.7316 49.6304 47.9514 51.8035 47.9514C53.9765 47.9514 55.7545 49.7316 55.7545 51.9073C55.7545 54.0831 54.016 55.8633 51.843 55.8633Z" fill="white" />
  </g>
  <defs>
    <clipPath id="clip0_850_2113">
      <rect width="80" height="80" fill="white" />
    </clipPath>
  </defs>
</svg>
