<svg width="80" height="80" viewBox="0 0 80 80" fill="none" xmlns="http://www.w3.org/2000/svg">
  <g opacity="0.15" clip-path="url(#clip0_850_2170)">
    <path fill-rule="evenodd" clip-rule="evenodd" d="M80 40C80 62.0912 62.0912 80 40 80C17.9086 80 0 62.0912 0 40C0 17.9086 17.9086 0 40 0C62.0912 0 80 17.9086 80 40ZM40 23C37.5148 23 35.5 25.0147 35.5 27.5C35.5 29.1568 34.1568 30.5 32.5 30.5C30.8432 30.5 29.5 29.1568 29.5 27.5C29.5 21.701 34.2012 17 40 17C45.7988 17 50.5 21.701 50.5 27.5C50.5 30.3434 49.366 32.928 47.532 34.816C47.1628 35.1956 46.8108 35.5476 46.4748 35.8832C45.6116 36.7456 44.8552 37.5012 44.1916 38.354C43.3156 39.4796 43 40.3072 43 41V44C43 45.6568 41.6568 47 40 47C38.3432 47 37 45.6568 37 44V41C37 38.3792 38.22 36.2576 39.4568 34.6688C40.3716 33.4932 41.5216 32.3452 42.4552 31.4138C42.7368 31.1328 42.9984 30.8716 43.228 30.6351C44.0184 29.8217 44.5 28.7202 44.5 27.5C44.5 25.0147 42.4852 23 40 23ZM40 60C42.2092 60 44 58.2092 44 56C44 53.7908 42.2092 52 40 52C37.7908 52 36 53.7908 36 56C36 58.2092 37.7908 60 40 60Z" fill="white" />
  </g>
  <defs>
    <clipPath id="clip0_850_2170">
      <rect width="80" height="80" fill="white" />
    </clipPath>
  </defs>
</svg>
