<svg width="80" height="80" viewBox="0 0 80 80" fill="none" xmlns="http://www.w3.org/2000/svg">
<g opacity="0.15">
<path d="M22.9496 3.3495C23.7215 2.04351 25.4058 1.6107 26.7116 2.38271L29.7573 4.18362L63.6201 23.6219C64.9359 24.3771 65.39 26.056 64.6352 27.3718C63.8801 28.6876 62.2015 29.1421 60.8857 28.3869L57.7965 26.6134L52.2859 36.1266L52.2793 36.1229L42.9116 30.7322C41.5969 29.9756 39.9179 30.4282 39.1613 31.7432C38.4051 33.0582 38.8574 34.7377 40.1724 35.4941L49.5321 40.8803L46.0115 46.9588L46.0049 46.9548L30.6135 38.0978C29.2989 37.3411 27.6197 37.7938 26.8633 39.1091C26.1068 40.424 26.5594 42.1033 27.8742 42.86L43.2576 51.7126L40.0146 57.3113L40.008 57.3076L30.4403 51.8016C29.1256 51.0452 27.4465 51.4979 26.6901 52.8128C25.9336 54.1277 26.3862 55.807 27.701 56.5637L37.2611 62.065L33.1623 69.1412C28.2552 77.6125 17.3872 80.5151 8.88798 75.6241C0.388723 70.7334 -2.52337 59.9007 2.3837 51.4294L26.9987 8.93454L26.9772 8.92197L23.9162 7.11208C22.6105 6.34004 22.1777 4.65548 22.9496 3.3495Z" fill="white"/>
<path d="M72.5 48C76.6423 48 80 44.5954 80 40.3953C80 37.7675 77.0637 34.2599 74.8659 32.0026C73.5646 30.6658 71.4354 30.6658 70.1341 32.0026C67.9363 34.2599 65 37.7675 65 40.3953C65 44.5954 68.3578 48 72.5 48Z" fill="white"/>
</g>
</svg>
