<svg width="64" height="83" viewBox="0 0 64 83" fill="none" xmlns="http://www.w3.org/2000/svg">
<path fill-rule="evenodd" clip-rule="evenodd" d="M29.5913 14.0912C30.8188 12.4955 32.5486 11.7671 34.4598 11.7671C36.371 11.7671 38.1008 12.4955 39.3282 14.0912C40.4195 15.5098 41.0561 17.5381 41.1662 20.1717H42.8644V21.8526H26.0552V20.1717H27.7533C27.8635 17.5381 28.5001 15.5098 29.5913 14.0912ZM29.4358 20.1717H39.4838C39.3748 17.7956 38.8008 16.1625 37.9959 15.1161C37.1222 13.9803 35.9104 13.448 34.4598 13.448C33.0091 13.448 31.7973 13.9803 30.9236 15.1161C30.1187 16.1625 29.5447 17.7956 29.4358 20.1717Z" fill="#223642"/>
<path fill-rule="evenodd" clip-rule="evenodd" d="M57.151 71.4392H10.9258V69.7583H57.151V71.4392Z" fill="#223642"/>
<path fill-rule="evenodd" clip-rule="evenodd" d="M20.1714 36.9804V34.459H21.8524V36.9804H33.6188V34.459H35.2997V36.9804H46.2257V34.459H47.9066V36.9804H50.428V38.6613H47.9066V40.0135C47.9066 40.0992 47.9265 40.1837 47.9649 40.2603L51.7879 47.9063H54.6303V48.7468C54.6303 50.2548 54.2729 52.3215 53.1483 54.0397C51.9926 55.8054 50.0536 57.1514 47.0661 57.1514C45.2819 57.1514 43.8757 56.8168 42.7787 56.2226C41.6742 55.6243 40.9313 54.7886 40.4413 53.8699C39.5014 52.1075 39.5018 50.04 39.502 48.8034L39.502 47.9063H42.3609L46.2958 40.5685C46.2494 40.3878 46.2257 40.2013 46.2257 40.0135V38.6613H35.2997V58.8323H41.1829V60.5132H27.7356V58.8323H33.6188V38.6613H21.8524V40.0135C21.8524 40.0992 21.8723 40.1837 21.9106 40.2603L25.7336 47.9063H28.576V48.7468C28.576 50.2548 28.2187 52.3215 27.0941 54.0397C25.9383 55.8054 23.9994 57.1514 21.0119 57.1514C19.2277 57.1514 17.8214 56.8168 16.7245 56.2226C15.6199 55.6243 14.8771 54.7886 14.3871 53.8699C13.4472 52.1075 13.4475 50.04 13.4478 48.8034C13.4478 48.7843 13.4478 48.7655 13.4478 48.7468V47.9063H16.3066L20.2415 40.5685C20.1951 40.3878 20.1714 40.2013 20.1714 40.0135V38.6613H18.4905V36.9804H20.1714ZM21.1328 42.4633L18.214 47.9063H23.8543L21.1328 42.4633ZM47.187 42.4633L44.2682 47.9063H49.9085L47.187 42.4633ZM15.1367 49.5873C15.165 50.7159 15.2933 51.997 15.8703 53.0789C16.2208 53.736 16.7386 54.3186 17.5251 54.7446C18.3192 55.1747 19.4343 55.4705 21.0119 55.4705C23.4034 55.4705 24.8263 54.4351 25.6876 53.1192C26.3975 52.0347 26.742 50.7276 26.8533 49.5873H15.1367ZM41.1909 49.5873C41.2193 50.7159 41.3475 51.997 41.9245 53.0789C42.275 53.736 42.7928 54.3186 43.5793 54.7446C44.3734 55.1747 45.4885 55.4705 47.0661 55.4705C49.4576 55.4705 50.8805 54.4351 51.7419 53.1192C52.4517 52.0347 52.7963 50.7276 52.9075 49.5873H41.1909ZM43.7043 70.5987H45.3852V73.9606H49.5875V70.5987H51.2684V77.3224H49.5875V75.6415H45.3852V77.3224H43.7043V70.5987Z" fill="#223642"/>
<path fill-rule="evenodd" clip-rule="evenodd" d="M4.97066 5.601C3.77371 6.79795 3.36184 8.5352 3.36184 10.926V70.5986H0V10.926C0 8.27398 0.428587 5.38871 2.59348 3.22382C4.74179 1.07551 8.23396 0 13.4473 0V3.36184C8.57523 3.36184 6.18418 4.38748 4.97066 5.601Z" fill="#223642"/>
<g filter="url(#filter0_d_2001_4817)">
<path fill-rule="evenodd" clip-rule="evenodd" d="M7.56396 5.043C7.56396 2.25796 9.82168 0.000244141 12.6067 0.000244141H55.4701C58.2552 0.000244141 60.5129 2.25796 60.5129 5.043V62.1942C60.5129 64.9793 58.2552 67.237 55.4701 67.237H12.6067C9.82168 67.237 7.56396 64.9793 7.56396 62.1942V5.043ZM12.6067 3.36208C11.6784 3.36208 10.9258 4.11465 10.9258 5.043V62.1942C10.9258 63.1226 11.6784 63.8751 12.6067 63.8751H55.4701C56.3985 63.8751 57.1511 63.1226 57.1511 62.1942V5.043C57.1511 4.11465 56.3985 3.36208 55.4701 3.36208H12.6067Z" fill="#223642"/>
</g>
<path fill-rule="evenodd" clip-rule="evenodd" d="M4.22724 64.9898C6.49251 63.5071 9.14647 63.0344 10.926 63.0344V66.3963C9.62379 66.3963 7.65523 66.764 6.06838 67.8027C4.57218 68.782 3.36184 70.3765 3.36184 73.1199C3.36184 74.9697 3.77595 76.1236 4.30943 76.8705C4.83989 77.6131 5.60719 78.1198 6.62488 78.4591C7.66399 78.8054 8.89831 78.9541 10.2528 79.0043C11.1703 79.0383 12.0527 79.0266 12.9372 79.015C13.3852 79.0091 13.8338 79.0031 14.2878 79.0031H55.4703V65.5558H58.8322V79.0031H59.6726V82.365H14.2878C13.9215 82.365 13.5196 82.3701 13.0958 82.3756C12.1647 82.3875 11.1277 82.4008 10.1284 82.3638C8.64628 82.3089 7.04405 82.1425 5.56178 81.6484C4.05809 81.1472 2.61919 80.2881 1.57379 78.8245C0.531402 77.3652 0 75.4725 0 73.1199C0 69.1397 1.87134 66.5319 4.22724 64.9898Z" fill="#223642"/>
<path fill-rule="evenodd" clip-rule="evenodd" d="M34.4591 30.257C40.9575 30.257 46.2255 24.989 46.2255 18.4906C46.2255 11.9921 40.9575 6.72413 34.4591 6.72413C27.9606 6.72413 22.6926 11.9921 22.6926 18.4906C22.6926 24.989 27.9606 30.257 34.4591 30.257ZM34.4591 31.9379C41.8858 31.9379 47.9064 25.9173 47.9064 18.4906C47.9064 11.0638 41.8858 5.04321 34.4591 5.04321C27.0323 5.04321 21.0117 11.0638 21.0117 18.4906C21.0117 25.9173 27.0323 31.9379 34.4591 31.9379Z" fill="#223642"/>
<defs>
<filter id="filter0_d_2001_4817" x="4.556" y="0.000244141" width="58.9647" height="73.2527" filterUnits="userSpaceOnUse" color-interpolation-filters="sRGB">
<feFlood flood-opacity="0" result="BackgroundImageFix"/>
<feColorMatrix in="SourceAlpha" type="matrix" values="0 0 0 0 0 0 0 0 0 0 0 0 0 0 0 0 0 0 127 0" result="hardAlpha"/>
<feOffset dy="3.00796"/>
<feGaussianBlur stdDeviation="1.50398"/>
<feComposite in2="hardAlpha" operator="out"/>
<feColorMatrix type="matrix" values="0 0 0 0 0 0 0 0 0 0 0 0 0 0 0 0 0 0 0.25 0"/>
<feBlend mode="normal" in2="BackgroundImageFix" result="effect1_dropShadow_2001_4817"/>
<feBlend mode="normal" in="SourceGraphic" in2="effect1_dropShadow_2001_4817" result="shape"/>
</filter>
</defs>
</svg>
