<svg width="83" height="110" viewBox="0 0 83 110" fill="none" xmlns="http://www.w3.org/2000/svg">
<path fill-rule="evenodd" clip-rule="evenodd" d="M67.4716 25.199H54.7782V23.0078H67.4716C69.4237 23.0078 70.4013 25.368 69.021 26.7484L57.4232 38.3462L70.1166 38.3462V40.5374H57.4232C55.471 40.5374 54.4934 38.1772 55.8738 36.7968L67.4716 25.199ZM29.7718 25.523C30.6219 23.9291 32.9269 23.9906 33.6908 25.6275L40.4326 40.0741L38.447 41.0007L35.4312 34.5383H27.447L23.9725 41.053L22.0391 40.0218L29.7718 25.523ZM28.6156 32.3471H34.4086L31.7052 26.5541L28.6156 32.3471ZM50.3958 32.8682H43.8222V30.677H50.3958V32.8682ZM59.1606 55.8758H35.0574V53.6846H59.1606V55.8758ZM64.6386 63.545H29.5794V61.3538H64.6386V63.545ZM70.1166 72.3098H24.1014V70.1186H70.1166V72.3098Z" fill="#223642"/>
<path fill-rule="evenodd" clip-rule="evenodd" d="M4.38617 1.18731C5.87065 0.38616 7.69259 0 9.8606 0H75.6015C79.2352 0 82.1702 2.94628 82.1702 6.5736V102.986C82.1702 106.611 79.2421 109.56 75.6057 109.56H15.3386C11.7278 109.56 7.95277 108.663 5.01697 106.543C1.99672 104.362 0.000201457 100.97 0.000201457 96.4128V12.0516C0.000201457 11.9836 0.00015261 11.9145 0.00010298 11.8444C-0.00134465 9.79865 -0.00340646 6.88524 1.19018 4.49807C1.85026 3.17791 2.87197 2.0045 4.38617 1.18731ZM5.10992 6.45793C4.42712 7.82353 4.3826 9.7218 4.3826 12.0516V96.4128C4.3826 99.5252 5.67289 101.611 7.58283 102.99C9.57723 104.431 12.3758 105.178 15.3386 105.178H75.6057C76.8099 105.178 77.7878 104.202 77.7878 102.986V6.5736C77.7878 5.36026 76.8085 4.3824 75.6015 4.3824H9.8606C8.19402 4.3824 7.14 4.68099 6.46752 5.04392C5.82476 5.3908 5.40849 5.86079 5.10992 6.45793Z" fill="#223642"/>
<path fill-rule="evenodd" clip-rule="evenodd" d="M12.0518 89.8392V2.19116H16.4342V89.8392H79.979V94.2215H2.19141V89.8392H12.0518Z" fill="#223642"/>
<path fill-rule="evenodd" clip-rule="evenodd" d="M65.7374 100.795H15.3398V98.6035H65.7374V100.795Z" fill="#223642"/>
</svg>
