<svg width="578" height="720" viewBox="0 0 578 720" fill="none" xmlns="http://www.w3.org/2000/svg">
<g opacity="0.15">
<path d="M217.306 298.34C217.306 298.34 223.121 294.602 230.804 289.619C231.842 288.996 232.361 288.581 232.569 288.477C246.793 279.34 246.585 279.548 247.727 278.613C253.334 274.357 262.989 266.673 268.492 253.695C271.088 247.674 271.918 242.275 272.23 238.848C272.956 223.898 268.907 215.488 264.858 210.504C261.536 206.455 259.252 205.936 256.76 201.471C250.219 190.051 255.722 176.761 254.164 176.346C252.295 175.827 250.219 194.411 236.41 203.755C232.153 206.663 230.181 206.351 226.962 209.777C221.875 215.28 224.263 218.81 218.656 229.504C215.749 234.903 213.88 236.564 213.88 240.51C213.88 244.351 215.853 245.701 216.06 249.542C216.164 252.346 215.437 256.291 210.973 261.275C201.732 269.684 198.41 277.264 197.06 282.766C196.334 286.089 196.749 286.712 195.607 290.346C193.634 297.094 192.492 303.428 188.028 309.449C185.951 312.149 181.071 318.69 174.53 318.69C171.519 318.69 171.519 317.34 168.82 317.548C162.798 317.859 157.088 325.127 154.596 329.28C153.765 330.734 153.039 332.395 151.17 333.329C149.093 334.367 147.744 333.329 145.356 334.575C144.421 335.094 144.525 335.302 142.033 337.275C142.033 337.275 140.372 338.624 138.503 339.974C134.869 342.673 130.301 343.193 129.47 343.4C125.836 344.335 123.033 357.001 126.459 408.602C130.405 485.329 134.35 562.056 138.295 638.783C135.7 641.482 133.208 644.078 130.612 646.777C125.006 566.728 119.399 486.783 113.689 406.734L115.142 359.182C114 358.766 112.651 357.936 111.82 356.586C110.678 354.51 111.612 352.433 111.82 350.876C112.754 344.335 102.995 342.051 101.749 334.264C100.503 326.581 108.498 317.34 108.498 317.34C110.782 314.848 114.416 311.734 119.607 310.28C123.552 309.242 124.694 310.28 129.782 309.242C132.17 308.827 142.656 306.958 144.421 301.04C145.148 298.652 143.591 298.133 143.902 294.499C144.421 289.93 147.224 288.269 148.886 284.428C151.17 279.34 149.405 274.876 148.886 270.93C147.951 262.832 152.623 259.613 171 230.75C177.126 221.094 180.241 216.111 181.59 212.892C183.771 207.805 185.328 202.094 190.104 194.515C191.558 192.127 192.907 190.258 193.842 189.012L213.465 155.892C215.23 150.805 218.552 143.641 224.782 137.1C228 133.674 228.935 133.674 231.634 130.87C240.667 121.215 237.033 114.258 243.263 105.952C251.88 94.5315 266.519 97.9577 268.804 89.0288C270.257 83.1107 264.858 77.5042 267.038 75.7392C269.53 73.7665 278.667 79.2692 278.667 79.2692C283.339 78.9577 288.53 81.4495 292.683 79.4769C293.825 78.9577 294.448 78.5424 295.071 77.7118C297.355 74.3894 293.41 69.4058 291.23 62.3457C290.192 59.1271 289.257 54.455 289.672 48.4331C288.738 47.1872 287.284 45.1107 286.039 42.4113C282.301 34.3129 283.339 28.0834 282.405 14.3785C282.197 11.4714 281.886 7.11076 281.159 1.81568C282.924 1.08891 285.623 0.154486 288.842 0.258311C294.656 0.362136 296.94 3.47689 302.027 3.99602C307.426 4.51515 310.853 1.8157 313.968 0.67362C319.782 -1.40288 329.957 0.465965 348.957 18.6354C354.252 26.0069 359.65 30.1599 363.492 32.6517C372.421 38.466 381.558 40.231 381.454 43.9687C381.454 45.2146 380.312 46.149 378.547 47.3949C370.656 52.5862 360.793 53.4168 354.459 53.4168C349.891 60.8922 350.202 64.1108 351.344 65.6681C353.006 67.9523 356.536 66.914 357.678 69.302C359.131 72.3129 354.563 75.7392 356.224 79.8922C356.951 81.9687 358.508 82.2801 358.301 83.1107C357.47 85.914 341.377 81.6572 338.886 86.1217C337.847 87.8867 339.404 90.5861 340.962 92.7665C342.519 93.9085 344.492 95.7774 345.323 98.5807C346.257 101.695 344.907 103.045 345.946 106.264C346.984 109.275 348.749 109.482 350.514 112.805C352.487 116.335 352.383 119.553 352.487 121.318C353.213 129.936 363.284 133.466 370.967 143.745C379.066 154.542 380.104 166.69 380.623 172.193C381.454 181.848 378.858 180.291 378.754 196.384C378.754 211.127 380.831 213.93 378.235 222.236C376.782 226.805 375.12 229.504 375.536 234.28C375.64 235.63 375.951 236.772 376.263 237.706C378.028 242.378 380 245.701 380.519 246.531C385.503 254.111 378.131 264.597 383.011 278.925C384.88 284.428 384.984 283.078 388.929 290.138C390.694 293.357 391.836 300.313 394.017 314.122C396.197 327.515 396.612 331.979 400.661 335.094C402.219 336.236 404.088 336.963 405.437 339.351C407.099 342.362 405.957 344.335 406.372 349.422C406.683 352.952 406.995 357.209 409.694 360.428C410.525 361.466 413.328 364.373 419.661 364.996C442.295 350.46 464.929 336.029 487.563 321.493C490.159 325.023 492.858 328.449 495.454 331.979C472.508 346.93 449.667 361.985 426.721 376.936C420.907 384.411 420.077 389.706 420.388 393.34C420.492 395.001 421.115 398.324 419.454 399.57C418.312 400.4 416.547 400.089 415.301 399.673C413.536 402.061 411.771 403.203 410.421 403.826C408.76 404.553 408.033 404.346 406.475 405.488C404.71 406.734 404.814 407.668 403.049 408.499C401.7 409.122 401.284 408.706 399.935 409.537C398.689 410.264 398.689 410.887 397.547 411.302C396.405 411.717 395.989 411.302 394.64 411.51C392.044 411.821 391.732 413.586 389.967 413.482C387.787 413.482 387.268 410.575 385.918 410.679C383.323 410.887 382.388 425.941 382.284 426.668C381.869 433.728 382.284 434.559 381.765 438.4C380.727 446.083 377.716 451.275 376.263 454.078C372.629 461.138 371.902 470.067 370.448 487.509C367.334 526.236 371.383 552.712 368.06 564.34C367.749 565.274 366.088 571.193 366.295 578.253C366.503 587.597 369.41 587.182 372.421 602.548C373.459 608.05 374.393 611.165 377.301 613.242C380.415 615.422 384.257 617.395 384.257 617.395C385.814 618.225 387.372 618.848 387.787 620.406C388.202 621.652 387.787 622.897 387.268 623.624C388.203 623.728 389.033 623.936 389.967 624.039C390.486 625.182 390.902 626.324 391.421 627.466C394.951 629.335 398.377 631.203 401.907 632.968C407.618 636.914 412.394 637.952 415.82 638.263C424.23 638.886 430.355 635.045 434.924 638.367C436.793 639.821 437.623 641.897 438.038 643.351C436.481 644.493 435.027 645.739 433.47 646.881C431.809 648.127 430.044 649.373 428.071 650.826C424.956 653.007 423.814 653.733 422.153 654.045C421.011 654.253 420.284 654.149 418.312 654.045C415.405 653.941 416.754 654.045 410.317 654.045C402.323 653.941 398.274 653.837 397.028 653.526C393.498 652.695 392.563 651.657 384.776 647.504C380.312 645.116 376.678 643.351 374.29 642.313C372.525 642.52 370.864 642.728 369.099 642.936L369.929 651.968L368.164 654.149C368.164 654.149 352.071 654.253 351.656 654.149C347.191 652.695 349.268 645.635 343.765 639.613C342.935 638.679 342 637.744 341.273 636.083C339.716 632.345 340.443 627.673 340.443 627.673C340.443 627.673 342.623 622.586 342.831 622.067C343.973 619.367 344.907 614.384 343.973 604.209C341.17 599.641 337.847 592.684 337.224 583.859C336.913 580.018 337.432 578.564 337.224 575.449C336.601 564.963 330.579 560.291 326.011 551.777C314.175 545.963 323.519 499.865 326.946 482.63C327.776 478.684 329.437 470.794 329.333 460.307C329.333 452.624 328.295 447.018 327.569 442.761C325.077 428.225 323.831 420.958 319.678 419.712C315.836 418.466 309.607 425.318 297.148 438.919C287.18 449.821 284.585 454.493 285.208 459.373C285.623 462.695 287.388 464.668 286.246 467.575C284.273 472.351 276.798 473.389 275.864 473.493C268.284 474.428 262.055 470.275 259.044 468.198C250.634 462.488 249.804 456.777 246.17 457.193C242.744 457.608 242.017 462.903 236.203 472.351C232.153 478.996 230.284 479.93 226.235 485.537C216.683 498.826 213.361 512.531 211.7 518.968C207.962 534.231 209.935 535.684 206.509 546.378C204.224 553.542 202.148 551.673 193.426 565.897C186.47 577.214 183.044 582.821 181.59 590.815C179.099 604.728 185.951 607.012 182.11 618.537C180.033 624.662 175.88 628.504 174.53 637.744C174.011 641.067 174.011 643.87 174.115 645.739C174.426 646.57 174.738 647.815 174.426 649.269C174.115 650.93 173.077 651.968 171.935 653.11C168.405 656.641 166.743 658.406 165.497 659.029C163.11 660.274 161.76 659.963 155.426 660.378C153.038 660.586 149.612 660.794 145.563 661.313C141.825 661.728 138.711 662.143 136.738 662.455C132.377 663.078 130.924 663.493 129.159 662.559C127.601 661.728 126.771 660.378 125.525 658.198C124.487 656.433 123.656 654.979 124.071 653.63C124.383 652.488 125.213 652.072 126.563 650.93C127.705 649.996 129.055 648.438 130.301 646.05C134.558 642.313 137.049 638.264 139.749 636.291C143.902 633.384 144.525 630.373 144.94 627.881C145.459 624.351 144.11 621.859 145.771 620.302C147.017 619.16 148.47 619.99 150.131 619.264C154.077 617.499 153.973 609.089 153.869 607.635C153.765 598.498 155.427 577.526 158.126 547.936C161.864 537.242 164.355 528.105 166.017 521.045C167.885 513.466 166.328 509.936 167.366 503.499C168.508 496.335 171.623 486.471 180.241 475.154C186.989 463.63 192.492 453.663 196.749 445.668C201.006 437.777 202.563 434.663 201.317 431.236C198.618 423.553 184.082 419.504 173.596 423.034C169.65 424.384 166.847 426.564 165.29 427.706C157.815 433.417 157.088 439.023 149.924 441.826C145.978 443.28 144.213 442.449 143.798 442.138C141.618 440.892 141.306 437.777 141.099 436.22C139.645 421.477 139.853 415.143 138.607 409.433C136.115 398.428 130.301 398.635 131.235 392.094C131.235 392.094 131.858 387.63 148.678 372.679C148.678 372.679 203.913 306.023 216.476 297.821L217.306 298.34Z" fill="#223642"/>
<path d="M50.6665 670.655C54.1966 669.616 57.6228 668.89 83.7868 666.605C110.055 664.217 123.24 663.075 137.983 662.245C169.962 660.48 328.399 653.316 545.082 644.283C545.497 652.174 547.262 665.048 553.907 679.272C560.24 692.769 572.393 714.053 578 719.556C384.776 719.556 193.426 719.556 0 719.556C18.1694 684.567 38.6229 674.288 50.7705 670.655H50.6665Z" fill="#223642"/>
<path d="M465.449 291.281C467.941 289.101 470.329 286.921 472.821 284.637C484.864 294.189 496.804 303.741 508.848 313.396C511.859 316.719 514.87 320.145 517.777 323.467C520.684 332.604 523.591 341.741 526.498 350.877C522.449 353.68 518.4 356.38 514.351 359.183C504.591 347.036 494.624 333.954 484.657 319.73C477.804 310.074 471.471 300.522 465.553 291.178L465.449 291.281Z" fill="#223642"/>
</g>
</svg>
