<svg style="display: none" fill="none" xmlns="http://www.w3.org/2000/svg">
<symbol viewBox="0 0 132 79" id="svg-logo">
<g>

<path d="M24.7484 32.7788C24.7484 32.7788 25.3864 32.3687 26.2295 31.8218C26.3435 31.7534 26.4004 31.7079 26.4232 31.6965C27.984 30.6939 27.9613 30.7167 28.0866 30.6142C28.7018 30.147 29.7614 29.304 30.3652 27.8798C30.65 27.219 30.7411 26.6266 30.7753 26.2506C30.8551 24.61 30.4108 23.6872 29.9664 23.1403C29.6019 22.696 29.3512 22.6391 29.0778 22.1492C28.36 20.8959 28.9638 19.4376 28.7929 19.3921C28.5879 19.3351 28.36 21.3744 26.8447 22.3998C26.3776 22.7188 26.1612 22.6846 25.808 23.0606C25.2497 23.6644 25.5118 24.0518 24.8966 25.2253C24.5775 25.8177 24.3725 26 24.3725 26.4329C24.3725 26.8545 24.5889 27.0026 24.6117 27.4241C24.6231 27.7317 24.5434 28.1647 24.0535 28.7115C23.0395 29.6344 22.6749 30.466 22.5268 31.0699C22.4471 31.4344 22.4926 31.5028 22.3673 31.9016C22.1508 32.6421 22.0255 33.3371 21.5356 33.9979C21.3078 34.2941 20.7723 35.0118 20.0545 35.0118C19.7241 35.0118 19.7241 34.8637 19.4279 34.8865C18.7671 34.9207 18.1405 35.7182 17.8671 36.1739C17.7759 36.3334 17.6962 36.5157 17.4911 36.6183C17.2632 36.7322 17.1151 36.6183 16.8531 36.755C16.7506 36.8119 16.762 36.8347 16.4885 37.0512C16.4885 37.0512 16.3062 37.1993 16.1012 37.3474C15.7024 37.6436 15.2011 37.7006 15.11 37.7234C14.7112 37.8259 14.4036 39.2159 14.7796 44.8782C15.2125 53.2976 15.6454 61.717 16.0784 70.1364C15.7935 70.4327 15.5201 70.7175 15.2353 71.0137C14.6201 62.2297 14.0049 53.4571 13.3782 44.6731L13.5377 39.4551C13.4124 39.4095 13.2643 39.3184 13.1732 39.1703C13.0478 38.9424 13.1504 38.7146 13.1732 38.5437C13.2757 37.8259 12.2047 37.5753 12.068 36.7208C11.9313 35.8777 12.8086 34.8637 12.8086 34.8637C13.0592 34.5903 13.458 34.2485 14.0276 34.089C14.4606 33.9751 14.5859 34.089 15.1442 33.9751C15.4062 33.9295 16.5569 33.7244 16.7506 33.075C16.8303 32.813 16.6594 32.756 16.6936 32.3573C16.7506 31.856 17.0582 31.6737 17.2405 31.2522C17.4911 30.6939 17.2974 30.204 17.2405 29.7711C17.1379 28.8824 17.6506 28.5292 19.6672 25.362C20.3393 24.3024 20.6811 23.7556 20.8292 23.4024C21.0685 22.8441 21.2394 22.2175 21.7635 21.3858C21.923 21.1238 22.0711 20.9187 22.1736 20.782L24.3269 17.1476C24.5206 16.5894 24.8852 15.8033 25.5687 15.0855C25.9219 14.7095 26.0245 14.7095 26.3207 14.4019C27.3119 13.3424 26.9131 12.579 27.5967 11.6676C28.5423 10.4144 30.1487 10.7903 30.3994 9.81055C30.5589 9.16115 29.9664 8.54593 30.2057 8.35225C30.4791 8.13578 31.4817 8.73961 31.4817 8.73961C31.9944 8.70543 32.564 8.97886 33.0197 8.7624C33.1451 8.70543 33.2134 8.65986 33.2818 8.56872C33.5324 8.20414 33.0995 7.65727 32.8603 6.88255C32.7463 6.52937 32.6438 6.01668 32.6893 5.35589C32.5868 5.21917 32.4273 4.99131 32.2906 4.6951C31.8805 3.80644 31.9944 3.12287 31.8918 1.61899C31.8691 1.29999 31.8349 0.821481 31.7551 0.240438C31.9488 0.160687 32.245 0.0581507 32.5982 0.0695437C33.2362 0.0809367 33.4868 0.422727 34.0451 0.479692C34.6375 0.536657 35.0135 0.24044 35.3553 0.115117C35.9933 -0.112743 37.1098 0.0923302 39.1948 2.0861C39.7758 2.89501 40.3682 3.35073 40.7898 3.62416C41.7696 4.26217 42.7722 4.45585 42.7608 4.86599C42.7608 5.00271 42.6354 5.10525 42.4418 5.24196C41.5759 5.81161 40.4936 5.90276 39.7986 5.90276C39.2973 6.72305 39.3314 7.07623 39.4568 7.24713C39.6391 7.49778 40.0264 7.38384 40.1518 7.64588C40.3113 7.97628 39.81 8.35225 39.9922 8.80797C40.072 9.03583 40.2429 9.07001 40.2201 9.16115C40.129 9.46876 38.3631 9.00165 38.0896 9.49155C37.9757 9.68523 38.1466 9.98145 38.3175 10.2207C38.4884 10.346 38.7049 10.5511 38.796 10.8587C38.8985 11.2005 38.7504 11.3486 38.8643 11.7018C38.9783 12.0322 39.172 12.055 39.3656 12.4195C39.5821 12.8069 39.5707 13.1601 39.5821 13.3538C39.6619 14.2994 40.767 14.6868 41.6101 15.8147C42.4987 16.9995 42.6126 18.3325 42.6696 18.9363C42.7607 19.9959 42.4759 19.825 42.4645 21.5909C42.4645 23.2087 42.6924 23.5163 42.4076 24.4278C42.2481 24.9291 42.0658 25.2253 42.1114 25.7493C42.1228 25.8975 42.1569 26.0228 42.1911 26.1253C42.3848 26.638 42.6012 27.0026 42.6582 27.0937C43.2051 27.9254 42.3962 29.0761 42.9317 30.6483C43.1367 31.2522 43.1481 31.1041 43.5811 31.8788C43.7747 32.232 43.9001 32.9953 44.1393 34.5106C44.3786 35.9802 44.4241 36.4701 44.8684 36.8119C45.0393 36.9373 45.2444 37.017 45.3925 37.279C45.5748 37.6094 45.4495 37.8259 45.4951 38.3842C45.5293 38.7715 45.5634 39.2386 45.8597 39.5918C45.9508 39.7058 46.2584 40.0248 46.9534 40.0931C49.437 38.4981 51.9207 36.9145 54.4044 35.3195C54.6892 35.7068 54.9854 36.0828 55.2702 36.4701C52.7524 38.1107 50.2459 39.7627 47.7281 41.4033C47.0901 42.2236 46.999 42.8047 47.0331 43.2034C47.0445 43.3857 47.1129 43.7503 46.9306 43.887C46.8052 43.9781 46.6116 43.944 46.4749 43.8984C46.2812 44.1604 46.0875 44.2857 45.9394 44.3541C45.7571 44.4338 45.6773 44.4111 45.5064 44.5364C45.3128 44.6731 45.3242 44.7756 45.1305 44.8668C44.9824 44.9351 44.9368 44.8896 44.7887 44.9807C44.652 45.0605 44.652 45.1288 44.5267 45.1744C44.4013 45.22 44.3558 45.1744 44.2077 45.1972C43.9228 45.2314 43.8886 45.425 43.695 45.4136C43.4557 45.4136 43.3988 45.0946 43.2507 45.106C42.9658 45.1288 42.8633 46.7808 42.8519 46.8606C42.8063 47.6353 42.8519 47.7264 42.7949 48.148C42.681 48.991 42.3506 49.5607 42.1911 49.8683C41.7924 50.643 41.7126 51.6228 41.5531 53.5368C41.2113 57.7864 41.6556 60.6916 41.2911 61.9677C41.2569 62.0702 41.0746 62.7196 41.0974 63.4943C41.1202 64.5197 41.4392 64.4741 41.7695 66.1603C41.8835 66.7641 41.986 67.1059 42.305 67.3338C42.6468 67.573 43.0684 67.7895 43.0684 67.7895C43.2393 67.8806 43.4102 67.949 43.4557 68.1199C43.5013 68.2566 43.4557 68.3933 43.3988 68.4731C43.5013 68.4845 43.5924 68.5072 43.695 68.5186C43.7519 68.644 43.7975 68.7693 43.8545 68.8946C44.2418 69.0997 44.6178 69.3047 45.0052 69.4984C45.6318 69.9314 46.1559 70.0453 46.5318 70.0795C47.4547 70.1478 48.1269 69.7263 48.6282 70.0909C48.8332 70.2504 48.9244 70.4782 48.9699 70.6377C48.799 70.7631 48.6395 70.8998 48.4686 71.0251C48.2863 71.1618 48.0927 71.2985 47.8762 71.458C47.5344 71.6973 47.4091 71.777 47.2268 71.8112C47.1015 71.834 47.0217 71.8226 46.8053 71.8112C46.4863 71.7998 46.6344 71.8112 45.928 71.8112C45.0508 71.7998 44.6064 71.7884 44.4697 71.7542C44.0824 71.6631 43.9798 71.5492 43.1253 71.0935C42.6354 70.8314 42.2367 70.6377 41.9746 70.5238C41.781 70.5466 41.5987 70.5694 41.405 70.5922L41.4961 71.5833L41.3025 71.8226C41.3025 71.8226 39.5365 71.834 39.4909 71.8226C39.0011 71.6631 39.2289 70.8884 38.6251 70.2276C38.534 70.125 38.4314 70.0225 38.3517 69.8402C38.1808 69.4301 38.2605 68.9174 38.2605 68.9174C38.2605 68.9174 38.4998 68.3591 38.5226 68.3022C38.6479 68.0059 38.7504 67.4591 38.6479 66.3426C38.3403 65.8413 37.9757 65.0779 37.9073 64.1095C37.8732 63.688 37.9301 63.5285 37.9073 63.1867C37.839 62.036 37.1782 61.5233 36.6769 60.5891C35.3781 59.9511 36.4035 54.8926 36.7794 53.0014C36.8706 52.5684 37.0529 51.7026 37.0415 50.5519C37.0415 49.7088 36.9276 49.0936 36.8478 48.6265C36.5744 47.0315 36.4376 46.2339 35.9819 46.0972C35.5604 45.9605 34.8768 46.7124 33.5096 48.2049C32.4159 49.4012 32.1311 49.9139 32.1994 50.4493C32.245 50.8139 32.4387 51.0304 32.3134 51.3494C32.0969 51.8735 31.2766 51.9874 31.1741 51.9988C30.3424 52.1013 29.6588 51.6456 29.3284 51.4178C28.4056 50.7911 28.3145 50.1645 27.9157 50.2101C27.5397 50.2557 27.46 50.8367 26.822 51.8735C26.3776 52.6026 26.1726 52.7052 25.7282 53.3204C24.6801 54.7787 24.3155 56.2826 24.1332 56.9889C23.7231 58.6637 23.9395 58.8232 23.5636 59.9967C23.3129 60.7828 23.0851 60.5777 22.128 62.1386C21.3647 63.3804 20.9887 63.9956 20.8292 64.8729C20.5558 66.3995 21.3078 66.6502 20.8862 67.9148C20.6584 68.587 20.2026 69.0085 20.0545 70.0225C19.9976 70.3871 19.9976 70.6947 20.0089 70.8998C20.0431 70.9909 20.0773 71.1276 20.0431 71.2871C20.0089 71.4694 19.895 71.5833 19.7697 71.7087C19.3823 72.096 19.2 72.2897 19.0633 72.3581C18.8013 72.4948 18.6532 72.4606 17.9582 72.5062C17.6962 72.529 17.3202 72.5518 16.8759 72.6087C16.4657 72.6543 16.1239 72.6999 15.9075 72.734C15.429 72.8024 15.2695 72.848 15.0758 72.7454C14.9049 72.6543 14.8138 72.5062 14.677 72.2669C14.5631 72.0732 14.472 71.9137 14.5175 71.7656C14.5517 71.6403 14.6428 71.5947 14.791 71.4694C14.9163 71.3669 15.0644 71.196 15.2011 70.9339C15.6682 70.5238 15.9417 70.0795 16.2379 69.863C16.6936 69.544 16.7619 69.2136 16.8075 68.9402C16.8645 68.5528 16.7164 68.2794 16.8987 68.1085C17.0354 67.9832 17.1949 68.0743 17.3772 67.9946C17.8101 67.8009 17.7987 66.878 17.7873 66.7185C17.7759 65.716 17.9582 63.4146 18.2544 60.1676C18.6646 58.9941 18.938 57.9915 19.1203 57.2168C19.3254 56.3851 19.1545 55.9977 19.2684 55.2914C19.3937 54.5053 19.7355 53.4229 20.6811 52.1811C21.4217 50.9165 22.0255 49.8227 22.4926 48.9455C22.9597 48.0796 23.1306 47.7378 22.9939 47.3619C22.6977 46.5188 21.1027 46.0744 19.952 46.4618C19.519 46.6099 19.2114 46.8492 19.0406 46.9745C18.2203 47.6011 18.1405 48.2163 17.3544 48.5239C16.9214 48.6834 16.7278 48.5923 16.6822 48.5581C16.4429 48.4214 16.4088 48.0796 16.386 47.9087C16.2265 46.2909 16.2493 45.5959 16.1125 44.9693C15.8391 43.7617 15.2011 43.7845 15.3037 43.0667C15.3037 43.0667 15.372 42.5768 17.2177 40.9362C17.2177 40.9362 23.2787 33.6219 24.6573 32.7219L24.7484 32.7788Z" fill="currentColor"/>
<path d="M6.46272 73.6339C6.85008 73.52 7.22605 73.4403 10.0971 73.1896C12.9795 72.9276 14.4264 72.8022 16.0442 72.7111C19.5533 72.5174 36.939 71.7313 60.7161 70.7401C60.7617 71.606 60.9554 73.0187 61.6845 74.5796C62.3795 76.0606 63.2796 77.0746 63.8948 77.6784C42.8975 78.1228 21.9002 78.5671 0.902954 79C2.89673 75.1606 5.14115 74.0327 6.47413 73.6339H6.46272Z" fill="currentColor"/>
<path d="M51.9781 32.0037C52.2515 31.7644 52.5136 31.5252 52.787 31.2745C54.1086 32.3227 55.4188 33.3708 56.7404 34.4304C57.0708 34.795 57.4011 35.1709 57.7201 35.5355C58.0391 36.5381 58.3582 37.5407 58.6772 38.5433C58.2329 38.8509 57.7885 39.1471 57.3442 39.4547C56.2733 38.1217 55.1795 36.6862 54.0858 35.1254C53.3339 34.0658 52.6389 33.0177 51.9895 31.9923L51.9781 32.0037Z" fill="currentColor"/>
<path d="M79.709 28.677V31.9582H74.2175V58.219H70.8908V31.9582H65.3994V28.677H79.7204H79.709Z" fill="currentColor"/>
<path d="M95.4539 44.3083C95.4539 45.1286 95.3286 45.835 95.0893 46.416C94.8387 46.9971 94.5083 47.4642 94.0754 47.8174C93.6424 48.1705 93.1411 48.4326 92.5829 48.6035C92.0246 48.7744 91.4208 48.8541 90.7828 48.8541H87.7067V58.2191H84.3799V28.6771H90.7828C91.6145 28.6771 92.3323 28.8024 92.9247 29.0417C93.5171 29.281 93.9956 29.6113 94.3716 30.0215C94.7476 30.4316 95.021 30.9102 95.1919 31.4684C95.3628 32.0267 95.4539 32.6077 95.4539 33.2343V44.2969V44.3083ZM92.0816 33.2457C92.0816 32.9039 91.9904 32.6077 91.7968 32.3571C91.6031 32.1064 91.2727 31.9697 90.7828 31.9697H87.7067V45.5957H90.7828C91.1588 45.5957 91.4664 45.5046 91.717 45.3223C91.9563 45.14 92.0816 44.8096 92.0816 44.3197V33.2571V33.2457Z" fill="currentColor"/>
<path d="M109.388 54.4366C109.183 55.519 108.716 56.419 107.987 57.1368C107.246 57.8659 106.186 58.2191 104.808 58.2191H102.472V54.9379H104.808C105.184 54.9379 105.469 54.8582 105.674 54.6873C105.879 54.5164 106.004 54.3227 106.061 54.0948L107.052 48.8199H104.067L99.3963 28.6885H102.814L106.449 45.5501H107.622L110.732 28.6885H114.105L109.388 54.448V54.4366Z" fill="currentColor"/>
<path d="M131.935 54.9494V62.1383H129.645L128.995 58.2191H118.65L118.343 62.1383H115.665V54.9494H117.614C118.217 54.5506 118.536 53.9012 118.571 52.9898L119.562 28.6771H129.645V54.938H131.935V54.9494ZM126.306 54.9494V31.9583H122.763L121.852 53.1151C121.795 53.8556 121.567 54.4595 121.157 54.9494H126.306Z" fill="currentColor"/>
<path d="M68.3728 15.6554H66.5271V24.0178H66.1398V15.2794H68.3728V15.6554Z" fill="currentColor"/>
<path d="M71.1303 15.2795C71.5632 15.2795 71.8708 15.3935 72.0531 15.6213C72.2354 15.8492 72.3265 16.1682 72.3265 16.567V20.338C72.3265 20.7368 72.2354 21.0558 72.0531 21.2836C71.8708 21.5115 71.5632 21.6254 71.1303 21.6254H70.196V24.0294H69.8087V15.2909H71.1303V15.2795ZM71.9391 16.4872C71.9391 16.2707 71.8822 16.0771 71.7683 15.9062C71.6543 15.7353 71.4606 15.6555 71.1872 15.6555H70.196V21.2267H71.1872C71.4606 21.2267 71.6543 21.1469 71.7683 20.976C71.8822 20.8165 71.9391 20.6229 71.9391 20.4064V16.4872Z" fill="currentColor"/>
<path d="M76.9066 15.2795L75.8584 23.0496C75.8128 23.3572 75.6989 23.585 75.5166 23.7559C75.3343 23.9268 75.0495 24.018 74.6735 24.018H74.3317V23.642H74.7305C74.9698 23.642 75.152 23.5736 75.266 23.4483C75.3799 23.323 75.4483 23.1635 75.4824 22.9812L75.7103 21.2381H74.7191L73.7963 15.2795H74.195L75.0495 20.8621H75.7673L76.5078 15.2795H76.9066Z" fill="currentColor"/>
<path d="M80.8598 15.2795V24.018H80.4724V15.6555H78.7749V24.018H78.3875V15.2795H80.8598Z" fill="currentColor"/>
<path d="M85.1426 15.2795V24.018H84.7553V15.6555H83.0577V24.018H82.6703V15.2795H85.1426Z" fill="currentColor"/>
<path d="M86.6697 24.018L87.6837 15.2795H88.8572L89.8711 24.018H89.4724L89.2559 22.1039H87.2849L87.0685 24.018H86.6697ZM87.3191 21.728H89.199L88.504 15.6555H88.0141L87.3077 21.728H87.3191Z" fill="currentColor"/>
<path d="M93.5507 15.2795H93.9381V18.1278H94.9293L95.9319 15.2795H96.342L95.2824 18.3101L96.5015 24.018H96.1027L94.9293 18.5038H93.9609V24.018H93.5735V15.2795H93.5507Z" fill="currentColor"/>
<path d="M100.479 22.8226C100.479 23.2214 100.388 23.529 100.217 23.7568C100.046 23.9847 99.7384 24.0986 99.3055 24.0986H99.0093C98.5763 24.0986 98.2687 23.9847 98.0864 23.7568C97.9041 23.529 97.813 23.2214 97.813 22.8226V16.4881C97.813 16.0893 97.9041 15.7703 98.0864 15.5425C98.2687 15.3146 98.5763 15.2007 99.0093 15.2007H99.3055C99.7384 15.2007 100.046 15.3146 100.217 15.5425C100.388 15.7703 100.479 16.0893 100.479 16.4881V22.8226ZM100.092 16.4083C100.092 16.1919 100.035 15.9982 99.9207 15.8273C99.8068 15.6564 99.6131 15.5767 99.3396 15.5767H98.9523C98.6788 15.5767 98.4852 15.6564 98.3713 15.8273C98.2573 15.9982 98.2003 16.1919 98.2003 16.4083V22.8796C98.2003 23.096 98.2573 23.2897 98.3713 23.4606C98.4852 23.6315 98.6788 23.7112 98.9523 23.7112H99.3396C99.6131 23.7112 99.8068 23.6315 99.9207 23.4606C100.035 23.2897 100.092 23.096 100.092 22.8796V16.4083Z" fill="currentColor"/>
<path d="M106.517 15.2794V24.0178H106.129V22.1038L106.163 15.6554H105.822L104.762 22.1038H103.999L102.939 15.6554H102.597L102.631 22.1038V24.0178H102.244V15.2794H103.247L104.295 21.7279H104.477L105.537 15.2794H106.528H106.517Z" fill="currentColor"/>
<path d="M110.8 15.2795V24.018H110.413V15.6555H108.715V24.018H108.328V15.2795H110.8Z" fill="currentColor"/>
<path d="M112.327 24.0178L113.341 15.2794H114.514L115.528 24.0178H115.13L114.913 22.1038H112.942L112.726 24.0178H112.327ZM112.976 21.7279H114.856L114.161 15.6554H113.671L112.965 21.7279H112.976Z" fill="currentColor"/>
<path d="M119.664 15.2794V24.0178H119.277V18.5036H117.408V24.0178H117.021V15.2794H117.408V18.1277H119.277V15.2794H119.664Z" fill="currentColor"/>
<path d="M124.073 24.0178H123.686V17.9568L121.863 19.7455V24.0178H121.476V15.2794H121.863V19.2556L123.686 17.4669V15.2794H124.073V24.0178Z" fill="currentColor"/>
<path d="M128.083 15.2799H128.471V24.0183H128.083V17.9573L126.26 19.746V24.0183H125.873V15.2799H126.26V19.2561L128.083 17.4674V15.2799ZM127.787 14.0381V14.4254H126.545V14.0381H127.787Z" fill="currentColor"/>



</g>

</symbol>
</svg>