<svg width="598" height="745" viewBox="0 0 598 745" fill="none" xmlns="http://www.w3.org/2000/svg">
<g opacity="0.15">
<path d="M224.826 308.89C224.826 308.89 230.841 305.02 238.79 299.86C239.864 299.215 240.401 298.785 240.616 298.677C255.332 289.218 255.117 289.433 256.299 288.465C262.1 284.058 272.089 276.103 277.783 262.666C280.468 256.431 281.327 250.842 281.649 247.294C282.401 231.815 278.212 223.107 274.023 217.948C270.585 213.755 268.222 213.218 265.644 208.595C258.877 196.771 264.57 183.011 262.959 182.581C261.025 182.044 258.877 201.286 244.59 210.96C240.186 213.97 238.145 213.648 234.815 217.195C229.552 222.892 232.023 226.547 226.222 237.62C223.214 243.209 221.281 244.929 221.281 249.014C221.281 252.991 223.322 254.389 223.537 258.366C223.644 261.269 222.892 265.354 218.273 270.513C208.713 279.221 205.276 287.068 203.879 292.765C203.127 296.205 203.557 296.85 202.375 300.612C200.334 307.6 199.153 314.157 194.534 320.392C192.385 323.187 187.337 329.959 180.569 329.959C177.454 329.959 177.454 328.561 174.661 328.776C168.431 329.099 162.523 336.624 159.945 340.924C159.086 342.428 158.334 344.148 156.401 345.116C154.252 346.191 152.856 345.116 150.385 346.406C149.418 346.943 149.526 347.158 146.948 349.201C146.948 349.201 145.229 350.598 143.296 351.996C139.536 354.791 134.809 355.328 133.95 355.543C130.19 356.51 127.29 369.625 130.835 423.051C134.917 502.491 138.999 581.93 143.081 661.37C140.395 664.165 137.817 666.853 135.132 669.647C129.331 586.768 123.531 503.996 117.623 421.116L119.127 371.882C117.945 371.452 116.548 370.593 115.689 369.195C114.508 367.045 115.474 364.895 115.689 363.283C116.656 356.511 106.559 354.146 105.27 346.083C103.981 338.129 112.252 328.561 112.252 328.561C114.615 325.982 118.375 322.757 123.745 321.252C127.827 320.177 129.009 321.252 134.273 320.177C136.743 319.747 147.592 317.812 149.418 311.685C150.17 309.212 148.559 308.675 148.881 304.912C149.418 300.182 152.319 298.462 154.037 294.485C156.401 289.218 154.574 284.595 154.037 280.511C153.071 272.126 157.904 268.793 176.917 238.909C183.255 228.912 186.477 223.752 187.874 220.42C190.13 215.153 191.741 209.24 196.682 201.393C198.186 198.921 199.582 196.986 200.549 195.696L220.851 161.405C222.677 156.137 226.115 148.72 232.56 141.948C235.89 138.4 236.856 138.4 239.649 135.498C248.995 125.501 245.235 118.298 251.68 109.699C260.596 97.8742 275.742 101.422 278.105 92.1768C279.609 86.0496 274.023 80.2448 276.279 78.4173C278.857 76.3749 288.309 82.0722 288.309 82.0722C293.143 81.7497 298.514 84.3296 302.811 82.2872C303.992 81.7497 304.637 81.3197 305.281 80.4598C307.645 77.0199 303.563 71.86 301.307 64.5503C300.233 61.2179 299.266 56.3806 299.695 50.1458C298.729 48.8558 297.225 46.7059 295.936 43.911C292.069 35.5263 293.143 29.0765 292.176 14.887C291.962 11.8771 291.639 7.3622 290.887 1.87989C292.714 1.12741 295.506 0.159948 298.836 0.267445C304.852 0.374941 307.215 3.59984 312.478 4.13732C318.064 4.6748 321.609 1.8799 324.832 0.697439C330.847 -1.45249 341.374 0.482442 361.031 19.2943C366.509 26.9266 372.095 31.2264 376.07 33.8063C385.307 39.8261 394.76 41.6536 394.653 45.5234C394.653 46.8134 393.471 47.7809 391.645 49.0708C383.482 54.4456 373.277 55.3056 366.724 55.3056C361.998 63.0453 362.32 66.3777 363.502 67.9902C365.22 70.3551 368.873 69.2801 370.054 71.7525C371.558 74.8699 366.832 78.4173 368.55 82.7172C369.302 84.8671 370.914 85.1896 370.699 86.0496C369.839 88.952 353.19 84.5446 350.612 89.167C349.537 90.9944 351.149 93.7893 352.76 96.0467C354.371 97.2292 356.412 99.1641 357.272 102.067C358.238 105.291 356.842 106.689 357.916 110.021C358.99 113.139 360.816 113.354 362.642 116.794C364.683 120.448 364.576 123.781 364.683 125.608C365.435 134.53 375.855 138.185 383.804 148.827C392.182 160.007 393.256 172.584 393.793 178.281C394.653 188.279 391.967 186.666 391.86 203.328C391.86 218.593 394.008 221.495 391.323 230.095C389.819 234.825 388.1 237.619 388.53 242.564C388.637 243.962 388.96 245.144 389.282 246.112C391.108 250.949 393.149 254.389 393.686 255.249C398.842 263.096 391.216 273.953 396.264 288.788C398.198 294.485 398.305 293.088 402.387 300.397C404.213 303.73 405.395 310.932 407.65 325.229C409.906 339.096 410.336 343.718 414.525 346.943C416.136 348.126 418.07 348.878 419.466 351.351C421.185 354.468 420.003 356.511 420.433 361.778C420.755 365.433 421.078 369.84 423.871 373.172C424.73 374.247 427.63 377.257 434.183 377.902C457.6 362.853 481.017 347.911 504.434 332.861C507.119 336.516 509.912 340.064 512.597 343.718C488.858 359.198 465.226 374.785 441.487 390.264C435.472 398.004 434.612 403.486 434.935 407.249C435.042 408.969 435.686 412.409 433.968 413.699C432.786 414.559 430.96 414.236 429.671 413.806C427.845 416.279 426.019 417.461 424.622 418.106C422.904 418.858 422.152 418.643 420.54 419.826C418.714 421.116 418.822 422.083 416.996 422.943C415.599 423.588 415.17 423.158 413.773 424.018C412.484 424.771 412.484 425.416 411.303 425.846C410.121 426.276 409.691 425.846 408.295 426.061C405.609 426.383 405.287 428.211 403.461 428.103C401.205 428.103 400.668 425.093 399.272 425.201C396.586 425.416 395.62 441.003 395.512 441.755C395.082 449.065 395.512 449.925 394.975 453.902C393.901 461.857 390.786 467.232 389.282 470.134C385.522 477.444 384.771 486.689 383.267 504.748C380.044 544.844 384.233 572.256 380.796 584.295C380.474 585.263 378.755 591.39 378.97 598.7C379.185 608.375 382.192 607.945 385.307 623.854C386.382 629.551 387.348 632.776 390.356 634.926C393.579 637.184 397.553 639.226 397.553 639.226C399.164 640.086 400.776 640.731 401.205 642.343C401.635 643.633 401.205 644.923 400.668 645.676C401.635 645.783 402.494 645.998 403.461 646.106C403.998 647.288 404.428 648.471 404.965 649.653C408.617 651.588 412.162 653.523 415.814 655.351C421.722 659.435 426.663 660.51 430.208 660.833C438.909 661.478 445.247 657.5 449.973 660.94C451.907 662.445 452.766 664.595 453.195 666.1C451.584 667.283 450.08 668.573 448.469 669.755C446.75 671.045 444.924 672.335 442.883 673.84C439.661 676.097 438.479 676.85 436.76 677.172C435.579 677.387 434.827 677.28 432.786 677.172C429.778 677.065 431.175 677.172 424.515 677.172C416.244 677.065 412.055 676.957 410.766 676.635C407.113 675.775 406.146 674.7 398.09 670.4C393.471 667.928 389.712 666.1 387.241 665.025C385.415 665.24 383.696 665.455 381.87 665.67L382.729 675.022L380.904 677.28C380.904 677.28 364.254 677.387 363.824 677.28C359.205 675.775 361.353 668.465 355.66 662.23C354.801 661.263 353.834 660.295 353.082 658.575C351.471 654.706 352.223 649.868 352.223 649.868C352.223 649.868 354.479 644.601 354.694 644.063C355.875 641.268 356.842 636.109 355.875 625.574C352.975 620.844 349.537 613.642 348.893 604.505C348.571 600.527 349.108 599.022 348.893 595.797C348.248 584.94 342.018 580.103 337.292 571.288C325.046 565.268 334.714 517.54 338.259 499.696C339.118 495.611 340.837 487.441 340.729 476.584C340.729 468.629 339.655 462.824 338.903 458.417C336.325 443.368 335.036 435.843 330.739 434.553C326.765 433.263 320.32 440.358 307.43 454.44C297.117 465.727 294.432 470.564 295.077 475.617C295.506 479.056 297.332 481.099 296.151 484.109C294.11 489.054 286.376 490.129 285.409 490.236C277.568 491.203 271.123 486.904 268.007 484.754C259.307 478.841 258.447 472.929 254.688 473.359C251.143 473.789 250.391 479.271 244.376 489.054C240.186 495.933 238.253 496.901 234.063 502.706C224.181 516.465 220.744 530.655 219.025 537.319C215.158 553.121 217.199 554.626 213.654 565.698C211.291 573.116 209.143 571.181 200.119 585.908C192.922 597.625 189.378 603.43 187.874 611.707C185.296 626.111 192.385 628.476 188.411 640.409C186.263 646.751 181.966 650.728 180.569 660.295C180.032 663.735 180.032 666.638 180.14 668.573C180.462 669.432 180.784 670.722 180.462 672.227C180.14 673.947 179.066 675.022 177.884 676.205C174.232 679.86 172.513 681.687 171.224 682.332C168.753 683.622 167.357 683.3 160.805 683.73C158.334 683.945 154.789 684.159 150.6 684.697C146.733 685.127 143.51 685.557 141.469 685.879C136.958 686.524 135.454 686.954 133.628 685.987C132.017 685.127 131.157 683.73 129.868 681.472C128.794 679.645 127.935 678.14 128.365 676.742C128.687 675.56 129.546 675.13 130.942 673.947C132.124 672.98 133.52 671.367 134.809 668.895C139.214 665.025 141.792 660.833 144.585 658.79C148.881 655.78 149.526 652.663 149.955 650.083C150.492 646.428 149.096 643.848 150.815 642.236C152.104 641.054 153.608 641.913 155.326 641.161C159.408 639.334 159.301 630.626 159.193 629.121C159.086 619.662 160.805 597.947 163.597 567.311C167.465 556.239 170.042 546.779 171.761 539.469C173.695 531.622 172.083 527.967 173.158 521.302C174.339 513.885 177.562 503.673 186.477 491.956C193.46 480.024 199.153 469.704 203.557 461.427C207.961 453.257 209.572 450.032 208.283 446.485C205.49 438.53 190.452 434.338 179.603 437.993C175.521 439.39 172.621 441.648 171.009 442.83C163.275 448.742 162.523 454.547 155.111 457.45C151.03 458.955 149.203 458.095 148.774 457.772C146.518 456.482 146.196 453.257 145.981 451.645C144.477 436.38 144.692 429.823 143.403 423.911C140.825 412.516 134.81 412.731 135.776 405.959C135.776 405.959 136.421 401.336 153.822 385.857C153.822 385.857 210.969 316.844 223.966 308.352L224.826 308.89Z" fill="#223642"/>
<path d="M52.4197 694.369C56.0719 693.294 59.6167 692.542 86.686 690.177C113.863 687.704 127.505 686.522 142.758 685.662C175.843 683.835 339.762 676.417 563.943 667.065C564.372 675.235 566.198 688.564 573.073 703.291C579.625 717.266 592.199 739.303 598 745C398.09 745 200.119 745 0 745C18.7981 708.774 39.9594 698.132 52.5272 694.369H52.4197Z" fill="#223642"/>
<path d="M481.555 301.581C484.133 299.324 486.603 297.066 489.181 294.702C501.642 304.591 513.995 314.481 526.455 324.478C529.57 327.918 532.685 331.465 535.693 334.905C538.701 344.365 541.709 353.825 544.716 363.284C540.527 366.187 536.338 368.982 532.148 371.884C522.051 359.307 511.739 345.762 501.427 331.035C494.337 321.038 487.785 311.149 481.662 301.474L481.555 301.581Z" fill="#223642"/>
</g>
</svg>
