<svg width="176" height="106" viewBox="0 0 176 106" fill="none" xmlns="http://www.w3.org/2000/svg">
<path d="M31.8968 44.4817C31.8968 44.4817 32.7497 43.9359 33.8767 43.2082C34.029 43.1172 34.1052 43.0566 34.1357 43.0414C36.2222 41.7072 36.1917 41.7376 36.3593 41.6011C37.1817 40.9795 38.5981 39.8576 39.4053 37.9624C39.7861 37.083 39.9079 36.2947 39.9536 35.7943C40.0602 33.6111 39.4662 32.383 38.8722 31.6553C38.3849 31.064 38.0498 30.9882 37.6843 30.3363C36.7248 28.6685 37.532 26.7279 37.3035 26.6672C37.0294 26.5914 36.7248 29.3053 34.6992 30.6698C34.0747 31.0943 33.7854 31.0489 33.3132 31.5492C32.567 32.3527 32.9172 32.8682 32.0948 34.4298C31.6684 35.2182 31.3942 35.4608 31.3942 36.0369C31.3942 36.5979 31.6836 36.795 31.7141 37.3559C31.7293 37.7653 31.6227 38.3414 30.9678 39.0692C29.6123 40.2972 29.1249 41.404 28.9269 42.2075C28.8203 42.6927 28.8812 42.7837 28.7137 43.3143C28.4243 44.2998 28.2568 45.2246 27.6019 46.104C27.2973 46.4982 26.5815 47.4534 25.622 47.4534C25.1803 47.4534 25.1803 47.2563 24.7843 47.2866C23.901 47.3321 23.0633 48.3933 22.6978 48.9998C22.5759 49.2121 22.4693 49.4546 22.1952 49.5911C21.8906 49.7427 21.6926 49.5911 21.3423 49.773C21.2052 49.8488 21.2205 49.8792 20.8549 50.1672C20.8549 50.1672 20.6113 50.3643 20.3371 50.5614C19.8041 50.9556 19.1339 51.0314 19.0121 51.0617C18.479 51.1982 18.0678 53.0479 18.5704 60.583C19.1491 71.7872 19.7279 82.9914 20.3066 94.1955C19.9259 94.5897 19.5604 94.9688 19.1796 95.363C18.3572 83.6736 17.5348 71.9994 16.6971 60.3101L16.9103 53.3662C16.7428 53.3056 16.5448 53.1843 16.4229 52.9872C16.2554 52.684 16.3925 52.3808 16.4229 52.1533C16.56 51.1982 15.1284 50.8646 14.9456 49.7275C14.7628 48.6056 15.9356 47.2563 15.9356 47.2563C16.2706 46.8924 16.8037 46.4375 17.5652 46.2253C18.1439 46.0737 18.3115 46.2253 19.0578 46.0737C19.4081 46.013 20.9463 45.7401 21.2052 44.8759C21.3118 44.5272 21.0834 44.4514 21.1291 43.9208C21.2052 43.2537 21.6164 43.0111 21.8601 42.4501C22.1952 41.7072 21.9363 41.0553 21.8601 40.4792C21.7231 39.2966 22.4084 38.8266 25.1041 34.6118C26.0027 33.2018 26.4596 32.474 26.6576 32.004C26.9775 31.2611 27.2059 30.4272 27.9065 29.3205C28.1197 28.9718 28.3177 28.6989 28.4548 28.5169L31.3333 23.6805C31.5922 22.9376 32.0796 21.8914 32.9934 20.9363C33.4655 20.436 33.6026 20.436 33.9986 20.0266C35.3236 18.6166 34.7906 17.6008 35.7044 16.3879C36.9685 14.7202 39.1159 15.2205 39.451 13.9166C39.6642 13.0524 38.8722 12.2337 39.1921 11.976C39.5576 11.6879 40.8978 12.4915 40.8978 12.4915C41.5832 12.446 42.3447 12.8098 42.9539 12.5218C43.1214 12.446 43.2128 12.3853 43.3042 12.264C43.6393 11.7789 43.0606 11.0511 42.7407 10.0202C42.5884 9.55017 42.4513 8.86792 42.5122 7.98856C42.3752 7.80663 42.162 7.5034 41.9792 7.10921C41.4309 5.92663 41.5832 5.01696 41.4461 3.01567C41.4157 2.59115 41.37 1.95438 41.2634 1.18115C41.5223 1.07503 41.9183 0.938575 42.3904 0.953736C43.2433 0.968897 43.5783 1.42374 44.3246 1.49954C45.1166 1.57535 45.6192 1.18116 46.0761 1.01438C46.929 0.711157 48.4216 0.984059 51.2087 3.63728C51.9854 4.71373 52.7774 5.32018 53.3409 5.68405C54.6507 6.53308 55.991 6.79083 55.9758 7.33663C55.9758 7.51857 55.8082 7.65502 55.5493 7.83695C54.3918 8.59502 52.9449 8.71631 52.0159 8.71631C51.3458 9.80792 51.3914 10.2779 51.559 10.5053C51.8026 10.8389 52.3205 10.6873 52.488 11.036C52.7012 11.4757 52.0311 11.976 52.2748 12.5824C52.3814 12.8857 52.6099 12.9311 52.5794 13.0524C52.4576 13.4618 50.0969 12.8402 49.7314 13.4921C49.5791 13.7498 49.8075 14.144 50.0359 14.4624C50.2644 14.6292 50.5538 14.9021 50.6756 15.3115C50.8127 15.7663 50.6147 15.9634 50.767 16.4334C50.9193 16.8731 51.1782 16.9034 51.4371 17.3886C51.7265 17.904 51.7113 18.374 51.7265 18.6318C51.8331 19.8902 53.3105 20.4056 54.4375 21.9066C55.6254 23.4834 55.7777 25.2573 55.8539 26.0608C55.9757 27.4708 55.595 27.2434 55.5798 29.5934C55.5798 31.7463 55.8844 32.1556 55.5036 33.3685C55.2904 34.0356 55.0467 34.4298 55.1076 35.1272C55.1229 35.3243 55.1686 35.4911 55.2142 35.6276C55.4732 36.3098 55.7625 36.795 55.8386 36.9163C56.5697 38.023 55.4884 39.5543 56.2042 41.6466C56.4783 42.4501 56.4936 42.253 57.0723 43.284C57.3312 43.754 57.4988 44.7698 57.8186 46.7863C58.1384 48.7421 58.1993 49.394 58.7933 49.8488C59.0218 50.0156 59.2959 50.1217 59.4939 50.4704C59.7376 50.9101 59.5701 51.1982 59.631 51.9411C59.6767 52.4566 59.7224 53.0782 60.1184 53.5482C60.2402 53.6998 60.6514 54.1243 61.5804 54.2153C64.9006 52.0927 68.2208 49.9853 71.541 47.8627C71.9218 48.3782 72.3177 48.8785 72.6985 49.394C69.3326 51.5772 65.982 53.7756 62.6161 55.9588C61.7632 57.0504 61.6414 57.8237 61.6871 58.3543C61.7023 58.5969 61.7936 59.082 61.55 59.264C61.3824 59.3853 61.1235 59.3398 60.9408 59.2791C60.6818 59.6278 60.4229 59.7946 60.2249 59.8856C59.9813 59.9917 59.8746 59.9614 59.6462 60.1282C59.3873 60.3101 59.4025 60.4466 59.1436 60.5678C58.9456 60.6588 58.8847 60.5982 58.6867 60.7195C58.504 60.8256 58.5039 60.9166 58.3364 60.9772C58.1689 61.0378 58.108 60.9772 57.91 61.0075C57.5292 61.053 57.4835 61.3107 57.2246 61.2956C56.9048 61.2956 56.8286 60.8711 56.6306 60.8862C56.2499 60.9166 56.1128 63.1149 56.0976 63.2211C56.0367 64.252 56.0976 64.3733 56.0214 64.9343C55.8691 66.0562 55.4275 66.8143 55.2142 67.2236C54.6812 68.2546 54.5746 69.5585 54.3614 72.1056C53.9044 77.7607 54.4984 81.6268 54.011 83.3249C53.9654 83.4614 53.7217 84.3255 53.7521 85.3565C53.7826 86.721 54.209 86.6604 54.6507 88.9043C54.803 89.7078 54.9401 90.1626 55.3665 90.4659C55.8234 90.7843 56.387 91.0723 56.387 91.0723C56.6154 91.1936 56.8438 91.2846 56.9048 91.512C56.9657 91.6939 56.9048 91.8759 56.8286 91.982C56.9657 91.9972 57.0875 92.0275 57.2246 92.0426C57.3007 92.2094 57.3617 92.3762 57.4378 92.543C57.9557 92.8159 58.4583 93.0888 58.9761 93.3465C59.8138 93.9226 60.5143 94.0742 61.0169 94.1197C62.2506 94.2107 63.1492 93.6497 63.8193 94.1349C64.0934 94.3472 64.2153 94.6504 64.2762 94.8626C64.0477 95.0294 63.8345 95.2113 63.606 95.3781C63.3624 95.5601 63.1035 95.742 62.8141 95.9543C62.3572 96.2726 62.1896 96.3788 61.946 96.4242C61.7784 96.4546 61.6718 96.4394 61.3825 96.4242C60.956 96.4091 61.154 96.4242 60.2097 96.4242C59.037 96.4091 58.443 96.3939 58.2603 96.3484C57.7425 96.2271 57.6053 96.0755 56.4631 95.4691C55.8082 95.1204 55.2752 94.8626 54.9249 94.711C54.666 94.7413 54.4223 94.7717 54.1634 94.802L54.2852 96.121L54.0263 96.4394C54.0263 96.4394 51.6656 96.4546 51.6046 96.4394C50.9498 96.2271 51.2544 95.1962 50.4472 94.3168C50.3253 94.1804 50.1882 94.0439 50.0816 93.8013C49.8532 93.2555 49.9598 92.5733 49.9598 92.5733C49.9598 92.5733 50.2797 91.8304 50.3101 91.7546C50.4777 91.3604 50.6147 90.6326 50.4776 89.1468C50.0664 88.4797 49.5791 87.4639 49.4877 86.1752C49.442 85.6143 49.5181 85.402 49.4877 84.9472C49.3963 83.4159 48.5129 82.7336 47.8428 81.4904C46.1066 80.6414 47.4773 73.9098 47.9799 71.393C48.1017 70.8169 48.3454 69.6646 48.3302 68.1333C48.3302 67.0114 48.1779 66.1927 48.0713 65.5711C47.7058 63.4485 47.523 62.3872 46.9138 62.2053C46.3503 62.0233 45.4364 63.024 43.6088 65.0101C42.1467 66.602 41.766 67.2843 41.8573 67.9969C41.9183 68.482 42.1772 68.7701 42.0097 69.1946C41.7203 69.892 40.6237 70.0436 40.4866 70.0588C39.3748 70.1953 38.461 69.5888 38.0194 69.2856C36.7857 68.4517 36.6639 67.6178 36.1308 67.6785C35.6282 67.7391 35.5216 68.5124 34.6687 69.892C34.0747 70.8624 33.8006 70.9988 33.2066 71.8175C31.8054 73.7581 31.3181 75.7594 31.0744 76.6994C30.5261 78.9281 30.8155 79.1404 30.3129 80.702C29.9778 81.7481 29.6732 81.4752 28.3939 83.5523C27.3734 85.2049 26.8708 86.0236 26.6576 87.191C26.2921 89.2226 27.2973 89.5562 26.7338 91.2391C26.4292 92.1336 25.82 92.6946 25.622 94.0439C25.5458 94.5291 25.5458 94.9384 25.561 95.2113C25.6067 95.3326 25.6524 95.5146 25.6067 95.7268C25.561 95.9694 25.4088 96.121 25.2412 96.2878C24.7234 96.8033 24.4797 97.061 24.2969 97.152C23.9466 97.3339 23.7487 97.2884 22.8196 97.3491C22.4693 97.3794 21.9667 97.4097 21.3727 97.4855C20.8245 97.5462 20.3676 97.6068 20.0782 97.6523C19.4385 97.7433 19.2253 97.8039 18.9664 97.6675C18.7379 97.5462 18.6161 97.3491 18.4333 97.0307C18.281 96.773 18.1592 96.5607 18.2201 96.3636C18.2658 96.1968 18.3876 96.1362 18.5856 95.9694C18.7532 95.833 18.9511 95.6055 19.1339 95.2568C19.7583 94.711 20.1239 94.1197 20.5199 93.8317C21.1291 93.4072 21.2205 92.9675 21.2814 92.6036C21.3575 92.0881 21.1595 91.7243 21.4032 91.4968C21.586 91.3301 21.7992 91.4514 22.0429 91.3452C22.6216 91.0875 22.6064 89.8594 22.5912 89.6472C22.5759 88.313 22.8196 85.2504 23.2156 80.9294C23.7639 79.3678 24.1294 78.0336 24.3731 77.0027C24.6472 75.8959 24.4188 75.3804 24.5711 74.4404C24.7386 73.3943 25.1955 71.954 26.4596 70.3014C27.4496 68.6185 28.2568 67.163 28.8812 65.9956C29.5057 64.8433 29.7341 64.3885 29.5514 63.8882C29.1554 62.7662 27.0231 62.1749 25.4849 62.6904C24.9061 62.8875 24.495 63.2059 24.2665 63.3727C23.1699 64.2065 23.0633 65.0253 22.0124 65.4346C21.4337 65.6469 21.1748 65.5256 21.1138 65.4801C20.794 65.2982 20.7483 64.8433 20.7179 64.6159C20.5046 62.463 20.5351 61.5382 20.3523 60.7043C19.9868 59.0972 19.1339 59.1275 19.271 58.1724C19.271 58.1724 19.3624 57.5204 21.8297 55.3372C21.8297 55.3372 29.9321 45.6037 31.775 44.4059L31.8968 44.4817Z" fill="#375A64"/>
<path d="M7.45233 98.849C7.97016 98.6974 8.47276 98.5913 12.3108 98.2577C16.164 97.909 18.0982 97.7422 20.2609 97.621C24.9518 97.3632 48.1931 96.3171 79.9785 94.998C80.0394 96.1503 80.2983 98.0303 81.273 100.107C82.2021 102.078 83.4053 103.428 84.2277 104.231C56.1585 104.823 28.0892 105.414 0.0200195 105.99C2.6853 100.881 5.68565 99.3797 7.46758 98.849H7.45233Z" fill="#375A64"/>
<path d="M68.2974 43.4508C68.6629 43.1324 69.0132 42.814 69.3787 42.4805C71.1454 43.8753 72.8969 45.2701 74.6636 46.6801C75.1052 47.1653 75.5469 47.6656 75.9733 48.1508C76.3998 49.485 76.8263 50.8192 77.2527 52.1534C76.6587 52.5627 76.0647 52.9569 75.4708 53.3663C74.0391 51.5924 72.5771 49.6821 71.115 47.605C70.1098 46.195 69.1807 44.8001 68.3126 43.4356L68.2974 43.4508Z" fill="#375A64"/>
<path d="M105.369 39.0234V43.3899H98.0279V78.3366H93.5807V43.3899H86.2397V39.0234H105.384H105.369Z" fill="#375A64"/>
<path d="M126.417 59.8247C126.417 60.9163 126.249 61.8563 125.929 62.6295C125.594 63.4028 125.152 64.0244 124.574 64.4944C123.995 64.9644 123.325 65.3131 122.578 65.5405C121.832 65.7679 121.025 65.874 120.172 65.874H116.06V78.3366H111.613V39.0234H120.172C121.284 39.0234 122.243 39.1902 123.035 39.5086C123.827 39.827 124.467 40.2667 124.97 40.8125C125.472 41.3583 125.838 41.995 126.066 42.7379C126.295 43.4809 126.417 44.2541 126.417 45.0879V59.8095V59.8247ZM121.908 45.1031C121.908 44.6483 121.787 44.2541 121.528 43.9205C121.269 43.587 120.827 43.405 120.172 43.405H116.06V61.5379H120.172C120.675 61.5379 121.086 61.4166 121.421 61.1741C121.741 60.9315 121.908 60.4918 121.908 59.8399V45.1183V45.1031Z" fill="#375A64"/>
<path d="M145.043 73.3016C144.769 74.7419 144.145 75.9396 143.17 76.8948C142.18 77.8651 140.764 78.3351 138.921 78.3351H135.799V73.9687H138.921C139.423 73.9687 139.804 73.8626 140.078 73.6351C140.353 73.4077 140.52 73.15 140.596 72.8467L141.921 65.8271H137.931L131.687 39.0371H136.256L141.114 61.4758H142.683L146.841 39.0371H151.349L145.043 73.3167V73.3016Z" fill="#375A64"/>
<path d="M175.184 73.9853V83.5521H172.123L171.255 78.3366H157.426L157.015 83.5521H153.436V73.9853H156.04C156.847 73.4547 157.274 72.5905 157.319 71.3776L158.644 39.0234H172.123V73.9702H175.184V73.9853ZM167.661 73.9853V43.3899H162.924L161.706 71.5444C161.629 72.5298 161.325 73.3334 160.777 73.9853H167.661Z" fill="#375A64"/>
<path d="M90.2122 21.6956H87.7449V32.824H87.2271V21.1953H90.2122V21.6956Z" fill="#375A64"/>
<path d="M93.8981 21.1953C94.4768 21.1953 94.888 21.3469 95.1317 21.6502C95.3754 21.9534 95.4972 22.3779 95.4972 22.9085V27.9269C95.4972 28.4576 95.3754 28.8821 95.1317 29.1853C94.888 29.4885 94.4768 29.6401 93.8981 29.6401H92.6492V32.8392H92.1313V21.2105H93.8981V21.1953ZM94.9794 22.8024C94.9794 22.5143 94.9032 22.2566 94.7509 22.0292C94.5986 21.8018 94.3397 21.6956 93.9742 21.6956H92.6492V29.1095H93.9742C94.3397 29.1095 94.5986 29.0034 94.7509 28.7759C94.9032 28.5637 94.9794 28.3059 94.9794 28.0179V22.8024Z" fill="#375A64"/>
<path d="M101.618 21.1953L100.217 31.5353C100.156 31.9447 100.003 32.2479 99.7597 32.4753C99.5161 32.7027 99.1353 32.824 98.6327 32.824H98.1758V32.3237H98.7088C99.0287 32.3237 99.2724 32.2327 99.4247 32.0659C99.577 31.8992 99.6684 31.6869 99.714 31.4443L100.019 29.1247H98.6936L97.46 21.1953H97.993L99.1353 28.6243H100.095L101.085 21.1953H101.618Z" fill="#375A64"/>
<path d="M106.905 21.1953V32.824H106.387V21.6956H104.118V32.824H103.6V21.1953H106.905Z" fill="#375A64"/>
<path d="M112.632 21.1953V32.824H112.114V21.6956H109.845V32.824H109.327V21.1953H112.632Z" fill="#375A64"/>
<path d="M114.671 32.824L116.027 21.1953H117.596L118.951 32.824H118.418L118.129 30.2769H115.494L115.204 32.824H114.671ZM115.54 29.7766H118.052L117.123 21.6956H116.469L115.524 29.7766H115.54Z" fill="#375A64"/>
<path d="M123.872 21.1953H124.389V24.9856H125.714L127.055 21.1953H127.603L126.187 25.2282L127.816 32.824H127.283L125.714 25.486H124.42V32.824H123.902V21.1953H123.872Z" fill="#375A64"/>
<path d="M133.13 31.2327C133.13 31.7634 133.008 32.1727 132.78 32.476C132.551 32.7792 132.14 32.9308 131.561 32.9308H131.165C130.586 32.9308 130.175 32.7792 129.931 32.476C129.688 32.1727 129.566 31.7634 129.566 31.2327V22.8031C129.566 22.2724 129.688 21.8479 129.931 21.5447C130.175 21.2415 130.586 21.0898 131.165 21.0898H131.561C132.14 21.0898 132.551 21.2415 132.78 21.5447C133.008 21.8479 133.13 22.2724 133.13 22.8031V31.2327ZM132.612 22.6969C132.612 22.4089 132.536 22.1511 132.384 21.9237C132.231 21.6963 131.972 21.5902 131.607 21.5902H131.089C130.723 21.5902 130.465 21.6963 130.312 21.9237C130.16 22.1511 130.084 22.4089 130.084 22.6969V31.3085C130.084 31.5966 130.16 31.8543 130.312 32.0818C130.465 32.3092 130.723 32.4153 131.089 32.4153H131.607C131.972 32.4153 132.231 32.3092 132.384 32.0818C132.536 31.8543 132.612 31.5966 132.612 31.3085V22.6969Z" fill="#375A64"/>
<path d="M141.203 21.1953V32.824H140.685V30.2769L140.73 21.6956H140.273L138.857 30.2769H137.837L136.42 21.6956H135.963L136.009 30.2769V32.824H135.491V21.1953H136.831L138.233 29.7766H138.476L139.893 21.1953H141.218H141.203Z" fill="#375A64"/>
<path d="M146.929 21.1953V32.824H146.411V21.6956H144.141V32.824H143.624V21.1953H146.929Z" fill="#375A64"/>
<path d="M148.97 32.824L150.326 21.1953H151.894L153.25 32.824H152.717L152.427 30.2769H149.793L149.503 32.824H148.97ZM149.838 29.7766H152.351L151.422 21.6956H150.767L149.823 29.7766H149.838Z" fill="#375A64"/>
<path d="M158.779 21.1953V32.824H158.261V25.486H155.763V32.824H155.245V21.1953H155.763V24.9856H158.261V21.1953H158.779Z" fill="#375A64"/>
<path d="M164.673 32.824H164.155V24.7582L161.718 27.1385V32.824H161.2V21.1953H161.718V26.4866L164.155 24.1063V21.1953H164.673V32.824Z" fill="#375A64"/>
<path d="M170.033 21.1955H170.551V32.8242H170.033V24.7584L167.596 27.1388V32.8242H167.079V21.1955H167.596V26.4868L170.033 24.1065V21.1955ZM169.637 19.543V20.0584H167.977V19.543H169.637Z" fill="#375A64"/>
</svg>
