<svg style="width:0; height:0; visibility: hidden;" xmlns="http://www.w3.org/2000/svg">

    <!-- youtube -->
	<symbol id="svg-youtube" viewBox="0 0 49 35">
		<g>
			<path d="M19.6 25L32.3155 17.5L19.6 10V25ZM47.922 5.425C48.2405 6.6 48.461 8.175 48.608 10.175C48.7795 12.175 48.853 13.9 48.853 15.4L49 17.5C49 22.975 48.608 27 47.922 29.575C47.3095 31.825 45.8885 33.275 43.6835 33.9C42.532 34.225 40.425 34.45 37.191 34.6C34.006 34.775 31.0905 34.85 28.3955 34.85L24.5 35C14.2345 35 7.84 34.6 5.3165 33.9C3.1115 33.275 1.6905 31.825 1.078 29.575C0.7595 28.4 0.539 26.825 0.392 24.825C0.2205 22.825 0.147 21.1 0.147 19.6L0 17.5C0 12.025 0.392 8 1.078 5.425C1.6905 3.175 3.1115 1.725 5.3165 1.1C6.468 0.775 8.575 0.55 11.809 0.4C14.994 0.225 17.9095 0.15 20.6045 0.15L24.5 0C34.7655 0 41.16 0.4 43.6835 1.1C45.8885 1.725 47.3095 3.175 47.922 5.425Z" fill="currentColor" />
		</g>
	</symbol>

    <!-- close -->
	<symbol id="svg-close" viewBox="0 0 40 40">
		<g>
			<path fill-rule="evenodd" clip-rule="evenodd" d="M1.49829 1.49842C1.89673 1.10047 2.43683 0.876953 2.99996 0.876953C3.56309 0.876953 4.10319 1.10047 4.50163 1.49842L38.5016 35.4984C38.7104 35.693 38.8779 35.9276 38.994 36.1882C39.1101 36.4489 39.1726 36.7303 39.1776 37.0156C39.1827 37.3009 39.1302 37.5843 39.0233 37.8489C38.9164 38.1135 38.7574 38.3539 38.5556 38.5557C38.3538 38.7575 38.1134 38.9166 37.8488 39.0234C37.5842 39.1303 37.3008 39.1828 37.0155 39.1778C36.7302 39.1727 36.4488 39.1103 36.1881 38.9941C35.9274 38.878 35.6928 38.7105 35.4983 38.5018L1.49829 4.50175C1.10035 4.10331 0.876831 3.56321 0.876831 3.00008C0.876831 2.43696 1.10035 1.89685 1.49829 1.49842Z" fill="currentColor" />
			<path fill-rule="evenodd" clip-rule="evenodd" d="M38.5016 1.49842C38.8996 1.89685 39.1231 2.43696 39.1231 3.00008C39.1231 3.56321 38.8996 4.10331 38.5016 4.50175L4.50164 38.5018C4.09881 38.8771 3.56601 39.0815 3.01549 39.0717C2.46497 39.062 1.93971 38.839 1.55038 38.4497C1.16104 38.0603 0.938023 37.5351 0.92831 36.9846C0.918596 36.434 1.12294 35.9012 1.4983 35.4984L35.4983 1.49842C35.8967 1.10047 36.4368 0.876953 37 0.876953C37.5631 0.876953 38.1032 1.10047 38.5016 1.49842Z" fill="currentColor" />
		</g>
	</symbol>

    <!-- mail -->
	<symbol id="svg-mail" viewBox="0 0 21 18">
		<g>
			<path d="M18.9 0.499512H2.1C0.945 0.499512 0.0105 1.45576 0.0105 2.62451L0 15.3745C0 16.5433 0.945 17.4995 2.1 17.4995H18.9C20.055 17.4995 21 16.5433 21 15.3745V2.62451C21 1.45576 20.055 0.499512 18.9 0.499512ZM18.9 4.74951L10.5 10.062L2.1 4.74951V2.62451L10.5 7.93701L18.9 2.62451V4.74951Z" fill="currentColor" />
		</g>
	</symbol>


    <!-- mail-mob -->
	<symbol id="svg-mail-mob" viewBox="0 0 25 22">
		<g>
  <path d="M0.138184 0.875L10.5716 9.11282C11.4918 9.83738 12.7846 9.83738 13.7048 9.11282L24.1382 0.875H0.138184Z" fill="#DED9D9" />
  <path d="M10.5716 11.6391L0.138184 3.40132V21.0855H24.1382V3.40132L13.7048 11.6391C12.7846 12.3637 11.4918 12.3637 10.5716 11.6391Z" fill="currentColor" />
		</g>
	</symbol>

    <!-- clock -->
	<symbol id="svg-clock" viewBox="0 0 23 23">
		<g>
			<path d="M11.5 -0.000488281C9.9898 -0.000488281 8.49438 0.296968 7.09914 0.874897C5.7039 1.45283 4.43615 2.29991 3.36827 3.36778C1.2116 5.52445 0 8.44952 0 11.4995C0 14.5495 1.2116 17.4746 3.36827 19.6312C4.43615 20.6991 5.7039 21.5462 7.09914 22.1241C8.49438 22.7021 9.9898 22.9995 11.5 22.9995C14.55 22.9995 17.4751 21.7879 19.6317 19.6312C21.7884 17.4746 23 14.5495 23 11.4995C23 9.98931 22.7025 8.4939 22.1246 7.09865C21.5467 5.70341 20.6996 4.43566 19.6317 3.36778C18.5639 2.29991 17.2961 1.45283 15.9009 0.874897C14.5056 0.296968 13.0102 -0.000488281 11.5 -0.000488281ZM16.33 16.3295L10.35 12.6495V5.74951H12.075V11.7295L17.25 14.8345L16.33 16.3295Z" fill="currentColor" />
		</g>
	</symbol>

    <!-- pin -->
	<symbol id="svg-pin" viewBox="0 0 16 23">
		<g>
			<path d="M8 10.9245C7.24224 10.9245 6.51551 10.6216 5.9797 10.0824C5.44388 9.54328 5.14286 8.81201 5.14286 8.04951C5.14286 7.28701 5.44388 6.55575 5.9797 6.01658C6.51551 5.47741 7.24224 5.17451 8 5.17451C8.75776 5.17451 9.48449 5.47741 10.0203 6.01658C10.5561 6.55575 10.8571 7.28701 10.8571 8.04951C10.8571 8.42706 10.7832 8.80092 10.6397 9.14973C10.4961 9.49854 10.2856 9.81548 10.0203 10.0824C9.755 10.3494 9.44003 10.5612 9.09338 10.7057C8.74674 10.8501 8.37521 10.9245 8 10.9245ZM8 -0.000488281C5.87827 -0.000488281 3.84344 0.847634 2.34315 2.3573C0.842855 3.86697 0 5.91452 0 8.04951C0 14.087 8 22.9995 8 22.9995C8 22.9995 16 14.087 16 8.04951C16 5.91452 15.1571 3.86697 13.6569 2.3573C12.1566 0.847634 10.1217 -0.000488281 8 -0.000488281Z" fill="currentColor" />
		</g>
	</symbol>

	<!-- phone -->
	<symbol id="svg-phone" viewBox="0 0 21 21">
		<g>
		<path fill-rule="evenodd" clip-rule="evenodd" d="M15.551 20.1325C14.111 20.0795 10.03 19.5155 5.75602 15.2425C1.48302 10.9685 0.920023 6.88848 0.866023 5.44748C0.786023 3.25148 2.46802 1.11848 4.41102 0.285483C4.645 0.18445 4.90122 0.145984 5.15455 0.173859C5.40788 0.201734 5.64961 0.294992 5.85602 0.444483C7.45602 1.61048 8.56002 3.37448 9.50802 4.76148C9.71661 5.06621 9.80579 5.43703 9.75858 5.80328C9.71137 6.16953 9.53107 6.50561 9.25202 6.74748L7.30102 8.19648C7.20677 8.26455 7.14042 8.36451 7.1143 8.47781C7.08818 8.5911 7.10407 8.71002 7.15902 8.81248C7.60102 9.61548 8.38702 10.8115 9.28702 11.7115C10.188 12.6115 11.44 13.4495 12.299 13.9415C12.4067 14.0019 12.5335 14.0188 12.6533 13.9887C12.7731 13.9586 12.8767 13.8837 12.943 13.7795L14.213 11.8465C14.4465 11.5363 14.7909 11.3286 15.1742 11.2667C15.5575 11.2048 15.9498 11.2936 16.269 11.5145C17.676 12.4885 19.318 13.5735 20.52 15.1125C20.6817 15.3204 20.7845 15.5679 20.8177 15.8291C20.851 16.0904 20.8134 16.3557 20.709 16.5975C19.872 18.5505 17.754 20.2135 15.551 20.1325Z" fill="currentColor" />
		</g>
	</symbol>

	<!-- search -->
	<symbol id="svg-search" viewBox="0 0 20 20">
		<g>
			<path d="M17.7699 19.3999L11.19 12.8199C10.6678 13.2377 10.0673 13.5685 9.38837 13.8122C8.70949 14.0559 7.98709 14.1777 7.22118 14.1777C5.32379 14.1777 3.71815 13.5204 2.40426 12.2058C1.09036 10.8912 0.433069 9.28559 0.432373 7.3889C0.432373 5.49152 1.08967 3.88588 2.40426 2.57198C3.71885 1.25809 5.32449 0.600794 7.22118 0.600098C9.11856 0.600098 10.7246 1.25739 12.0391 2.57198C13.3537 3.88658 14.0107 5.49222 14.01 7.3889C14.01 8.15482 13.8881 8.87722 13.6444 9.5561C13.4007 10.235 13.07 10.8355 12.6522 11.3577L19.2321 17.9377L17.7699 19.3999ZM7.22118 12.0888C8.52672 12.0888 9.6366 11.6321 10.5508 10.7186C11.4651 9.80502 11.9218 8.69514 11.9211 7.3889C11.9211 6.08336 11.4644 4.97383 10.5508 4.0603C9.6373 3.14677 8.52741 2.68966 7.22118 2.68896C5.91564 2.68896 4.8061 3.14607 3.89258 4.0603C2.97905 4.97453 2.52193 6.08406 2.52124 7.3889C2.52124 8.69444 2.97835 9.80433 3.89258 10.7186C4.8068 11.6328 5.91634 12.0895 7.22118 12.0888Z" fill="currentColor" />
		</g>
	</symbol>

		<!-- search-mob -->
	<symbol id="svg-search-mob" viewBox="0 0 23 25">
		<g>
  <path fill-rule="evenodd" clip-rule="evenodd" d="M15.2428 19.0042C13.3 20.4978 10.8881 21.1701 8.49039 20.8865C6.09266 20.6029 3.88616 19.3843 2.31293 17.4749C0.739708 15.5654 -0.0840409 13.1062 0.00671414 10.5897C0.0974692 8.0733 1.09603 5.68559 2.80233 3.90495C4.50864 2.12431 6.79667 1.08225 9.20805 0.987539C11.6194 0.89283 13.976 1.75247 15.8058 3.39423C17.6355 5.03599 18.8032 7.33862 19.075 9.84081C19.3467 12.343 18.7024 14.8599 17.2712 16.8874L22.5431 22.387C22.6842 22.5241 22.7973 22.6895 22.8757 22.8732C22.9541 23.0569 22.9963 23.2552 22.9997 23.4563C23.0031 23.6574 22.9677 23.8572 22.8955 24.0437C22.8233 24.2302 22.7159 24.3996 22.5796 24.5418C22.4433 24.684 22.281 24.7961 22.1023 24.8715C21.9235 24.9468 21.7321 24.9838 21.5394 24.9802C21.3467 24.9767 21.1567 24.9327 20.9806 24.8508C20.8046 24.769 20.6461 24.6509 20.5147 24.5038L15.2428 19.0042ZM16.2666 10.9644C16.2666 12.8181 15.5609 14.5959 14.3049 15.9066C13.0489 17.2174 11.3453 17.9538 9.56901 17.9538C7.79271 17.9538 6.08915 17.2174 4.83312 15.9066C3.57708 14.5959 2.87145 12.8181 2.87145 10.9644C2.87145 9.11073 3.57708 7.33296 4.83312 6.02221C6.08915 4.71145 7.79271 3.97508 9.56901 3.97508C11.3453 3.97508 13.0489 4.71145 14.3049 6.02221C15.5609 7.33296 16.2666 9.11073 16.2666 10.9644Z" fill="currentColor" />
		</g>
	</symbol>

	<!-- group -->
	<symbol id="svg-group" viewBox="0 0 54 46">
	<g opacity="0.5">
    <path fill-rule="evenodd" clip-rule="evenodd" d="M36.0471 9.86338C36.0471 14.9041 31.9712 18.9904 26.9434 18.9904C21.9155 18.9904 17.8396 14.9041 17.8396 9.86338C17.8396 4.82265 21.9155 0.736328 26.9434 0.736328C31.9712 0.736328 36.0471 4.82265 36.0471 9.86338ZM35.0242 9.86338C35.0242 14.3377 31.4063 17.9649 26.9434 17.9649C22.4805 17.9649 18.8625 14.3377 18.8625 9.86338C18.8625 5.38902 22.4805 1.76184 26.9434 1.76184C31.4063 1.76184 35.0242 5.38902 35.0242 9.86338Z" fill="#393A5A" />
    <path fill-rule="evenodd" clip-rule="evenodd" d="M14.771 28.6302C14.771 24.3824 18.2057 20.9389 22.4427 20.9389H31.4441C35.6811 20.9389 39.1158 24.3824 39.1158 28.6302V43.8078C39.1158 44.6574 38.4288 45.3461 37.5815 45.3461H16.3053C15.4579 45.3461 14.771 44.6574 14.771 43.8078V28.6302ZM15.7939 28.6302C15.7939 24.9488 18.7706 21.9644 22.4427 21.9644H31.4441C35.1161 21.9644 38.0929 24.9488 38.0929 28.6302V43.8078C38.0929 44.091 37.8639 44.3205 37.5815 44.3205H16.3053C16.0228 44.3205 15.7939 44.091 15.7939 43.8078V28.6302Z" fill="#393A5A" />
    <path fill-rule="evenodd" clip-rule="evenodd" d="M42.8493 22.8874C46.6061 22.8874 49.6516 19.8341 49.6516 16.0677C49.6516 12.3013 46.6061 9.24807 42.8493 9.24807C39.0926 9.24807 36.0471 12.3013 36.0471 16.0677C36.0471 19.8341 39.0926 22.8874 42.8493 22.8874ZM42.8493 21.8619C46.0412 21.8619 48.6287 19.2677 48.6287 16.0677C48.6287 12.8677 46.0412 10.2736 42.8493 10.2736C39.6575 10.2736 37.07 12.8677 37.07 16.0677C37.07 19.2677 39.6575 21.8619 42.8493 21.8619Z" fill="#393A5A" />
    <path fill-rule="evenodd" clip-rule="evenodd" d="M17.7374 16.0677C17.7374 19.8341 14.6919 22.8874 10.9351 22.8874C7.17836 22.8874 4.1329 19.8341 4.1329 16.0677C4.1329 12.3013 7.17836 9.24807 10.9351 9.24807C14.6919 9.24807 17.7374 12.3013 17.7374 16.0677ZM16.7145 16.0677C16.7145 19.2677 14.127 21.8619 10.9351 21.8619C7.74328 21.8619 5.15579 19.2677 5.15579 16.0677C5.15579 12.8677 7.74328 10.2736 10.9351 10.2736C14.127 10.2736 16.7145 12.8677 16.7145 16.0677Z" fill="#393A5A" />
    <path fill-rule="evenodd" clip-rule="evenodd" d="M0.245907 32.5272C0.245907 27.9962 3.90962 24.3231 8.42904 24.3231H13.3146L12.8586 25.0967C12.6954 25.3736 12.2649 26.5008 12.2649 28.3226V43.6027C12.2649 44.4518 12.427 45.0183 12.4813 45.1488L12.7763 45.8588H5.36037C2.53573 45.8588 0.245907 43.5631 0.245907 40.7313V32.5272ZM8.42904 25.3486C4.47455 25.3486 1.2688 28.5626 1.2688 32.5272V40.7313C1.2688 42.9968 3.10066 44.8333 5.36037 44.8333H11.3472C11.2873 44.5015 11.242 44.0838 11.242 43.6027V28.3226C11.242 27.0369 11.4398 26.0252 11.6548 25.3486H8.42904Z" fill="#393A5A" />
    <path fill-rule="evenodd" clip-rule="evenodd" d="M45.4577 24.3231C49.9771 24.3231 53.6408 27.9962 53.6408 32.5272V40.7313C53.6408 43.5631 51.351 45.8588 48.5264 45.8588H41.1104L41.4055 45.1488C41.4598 45.0183 41.6219 44.4518 41.6219 43.6027V28.3226C41.6219 26.5008 41.1913 25.3736 41.0281 25.0967L40.5722 24.3231H45.4577ZM52.618 32.5272C52.618 28.5626 49.4122 25.3486 45.4577 25.3486H42.2319C42.447 26.0252 42.6448 27.0369 42.6448 28.3226V43.6027C42.6448 44.0838 42.5994 44.5015 42.5396 44.8333H48.5264C50.7861 44.8333 52.618 42.9968 52.618 40.7313V32.5272Z" fill="#393A5A" />
  </g>
  	</symbol>

		<!-- wallet -->
	<symbol id="svg-wallet" viewBox="0 0 44 46">
  <g opacity="0.5">
    <path fill-rule="evenodd" clip-rule="evenodd" d="M36.1178 6.6708C36.1178 9.94833 33.4925 12.6053 30.254 12.6053C27.0155 12.6053 24.3902 9.94833 24.3902 6.6708C24.3902 3.39328 27.0155 0.736328 30.254 0.736328C33.4925 0.736328 36.1178 3.39328 36.1178 6.6708ZM35.1068 6.6708C35.1068 9.38324 32.9341 11.5821 30.254 11.5821C27.5739 11.5821 25.4012 9.38324 25.4012 6.6708C25.4012 3.95837 27.5739 1.75951 30.254 1.75951C32.9341 1.75951 35.1068 3.95837 35.1068 6.6708Z" fill="#393A5A" />
    <path d="M26.0583 31.2273C26.6446 31.2273 27.1199 30.7463 27.1199 30.1529C27.1199 29.5596 26.6446 29.0786 26.0583 29.0786C25.4721 29.0786 24.9968 29.5596 24.9968 30.1529C24.9968 30.7463 25.4721 31.2273 26.0583 31.2273Z" fill="#393A5A" />
    <path fill-rule="evenodd" clip-rule="evenodd" d="M20.0903 14.3447C20.2567 13.7946 20.3462 13.2105 20.3462 12.6053C20.3462 9.32776 17.7209 6.6708 14.4824 6.6708C11.2439 6.6708 8.6186 9.32776 8.6186 12.6053C8.6186 13.2105 8.70812 13.7946 8.8745 14.3447H5.99C2.91902 14.3447 0.429504 16.8642 0.429504 19.9722V40.2313C0.429504 43.3393 2.91902 45.8588 5.99 45.8588H37.7354C40.8064 45.8588 43.2959 43.3393 43.2959 40.2313V19.9722C43.2959 16.8642 40.8063 14.3447 37.7354 14.3447H20.0903ZM14.4824 7.69399C11.8023 7.69399 9.6296 9.89285 9.6296 12.6053C9.6296 13.1997 9.73352 13.7679 9.92362 14.2935H19.0412C19.2313 13.7679 19.3352 13.1997 19.3352 12.6053C19.3352 9.89285 17.1625 7.69399 14.4824 7.69399ZM36.0347 15.3679H37.7354C40.248 15.3679 42.2849 17.4293 42.2849 19.9722V25.0881H38.7464V20.4838C38.7464 18.3485 37.6691 16.4677 36.0347 15.3679ZM26.21 26.1113H42.2849V34.0922H26.21C24.0324 34.0922 22.2671 32.3056 22.2671 30.1018C22.2671 27.8979 24.0324 26.1113 26.21 26.1113ZM42.2849 40.2313V35.1154H38.7464V39.6174C38.7464 41.8205 37.5997 43.7526 35.8774 44.8356H37.7354C40.248 44.8356 42.2849 42.7742 42.2849 40.2313ZM26.21 35.1154H37.7354V39.6174C37.7354 42.4428 35.4722 44.7333 32.6804 44.7333H6.4955C3.7037 44.7333 1.4405 42.4428 1.4405 39.6174V20.4838C1.4405 17.6584 3.7037 15.3679 6.4955 15.3679H32.6804C35.4722 15.3679 37.7354 17.6584 37.7354 20.4838V25.0881H26.21C23.474 25.0881 21.2561 27.3328 21.2561 30.1018C21.2561 32.8707 23.474 35.1154 26.21 35.1154Z" fill="#393A5A" />
    <path d="M37.9376 3.60125C37.9376 3.03616 38.3902 2.57806 38.9486 2.57806C39.5069 2.57806 39.9596 3.03616 39.9596 3.60125V11.5821C39.9596 12.1472 39.5069 12.6053 38.9486 12.6053C38.3902 12.6053 37.9376 12.1472 37.9376 11.5821V3.60125Z" fill="#393A5A" />
    <path d="M21.3572 1.6572C20.7988 1.6572 20.3462 2.11529 20.3462 2.68038V7.1824C20.3462 7.74749 20.7988 8.20558 21.3572 8.20558C21.9155 8.20558 22.3682 7.74749 22.3682 7.1824V2.68038C22.3682 2.11529 21.9155 1.6572 21.3572 1.6572Z" fill="#393A5A" />
  </g>
  	</symbol>

	<!-- hands -->
	<symbol id="svg-hands" viewBox="0 0 53 46">
	<g opacity="0.5">
  <path fill-rule="evenodd" clip-rule="evenodd" d="M22.7065 5.86064C18.2319 1.40597 10.8866 0.808192 5.92195 5.75074C3.38902 8.27242 2.06044 11.1654 2.16217 14.229C2.25876 17.1379 3.64906 20.3248 6.76372 23.6083L7.59008 22.7857C9.19845 21.1844 11.6726 21.0411 13.425 22.7857C14.2933 23.6501 14.6707 24.8545 14.6057 26.0978C15.6718 25.2868 16.7604 25.018 17.77 25.1185C18.9554 25.2365 19.9261 25.8525 20.5418 26.4656C21.8539 27.7718 22.5361 30.5135 20.2108 32.8284L20.1311 32.9078C21.2946 32.9318 22.2422 33.486 22.9693 34.2099C24.4657 35.6997 24.7319 38.0627 23.4606 39.832C24.1968 40.5978 25.3524 41.7801 26.3246 42.7134C27.0918 43.4499 27.8398 44.0378 28.5814 44.2426C28.9321 44.3394 29.2755 44.3483 29.6288 44.2444C29.9872 44.139 30.4035 43.9032 30.8716 43.4372C32.159 42.1555 31.8956 40.5057 31.5327 39.6896C30.2427 38.8145 28.8132 37.4251 27.1752 35.7944L28.2656 34.7043C30.0121 36.4431 31.3796 37.7581 32.5538 38.5176C33.3084 39.0057 33.896 39.2049 34.3826 39.1982C34.8388 39.1919 35.3264 39.0022 35.892 38.4391C36.6957 37.639 36.9047 36.8692 36.892 36.2547C36.8794 35.643 36.6451 35.1344 36.4445 34.8583C36.4071 34.8232 36.3701 34.7874 36.3333 34.7508L32.637 31.0709L33.7273 29.9808L34.3291 30.5799C34.3677 30.6183 34.3029 30.5538 34.3415 30.5923L37.4237 33.6607C37.4623 33.6992 37.5012 33.7362 37.5403 33.7719C38.788 34.9106 40.3167 34.6992 41.1519 33.8892C41.5659 33.4877 41.817 32.9343 41.791 32.2836C41.7647 31.629 41.4529 30.7965 40.5875 29.8745C40.5325 29.8159 40.4753 29.757 40.4159 29.6978C37.2595 26.5555 32.3404 21.5636 29.8105 18.9874L27.107 21.6788C26.2816 22.5006 25.2222 22.9689 24.0133 22.8547C22.8297 22.7429 21.624 22.0841 20.4445 20.9099C19.1753 19.6463 18.8259 18.2922 19.0813 17.0211C19.3242 15.8118 20.0919 14.7883 20.8307 14.0527L25.8829 9.02298L22.7065 5.86064ZM26.9756 7.93518L23.7968 4.77054C18.7823 -0.221676 10.4595 -0.942274 4.83161 4.66064C2.06827 7.4117 0.50046 10.6977 0.619411 14.28C0.732148 17.6751 2.35584 21.2117 5.67073 24.6965L4.61093 25.7516C3.18442 27.1717 2.68176 29.6995 4.39025 31.4004C5.08913 32.0962 6.11413 32.9373 7.61547 32.9021C7.85523 32.8965 8.10107 32.8687 8.3537 32.817C8.22865 33.1572 8.15602 33.5149 8.14973 33.8908C8.13109 35.004 8.69682 36.0723 9.7417 37.1125C10.9026 38.2682 12.2399 38.5429 13.518 38.244C13.6451 38.2143 13.7711 38.179 13.8958 38.1388C13.7881 38.6353 13.7739 39.1142 13.8312 39.5679C13.9905 40.8284 14.6858 41.76 15.1483 42.2205L15.1523 42.2244C15.5505 42.6209 16.3738 43.4406 17.7705 43.4134C19.0063 43.3892 20.5035 42.7083 22.4007 40.9542C23.1479 41.7305 24.2863 42.8938 25.2543 43.8231C26.0319 44.5696 27.0217 45.4098 28.1696 45.7268C28.7638 45.8908 29.4031 45.9163 30.0652 45.7215C30.7223 45.5283 31.3541 45.1324 31.9619 44.5274C33.2303 43.2646 33.4728 41.7843 33.3414 40.5886C33.6914 40.6892 34.0456 40.743 34.404 40.738C35.3583 40.7248 36.2093 40.2988 36.9823 39.5292C38.0764 38.44 38.4569 37.2681 38.4353 36.2231C38.4336 36.1377 38.4291 36.0535 38.4223 35.9706C39.829 36.3331 41.2684 35.924 42.2278 34.9934C42.9385 34.3042 43.3779 33.3338 43.3333 32.2221C43.2964 31.3003 42.9301 30.3362 42.2004 29.3911L47.5197 24.0955C49.1463 22.4761 51.2751 19.7093 52.1151 16.4293C52.9702 13.091 52.4728 9.26227 48.8989 5.70425C45.3887 2.20964 41.6343 1.01885 38.2638 1.20322C34.9204 1.3861 32.0147 2.91843 30.1544 4.77054L26.9756 7.93518ZM41.1543 28.257L46.4293 23.0054C47.9474 21.494 49.8736 18.9607 50.6196 16.048C51.3507 13.1936 50.9653 9.9371 47.8086 6.79435C44.5881 3.5882 41.2532 2.58202 38.3483 2.74092C35.4161 2.90132 32.86 4.25251 31.2447 5.86064L21.9211 15.1429C21.2806 15.7805 20.7518 16.542 20.5948 17.3237C20.4502 18.0436 20.5973 18.8864 21.5349 19.8198C22.5622 20.8426 23.4529 21.2548 24.1589 21.3215C24.8396 21.3858 25.4628 21.1401 26.0167 20.5887L29.8233 16.799L30.3684 17.3547C32.5891 19.6186 37.746 24.8568 41.1543 28.257ZM15.6448 35.1985L19.1205 31.7383C20.7674 30.0987 20.2359 28.3366 19.4515 27.5557C19.0191 27.1252 18.3623 26.7251 17.6167 26.6509C16.9085 26.5804 16.0127 26.792 15.0249 27.7754L10.6665 32.1144C9.99094 32.787 9.70217 33.3759 9.69312 33.9165C9.68417 34.451 9.94598 35.1403 10.832 36.0224C11.6021 36.7891 12.3888 36.9263 13.1657 36.7446C13.9984 36.5499 14.8694 35.9705 15.6448 35.1985ZM16.7352 36.2887C15.4702 37.548 15.266 38.6104 15.3627 39.3753C15.4654 40.1882 15.9287 40.8219 16.2386 41.1304C16.6143 41.5044 17.0315 41.8875 17.7403 41.8736C18.4938 41.8589 19.8012 41.3865 21.879 39.3179C23.0511 38.151 22.9716 36.3878 21.879 35.3C21.2959 34.7195 20.6461 34.4025 19.8962 34.4522C19.1212 34.5037 18.0731 34.9567 16.7352 36.2887ZM11.783 28.8273C13.3879 27.2295 13.3871 24.9235 12.3346 23.8758C11.2182 22.7643 9.72018 22.8406 8.68042 23.8758L5.70127 26.8417C4.70033 27.8382 4.54096 29.3748 5.48059 30.3103C6.10578 30.9327 6.73587 31.3823 7.57924 31.3625C8.45438 31.342 9.79103 30.8104 11.783 28.8273Z" fill="#393A5A" />
    </g>
  	</symbol>

	<!-- one -->
	<symbol id="svg-one" viewBox="0 0 73 174">
		<g>
  <path opacity="0.61" d="M73 0V174H41.5812V30.6709H40.565L0 56.669V27.7822L43.1056 0H73Z" fill="#F2F2F2" />
   </g>
  	</symbol>

	<!-- two -->
	<symbol id="svg-two" viewBox="0 0 118 173">
		<g>
  <path d="M1 173V150.667L60.25 92.5833C65.9167 86.8611 70.6389 81.7778 74.4167 77.3333C78.1945 72.8889 81.0278 68.5833 82.9167 64.4167C84.8056 60.25 85.75 55.8056 85.75 51.0833C85.75 45.6944 84.5278 41.0833 82.0833 37.25C79.6389 33.3611 76.2778 30.3611 72 28.25C67.7222 26.1389 62.8611 25.0833 57.4167 25.0833C51.8056 25.0833 46.8889 26.25 42.6667 28.5833C38.4444 30.8611 35.1667 34.1111 32.8333 38.3333C30.5556 42.5556 29.4167 47.5833 29.4167 53.4167H0C0 42.5833 2.47222 33.1667 7.41667 25.1667C12.3611 17.1667 19.1667 10.9722 27.8333 6.58334C36.5556 2.19445 46.5556 0 57.8333 0C69.2778 0 79.3333 2.13889 88 6.41667C96.6667 10.6944 103.389 16.5556 108.167 24C113 31.4444 115.417 39.9444 115.417 49.5C115.417 55.8889 114.194 62.1667 111.75 68.3333C109.306 74.5 105 81.3333 98.8333 88.8333C92.7222 96.3333 84.1389 105.417 73.0833 116.083L43.6667 146V147.167H118V173H1Z" fill="#F2F2F2" />
   </g>
  	</symbol>

		<!-- three -->
	<symbol id="svg-three" viewBox="0 0 125 175">
		<g>
  <path d="M62.2923 175C50.3481 175 39.731 172.948 30.4411 168.845C21.2065 164.742 13.9072 159.03 8.54342 151.711C3.17959 144.392 0.331783 135.936 0 126.343H31.1876C31.4641 130.945 32.9848 134.965 35.7496 138.403C38.5145 141.785 42.1918 144.419 46.7814 146.305C51.3711 148.19 56.5137 149.133 62.2093 149.133C68.292 149.133 73.6835 148.079 78.3838 145.972C83.084 143.809 86.7613 140.815 89.4156 136.989C92.0698 133.163 93.3693 128.755 93.314 123.764C93.3693 118.607 92.0422 114.061 89.3326 110.124C86.623 106.187 82.6969 103.109 77.5543 100.891C72.467 98.6732 66.329 97.5642 59.1403 97.5642H44.1272V73.7761H59.1403C65.0571 73.7761 70.2274 72.7503 74.6512 70.6987C79.1303 68.647 82.6416 65.7636 85.1853 62.0485C87.729 58.2779 88.9732 53.9251 88.9179 48.99C88.9732 44.1659 87.8949 39.9794 85.683 36.4306C83.5264 32.8264 80.4574 30.0261 76.476 28.0299C72.5499 26.0337 67.9326 25.0356 62.6241 25.0356C57.4261 25.0356 52.6153 25.9783 48.1915 27.8636C43.7677 29.7489 40.2011 32.4382 37.4915 35.9316C34.7819 39.3695 33.3442 43.4727 33.1783 48.2414H3.56667C3.78786 38.7041 6.52507 30.3311 11.7783 23.1226C17.0868 15.8587 24.1649 10.2028 33.0124 6.15495C41.86 2.05165 51.7858 0 62.79 0C74.1259 0 83.9688 2.13482 92.3186 6.40447C100.724 10.6187 107.221 16.3023 111.811 23.4553C116.401 30.6084 118.695 38.51 118.695 47.1602C118.751 56.753 115.931 64.7933 110.235 71.2809C104.595 77.7685 97.1848 82.0105 88.0055 84.0067V85.3374C99.9497 87.0009 109.101 91.4369 115.461 98.6454C121.875 105.798 125.055 114.698 124.999 125.345C124.999 134.882 122.29 143.421 116.871 150.962C111.507 158.448 104.097 164.326 94.6411 168.596C85.2406 172.865 74.4577 175 62.2923 175Z" fill="#F2F2F2" />
   </g>
  	</symbol>

	<!-- four -->
	<symbol id="svg-four" viewBox="0 0 135 174">
		<g>
			<path d="M0 141.715V116.651L73.6441 0H94.4915V35.6836H81.7797L32.2034 114.442V115.802H135V141.715H0ZM82.7966 174V134.068L83.1356 122.854V0H112.797V174H82.7966Z" fill="#F2F2F2" />
        </g>
  	</symbol>

	<!-- people -->
	<symbol id="svg-people" viewBox="0 0 100 99">
  <g opacity="0.3">
    <path d="M49.7019 43.004C57.8272 43.004 64.4141 36.3493 64.4141 28.1403C64.4141 19.9313 57.8272 13.2766 49.7019 13.2766C41.5765 13.2766 34.9897 19.9313 34.9897 28.1403C34.9897 36.3493 41.5765 43.004 49.7019 43.004Z" fill="#2D4351" />
    <path d="M27.3867 29.6265H28.8703V28.2666C28.8793 24.3122 29.9696 20.4393 32.018 17.086C34.0663 13.7327 36.9908 11.0328 40.4608 9.29169C39.4335 6.87101 37.7847 4.7802 35.6893 3.24134C33.594 1.70248 31.1304 0.773037 28.5603 0.551719C25.9902 0.330401 23.4094 0.825476 21.0922 1.98436C18.775 3.14325 16.8078 4.92267 15.3995 7.13363C13.9913 9.3446 13.1946 11.9045 13.0941 14.5416C12.9936 17.1786 13.593 19.7943 14.8287 22.1107C16.0644 24.4272 17.8902 26.358 20.1122 27.698C22.3341 29.038 24.8694 29.7372 27.4485 29.7213L27.3867 29.6265ZM70.5961 28.1401V29.5H72.0797C74.6245 29.4738 77.1154 28.7462 79.2902 27.3937C81.4649 26.0412 83.2431 24.1139 84.4375 21.8145C85.632 19.5152 86.1985 16.9288 86.0775 14.3278C85.9565 11.7268 85.1524 9.20722 83.7499 7.03435C82.3474 4.86148 80.3983 3.11566 78.1078 1.98065C75.8174 0.845645 73.2702 0.363426 70.7344 0.584755C68.1987 0.806084 65.7682 1.72277 63.6987 3.23834C61.6292 4.7539 59.9973 6.81228 58.9747 9.19682C62.4458 10.9311 65.3736 13.6242 67.4272 16.9717C69.4809 20.3192 70.5785 24.1878 70.5961 28.1401ZM62.9618 44.4902C69.1072 45.7347 75.0491 47.8642 80.6103 50.8151C81.3938 51.2555 82.1034 51.8214 82.7121 52.4912H99.1551V41.6755C99.1581 41.2607 99.0503 40.8529 98.8433 40.4962C98.6363 40.1395 98.338 39.8474 97.9806 39.6515C89.9697 35.3642 81.0584 33.139 72.0179 33.1685H69.978C68.9068 37.6235 66.4433 41.5988 62.9618 44.4902ZM14.2508 58.6265C14.2452 57.0337 14.6655 55.4698 15.4664 54.104C16.2673 52.7383 17.4181 51.6228 18.7943 50.8784C24.3555 47.9275 30.2974 45.798 36.4428 44.5534C32.9782 41.6867 30.5162 37.7472 29.4266 33.3266H27.3867C18.3462 33.2971 9.43488 35.5224 1.42399 39.8097C1.06659 40.0056 0.76829 40.2976 0.561296 40.6543C0.354303 41.011 0.246483 41.4188 0.249481 41.8337V62.0419H14.2508V58.6265ZM60.3965 76.874H78.8176V81.3015H60.3965V76.874Z" fill="#2D4351" />
    <path d="M95.4767 59.7018H74.2429V56.5393C74.2429 55.7006 73.9173 54.8962 73.3377 54.3031C72.758 53.71 71.9719 53.3769 71.1521 53.3769C70.3324 53.3769 69.5463 53.71 68.9666 54.3031C68.387 54.8962 68.0613 55.7006 68.0613 56.5393V59.7018H62.0652V50.752C57.9987 49.8783 53.857 49.4227 49.702 49.3921C39.9467 49.3506 30.3308 51.7614 21.6993 56.4128C21.3149 56.6169 20.993 56.9258 20.7694 57.3053C20.5458 57.6848 20.429 58.1202 20.4321 58.5633V76.3049H42.4077V95.5644C42.4077 96.4031 42.7333 97.2075 43.313 97.8006C43.8926 98.3937 44.6788 98.7269 45.4985 98.7269H95.4767C96.2965 98.7269 97.0826 98.3937 97.6623 97.8006C98.2419 97.2075 98.5676 96.4031 98.5676 95.5644V62.8643C98.5676 62.0256 98.2419 61.2212 97.6623 60.6281C97.0826 60.035 96.2965 59.7018 95.4767 59.7018ZM92.3859 92.4652H48.5893V66.0268H68.0613V68.9047C68.0613 69.7434 68.387 70.5478 68.9666 71.1409C69.5463 71.734 70.3324 72.0671 71.1521 72.0671C71.9719 72.0671 72.758 71.734 73.3377 71.1409C73.9173 70.5478 74.2429 69.7434 74.2429 68.9047V66.0268H92.3859V92.4652Z" fill="#2D4351" />
    </g>
  	</symbol>

	<!-- world-->
	<symbol id="svg-world" viewBox="0 0 116 97">
    <g opacity="0.3">
    <path d="M65.0543 77.2735C63.9987 73.9501 60.9536 71.4991 57.3402 71.4991H53.2802V59.0365C53.2802 57.9348 52.8524 56.8781 52.091 56.0991C51.3296 55.32 50.2969 54.8823 49.2201 54.8823H24.8599V46.5739H32.98C34.0568 46.5739 35.0894 46.1363 35.8509 45.3572C36.6123 44.5781 37.04 43.5215 37.04 42.4197V34.1113H45.1601C47.3137 34.1113 49.379 33.236 50.9018 31.6779C52.4247 30.1197 53.2802 28.0065 53.2802 25.8029V24.0997C58.1379 26.1036 62.4487 29.282 65.8437 33.3629C69.2386 37.4438 71.6165 42.3057 72.7738 47.5324C73.9311 52.759 73.8334 58.1948 72.489 63.3744C71.1446 68.5539 68.5936 73.3231 65.0543 77.2735ZM37.04 87.8252C21.0029 85.7896 8.61974 71.8315 8.61974 54.8823C8.61974 52.3067 8.94455 49.8142 9.47235 47.4463L16.0016 62.4354L28.9199 67.3449V71.4991C28.9199 73.7027 29.7754 75.8159 31.2983 77.3741C32.8211 78.9322 34.8864 79.8075 37.04 79.8075M41.1 13.3403C35.7683 13.3403 30.4888 14.4148 25.563 16.5025C20.6371 18.5902 16.1613 21.6502 12.3912 25.5077C4.77719 33.2983 0.499664 43.8647 0.499664 54.8823C0.499664 65.9 4.77719 76.4663 12.3912 84.257C16.1613 88.1145 20.6371 91.1745 25.563 93.2622C30.4888 95.3498 35.7683 96.4243 41.1 96.4243C51.8679 96.4243 62.1948 92.0476 69.8089 84.257C77.4229 76.4663 81.7004 65.9 81.7004 54.8823C81.7004 49.427 80.6503 44.025 78.6099 38.9849C76.5696 33.9448 73.5789 29.3652 69.8089 25.5077C66.0388 21.6502 61.563 18.5902 56.6371 16.5025C51.7113 14.4148 46.4318 13.3403 41.1 13.3403Z" fill="#2D4351" />
    <path d="M83.3844 17.2024C88.7709 18.2142 93.7094 21.4948 96.6612 26.7347C102.015 36.2383 98.8292 48.3673 89.541 53.845L92.7703 59.5775C105.149 52.2774 109.398 36.096 102.264 23.4306C98.419 16.6052 92.059 12.2298 85.0754 10.7637L87.4822 1.59991L72.5389 10.4127L81.1519 25.7026L83.3844 17.2024Z" fill="#2D4351" />
    </g>
  	</symbol>

		<!-- security-->
	<symbol id="svg-security" viewBox="0 0 92 71">
    <g opacity="0.3">
  <path d="M41.083 0.265625C38.2943 0.265625 36.0413 2.50698 36.0413 5.28125V21.2529C36.0413 22.1306 35.3323 22.8359 34.4501 22.8359C33.8829 22.8359 33.3472 22.5381 33.0636 22.0366L25.5011 8.88623C13.8265 14.6072 5.79133 26.5663 5.79133 40.3906V50.4219H86.458V40.0145C86.3162 26.3469 78.3126 14.5602 66.7482 8.88623L59.1857 22.0366C58.9021 22.5381 58.3665 22.8359 57.7993 22.8359C56.917 22.8359 56.208 22.1306 56.208 21.2529V5.28125C56.208 2.50698 53.955 0.265625 51.1663 0.265625H41.083ZM3.36503 55.4375C1.91555 55.4375 0.749664 56.5974 0.749664 58.0394C0.749664 58.776 1.06477 59.4813 1.66347 59.9045C5.08235 62.3967 18.364 70.4844 46.1247 70.4844C73.8853 70.4844 87.167 62.3967 90.5859 59.9045C91.1846 59.4657 91.4997 58.776 91.4997 58.0394C91.4997 56.5974 90.3338 55.4375 88.8843 55.4375H3.36503Z" fill="#2D4351" />
    </g>
  	</symbol>

	<!-- calculator-->
	<symbol id="svg-calculator" viewBox="0 0 73 90">
    <g opacity="0.3">
  <path opacity="0.8" d="M65.726 0.75H7.52598C3.52473 0.75 0.250977 4.08817 0.250977 8.16815V82.3496C0.250977 86.4296 3.52473 89.7678 7.52598 89.7678H65.726C69.7272 89.7678 73.001 86.4296 73.001 82.3496V8.16815C73.001 4.08817 69.7272 0.75 65.726 0.75ZM22.076 74.9315C22.076 76.9715 20.4391 78.6405 18.4385 78.6405H11.1635C9.16285 78.6405 7.52598 76.9715 7.52598 74.9315V73.0769C7.52598 71.0369 9.16285 69.3679 11.1635 69.3679H18.4385C20.4391 69.3679 22.076 71.0369 22.076 73.0769V74.9315ZM22.076 60.0952C22.076 62.1352 20.4391 63.8042 18.4385 63.8042H11.1635C9.16285 63.8042 7.52598 62.1352 7.52598 60.0952V58.2406C7.52598 56.2006 9.16285 54.5316 11.1635 54.5316H18.4385C20.4391 54.5316 22.076 56.2006 22.076 58.2406V60.0952ZM22.076 45.2589C22.076 47.2989 20.4391 48.968 18.4385 48.968H11.1635C9.16285 48.968 7.52598 47.2989 7.52598 45.2589V43.4043C7.52598 41.3644 9.16285 39.6953 11.1635 39.6953H18.4385C20.4391 39.6953 22.076 41.3644 22.076 43.4043V45.2589ZM43.901 74.9315C43.901 76.9715 42.2641 78.6405 40.2635 78.6405H32.9885C30.9879 78.6405 29.351 76.9715 29.351 74.9315V73.0769C29.351 71.0369 30.9879 69.3679 32.9885 69.3679H40.2635C42.2641 69.3679 43.901 71.0369 43.901 73.0769V74.9315ZM43.901 60.0952C43.901 62.1352 42.2641 63.8042 40.2635 63.8042H32.9885C30.9879 63.8042 29.351 62.1352 29.351 60.0952V58.2406C29.351 56.2006 30.9879 54.5316 32.9885 54.5316H40.2635C42.2641 54.5316 43.901 56.2006 43.901 58.2406V60.0952ZM43.901 45.2589C43.901 47.2989 42.2641 48.968 40.2635 48.968H32.9885C30.9879 48.968 29.351 47.2989 29.351 45.2589V43.4043C29.351 41.3644 30.9879 39.6953 32.9885 39.6953H40.2635C42.2641 39.6953 43.901 41.3644 43.901 43.4043V45.2589ZM65.726 74.9315C65.726 76.9715 64.0891 78.6405 62.0885 78.6405H54.8135C52.8129 78.6405 51.176 76.9715 51.176 74.9315V73.0769C51.176 71.0369 52.8129 69.3679 54.8135 69.3679H62.0885C64.0891 69.3679 65.726 71.0369 65.726 73.0769V74.9315ZM65.726 60.0952C65.726 62.1352 64.0891 63.8042 62.0885 63.8042H54.8135C52.8129 63.8042 51.176 62.1352 51.176 60.0952V58.2406C51.176 56.2006 52.8129 54.5316 54.8135 54.5316H62.0885C64.0891 54.5316 65.726 56.2006 65.726 58.2406V60.0952ZM65.726 45.2589C65.726 47.2989 64.0891 48.968 62.0885 48.968H54.8135C52.8129 48.968 51.176 47.2989 51.176 45.2589V43.4043C51.176 41.3644 52.8129 39.6953 54.8135 39.6953H62.0885C64.0891 39.6953 65.726 41.3644 65.726 43.4043V45.2589ZM65.726 28.5681C65.726 30.608 64.0891 32.2771 62.0885 32.2771H11.1635C9.16285 32.2771 7.52598 30.608 7.52598 28.5681V13.7318C7.52598 11.6918 9.16285 10.0227 11.1635 10.0227H62.0885C64.0891 10.0227 65.726 11.6918 65.726 13.7318V28.5681Z" fill="#2D4351" />
    </g>
  	</symbol>

	<!-- scales-->
	<symbol id="svg-scales" viewBox="0 0 100 80">
	<g opacity="0.3">
  <path d="M0.835077 43.7717C1.23747 46.9223 2.7456 49.8154 5.07815 51.9114C7.41069 54.0074 10.4084 55.1632 13.512 55.1632C16.6157 55.1632 19.6134 54.0074 21.9459 51.9114C24.2785 49.8154 25.7866 46.9223 26.189 43.7717H0.835077ZM69.9113 70.1209C69.9121 70.3873 69.8616 70.6512 69.7627 70.8976C69.6638 71.144 69.5184 71.368 69.3349 71.5568C69.1514 71.7456 68.9333 71.8955 68.6932 71.998C68.453 72.1005 68.1955 72.1535 67.9353 72.154H30.9964C29.9114 72.154 29.0164 71.2419 29.0164 70.1209C29.019 69.5855 29.2289 69.0729 29.6001 68.6956C29.9712 68.3183 30.4734 68.107 30.9964 68.1081H67.9333C69.0263 68.1081 69.9113 69.0081 69.9113 70.1209ZM29.2322 73.1899H69.6975V79.0419H29.2322V73.1899ZM73.313 43.7717C73.7126 46.9244 75.2194 49.8203 77.552 51.9189C79.8847 54.0174 82.8836 55.1751 85.9889 55.1757C89.0938 55.1758 92.0925 54.0182 94.4243 51.9194C96.7561 49.8206 98.2615 46.9242 98.659 43.7717H73.313ZM97.962 39.6994L87.5809 25.0603H93.1308C94.4812 25.0603 95.5682 23.9272 95.5682 22.5265C95.5682 21.138 94.4792 20.0171 93.1308 20.0171H63.7318C62.8591 17.5561 61.3686 15.3739 59.4103 13.69C57.4519 12.0062 55.0949 10.8801 52.5764 10.4252V2.52592C52.5764 1.12119 51.4756 0.000251569 50.1113 0.000251569L49.8817 0.0266028L49.652 0.000251569C49.3281 -0.000554616 49.0072 0.0642682 48.7078 0.190984C48.4085 0.317701 48.1366 0.503806 47.9078 0.738576C47.6791 0.973347 47.4979 1.25214 47.3749 1.5589C47.2518 1.86565 47.1893 2.19431 47.1908 2.52592V10.4212C44.6727 10.8758 42.316 12.0017 40.3583 13.6857C38.4006 15.3696 36.911 17.552 36.0395 20.013H6.6345C5.29404 20.013 4.20108 21.134 4.20108 22.5225C4.20108 23.9252 5.29404 25.0562 6.6345 25.0562H11.931L1.54788 39.6954H0.250977V42.3994H26.779V39.6954H25.4762L15.097 25.0603H39.1916C39.1916 24.4887 39.253 23.9272 39.3362 23.39C39.4213 23.1367 39.4787 22.8792 39.4787 22.6137C39.9251 20.6879 40.8809 18.9252 42.2413 17.5189C43.6017 16.1126 45.3142 15.117 47.1908 14.6414V42.4055H47.0879C46.876 52.8487 42.023 61.9561 34.8238 67.0743H64.9475C57.7462 61.9561 52.8972 52.8487 52.6735 42.4055H52.5784V14.6414C54.4548 15.1171 56.167 16.1128 57.5271 17.5191C58.8871 18.9254 59.8426 20.6881 60.2885 22.6137C60.2965 22.8792 60.3499 23.1367 60.437 23.39C60.5162 23.9292 60.5657 24.4887 60.5657 25.0603H84.4089L74.0258 39.6994H72.7309V42.4035H99.251V39.6994H97.962ZM12.4577 39.6994H4.17138L12.4577 28.0137V39.6994ZM14.5783 39.6994V28.0137L22.8646 39.6994H14.5783ZM84.9316 39.6994H76.6414L84.9316 28.0137V39.6994ZM87.0423 39.6994V28.0137L95.3385 39.6994H87.0423ZM15.9742 16.4941C15.956 17.1497 15.6888 17.7722 15.2294 18.2294C14.7701 18.6865 14.1547 18.9422 13.514 18.9422C12.8734 18.9422 12.258 18.6865 11.7986 18.2294C11.3392 17.7722 11.072 17.1497 11.0539 16.4941C11.0539 15.1036 12.1587 13.9684 13.519 13.9684C14.8733 13.9664 15.9742 15.1036 15.9742 16.4941ZM88.4501 16.3603C88.4501 17.761 87.3492 18.8718 85.9909 18.8718C85.6679 18.874 85.3477 18.8105 85.0487 18.6851C84.7498 18.5597 84.4782 18.3749 84.2495 18.1414C84.0208 17.9078 83.8396 17.6301 83.7164 17.3244C83.5932 17.0187 83.5304 16.691 83.5318 16.3603C83.5185 16.0212 83.5722 15.6829 83.6898 15.3655C83.8074 15.0482 83.9864 14.7585 84.2161 14.5138C84.4457 14.269 84.7213 14.0743 85.0263 13.9413C85.3313 13.8083 85.6594 13.7397 85.9909 13.7397C86.3224 13.7397 86.6505 13.8083 86.9555 13.9413C87.2605 14.0743 87.5361 14.269 87.7658 14.5138C87.9954 14.7585 88.1744 15.0482 88.292 15.3655C88.4096 15.6829 88.4634 16.0212 88.4501 16.3603Z" fill="#2D4351" />
    </g>
  	</symbol>

		<!-- house-->
	<symbol id="svg-house" viewBox="0 0 87 89">
	<g opacity="0.3">
  <path d="M43.126 35.3001C43.126 35.3001 60.376 31.7701 60.376 24.7101C60.376 21.1801 56.926 14.1201 56.926 10.59C56.926 7.06003 60.376 3.53001 60.376 3.53001L56.926 0C54.9422 1.14725 52.441 1.76501 50.026 1.76501C47.611 1.76501 45.1097 1.10313 43.126 0C41.1422 1.10313 38.641 1.76501 36.226 1.76501C33.811 1.76501 31.3097 1.14725 29.326 0L25.876 3.53001C25.876 3.53001 29.326 7.06003 29.326 10.59C29.326 14.1201 25.876 21.1801 25.876 24.7101C25.876 31.7701 43.126 35.3001 43.126 35.3001ZM40.6679 14.6496L43.126 8.82504L45.4979 14.6496L51.751 15.1791L46.9641 19.3268L48.3872 25.5044L43.126 22.2391L37.7785 25.5044L39.2016 19.3268L34.501 15.1791L40.6679 14.6496ZM81.9385 17.6501H63.1791C63.9985 20.2093 64.6885 22.5921 64.6885 24.7101C64.6885 34.6383 48.8185 38.6537 43.9885 39.7127H42.2635C37.4335 38.6537 21.5635 34.6383 21.5635 24.7101C21.5635 22.5921 22.2535 20.2093 23.0729 17.6501H4.31348C1.9416 17.6501 0.000976562 19.6357 0.000976562 22.0626V88.2504H34.501V66.1878H51.751V88.2504H86.251V22.0626C86.251 19.6357 84.3103 17.6501 81.9385 17.6501ZM25.876 79.4253H8.62598V66.1878H25.876V79.4253ZM25.876 57.3627H8.62598V44.1252H25.876V57.3627ZM51.751 57.3627H34.501V44.1252H51.751V57.3627ZM77.626 79.4253H60.376V66.1878H77.626V79.4253ZM77.626 57.3627H60.376V44.1252H77.626V57.3627Z" fill="#2D4351" />
    </g>
  	</symbol>

	<!-- down-->
	<symbol id="svg-down" viewBox="0 0 16 10">
	<g>
  <path fill-rule="evenodd" clip-rule="evenodd" d="M15.1724 2.4738L7.66301 9.98315L0.153654 2.4738L2.03099 0.59646L7.66301 6.22848L13.295 0.59646L15.1724 2.4738Z" fill="currentColor" />
    </g>
  	</symbol>

	<!-- confidence-->
	<symbol id="svg-confidence" viewBox="0 0 34 51">
	<g>
  <path fill-rule="evenodd" clip-rule="evenodd" d="M17.9353 0.38428C17.4011 -0.0660992 16.6168 -0.0543319 16.0964 0.411875L12.6179 3.52799C11.6179 4.42381 11.435 5.92129 12.19 7.03148L12.3996 7.33984C12.7914 7.91596 13.3943 8.25882 14.0322 8.33906V14.3849C14.0322 15.1252 14.6139 15.7555 15.3783 15.7839C16.4171 15.8225 17.8942 15.7943 18.5893 15.781L18.739 15.7782C19.4871 15.7644 20.1181 15.1593 20.1181 14.3761V8.37247C20.6903 8.30257 21.237 8.01754 21.626 7.5313L21.8989 7.19019C22.8197 6.03916 22.6554 4.36397 21.5284 3.41381L17.9353 0.38428ZM14.1768 5.26811L17.0503 2.69394L20.0225 5.19992C20.1809 5.33348 20.204 5.56896 20.0746 5.73075L19.8326 6.03315C19.001 5.40239 17.7819 5.98715 17.7819 7.05478V13.4583C17.3483 13.4646 16.8477 13.4693 16.3684 13.4665V7.05029C16.3684 5.99663 15.1703 5.39338 14.3245 6.01581L14.1219 5.71779C14.025 5.57529 14.0484 5.38309 14.1768 5.26811Z" fill="#2B2B48" />
  <path fill-rule="evenodd" clip-rule="evenodd" d="M5.5208 6.75759C6.04122 6.29138 6.82551 6.27962 7.35968 6.73L10.9528 9.75952C12.0798 10.7097 12.2441 12.3849 11.3233 13.5359L11.0504 13.877C10.6614 14.3633 10.1148 14.6483 9.54251 14.7182V20.7218C9.54251 21.505 8.91155 22.1101 8.16345 22.1239L8.01365 22.1267C7.31854 22.14 5.84149 22.1682 4.80267 22.1296C4.03831 22.1012 3.45657 21.4709 3.45657 20.7307V14.6848C2.81871 14.6045 2.21582 14.2617 1.82405 13.6856L1.61437 13.3772C0.859434 12.267 1.04236 10.7695 2.04235 9.87371L5.5208 6.75759ZM6.47469 9.03965L3.6012 11.6138C3.47285 11.7288 3.44937 11.921 3.54627 12.0635L3.74892 12.3615C4.59468 11.7391 5.79282 12.3423 5.79282 13.396V19.8122C6.2721 19.815 6.77272 19.8103 7.20627 19.804V13.4005C7.20627 12.3329 8.42546 11.7481 9.25705 12.3789L9.49897 12.0765C9.62841 11.9147 9.60531 11.6792 9.4469 11.5456L6.47469 9.03965Z" fill="#2B2B48" />
  <path fill-rule="evenodd" clip-rule="evenodd" d="M28.5108 6.73C27.9767 6.27962 27.1924 6.29138 26.672 6.75759L23.1935 9.87371C22.1935 10.7695 22.0106 12.267 22.7655 13.3772L22.9752 13.6856C23.367 14.2617 23.9699 14.6045 24.6077 14.6848V20.7307C24.6077 21.4709 25.1895 22.1012 25.9538 22.1296C26.9927 22.1682 28.4697 22.14 29.1648 22.1267L29.3146 22.1239C30.0627 22.1101 30.6937 21.505 30.6937 20.7218V14.7182C31.2659 14.6483 31.8126 14.3633 32.2016 13.877L32.4744 13.5359C33.3953 12.3849 33.2309 10.7097 32.104 9.75952L28.5108 6.73ZM24.7524 11.6138L27.6259 9.03965L30.5981 11.5456C30.7565 11.6792 30.7796 11.9147 30.6501 12.0765L30.4082 12.3789C29.5766 11.7481 28.3574 12.3329 28.3574 13.4005V19.804C27.9239 19.8103 27.4233 19.815 26.944 19.8122V13.396C26.944 12.3423 25.7458 11.7391 24.9001 12.3615L24.6974 12.0635C24.6005 11.921 24.624 11.7288 24.7524 11.6138Z" fill="#2B2B48" />
  <path fill-rule="evenodd" clip-rule="evenodd" d="M0.571686 30.7453C0.571686 27.929 3.16052 25.8247 5.91738 26.4L10.4327 27.3423C11.5586 27.5773 12.5099 28.2268 13.1406 29.1112C13.7054 28.468 14.3919 27.5922 15.0136 26.637C15.482 25.9172 15.8953 25.1799 16.1882 24.4895C16.487 23.7847 16.6272 23.2054 16.6272 22.7793C16.6272 21.485 16.6718 20.1602 16.9101 19.1372C17.0285 18.6287 17.219 18.0807 17.5646 17.6386C17.9472 17.1493 18.5158 16.8039 19.2375 16.8039C20.1201 16.8039 21.2259 17.09 22.068 18.165C22.8648 19.1822 23.29 20.7398 23.29 22.9716C23.29 25.1723 22.9323 26.972 22.5288 28.2453H30.3424C32.1823 28.2453 33.6738 29.7368 33.6738 31.5767C33.6738 32.5796 33.2306 33.4791 32.5293 34.0899C32.8283 34.5753 33.0008 35.147 33.0008 35.759C33.0008 36.7339 32.5631 37.6065 31.8736 38.1911C32.1621 38.6752 32.3278 39.2408 32.3278 39.8452C32.3278 40.9906 31.7325 41.997 30.8345 42.5719C31.0519 43.0106 31.174 43.5048 31.174 44.0276C31.174 45.8409 29.704 47.3109 27.8907 47.3109H13.3159C12.6875 48.3404 11.6477 49.1023 10.3964 49.3526L5.88108 50.2557C3.13435 50.805 0.571686 48.7041 0.571686 45.903V30.7453ZM13.9647 44.9747H27.8907C28.4138 44.9747 28.8378 44.5506 28.8378 44.0276C28.8378 43.5045 28.4138 43.0805 27.8907 43.0805H24.6217V40.7442H29.0925C29.589 40.7442 29.9915 40.3417 29.9915 39.8452C29.9915 39.3487 29.589 38.9462 29.0925 38.9462H24.6217V36.61H29.8136C30.2836 36.61 30.6646 36.229 30.6646 35.759C30.6646 35.2891 30.2836 34.9081 29.8136 34.9081H24.6217V32.5718H30.3424C30.892 32.5718 31.3376 32.1263 31.3376 31.5767C31.3376 31.027 30.892 30.5815 30.3424 30.5815H21.1916C20.0738 30.5815 19.5022 29.4139 19.9159 28.5449C20.3113 27.7141 20.9538 25.747 20.9538 22.9716C20.9538 20.973 20.5618 20.0308 20.2289 19.6057C19.9744 19.2808 19.6817 19.1663 19.3631 19.1443C19.3157 19.2321 19.2489 19.3945 19.1854 19.6671C19.015 20.3988 18.9635 21.4776 18.9635 22.7793C18.9635 23.6511 18.695 24.5621 18.3389 25.4017C17.9768 26.2556 17.4887 27.1167 16.9717 27.9113C15.945 29.4888 14.7318 30.9128 13.9752 31.6154L13.9639 31.6033C13.9645 31.6313 13.9647 31.6594 13.9647 31.6876V44.9747ZM5.4401 28.687C4.13422 28.4145 2.90793 29.4112 2.90793 30.7453V45.903C2.90793 47.2299 4.12182 48.225 5.4229 47.9648L9.93822 47.0617C10.921 46.8652 11.6285 46.0022 11.6285 44.9999V31.6876C11.6285 30.6919 10.9301 29.8327 9.95542 29.6293L5.4401 28.687Z" fill="#2B2B48" />
    </g>
  	</symbol>


	<!-- reward-->
	<symbol id="svg-reward" viewBox="0 0 46 51">
	<g>
  <path d="M23.1268 0.175863L22.061 2.40779C22.0297 2.47321 21.9673 2.51836 21.8951 2.52768L19.1663 2.88013C18.9856 2.90346 18.9149 3.12635 19.0492 3.24879L21.0538 5.07594C21.1087 5.12593 21.1335 5.20066 21.1195 5.27335L20.6188 7.87139C20.5848 8.04777 20.7717 8.1844 20.9306 8.09933L23.2995 6.83099C23.3628 6.79708 23.439 6.79708 23.5024 6.83099L25.8713 8.09933C26.0302 8.1844 26.2171 8.04777 26.1831 7.87139L25.6814 5.26832C25.6679 5.19838 25.6904 5.12635 25.7413 5.07634L27.6073 3.24477C27.7341 3.12028 27.6618 2.90505 27.4852 2.88163L24.8159 2.52756C24.7459 2.51828 24.6851 2.4753 24.6532 2.41265L23.5113 0.170977C23.4308 0.0130366 23.2032 0.0159288 23.1268 0.175863Z" fill="#2B2B48" />
  <path d="M40.0657 10.1684L41.1315 7.93651C41.2079 7.77658 41.4355 7.77369 41.516 7.93163L42.6579 10.1733C42.6898 10.2359 42.7506 10.2789 42.8206 10.2882L45.4899 10.6423C45.6665 10.6657 45.7388 10.8809 45.612 11.0054L43.746 12.837C43.6951 12.887 43.6726 12.959 43.6861 13.029L44.1878 15.632C44.2218 15.8084 44.0349 15.945 43.876 15.86L41.5071 14.5916C41.4438 14.5577 41.3675 14.5577 41.3042 14.5916L38.9353 15.86C38.7764 15.945 38.5895 15.8084 38.6235 15.632L39.1242 13.034C39.1382 12.9613 39.1134 12.8866 39.0585 12.8366L37.0539 11.0094C36.9196 10.887 36.9903 10.6641 37.171 10.6408L39.8998 10.2883C39.972 10.279 40.0345 10.2339 40.0657 10.1684Z" fill="#2B2B48" />
  <path fill-rule="evenodd" clip-rule="evenodd" d="M22.6486 20.0372C22.9118 19.4769 23.7069 19.4669 23.9843 20.0203L25.3594 22.7643L28.5799 23.1986C29.1885 23.2806 29.4395 24.0226 29.0053 24.4559L26.7497 26.7064L27.3565 29.9065C27.4729 30.5205 26.8217 30.9934 26.2719 30.6942L23.4204 29.1423L20.5688 30.6942C20.019 30.9934 19.3679 30.5205 19.4843 29.9065L20.0887 26.7188L17.6653 24.4735C17.205 24.0471 17.4507 23.2786 18.0734 23.1968L21.3673 22.7644L22.6486 20.0372ZM23.3298 21.0795L22.2534 23.3706C22.146 23.5993 21.9292 23.7575 21.6782 23.7905L18.8822 24.1575L20.9389 26.063C21.1258 26.2362 21.2105 26.4931 21.1631 26.7432L20.6508 29.4447L23.065 28.1308C23.2865 28.0102 23.5542 28.0102 23.7757 28.1308L26.1899 29.4447L25.6768 26.7382C25.6311 26.4977 25.7077 26.2502 25.8812 26.077L27.8015 24.161L25.0507 23.7901C24.8074 23.7573 24.5961 23.6066 24.4864 23.3875L23.3298 21.0795Z" fill="#2B2B48" />
  <path fill-rule="evenodd" clip-rule="evenodd" d="M24.5006 10.3441C23.7894 9.86907 22.8613 9.86907 22.1501 10.3441L20.9587 11.1393C20.5265 11.428 20.0029 11.5474 19.488 11.4748L18.0694 11.2748C17.2222 11.1553 16.3862 11.5576 15.9515 12.2941L15.2238 13.5269C14.9593 13.9745 14.5395 14.3092 14.044 14.4671L12.6795 14.9018C11.8642 15.1615 11.2856 15.8864 11.2137 16.7385L11.0931 18.1648C11.0493 18.6827 10.8162 19.1663 10.4385 19.5233L9.39754 20.5068C8.77603 21.0942 8.56941 21.9981 8.87438 22.797L9.38514 24.1344C9.57069 24.6199 9.57069 25.1567 9.38514 25.6422L8.87438 26.9795C8.56941 27.7784 8.77603 28.6823 9.39754 29.2698L10.4385 30.2532C10.8162 30.6103 11.0493 31.0939 11.0931 31.6117L11.2137 33.0381C11.2406 33.3563 11.3381 33.6568 11.4923 33.922C11.0805 34.7671 10.4226 35.9551 9.60962 37.14C8.67049 38.5089 7.57919 39.7925 6.48002 40.5661C5.65107 41.1495 5.77846 42.5473 6.86703 42.8447C8.12133 43.1873 9.05397 43.4625 9.68243 43.6575L8.39838 48.7608C8.12093 49.8635 9.37953 50.8366 10.3642 50.0683C11.8015 48.9471 13.8918 47.0931 15.877 44.9609C17.7294 42.9712 19.5509 40.6752 20.6398 38.4619C20.7503 38.5108 20.8571 38.5693 20.9587 38.6373L22.1501 39.4325C22.8613 39.9075 23.7894 39.9075 24.5006 39.4325L25.692 38.6373C25.7173 38.6203 25.743 38.604 25.7689 38.5883C26.887 40.7624 28.7117 43.009 30.5668 44.9609C32.5933 47.0931 34.7271 48.9471 36.1944 50.0683C37.1996 50.8366 38.4844 49.8635 38.2012 48.7608L36.8904 43.6575C37.5319 43.4625 38.484 43.1873 39.7644 42.8447C40.8757 42.5473 41.0057 41.1495 40.1595 40.5661C39.0374 39.7925 37.9234 38.5089 36.9647 37.14C36.168 36.0025 35.5172 34.8622 35.0945 34.0251C35.2857 33.7359 35.4066 33.3984 35.437 33.0381L35.5577 31.6117C35.6015 31.0939 35.8346 30.6103 36.2123 30.2532L37.2532 29.2698C37.8747 28.6823 38.0813 27.7784 37.7764 26.9795L37.2656 25.6422C37.0801 25.1567 37.0801 24.6199 37.2656 24.1344L37.7764 22.797C38.0813 21.9981 37.8747 21.0942 37.2532 20.5068L36.2123 19.5233C35.8346 19.1663 35.6015 18.6827 35.5577 18.1648L35.437 16.7385C35.3651 15.8864 34.7866 15.1615 33.9713 14.9018L32.6067 14.4671C32.1113 14.3092 31.6914 13.9745 31.4269 13.5269L30.6992 12.2941C30.2645 11.5576 29.4285 11.1553 28.5814 11.2748L27.1627 11.4748C26.6478 11.5474 26.1242 11.428 25.692 11.1393L24.5006 10.3441ZM33.2607 35.1011L32.6067 35.3095C32.1113 35.4674 31.6914 35.802 31.4269 36.2496L30.6992 37.4825C30.2645 38.219 29.4285 38.6213 28.5814 38.5018L28.1099 38.4353C29.1073 40.1107 30.5573 41.8794 32.117 43.5204C33.2584 44.7213 34.4347 45.8293 35.4906 46.753L34.6307 43.4051C34.471 42.7833 34.8099 42.1185 35.455 41.903C35.8404 41.7742 36.5692 41.5477 37.6601 41.2395C36.7438 40.3704 35.9149 39.3358 35.2158 38.3376C34.4008 37.1739 33.726 36.0071 33.2607 35.1011ZM11.3228 38.3376C12.1335 37.1559 12.8026 35.9711 13.259 35.0594L14.044 35.3095C14.5395 35.4674 14.9593 35.802 15.2238 36.2496L15.9515 37.4825C16.3862 38.219 17.2222 38.6213 18.0694 38.5018L18.2606 38.4748C17.2844 40.1385 15.8742 41.8923 14.3584 43.5204C13.2403 44.7213 12.088 45.8293 11.0537 46.753L11.896 43.4051C12.0525 42.7833 11.7205 42.1185 11.0885 41.903C10.711 41.7742 9.99704 41.5477 8.92845 41.2395C9.82599 40.3704 10.638 39.3358 11.3228 38.3376ZM23.3254 33.4513C28.0578 33.4513 31.8943 29.6175 31.8943 24.8883C31.8943 20.159 28.0578 16.3252 23.3254 16.3252C18.593 16.3252 14.7564 20.159 14.7564 24.8883C14.7564 29.6175 18.593 33.4513 23.3254 33.4513Z" fill="#2B2B48" />
  <path d="M4.05627 10.4789L5.12213 8.24694C5.19851 8.087 5.42612 8.08411 5.50657 8.24205L6.64844 10.4837C6.68035 10.5464 6.74122 10.5894 6.81117 10.5986L9.4805 10.9527C9.65705 10.9761 9.72941 11.1914 9.60259 11.3158L7.73663 13.1474C7.68569 13.1974 7.66319 13.2695 7.67667 13.3394L8.17839 15.9425C8.21238 16.1188 8.0255 16.2555 7.86661 16.1704L5.49768 14.9021C5.43434 14.8682 5.35813 14.8682 5.29479 14.9021L2.92585 16.1704C2.76697 16.2555 2.58008 16.1188 2.61407 15.9425L3.11482 13.3444C3.12883 13.2717 3.10396 13.197 3.04912 13.147L1.04449 11.3199C0.910146 11.1974 0.980926 10.9745 1.16156 10.9512L3.89041 10.5988C3.96257 10.5894 4.02503 10.5443 4.05627 10.4789Z" fill="#2B2B48" />
    </g>
  	</symbol>


	<!-- headphones-->
	<symbol id="svg-headphones" viewBox="0 0 53 52">
	<g>
  <path d="M9.83988 11.2074C7.33798 15.0289 6.32292 19.3735 6.08057 22.2615C7.51306 22.3293 9.42682 23.2832 9.42682 25.7682V33.512C9.42682 36.4031 9.22032 38.6746 5.91627 38.6746C2.61222 38.6746 0.547188 36.1966 0.547188 33.7185V27.5234C0.547188 24.4986 2.36843 23.1511 3.98641 22.5995C4.17376 19.4244 5.24493 14.4558 8.11219 10.0763C11.3403 5.1455 16.8376 0.987793 25.7415 0.987793C34.5765 0.987793 40.3796 4.54111 43.9464 9.20115C47.194 13.4441 48.5444 18.5436 48.741 22.5677C50.382 23.0984 52.2761 24.4387 52.2761 27.5234V33.7185C52.2761 35.6326 51.0441 37.5466 48.9607 38.3187C48.8934 41.0851 48.5416 43.5243 47.5264 45.3465C46.9372 46.4039 46.1224 47.2594 45.0271 47.8405C43.9413 48.4164 42.642 48.6901 41.1262 48.6901H37.7541C37.2705 50.2453 35.8198 51.3746 34.1054 51.3746H30.3884C28.2785 51.3746 26.5681 49.6642 26.5681 47.5542C26.5681 45.4443 28.2785 43.7339 30.3884 43.7339H34.1054C35.8949 43.7339 37.3969 44.9642 37.812 46.625H41.1262C42.3983 46.625 43.3447 46.3953 44.0594 46.0162C44.7645 45.6422 45.3049 45.0908 45.7224 44.3414C46.4527 43.0307 46.7942 41.1426 46.8837 38.6746C43.602 38.6639 43.3965 36.3963 43.3965 33.512V25.7682C43.3965 23.3336 45.2334 22.3686 46.655 22.2668C46.4074 18.6529 45.1499 14.1712 42.3066 10.4563C39.1362 6.31412 33.943 3.05282 25.7415 3.05282C17.609 3.05282 12.7294 6.79386 9.83988 11.2074Z" fill="#2B2B48" />
  <path d="M20.3715 25.3552C21.398 25.3552 22.2301 24.5231 22.2301 23.4967C22.2301 22.4702 21.398 21.6381 20.3715 21.6381C19.3451 21.6381 18.513 22.4702 18.513 23.4967C18.513 24.5231 19.3451 25.3552 20.3715 25.3552Z" fill="#2B2B48" />
  <path d="M28.2185 23.4967C28.2185 24.5231 27.3864 25.3552 26.36 25.3552C25.3335 25.3552 24.5014 24.5231 24.5014 23.4967C24.5014 22.4702 25.3335 21.6381 26.36 21.6381C27.3864 21.6381 28.2185 22.4702 28.2185 23.4967Z" fill="#2B2B48" />
  <path d="M32.3499 25.3552C33.3763 25.3552 34.2084 24.5231 34.2084 23.4967C34.2084 22.4702 33.3763 21.6381 32.3499 21.6381C31.3234 21.6381 30.4913 22.4702 30.4913 23.4967C30.4913 24.5231 31.3234 25.3552 32.3499 25.3552Z" fill="#2B2B48" />
  <path fill-rule="evenodd" clip-rule="evenodd" d="M13.4544 17.8178C13.4544 15.1947 15.5808 13.0682 18.2039 13.0682H34.5177C37.1408 13.0682 39.2673 15.1947 39.2673 17.8178V28.969C39.2673 31.5921 37.1408 33.7186 34.5177 33.7186H28.2102C27.4982 33.7186 26.8154 34.0014 26.312 34.5048L21.0846 39.7322C20.174 40.6428 18.6169 39.9979 18.6169 38.7101V33.7186H18.2039C15.5808 33.7186 13.4544 31.5921 13.4544 28.969V17.8178ZM18.2039 15.1333C16.7213 15.1333 15.5194 16.3352 15.5194 17.8178V28.969C15.5194 30.4516 16.7213 31.6535 18.2039 31.6535H19.2364C20.0348 31.6535 20.682 32.3007 20.682 33.099V37.2144L24.8518 33.0446C25.7425 32.1539 26.9506 31.6535 28.2102 31.6535H34.5177C36.0003 31.6535 37.2022 30.4516 37.2022 28.969V17.8178C37.2022 16.3352 36.0003 15.1333 34.5177 15.1333H18.2039Z" fill="#2B2B48" />
    </g>
  	</symbol>

	<!-- rutube-->
	<symbol id="svg-rutube" viewBox="0 0 30 30">
	<g>
  <path d="M20.656 16.0935H20.3139V14.3339H20.656C20.9004 14.3339 21.3403 14.5049 21.3403 15.2381C21.3403 15.9713 20.9737 16.0935 20.656 16.0935Z" fill="white" />
  <path d="M5.79673 14.5049V13.3807H6.77432C7.33643 13.3807 7.43419 13.7718 7.43419 13.9673C7.43419 14.1628 7.31199 14.5049 6.77432 14.5049H5.79673Z" fill="white" />
  <path d="M23.8332 14.7249H24.9574C24.9656 14.5131 24.8743 14.0895 24.4441 14.0895C23.9065 14.0895 23.8332 14.5294 23.8332 14.7249Z" fill="white" />
  <path fill-rule="evenodd" clip-rule="evenodd" d="M15.1938 29.3396C23.292 29.3869 29.8955 22.8601 29.9429 14.7617C29.9902 6.66322 23.4633 0.0597667 15.365 0.0124626C7.26655 -0.0348416 0.663084 6.49192 0.615732 14.5904C0.568572 22.6888 7.09528 29.2923 15.1938 29.3396ZM20.3139 12.0854L19.2141 12.2809V17.0467H20.9493C21.5847 17.0467 22.4401 16.5823 22.4401 15.7758V14.8715C22.4401 14.3583 22.1224 13.3318 20.9493 13.3318H20.3139V12.0854ZM13.1775 12.2809V13.3563H12.6887V14.3339H13.1775V17.0711H14.3017V14.3339H15.1327V13.3563H14.3017V12.1343L13.1775 12.2809ZM5.74786 17.0711H4.64807V12.3543H6.89652C7.8741 12.3543 8.65617 12.8675 8.65617 13.8695C8.65617 14.6711 8.23248 15.0997 8.02074 15.2137L9.07164 17.0711H7.72746L6.99428 15.507H5.74786V17.0711ZM10.2447 13.3563H9.09608V15.7269C9.09608 16.7534 9.97591 17.0956 10.7335 17.0956C11.4912 17.0956 12.3221 16.8023 12.3221 15.7269V13.3563H11.2468V15.5559C11.2468 16.2157 10.2447 16.2157 10.2447 15.5559V13.3563ZM16.5746 13.3563H15.4259V15.7269C15.4259 16.7534 16.3058 17.0956 17.0634 17.0956C17.821 17.0956 18.652 16.8023 18.652 15.7269V13.3563H17.5766V15.5559C17.5766 16.2157 16.5746 16.2157 16.5746 15.5559V13.3563ZM23.8332 15.507H25.9594V14.896C25.9594 14.2605 25.6172 13.3318 24.4441 13.3318C23.271 13.3318 22.7578 14.065 22.7578 14.896C22.7578 15.7269 22.7578 16.4357 23.3688 16.8023C23.9798 17.1689 25.0796 17.511 26.0327 16.3379C25.7786 16.1815 25.4217 15.9632 25.2751 15.8736C25.1447 15.9958 24.796 16.2402 24.4441 16.2402C24.0042 16.2402 23.8332 15.9224 23.8332 15.507Z" fill="white" />
    </g>
  	</symbol>

	<!-- tg-->
	<symbol id="svg-tg" viewBox="0 0 31 30">
	<g>
  <path d="M15.6467 0.012207C7.5523 0.012207 0.98291 6.5816 0.98291 14.676C0.98291 22.7705 7.5523 29.3398 15.6467 29.3398C23.7412 29.3398 30.3105 22.7705 30.3105 14.676C30.3105 6.5816 23.7412 0.012207 15.6467 0.012207ZM22.4507 9.9836C22.2308 12.3005 21.2776 17.9314 20.7937 20.5269C20.5884 21.6267 20.1778 21.9933 19.7966 22.0373C18.9461 22.1106 18.3009 21.48 17.4797 20.9375C16.1893 20.087 15.4561 19.5591 14.2097 18.7379C12.758 17.7848 13.6964 17.2569 14.5323 16.4064C14.7522 16.1864 18.5062 12.7697 18.5795 12.4618C18.5897 12.4151 18.5883 12.3667 18.5755 12.3207C18.5628 12.2747 18.539 12.2325 18.5062 12.1978C18.4182 12.1245 18.3009 12.1538 18.1982 12.1685C18.0663 12.1978 16.0133 13.5616 12.0101 16.2597C11.4235 16.6556 10.8957 16.8609 10.4264 16.8463C9.89851 16.8316 8.90137 16.553 8.15352 16.3037C7.2297 16.0104 6.51117 15.8491 6.56983 15.3359C6.59915 15.0719 6.96575 14.808 7.65495 14.5294C11.9368 12.6671 14.7816 11.4353 16.204 10.8488C20.2805 9.14777 21.1163 8.85449 21.6736 8.85449C21.7909 8.85449 22.0695 8.88382 22.2454 9.03046C22.3921 9.14777 22.4361 9.30907 22.4507 9.42638C22.4361 9.51436 22.4654 9.77831 22.4507 9.9836Z" fill="currentColor" />
    </g>
  	</symbol>

		<!-- wa -->
	<symbol id="svg-wa" viewBox="0 0 30 30">
	<g>
  <path fill-rule="evenodd" clip-rule="evenodd" d="M15.0142 0.012207C6.91533 0.012207 0.350342 6.5772 0.350342 14.676C0.350342 17.4475 1.12019 20.043 2.459 22.2543L1.15099 26.7003C1.07588 26.9556 1.07094 27.2264 1.13668 27.4842C1.20242 27.7421 1.33641 27.9775 1.52456 28.1656C1.71271 28.3538 1.94808 28.4878 2.20593 28.5535C2.46377 28.6192 2.73456 28.6143 2.98983 28.5392L7.4359 27.2312C9.72151 28.6141 12.3427 29.3435 15.0142 29.3398C23.113 29.3398 29.678 22.7748 29.678 14.676C29.678 6.5772 23.113 0.012207 15.0142 0.012207ZM11.6972 17.9944C14.6637 20.9595 17.4953 21.351 18.4954 21.3876C20.016 21.4434 21.497 20.282 22.0733 18.9344C22.1461 18.7667 22.1725 18.5826 22.1498 18.4013C22.1271 18.22 22.0561 18.0481 21.9443 17.9035C21.1407 16.8771 20.0541 16.1395 18.9925 15.4063C18.7708 15.253 18.4984 15.1915 18.2324 15.2347C17.9664 15.2779 17.7274 15.4224 17.5657 15.638L16.6858 16.9797C16.6396 17.0518 16.5675 17.1036 16.4844 17.1243C16.4012 17.145 16.3133 17.1331 16.2386 17.0911C15.6418 16.7495 14.7722 16.1688 14.1475 15.5441C13.5229 14.9194 12.9774 14.0895 12.6709 13.5308C12.6329 13.4598 12.6219 13.3774 12.64 13.299C12.658 13.2205 12.7039 13.1513 12.7691 13.1041L14.1241 12.0981C14.3174 11.93 14.4422 11.6966 14.4747 11.4424C14.5071 11.1883 14.445 10.931 14.3 10.7197C13.6431 9.75778 12.8776 8.53481 11.7676 7.72391C11.6243 7.62009 11.4565 7.55536 11.2807 7.53608C11.1048 7.51679 10.9269 7.54362 10.7646 7.61393C9.41551 8.19168 8.24827 9.67273 8.304 11.1963C8.34066 12.1964 8.73218 15.0279 11.6972 17.9944Z" fill="currentColor" />
    </g>
  	</symbol>

	<!-- vk-->
	<symbol id="svg-vk" viewBox="0 0 31 30">
	<g>
  <path d="M19.8878 0.012207H10.8915C2.67099 0.012207 0.717773 1.96689 0.717773 10.1698V19.1676C0.717773 27.3852 2.6578 29.3398 10.8754 29.3398H19.8731C28.0907 29.3398 30.0454 27.3998 30.0454 19.1822V10.186C30.0454 1.96543 28.1054 0.012207 19.8878 0.012207ZM24.394 20.9375H22.2545C21.4451 20.9375 21.2017 20.282 19.7499 18.8303C18.483 17.6088 17.9478 17.4563 17.6266 17.4563C17.1838 17.4563 17.0621 17.578 17.0621 18.1895V20.1134C17.0621 20.6339 16.8934 20.9389 15.5341 20.9389C14.2149 20.8503 12.9356 20.4495 11.8016 19.7695C10.6676 19.0896 9.71134 18.15 9.01163 17.0281C7.35047 14.9605 6.19462 12.5338 5.63602 9.94108C5.63602 9.61994 5.75773 9.3296 6.36921 9.3296H8.50866C9.05855 9.3296 9.25652 9.57448 9.47061 10.139C10.5088 13.195 12.2802 15.8521 12.9987 15.8521C13.2744 15.8521 13.3946 15.7304 13.3946 15.0426V11.8958C13.3037 10.4602 12.5412 10.3385 12.5412 9.81937C12.551 9.68245 12.6137 9.55473 12.7161 9.4633C12.8185 9.37187 12.9525 9.32391 13.0896 9.3296H16.4506C16.9096 9.3296 17.0621 9.55835 17.0621 10.1082V14.3549C17.0621 14.8139 17.26 14.9664 17.3979 14.9664C17.6735 14.9664 17.8862 14.8139 18.3906 14.3094C19.4741 12.9881 20.3593 11.5161 21.0184 9.93961C21.0857 9.75025 21.2132 9.58813 21.3813 9.47798C21.5495 9.36784 21.749 9.31573 21.9495 9.3296H24.089C24.7298 9.3296 24.8661 9.65074 24.7298 10.1082C23.9518 11.8509 22.9893 13.5052 21.8586 15.0426C21.6284 15.3946 21.536 15.5779 21.8586 15.9899C22.0712 16.311 22.8205 16.9372 23.325 17.5325C24.058 18.2637 24.6668 19.1097 25.1272 20.0371C25.3105 20.6325 25.004 20.9375 24.394 20.9375Z" fill="white" />
    </g>
  	</symbol>


		<!-- union-->
	<symbol id="svg-union" viewBox="0 0 49 60">
	<g>
  <path opacity="0.5" fill-rule="evenodd" clip-rule="evenodd" d="M48.8 33.6166V9.91217C48.8 9.42734 48.403 9.03753 47.9208 9.04885C39.8724 9.23787 32.0436 6.39999 25.9678 1.09101L24.9868 0.233838C24.6456 -0.0643028 24.1425 -0.0789012 23.7847 0.19896L20.8436 2.48336C15.1316 6.91988 8.07159 9.23948 0.855419 9.05059C0.38663 9.03832 0 9.41695 0 9.88831V33.6166L0.04402 34.9108C0.325356 43.1822 5.08565 50.6363 12.4503 54.3375L23.1096 59.6946C23.9217 60.1028 24.8778 60.1017 25.6891 59.6919L36.2872 54.3375C43.6256 50.63 48.3917 43.2194 48.7424 34.9714L48.8 33.6166ZM46.6619 10.3116C43.8795 10.2697 41.1316 9.88048 38.4777 9.16547L4.04069 44.6544C5.15229 46.6253 6.57386 48.4146 8.25745 49.9471L46.6619 10.3116ZM47.5487 11.199L9.21146 50.7651C10.3739 51.7036 11.6445 52.5264 13.0098 53.2126L23.6691 58.5697C24.1282 58.8004 24.6686 58.7998 25.1271 58.5681L35.7252 53.2138C42.6582 49.7111 47.161 42.71 47.4923 34.9177L47.5487 33.5898V11.199ZM25.1469 2.04021C28.6632 5.11271 32.7447 7.38841 37.116 8.76745L3.42782 43.4846C2.14413 40.839 1.39811 37.9121 1.29457 34.8679L1.25128 33.5951V10.3163C8.60605 10.4117 15.7818 8.0043 21.6087 3.47858L24.3533 1.34681L25.1469 2.04021Z" fill="#F9BD6E" />
    </g>
  	</symbol>

	<!-- check-->
	<symbol id="svg-check" viewBox="0 0 72 60">
  <g opacity="0.5">
    <path d="M1.43818 30C1.43818 14.2242 14.2517 1.43541 30.0581 1.43541C37.7154 1.43541 44.6691 4.43586 49.8057 9.32453L50.7982 8.28572C45.4048 3.15268 38.0996 0 30.0581 0C13.4575 0 0 13.4315 0 30C0 46.5685 13.4575 60 30.0581 60C46.6587 60 60.1161 46.5685 60.1161 30C60.1161 23.9699 58.3328 18.3532 55.2636 13.6495L54.0584 14.4328C56.9802 18.9106 58.678 24.2563 58.678 30C58.678 45.7758 45.8644 58.5646 30.0581 58.5646C14.2517 58.5646 1.43818 45.7758 1.43818 30Z" fill="#F9BD6E" />
    <path d="M31.9654 37.8241C35.8779 28.7608 49.3311 8.99826 71.6981 2.57871L71.3007 1.19921C49.181 7.54776 35.6372 26.5555 31.1073 36.2289L18.4958 21.9127L17.4157 22.8605L31.5156 38.8661L31.9654 37.8241Z" fill="#F9BD6E" />
    </g>
  	</symbol>


		<!-- consult-->
	<symbol id="svg-consult" viewBox="0 0 70 60">
  <g opacity="0.5">
    <path d="M56.3494 11.1454H38.7247V12.6372H56.3494V11.1454Z" fill="#F9BD6E" />
    <path d="M45.0547 17.9825H56.3494V19.35H45.0547V17.9825Z" fill="#F9BD6E" />
    <path d="M56.3494 24.8198H48.2817V26.1872H56.3494V24.8198Z" fill="#F9BD6E" />
    <path d="M24.9962 27.7323C25.8388 27.7323 26.562 27.887 27.1659 28.1965C27.7838 28.4918 28.2472 28.8927 28.5561 29.399C28.8651 29.9053 29.0195 30.4468 29.0195 31.0235C29.0195 31.572 28.9212 32.0432 28.7246 32.437C28.5421 32.8168 28.3174 33.1262 28.0506 33.3653C27.7838 33.6044 27.4257 33.8857 26.9763 34.2092C26.3865 34.6171 25.9441 34.9968 25.6492 35.3484C25.3543 35.686 25.2069 36.1431 25.2069 36.7198V37.6691H23.29V36.6143C23.29 36.0095 23.3883 35.4961 23.5849 35.0742C23.7956 34.6522 24.0413 34.3147 24.3222 34.0615C24.603 33.8083 24.9752 33.52 25.4386 33.1965C25.9722 32.8449 26.3654 32.5284 26.6182 32.2471C26.871 31.9658 26.9974 31.6002 26.9974 31.1501C26.9974 30.5734 26.8078 30.1304 26.4286 29.821C26.0495 29.4975 25.5299 29.3357 24.8699 29.3357C23.7464 29.3357 22.7704 29.8421 21.9419 30.8547L20.6149 29.821C21.7945 28.4285 23.2549 27.7323 24.9962 27.7323Z" fill="#F9BD6E" />
    <path d="M24.3011 39.8422C24.7224 39.8422 25.0735 39.9828 25.3543 40.2641C25.6352 40.5454 25.7756 40.89 25.7756 41.2979C25.7756 41.7058 25.6352 42.0574 25.3543 42.3527C25.0735 42.634 24.7224 42.7747 24.3011 42.7747C23.8939 42.7747 23.5498 42.634 23.269 42.3527C22.9881 42.0574 22.8477 41.7058 22.8477 41.2979C22.8477 40.89 22.9881 40.5454 23.269 40.2641C23.5498 39.9828 23.8939 39.8422 24.3011 39.8422Z" fill="#F9BD6E" />
    <path fill-rule="evenodd" clip-rule="evenodd" d="M25.5949 10.5423C29.857 4.18573 37.108 0 45.3364 0C58.4548 0 69.0909 10.6383 69.0909 23.7631C69.0909 36.6509 58.8355 47.1411 46.0446 47.5158C41.8012 54.9735 33.8039 60 24.6373 60C20.0236 60 15.7061 58.7266 12.0144 56.5108C11.9215 56.4551 11.8131 56.4359 11.7075 56.4594C9.70585 56.9052 5.72021 57.9382 2.75322 58.7502L2.6504 58.7783C2.47964 58.8251 2.31243 58.8712 2.14936 58.9163C1.65538 59.0529 1.24847 58.5122 1.51838 58.0758L1.58992 57.9602C1.65762 57.8508 1.72587 57.7404 1.79455 57.6294L1.84981 57.54C3.27593 55.2331 4.86816 52.6305 5.47718 51.1458C5.53389 51.0075 5.50626 50.8516 5.41299 50.7349C2.02619 46.498 0 41.1175 0 35.262C0 21.5995 11.0305 10.5239 24.6373 10.5239C24.958 10.5239 25.2772 10.5301 25.5949 10.5423ZM27.2261 10.6588C31.288 5.05183 37.8867 1.40648 45.3364 1.40648C57.6809 1.40648 67.6866 11.4167 67.6866 23.7631C67.6866 35.6163 58.4643 45.3162 46.804 46.0722C48.3868 42.8063 49.2747 39.1382 49.2747 35.262C49.2747 22.4774 39.6161 11.9579 27.2261 10.6588ZM47.8704 35.262C47.8704 48.151 37.4653 58.5935 24.6373 58.5935C20.2851 58.5935 16.2161 57.393 12.7362 55.3044C12.3484 55.0716 11.8741 54.9815 11.4026 55.0865C9.68402 55.4693 6.55517 56.2707 3.83176 57.0011C5.02435 55.0523 6.2364 52.9961 6.77612 51.6803C7.04163 51.033 6.89657 50.3404 6.50923 49.8559C3.31482 45.8596 1.40429 40.7869 1.40429 35.262C1.40429 22.373 11.8094 11.9304 24.6373 11.9304C37.4653 11.9304 47.8704 22.373 47.8704 35.262Z" fill="#F9BD6E" />
  </g>
  	</symbol>

	<!-- arrow-right-->
	<symbol id="svg-arrow-right" viewBox="0 0 38 15">
	<g>
  <path d="M37.7071 8.20711C38.0976 7.81658 38.0976 7.18342 37.7071 6.79289L31.3431 0.428932C30.9526 0.0384078 30.3195 0.0384078 29.9289 0.428932C29.5384 0.819457 29.5384 1.45262 29.9289 1.84315L35.5858 7.5L29.9289 13.1569C29.5384 13.5474 29.5384 14.1805 29.9289 14.5711C30.3195 14.9616 30.9526 14.9616 31.3431 14.5711L37.7071 8.20711ZM0 8.5H37V6.5H0V8.5Z" fill="currentColor" />
  </g>
  	</symbol>

	<!-- arrow-right-mob-->
	<symbol id="svg-arrow-right-mob" viewBox="0 0 21 16">
	<g>
  <path d="M20.7071 8.70711C21.0976 8.31658 21.0976 7.68342 20.7071 7.2929L14.3431 0.928933C13.9526 0.538409 13.3195 0.538409 12.9289 0.928933C12.5384 1.31946 12.5384 1.95262 12.9289 2.34315L18.5858 8L12.9289 13.6569C12.5384 14.0474 12.5384 14.6805 12.9289 15.0711C13.3195 15.4616 13.9526 15.4616 14.3431 15.0711L20.7071 8.70711ZM-8.74228e-08 9L20 9L20 7L8.74228e-08 7L-8.74228e-08 9Z" fill="currentColor" />
  </g>
  	</symbol>

	<!-- prev -->
	<symbol id="svg-prev" viewBox="0 0 20 36">
	<g>
  <path d="M18 2L2.35355 17.6464C2.15829 17.8417 2.15829 18.1583 2.35355 18.3536L18 34" stroke="#455966" stroke-width="4" stroke-linecap="round" stroke-linejoin="round" />
  </g>
  	</symbol>

	<!-- next -->
	<symbol id="svg-next" viewBox="0 0 20 36">
	<g>
  <path d="M2 2L17.6464 17.6464C17.8417 17.8417 17.8417 18.1583 17.6464 18.3536L2 34" stroke="currentColor" stroke-width="4" stroke-linecap="round" stroke-linejoin="round" />
  </g>
  	</symbol>


	<!-- star-circle -->
	<symbol id="svg-star-circle" viewBox="0 0 60 60">
  <g opacity="0.5">
    <path fill-rule="evenodd" clip-rule="evenodd" d="M23.5813 21.0511C23.6754 21.0307 23.7566 20.9717 23.805 20.8886L29.8508 10.5086C29.9831 10.2815 30.3111 10.2815 30.4434 10.5086L36.4891 20.8886C36.5376 20.9717 36.6188 21.0307 36.7128 21.0511L48.453 23.5934C48.7099 23.649 48.8112 23.961 48.6361 24.1569L40.6325 33.1144C40.5683 33.1862 40.5373 33.2816 40.547 33.3774L41.7571 45.3286C41.7835 45.59 41.5181 45.7828 41.2777 45.6769L30.2853 40.8329C30.1973 40.7941 30.0969 40.7941 30.0088 40.8329L19.0165 45.6769C18.776 45.7828 18.5106 45.59 18.5371 45.3286L19.7472 33.3774C19.7569 33.2816 19.7259 33.1862 19.6617 33.1144L11.658 24.1569C11.4829 23.961 11.5843 23.649 11.8411 23.5934L23.5813 21.0511ZM25.2864 21.7514L30.1471 13.406L35.0078 21.7514C35.2985 22.2504 35.7856 22.6043 36.35 22.7265L45.789 24.7705L39.3541 31.9722C38.9693 32.4029 38.7833 32.9755 38.8414 33.5501L39.8143 43.1586L30.9766 39.2642C30.4481 39.0313 29.846 39.0313 29.3175 39.2642L20.4799 43.1586L21.4527 33.5501C21.5109 32.9754 21.3249 32.4029 20.94 31.9722L14.5052 24.7705L23.9441 22.7265C24.5086 22.6043 24.9957 22.2504 25.2864 21.7514Z" fill="#0C713F" />
    <path fill-rule="evenodd" clip-rule="evenodd" d="M60 30C60 46.5685 46.5685 60 30 60C13.4315 60 0 46.5685 0 30C0 13.4315 13.4315 0 30 0C46.5685 0 60 13.4315 60 30ZM58.2857 30C58.2857 45.6218 45.6218 58.2857 30 58.2857C14.3782 58.2857 1.71429 45.6218 1.71429 30C1.71429 14.3782 14.3782 1.71429 30 1.71429C45.6218 1.71429 58.2857 14.3782 58.2857 30Z" fill="#0C713F" />
    </g>
  	</symbol>

	<!-- cube -->
	<symbol id="svg-cube" viewBox="0 0 60 60">
	<g>
  <path opacity="0.5" fill-rule="evenodd" clip-rule="evenodd" d="M0 0H16.7519V1.66667H1.65991V17.0642H0V0ZM58.3401 1.66667H43.1265V0H60V16.576H58.3401V1.66667ZM29.9968 9.99051L47.3596 20.3737V40.133L29.997 49.7469L12.8834 40.1294V20.3773L29.9968 9.99051ZM30.0032 11.9342L15.3715 20.8147L30.003 28.9276L44.8531 20.8146L30.0032 11.9342ZM45.6997 22.2494L30.83 30.3732V47.3824L45.6997 39.1488V22.2494ZM29.17 47.3722V30.3697L14.5434 22.2594V39.1523L29.17 47.3722ZM1.65991 58.3333V43.424H0V60H16.8735V58.3333H1.65991ZM58.3401 58.3333V43.424H60V60H43.4911V58.3333H58.3401Z" fill="#0C713F" />
    </g>
  	</symbol>


	<!-- time -->
	<symbol id="svg-time" viewBox="0 0 74 60">
  <g opacity="0.5">
    <path d="M44.1838 2.30769C36.9467 2.30769 30.3639 5.11796 25.4504 9.71616L23.8822 8.02841C29.2039 3.04816 36.3412 0 44.1838 0C60.6538 0 74 13.4344 74 30C74 46.5656 60.6538 60 44.1838 60C35.7944 60 28.2131 56.5123 22.797 50.9032L24.4483 49.2973C29.4499 54.4771 36.4431 57.6923 44.1838 57.6923C59.378 57.6923 71.7005 45.297 71.7005 30C71.7005 14.703 59.378 2.30769 44.1838 2.30769Z" fill="#0C713F" />
    <path d="M23.4575 18.8859H0V16.5782H23.4575V18.8859Z" fill="#0C713F" />
    <path d="M3.46905 31.1538H26.9265V28.8462H3.46905V31.1538Z" fill="#0C713F" />
    <path d="M30.5608 43.4218H7.10333V41.1141H30.5608V43.4218Z" fill="#0C713F" />
    <path d="M43.4393 12.2612H41.1398V28.9858L53.7009 41.5917L55.3268 39.9599L43.4393 28.0299V12.2612Z" fill="#0C713F" />
    </g>
  	</symbol>

	<!-- hat -->
	<symbol id="svg-hat" viewBox="0 0 79 60">
	<g>
  <path opacity="0.5" fill-rule="evenodd" clip-rule="evenodd" d="M39.3914 0L78.6207 18.8591L63.9535 26.5788V53.0059H53.4155V51.4517H62.4038V27.3945L51.7108 33.0225V60H50.1611V33.8381L39.3914 39.5065L16.3001 27.4029V51.4517H48.3789V53.0059H14.7504V26.5906L0 18.859L39.3914 0ZM75.1663 18.922L51.1724 31.5506L39.3187 19.6622L38.2229 20.7612L49.7351 32.3071L39.3899 37.752L3.46581 18.922L39.39 1.7229L75.1663 18.922Z" fill="#0F7290" />
    </g>
  	</symbol>

	<!-- student -->
	<symbol id="svg-student" viewBox="0 0 62 60">
	<g>
  <path opacity="0.5" fill-rule="evenodd" clip-rule="evenodd" d="M30.8443 0L61.8557 11.1132L46.0922 16.5035C48.4091 19.6372 49.7793 23.5118 49.7793 27.7043C49.7793 36.2487 44.0928 43.4649 36.2917 45.8003C46.2282 47.9558 52.8311 55.2457 55.1507 59.2074L53.8002 60C51.2207 55.5942 42.9213 46.7519 30.525 46.7519C18.1355 46.7519 10.152 55.5863 7.72954 59.9823L6.35892 59.2251C8.57313 55.207 15.0624 47.7805 25.1375 45.7245C17.4637 43.312 11.8969 36.1582 11.8969 27.7043C11.8969 23.5981 13.2113 19.7968 15.4423 16.6978L1.56539 12.1751V36.3293H0V10.5352L30.8443 0ZM30.8441 21.7175L44.5304 17.0375C46.8389 19.9786 48.2139 23.6806 48.2139 27.7043C48.2139 37.2688 40.4375 45.0279 30.8381 45.0279C21.2387 45.0279 13.4623 37.2688 13.4623 27.7043C13.4623 23.7586 14.7845 20.1223 17.0125 17.2096L30.8441 21.7175ZM3.25785 11.0785L30.8322 20.0654L57.1137 11.0785L30.8319 1.66022L3.25785 11.0785Z" fill="#0F7290" />
    </g>
  	</symbol>

	<!-- lamp -->
	<symbol id="svg-lamp" viewBox="0 0 64 60">
  <g opacity="0.5">
    <path d="M32.3835 0V17.5532H31.1086V0H32.3835Z" fill="#0F7290" />
    <path d="M8.99288 14.8679L16.7063 22.5913L15.8048 23.4939L8.09136 15.7705L8.99288 14.8679Z" fill="#0F7290" />
    <path d="M46.4033 22.5913L54.1167 14.8679L55.0182 15.7705L47.3048 23.4939L46.4033 22.5913Z" fill="#0F7290" />
    <path d="M31.8735 29.1064C27.7192 29.1064 24.3514 32.4785 24.3514 36.6383H23.0764C23.0764 31.7735 27.015 27.8298 31.8735 27.8298V29.1064Z" fill="#0F7290" />
    <path fill-rule="evenodd" clip-rule="evenodd" d="M17.2117 47.617V36.4131C17.2117 28.3603 23.7176 21.8298 31.746 21.8298C39.7744 21.8298 46.2804 28.3603 46.2804 36.4131V47.617H49.8502V60H13.7694V47.617H17.2117ZM18.4866 36.4131C18.4866 29.0627 24.4244 23.1064 31.746 23.1064C39.0677 23.1064 45.0054 29.0627 45.0054 36.4131V47.617H18.4866V36.4131ZM15.0443 48.8936H48.5753V58.7234H15.0443V48.8936Z" fill="#0F7290" />
    <path d="M50.6152 34.7872H63.4921V33.5106H50.6152V34.7872Z" fill="#0F7290" />
    <path d="M0 34.7872H12.8769V33.5106H0V34.7872Z" fill="#0F7290" />
    </g>
  	</symbol>

	<!-- med -->
	<symbol id="svg-med" viewBox="0 0 47 60">
  <g opacity="0.5">
    <path d="M20.5 12.64H25.625V20.48H33.4727V25.6H25.625V33.44H20.5V25.6H12.6523V20.48H20.5V12.64Z" fill="#4F7853" />
    <path fill-rule="evenodd" clip-rule="evenodd" d="M46.125 23.04C46.125 33.12 30.8301 60 23.0625 60C15.2949 60 0 34.32 0 23.04C0 10.3153 10.3255 0 23.0625 0C35.7995 0 46.125 10.3153 46.125 23.04ZM44.5234 23.04C44.5234 25.247 43.6624 28.5855 42.1241 32.4802C40.6047 36.3269 38.4908 40.5531 36.1334 44.4766C33.7719 48.407 31.1987 51.9787 28.7775 54.545C27.5657 55.8294 26.4288 56.8225 25.4105 57.4841C24.3709 58.1594 23.5922 58.4 23.0625 58.4C22.5138 58.4 21.7255 58.1633 20.6893 57.5172C19.6719 56.8828 18.5368 55.9298 17.3278 54.6933C14.9115 52.222 12.3424 48.7653 9.98458 44.915C7.63096 41.0714 5.5207 36.8887 4.00375 32.9936C2.47304 29.0628 1.60156 25.563 1.60156 23.04C1.60156 11.1991 11.2099 1.6 23.0625 1.6C34.9151 1.6 44.5234 11.1991 44.5234 23.04Z" fill="#4F7853" />
    </g>
  	</symbol>

		<!-- ambulance -->
	<symbol id="svg-ambulance " viewBox="0 0 75 60">
  <g opacity="0.5">
    <path fill-rule="evenodd" clip-rule="evenodd" d="M21.5338 10.0958C20.9008 10.0958 20.3876 10.6102 20.3876 11.2449V15.3488H16.2937C15.6606 15.3488 15.1474 15.8633 15.1474 16.4979V22.0793C15.1474 22.714 15.6606 23.2285 16.2937 23.2285H20.3876V27.3324C20.3876 27.9671 20.9008 28.4815 21.5338 28.4815H27.1015C27.7346 28.4815 28.2478 27.9671 28.2478 27.3324V23.2285H32.3417C32.9748 23.2285 33.488 22.714 33.488 22.0793V16.4979C33.488 15.8633 32.9748 15.3488 32.3417 15.3488H28.2478V11.2449C28.2478 10.6102 27.7346 10.0958 27.1015 10.0958H21.5338ZM16.7849 16.9904H22.0251V11.7373H26.6103V16.9904H31.8504V21.5869H26.6103V26.8399H22.0251V21.5869H16.7849V16.9904Z" fill="#4F7853" />
    <path d="M17.7675 54.7469C19.2145 54.7469 20.3876 53.571 20.3876 52.1204C20.3876 50.6698 19.2145 49.4938 17.7675 49.4938C16.3204 49.4938 15.1474 50.6698 15.1474 52.1204C15.1474 53.571 16.3204 54.7469 17.7675 54.7469Z" fill="#4F7853" />
    <path d="M59.6889 52.1204C59.6889 53.571 58.5158 54.7469 57.0688 54.7469C55.6217 54.7469 54.4487 53.571 54.4487 52.1204C54.4487 50.6698 55.6217 49.4938 57.0688 49.4938C58.5158 49.4938 59.6889 50.6698 59.6889 52.1204Z" fill="#4F7853" />
    <path fill-rule="evenodd" clip-rule="evenodd" d="M0 1.64159C0 0.734965 0.733155 0 1.63755 0H56.2304C60.0842 0 63.5418 2.37427 64.9341 5.97664L75 32.0217V49.9863C75 50.8929 74.2668 51.6279 73.3624 51.6279H64.9139C64.924 51.7908 64.929 51.955 64.929 52.1204C64.929 56.4722 61.4099 60 57.0688 60C52.7277 60 49.2085 56.4722 49.2085 52.1204C49.2085 51.955 49.2136 51.7908 49.2236 51.6279H25.6126C25.6226 51.7908 25.6277 51.955 25.6277 52.1204C25.6277 56.4722 22.1086 60 17.7675 60C13.4264 60 9.90721 56.4722 9.90721 52.1204C9.90721 51.955 9.91229 51.7908 9.92231 51.6279H1.63755C0.733158 51.6279 0 50.8929 0 49.9863V1.64159ZM68.1223 49.9863H64.6374C63.7092 46.6714 60.6721 44.2408 57.0688 44.2408C53.4654 44.2408 50.4284 46.6714 49.5002 49.9863H25.336C24.4078 46.6714 21.3708 44.2408 17.7675 44.2408C14.1641 44.2408 11.1271 46.6714 10.1989 49.9863H1.63755V40.9576H61.2445V39.316H1.63755V1.64159H56.2304C59.4081 1.64159 62.2591 3.59932 63.4071 6.56969L63.9134 7.87962H50.2729C48.4641 7.87962 46.9978 9.34954 46.9978 11.1628V27.1683C46.9978 28.9815 48.4641 30.4514 50.2729 30.4514H72.637L73.3624 32.3286V34.3092H67.1397C66.2353 34.3092 65.5022 35.0441 65.5022 35.9508V39.316C65.5022 40.2226 66.2353 40.9576 67.1397 40.9576H73.3624V44.487H69.7598C68.8554 44.487 68.1223 45.222 68.1223 46.1286V49.9863ZM64.5478 9.5212H50.2729C49.3685 9.5212 48.6354 10.2562 48.6354 11.1628V27.1683C48.6354 28.0749 49.3685 28.8098 50.2729 28.8098H72.0025L64.5478 9.5212ZM73.3624 35.9508H67.1397V39.316H73.3624V35.9508ZM73.3624 46.1286H69.7598V49.9863H73.3624V46.1286ZM23.9902 52.1204C23.9902 55.5656 21.2042 58.3584 17.7675 58.3584C14.3308 58.3584 11.5448 55.5656 11.5448 52.1204C11.5448 48.6752 14.3308 45.8824 17.7675 45.8824C21.2042 45.8824 23.9902 48.6752 23.9902 52.1204ZM63.2915 52.1204C63.2915 55.5656 60.5055 58.3584 57.0688 58.3584C53.6321 58.3584 50.8461 55.5656 50.8461 52.1204C50.8461 48.6752 53.6321 45.8824 57.0688 45.8824C60.5055 45.8824 63.2915 48.6752 63.2915 52.1204Z" fill="#4F7853" />
   </g>
  	</symbol>

	<!-- magnifier -->
	<symbol id="svg-magnifier" viewBox="0 0 61 60">
	<g>
  <path opacity="0.5" fill-rule="evenodd" clip-rule="evenodd" d="M38.14 38.4038C34.0949 42.4171 28.5315 44.8954 22.3907 44.8954C10.0247 44.8954 0 34.8453 0 22.4477C0 10.0502 10.0247 0 22.3907 0C34.7568 0 44.7815 10.0502 44.7815 22.4477C44.7815 28.1201 42.6829 33.301 39.2217 37.2528L60.9474 58.8782L59.8364 60L38.14 38.4038ZM43.2046 22.4477C43.2046 33.9722 33.8859 43.3146 22.3907 43.3146C10.8955 43.3146 1.57681 33.9722 1.57681 22.4477C1.57681 10.9233 10.8955 1.58083 22.3907 1.58083C33.8859 1.58083 43.2046 10.9233 43.2046 22.4477Z" fill="#4F7853" />
   </g>
  	</symbol>

		<!-- card -->
	<symbol id="svg-card" viewBox="0 0 80 60">
  <g opacity="0.5">
    <path d="M47.8125 19.125H69.0625V17.125H47.8125V19.125Z" fill="#3B80A7" />
    <path d="M47.8125 32.7188H69.0625V30.7188H47.8125V32.7188Z" fill="#3B80A7" />
    <path d="M47.8125 46.1562H69.0625V44.1562H47.8125V46.1562Z" fill="#3B80A7" />
    <path d="M15.9187 36.1562C14.1514 36.1562 12.7188 37.5889 12.7188 39.3563V46.4062H10.7188V39.3563C10.7188 36.4844 13.0469 34.1562 15.9187 34.1562H34.2375C37.1094 34.1562 39.4375 36.4844 39.4375 39.3563V46.4062H37.4375V39.3563C37.4375 37.5889 36.0048 36.1562 34.2375 36.1562H15.9187Z" fill="#3B80A7" />
    <path fill-rule="evenodd" clip-rule="evenodd" d="M33.4375 21.5625C33.4375 26.2224 29.6599 30 25 30C20.3401 30 16.5625 26.2224 16.5625 21.5625C16.5625 16.9026 20.3401 13.125 25 13.125C29.6599 13.125 33.4375 16.9026 33.4375 21.5625ZM31.4375 21.5625C31.4375 25.1178 28.5553 28 25 28C21.4447 28 18.5625 25.1178 18.5625 21.5625C18.5625 18.0072 21.4447 15.125 25 15.125C28.5553 15.125 31.4375 18.0072 31.4375 21.5625Z" fill="#3B80A7" />
    <path fill-rule="evenodd" clip-rule="evenodd" d="M0 60V0H80V60H0ZM2 2H78V58H2V2Z" fill="#3B80A7" />
   </g>
  	</symbol>

	<!-- list -->
	<symbol id="svg-list" viewBox="0 0 45 60">
	<g>
  <path opacity="0.5" fill-rule="evenodd" clip-rule="evenodd" d="M0 0.878049C0 0.393115 0.392341 0 0.876316 0H43.5237C44.0077 0 44.4 0.393122 44.4 0.878049V47.0533L31.483 60H0.876316C0.392339 60 0 59.6069 0 59.1219V0.878049ZM1.46053 1.46341V58.5366H30.4502V46.8966C30.4502 46.4117 30.8425 46.0186 31.3265 46.0186H42.9395V1.46341H1.46053ZM41.9071 47.482H31.9107V57.5014L41.9071 47.482ZM29.5101 8.19726L22.8294 17.3603C22.5151 17.7914 21.8928 17.844 21.5108 17.4718L17.3493 13.4166L18.3676 12.3675L22.0469 15.9528L28.3308 7.33401L29.5101 8.19726ZM12.6249 25.1552H36.8898V26.6186H12.6249V25.1552ZM36.8898 34.3679H7.62913V32.9045H36.8898V34.3679ZM26.6605 42.1171H7.62913V40.6537H26.6605V42.1171Z" fill="#3B80A7" />
   </g>
  	</symbol>

		<!-- book -->
	<symbol id="svg-book" viewBox="0 0 78 60">
  <g opacity="0.5">
    <path d="M65.9713 10.8971C63.71 10.4753 59.838 10.135 55.6454 10.5051C51.4454 10.8758 47.0025 11.9527 43.5336 14.301C43.183 14.5383 42.7061 14.4469 42.4684 14.0969C42.2307 13.7468 42.3223 13.2706 42.6729 13.0332C46.4441 10.4802 51.1792 9.36168 55.5104 8.97935C59.8489 8.59637 63.8613 8.94532 66.253 9.39146C66.6693 9.46913 66.9438 9.86914 66.866 10.2849C66.7882 10.7007 66.3876 10.9748 65.9713 10.8971Z" fill="#3B80A7" />
    <path d="M65.9713 20.344C63.71 19.9222 59.838 19.5819 55.6454 19.952C51.4454 20.3228 47.0025 21.3996 43.5336 23.748C43.183 23.9853 42.7061 23.8939 42.4684 23.5438C42.2307 23.1937 42.3223 22.7175 42.6729 22.4802C46.4441 19.9272 51.1792 18.8086 55.5104 18.4263C59.8489 18.0433 63.8613 18.3923 66.253 18.8384C66.6693 18.9161 66.9438 19.3161 66.866 19.7319C66.7882 20.1476 66.3876 20.4217 65.9713 20.344Z" fill="#3B80A7" />
    <path d="M65.9713 29.791C63.71 29.3692 59.838 29.0289 55.6454 29.399C51.4454 29.7697 47.0025 30.8466 43.5336 33.1949C43.183 33.4323 42.7061 33.3409 42.4684 32.9908C42.2307 32.6407 42.3223 32.1645 42.6729 31.9271C46.4441 29.3741 51.1792 28.2556 55.5104 27.8733C59.8489 27.4903 63.8613 27.8393 66.253 28.2854C66.6693 28.3631 66.9438 28.7631 66.866 29.1788C66.7882 29.5946 66.3876 29.8687 65.9713 29.791Z" fill="#3B80A7" />
    <path d="M65.9713 39.238C63.71 38.8162 59.838 38.4759 55.6454 38.846C51.4454 39.2167 47.0025 40.2936 43.5336 42.6419C43.183 42.8792 42.7061 42.7878 42.4684 42.4377C42.2307 42.0877 42.3223 41.6115 42.6729 41.3741C46.4441 38.8211 51.1792 37.7026 55.5104 37.3202C59.8489 36.9373 63.8613 37.2862 66.253 37.7324C66.6693 37.81 66.9438 38.21 66.866 38.6258C66.7882 39.0416 66.3876 39.3156 65.9713 39.238Z" fill="#3B80A7" />
    <path d="M22.4313 10.5051C18.2387 10.135 14.3666 10.4753 12.1054 10.8971C11.6891 10.9748 11.2885 10.7007 11.2107 10.2849C11.1329 9.86914 11.4074 9.46913 11.8237 9.39146C14.2154 8.94532 18.2278 8.59637 22.5663 8.97935C26.8975 9.36168 31.6326 10.4802 35.4038 13.0332C35.7544 13.2706 35.846 13.7468 35.6083 14.0969C35.3706 14.4469 34.8937 14.5383 34.5431 14.301C31.0742 11.9527 26.6313 10.8758 22.4313 10.5051Z" fill="#3B80A7" />
    <path d="M22.4313 19.952C18.2387 19.5819 14.3666 19.9222 12.1054 20.344C11.6891 20.4217 11.2885 20.1476 11.2107 19.7319C11.1329 19.3161 11.4074 18.9161 11.8237 18.8384C14.2154 18.3923 18.2278 18.0433 22.5663 18.4263C26.8975 18.8086 31.6326 19.9272 35.4038 22.4802C35.7544 22.7175 35.846 23.1937 35.6083 23.5438C35.3706 23.8939 34.8937 23.9853 34.5431 23.748C31.0742 21.3996 26.6313 20.3228 22.4313 19.952Z" fill="#3B80A7" />
    <path d="M22.4313 29.399C18.2387 29.0289 14.3666 29.3692 12.1054 29.791C11.6891 29.8687 11.2885 29.5946 11.2107 29.1788C11.1329 28.7631 11.4074 28.3631 11.8237 28.2854C14.2154 27.8393 18.2278 27.4903 22.5663 27.8733C26.8975 28.2556 31.6326 29.3741 35.4038 31.9271C35.7544 32.1645 35.846 32.6407 35.6083 32.9908C35.3706 33.3409 34.8937 33.4323 34.5431 33.1949C31.0742 30.8466 26.6313 29.7697 22.4313 29.399Z" fill="#3B80A7" />
    <path d="M22.4313 38.846C18.2387 38.4759 14.3666 38.8162 12.1054 39.238C11.6891 39.3156 11.2885 39.0416 11.2107 38.6258C11.1329 38.21 11.4074 37.81 11.8237 37.7324C14.2154 37.2862 18.2278 36.9373 22.5663 37.3202C26.8975 37.7026 31.6326 38.8211 35.4038 41.3741C35.7544 41.6115 35.846 42.0877 35.6083 42.4377C35.3706 42.7878 34.8937 42.8792 34.5431 42.6419C31.0742 40.2936 26.6313 39.2167 22.4313 38.846Z" fill="#3B80A7" />
    <path fill-rule="evenodd" clip-rule="evenodd" d="M54.9496 0.17567C60.7088 -0.399092 66.3014 0.51442 70.2145 1.78583C71.0368 2.05298 71.5575 2.82048 71.5575 3.6529V3.88604L76.053 5.0617C77.2 5.36167 78 6.39659 78 7.58057V53.8752C78 55.6705 76.1715 56.8033 74.5648 56.2882C68.0226 54.1904 55.6233 52.7753 43.5699 59.3737C42.8474 59.7692 42.0275 60 41.1811 60H36.5247C35.6094 60 34.7409 59.7295 33.9808 59.3057C28.7381 56.3823 16.8331 52.5802 3.24418 56.4942C1.6703 56.9475 0 55.8093 0 54.108V7.26737C0 6.30645 0.536093 5.38038 1.48732 4.9908C2.68958 4.49841 4.49368 3.91902 6.36578 3.75596V3.65588C6.36578 2.8235 6.8852 2.05195 7.71562 1.78837C11.2102 0.679178 16.6419 -0.274238 22.4411 0.23878C28.0771 0.737364 34.1072 2.62669 39.021 7.15602C43.5655 2.69911 49.3616 0.73336 54.9496 0.17567ZM55.1022 1.69974C49.6316 2.24571 44.0745 4.18855 39.8053 8.53923V53.0892C40.0307 52.9974 40.2447 52.8709 40.4381 52.7103C44.7295 49.1441 50.1551 47.6184 55.2828 47.1845C60.4132 46.7503 65.3132 47.4024 68.6318 48.2579C69.3493 48.4429 70.0236 47.9032 70.0236 47.2708V3.6529C70.0236 3.45256 69.9012 3.29474 69.7399 3.24233C66.002 2.02787 60.6234 1.14872 55.1022 1.69974ZM22.3057 1.76447C27.8208 2.25236 33.6218 4.11928 38.2714 8.55419V53.1942C37.9915 53.1214 37.7245 52.9967 37.4869 52.8195C27.9738 45.7256 16.063 46.9119 9.03965 48.2572C8.44126 48.3719 7.8997 47.9194 7.8997 47.3379V3.65588C7.8997 3.45258 8.02225 3.29823 8.1803 3.24806C11.51 2.19119 16.7371 1.27184 22.3057 1.76447ZM6.36578 5.29418C4.756 5.45367 3.16853 5.95775 2.06941 6.4079C1.75364 6.53723 1.53392 6.86088 1.53392 7.26737V54.108C1.53392 54.7249 2.16224 55.2117 2.81905 55.0225C16.8822 50.972 29.2094 54.8908 34.7287 57.9684C35.3009 58.2875 35.9142 58.4683 36.5247 58.4683H41.1811C41.7478 58.4683 42.3159 58.3134 42.8325 58.0306C55.3588 51.1733 68.2192 52.6447 75.0338 54.8298C75.7569 55.0617 76.4661 54.5231 76.4661 53.8752V7.58057C76.4661 7.09305 76.1367 6.66691 75.6644 6.54339L71.5575 5.46937V47.2708C71.5575 49.0108 69.8312 50.1491 68.2483 49.741C65.0756 48.923 60.3498 48.2928 55.4124 48.7107C50.4722 49.1288 45.3879 50.5896 41.4193 53.8875C40.0497 55.0258 38.0207 55.1292 36.5691 54.0467C27.6144 47.3693 16.2904 48.4279 9.32864 49.7615C7.81097 50.0522 6.36578 48.9078 6.36578 47.3379V5.29418Z" fill="#3B80A7" />
    </g>
  	</symbol>
</svg>