<svg width="400" height="400" viewBox="0 0 400 400" fill="none" xmlns="http://www.w3.org/2000/svg">
<rect width="400" height="400" fill="white"/>
<path d="M323.897 125.538C340.087 125.538 353.212 112.413 353.212 96.2227C353.212 80.0324 340.087 66.9075 323.897 66.9075C307.706 66.9075 294.581 80.0324 294.581 96.2227C294.581 112.413 307.706 125.538 323.897 125.538Z" fill="#375A64"/>
<path d="M231.89 78.6306C248.08 78.6306 261.205 65.5057 261.205 49.3153C261.205 33.1249 248.08 20 231.89 20C215.7 20 202.575 33.1249 202.575 49.3153C202.575 65.5057 215.7 78.6306 231.89 78.6306Z" fill="#393A5A"/>
<path d="M133.147 96.2221C149.337 96.2221 162.462 83.0972 162.462 66.9068C162.462 50.7164 149.337 37.5916 133.147 37.5916C116.957 37.5916 103.832 50.7164 103.832 66.9068C103.832 83.0972 116.957 96.2221 133.147 96.2221Z" fill="#016380"/>
<path d="M61.8221 162.97C78.0125 162.97 91.1374 149.845 91.1374 133.655C91.1374 117.464 78.0125 104.339 61.8221 104.339C45.6317 104.339 32.5068 117.464 32.5068 133.655C32.5068 149.845 45.6317 162.97 61.8221 162.97Z" fill="#03728E"/>
<path d="M46.3153 263.162C62.5057 263.162 75.6306 250.037 75.6306 233.846C75.6306 217.656 62.5057 204.531 46.3153 204.531C30.1249 204.531 17 217.656 17 233.846C17 250.037 30.1249 263.162 46.3153 263.162Z" fill="#469497"/>
<path d="M99.9295 354.572C116.12 354.572 129.245 341.447 129.245 325.257C129.245 309.066 116.12 295.941 99.9295 295.941C83.7392 295.941 70.6143 309.066 70.6143 325.257C70.6143 341.447 83.7392 354.572 99.9295 354.572Z" fill="#4F7854"/>
<path d="M202.576 391.344C218.767 391.344 231.892 378.219 231.892 362.029C231.892 345.838 218.767 332.713 202.576 332.713C186.386 332.713 173.261 345.838 173.261 362.029C173.261 378.219 186.386 391.344 202.576 391.344Z" fill="#C9B080"/>
<path d="M164.979 170.918C164.979 180.341 162.213 188.121 156.679 194.257C150.927 200.667 143.394 203.872 134.08 203.872C125.478 203.872 118.192 200.859 112.22 194.832C106.248 188.751 103.262 181.409 103.262 172.808C103.262 164.152 106.303 156.92 112.384 151.112C118.466 145.305 125.834 142.401 134.491 142.401C140.736 142.401 146.352 144.018 151.338 147.25C156.597 150.592 160.24 155.139 162.268 160.892H148.461C145.01 155.851 140.216 153.331 134.08 153.331C128.82 153.331 124.355 155.249 120.685 159.084C117.069 162.864 115.261 167.411 115.261 172.726C115.261 178.259 117.014 183.026 120.52 187.025C124.081 191.024 128.601 193.024 134.08 193.024C142.243 193.024 147.996 189.052 151.338 181.108H129.067V170.918H164.979Z" fill="#393A5A"/>
<path d="M182.85 202.721H172.084V139.443H182.85V202.721Z" fill="#393A5A"/>
<path d="M200.536 181.437C200.536 185.107 201.604 188.148 203.741 190.559C205.932 192.914 208.863 194.092 212.534 194.092C216.205 194.092 219.108 192.914 221.245 190.559C223.436 188.148 224.532 185.107 224.532 181.437C224.532 177.656 223.464 174.588 221.327 172.233C219.19 169.822 216.259 168.617 212.534 168.617C208.863 168.617 205.932 169.822 203.741 172.233C201.604 174.643 200.536 177.711 200.536 181.437ZM235.462 181.19C235.462 187.874 233.298 193.325 228.97 197.544C224.697 201.763 219.218 203.872 212.534 203.872C205.85 203.872 200.344 201.763 196.016 197.544C191.742 193.271 189.606 187.819 189.606 181.19C189.606 174.725 191.797 169.384 196.18 165.165C200.618 160.947 206.069 158.837 212.534 158.837C219.054 158.837 224.505 160.947 228.888 165.165C233.271 169.384 235.462 174.725 235.462 181.19Z" fill="#393A5A"/>
<path d="M287.26 181.355C287.26 187.819 285.261 193.188 281.261 197.462C277.262 201.735 272.057 203.872 265.647 203.872C260.114 203.872 255.731 201.79 252.498 197.626V202.721H242.144V139.443H252.827V164.426C256.498 160.755 260.935 158.919 266.14 158.919C272.441 158.919 277.536 161.084 281.426 165.412C285.315 169.685 287.26 174.999 287.26 181.355ZM264.497 194.339C268.003 194.339 270.934 193.079 273.29 190.559C275.7 187.984 276.906 184.916 276.906 181.355C276.906 177.848 275.728 174.835 273.372 172.315C271.071 169.795 268.167 168.535 264.661 168.535C261.209 168.535 258.306 169.822 255.95 172.397C253.649 174.917 252.498 177.93 252.498 181.437C252.498 184.833 253.649 187.847 255.95 190.476C258.306 193.051 261.155 194.339 264.497 194.339Z" fill="#393A5A"/>
<path d="M337.292 202.721H326.773V197.708C323.541 201.817 319.103 203.872 313.46 203.872C307.215 203.872 302.092 201.708 298.093 197.38C294.148 193.051 292.176 187.71 292.176 181.355C292.176 175.054 294.148 169.74 298.093 165.412C302.037 161.084 307.132 158.919 313.378 158.919C319.131 158.919 323.541 160.864 326.609 164.754V160.152H337.292V202.721ZM326.938 181.601C326.938 177.985 325.76 174.917 323.404 172.397C321.048 169.822 318.09 168.535 314.529 168.535C311.022 168.535 308.146 169.795 305.9 172.315C303.653 174.835 302.53 177.848 302.53 181.355C302.53 184.806 303.681 187.847 305.982 190.476C308.338 193.051 311.241 194.339 314.693 194.339C318.035 194.339 320.911 193.051 323.322 190.476C325.732 187.902 326.938 184.943 326.938 181.601Z" fill="#393A5A"/>
<path d="M357 202.721H346.235V139.443H357V202.721Z" fill="#393A5A"/>
<path d="M107.967 260.484H120.518C120.518 263.04 121.186 265.219 122.523 267.021C123.975 269.054 125.951 270.071 128.45 270.071C130.948 270.071 132.953 269.287 134.464 267.718C135.975 266.091 136.73 264.028 136.73 261.53C136.73 258.74 135.103 256.3 131.849 254.208C130.338 253.162 127.491 251.797 123.307 250.112C114.184 246.393 109.623 240.814 109.623 233.377C109.623 227.857 111.57 223.499 115.463 220.303C119.124 217.397 123.772 215.945 129.408 215.945C135.103 215.945 139.635 217.543 143.005 220.738C146.376 223.934 148.061 228.38 148.061 234.074H135.946C135.539 229.251 133.214 226.84 128.973 226.84C124.266 226.84 121.913 228.961 121.913 233.202C121.913 234.655 122.552 236.137 123.83 237.648C125.109 239.158 127.055 240.495 129.67 241.657C134.667 243.865 138.183 245.608 140.216 246.887C144.284 249.385 146.957 252.116 148.235 255.08C148.991 256.823 149.368 258.915 149.368 261.355C149.368 267.515 147.451 272.366 143.616 275.911C139.839 279.397 134.841 281.141 128.624 281.141C122.348 281.141 117.322 279.281 113.545 275.562C109.826 271.785 107.967 266.759 107.967 260.484Z" fill="#393A5A"/>
<path d="M175.455 243.662H169.005V279.92H157.674V243.662H152.793V234.771H157.674V219.954H169.005V234.771H175.455V243.662Z" fill="#393A5A"/>
<path d="M226.982 279.92H215.826V274.604C212.398 278.962 207.691 281.141 201.706 281.141C195.082 281.141 189.649 278.845 185.407 274.255C181.223 269.664 179.131 263.999 179.131 257.259C179.131 250.576 181.223 244.94 185.407 240.35C189.591 235.759 194.995 233.464 201.619 233.464C207.72 233.464 212.398 235.527 215.652 239.652V234.771H226.982V279.92ZM216 257.52C216 253.685 214.751 250.431 212.252 247.758C209.754 245.027 206.616 243.662 202.839 243.662C199.12 243.662 196.07 244.998 193.687 247.671C191.305 250.344 190.114 253.54 190.114 257.259C190.114 260.919 191.334 264.144 193.774 266.933C196.273 269.664 199.353 271.03 203.013 271.03C206.558 271.03 209.608 269.664 212.165 266.933C214.722 264.202 216 261.065 216 257.52Z" fill="#393A5A"/>
<path d="M255.032 243.662H248.93V279.92H237.6V243.662H232.719V234.771H237.512V226.753C237.512 217.455 242.771 212.807 253.289 212.807H255.032V221.61C250.848 221.726 248.756 223.586 248.756 227.188V234.771H255.032V243.662Z" fill="#393A5A"/>
<path d="M278.354 243.662H272.253V279.92H260.922V243.662H256.041V234.771H260.835V226.753C260.835 217.455 266.093 212.807 276.611 212.807H278.354V221.61C274.17 221.726 272.078 223.586 272.078 227.188V234.771H278.354V243.662Z" fill="#393A5A"/>
</svg>
