<svg width="400" height="400" viewBox="0 0 400 400" fill="none" xmlns="http://www.w3.org/2000/svg">
<path d="M185.819 330.916C180.013 325.689 177.3 323.381 170.511 320.069C156.731 313.34 143.953 303.478 132.958 292.972C110.114 271.118 93.9676 243 86.6501 212.502C65.2981 123.602 121.29 34.5049 211.704 13.5105C211.886 13.4747 212.068 13.4389 212.25 13.3852C193.938 12.2218 175.134 13.6715 156.331 18.0387C54.2307 41.7537 -8.98788 142.341 15.1309 242.732C39.2498 343.122 141.55 405.282 243.65 381.585C246.216 380.995 248.747 380.332 251.277 379.634C232.928 370.238 193.665 337.95 185.819 330.898V330.916Z" fill="#03728E"/>
<path d="M384.868 156.895C372.053 103.54 337.14 60.9788 291.924 36.3689C316.716 30.5878 334.046 31.0173 334.046 31.0173C301.535 22.9811 243.031 23.9655 215.126 46.7856C215.126 46.7856 233.038 45.2463 235.714 46.875C206.698 58.0972 157.205 90.9223 163.412 159.025C165.159 178.319 170.238 198.902 160.882 215.941C167.981 211.18 172.877 203.394 174.061 195.036C183.089 215.243 176.481 238.618 168.927 259.397C173.751 255.567 178.575 251.737 183.399 247.907C174.152 275.058 190.753 309.226 210.63 322.936C141.368 283.291 130.374 194.248 129.281 171.177C126.405 110.073 158.624 69.9457 184.545 53.1573C143.006 74.295 118.942 121.081 117.741 167.043C116.539 213.005 134.105 261.026 162.465 295.301C183.544 320.77 221.424 336.932 222.935 337.594L252.388 379.368C349.336 352.11 408.295 254.422 384.868 156.913V156.895Z" fill="#03728E"/>
<path d="M201.165 195.231L201.729 192.654C202.13 192.833 202.621 192.922 203.186 192.922C203.713 192.922 204.132 192.779 204.478 192.475C204.806 192.171 204.988 191.777 204.988 191.276C204.988 191.097 204.878 190.631 204.678 189.916L202.057 181.217H205.443L207.336 188.698L211.686 181.217H215.309L208.41 191.938C207.518 193.316 206.699 194.265 205.952 194.784C205.188 195.285 204.241 195.553 203.058 195.553C202.421 195.553 201.784 195.446 201.183 195.249L201.165 195.231Z" fill="white"/>
<path d="M220.243 189.866C218.569 189.866 217.385 189.473 216.676 188.703C215.966 187.933 215.802 186.681 216.184 184.927L216.985 181.186H220.116L219.297 184.962C219.115 185.804 219.151 186.394 219.424 186.752C219.697 187.11 220.225 187.271 221.026 187.271C221.681 187.271 222.646 187.164 223.939 186.949L225.195 181.168H228.325L225.267 195.254H222.136L223.411 189.437C222.027 189.705 220.971 189.831 220.262 189.831L220.243 189.866Z" fill="white"/>
<path d="M242.851 181.209L242.323 183.715H234.533L233.877 186.811H241.104L240.576 189.227H233.349L232.585 192.699H240.521L239.957 195.277H228.908L231.948 181.191H242.833L242.851 181.209Z" fill="white"/>
<path d="M248.076 186.274H251.317C252.318 186.274 253.155 186.363 253.829 186.542C254.611 186.775 255.23 187.223 255.685 187.903C256.14 188.583 256.377 189.37 256.377 190.265C256.377 191.16 256.177 191.948 255.776 192.699C255.376 193.451 254.83 194.042 254.138 194.471C253.264 195.008 251.881 195.277 249.988 195.277H243.052L246.092 181.191H256.887L256.359 183.697H248.586L248.04 186.256L248.076 186.274ZM253.355 190.516C253.355 190.122 253.283 189.8 253.137 189.549C252.991 189.299 252.791 189.12 252.5 189.012C252.227 188.905 251.936 188.833 251.681 188.798C251.408 188.762 251.062 188.744 250.661 188.744H247.549L246.675 192.825H250.679C251.48 192.825 252.136 192.646 252.627 192.27C253.119 191.894 253.355 191.321 253.355 190.534V190.516Z" fill="white"/>
<path d="M273.432 181.211L270.393 195.297H267.262L268.572 189.23H262.747L261.437 195.297H258.306L261.346 181.211H264.477L263.312 186.617H269.137L270.302 181.211H273.432Z" fill="white"/>
<path d="M285.847 190.265C285.847 191.142 285.647 191.948 285.247 192.699C284.846 193.451 284.3 194.042 283.608 194.471C282.735 195.008 281.351 195.277 279.458 195.277H273.961L277.001 181.191H280.114L279.021 186.256H280.751C281.752 186.256 282.589 186.346 283.263 186.525C284.045 186.757 284.664 187.205 285.119 187.885C285.574 188.565 285.811 189.352 285.811 190.247L285.847 190.265ZM282.808 190.498C282.808 190.104 282.735 189.782 282.589 189.531C282.443 189.281 282.243 189.102 281.952 188.994C281.679 188.887 281.388 188.816 281.133 188.78C280.86 188.744 280.514 188.726 280.114 188.726H278.512L277.638 192.807H280.132C280.933 192.807 281.588 192.628 282.079 192.252C282.571 191.876 282.808 191.303 282.808 190.516V190.498ZM289.324 181.209H292.455L289.415 195.295H286.284L289.324 181.209Z" fill="white"/>
<path d="M308.109 181.209L305.07 195.295H301.939L304.05 185.523H303.996L296.714 195.295H292.965L296.004 181.209H299.135L297.042 190.964H297.097L304.378 181.209H308.091H308.109ZM304.578 177.415H305.707C305.434 179.312 304.25 180.261 302.139 180.261C301.211 180.261 300.482 180.082 299.918 179.706C299.354 179.33 299.099 178.757 299.099 177.988C299.099 177.862 299.099 177.684 299.135 177.415H300.264C300.282 177.845 300.482 178.185 300.828 178.399C301.192 178.614 301.647 178.722 302.23 178.722C302.812 178.722 303.358 178.614 303.777 178.399C304.196 178.185 304.469 177.862 304.56 177.415H304.578Z" fill="white"/>
<path d="M207.006 227.04C205.951 227.434 204.95 227.72 203.985 227.917C203.02 228.114 202.037 228.221 201.054 228.221C199.47 228.221 198.16 228.007 197.104 227.559C196.048 227.112 195.211 226.539 194.574 225.805C193.937 225.071 193.482 224.23 193.227 223.299C192.972 222.369 192.826 221.402 192.826 220.4C192.826 220.006 192.863 219.505 192.917 218.896C192.972 218.27 193.081 217.59 193.245 216.838C193.409 216.086 193.627 215.299 193.9 214.476C194.173 213.652 194.537 212.829 194.974 212.041C195.411 211.254 195.939 210.484 196.558 209.75C197.177 209.017 197.905 208.372 198.742 207.817C199.58 207.263 200.544 206.815 201.618 206.493C202.692 206.171 203.93 206.01 205.295 206.01C206.297 206.01 207.279 206.081 208.19 206.225C209.1 206.368 209.974 206.547 210.774 206.797L209.992 210.556C209.3 210.305 208.536 210.073 207.716 209.894C206.897 209.715 206.042 209.607 205.168 209.607C204.094 209.607 203.147 209.804 202.347 210.198C201.546 210.592 200.854 211.111 200.271 211.737C199.689 212.364 199.216 213.062 198.833 213.849C198.451 214.637 198.16 215.406 197.941 216.176C197.723 216.946 197.577 217.679 197.486 218.377C197.395 219.075 197.359 219.63 197.359 220.06C197.359 220.543 197.395 221.044 197.486 221.581C197.577 222.118 197.778 222.601 198.087 223.049C198.396 223.496 198.87 223.872 199.47 224.158C200.071 224.445 200.89 224.606 201.928 224.606C202.292 224.606 202.692 224.57 203.129 224.516C203.566 224.463 204.003 224.373 204.44 224.266C204.877 224.158 205.332 224.033 205.787 223.89C206.242 223.747 206.661 223.586 207.061 223.425V227.076L207.006 227.04Z" fill="white"/>
<path d="M218.055 228.315C215.762 228.315 213.996 227.689 212.758 226.454C211.52 225.219 210.92 223.393 210.92 221.031C210.92 219.921 211.011 218.793 211.211 217.63C211.393 216.467 211.684 215.321 212.085 214.194C212.485 213.066 212.977 212.01 213.577 211.008C214.178 210.005 214.906 209.146 215.743 208.395C216.581 207.643 217.546 207.052 218.638 206.623C219.712 206.175 220.931 205.96 222.26 205.96C224.554 205.96 226.319 206.587 227.557 207.822C228.777 209.057 229.396 210.865 229.396 213.245C229.396 214.355 229.305 215.482 229.104 216.664C228.922 217.845 228.613 218.99 228.231 220.1C227.83 221.228 227.339 222.284 226.738 223.268C226.137 224.252 225.409 225.129 224.572 225.881C223.735 226.633 222.77 227.223 221.678 227.671C220.604 228.118 219.384 228.333 218.055 228.333V228.315ZM218.638 224.664C219.348 224.664 219.985 224.503 220.585 224.199C221.186 223.894 221.714 223.465 222.187 222.946C222.661 222.409 223.079 221.8 223.443 221.084C223.807 220.368 224.099 219.599 224.335 218.775C224.572 217.952 224.754 217.093 224.881 216.216C225.009 215.339 225.063 214.444 225.063 213.585C225.063 212.225 224.79 211.205 224.262 210.578C223.735 209.934 222.861 209.612 221.678 209.612C220.968 209.612 220.331 209.755 219.73 210.059C219.129 210.363 218.601 210.775 218.128 211.312C217.655 211.849 217.236 212.457 216.872 213.173C216.508 213.889 216.217 214.659 215.98 215.482C215.743 216.306 215.561 217.147 215.434 218.042C215.307 218.937 215.252 219.814 215.252 220.691C215.252 222.051 215.507 223.071 216.035 223.697C216.563 224.342 217.418 224.664 218.62 224.664H218.638Z" fill="white"/>
<path d="M241.157 232.606L242.121 227.917H231.618L230.617 232.606H226.795L228.178 224.391H228.306C228.815 224.391 229.288 224.319 229.725 224.194C230.162 224.069 230.599 223.8 231.018 223.371C231.436 222.959 231.873 222.351 232.274 221.545C232.692 220.758 233.129 219.684 233.603 218.341C234.076 216.999 234.586 215.335 235.113 213.384C235.641 211.433 236.26 209.052 236.915 206.278H248.948L245.271 224.391H246.945L245.016 232.606H241.139H241.157ZM244.069 209.822H240.028C239.555 211.648 239.136 213.258 238.754 214.619C238.372 215.979 238.026 217.16 237.698 218.145C237.371 219.129 237.061 219.97 236.788 220.668C236.515 221.366 236.224 221.921 235.969 222.404C235.714 222.87 235.441 223.263 235.15 223.568C234.877 223.872 234.586 224.158 234.294 224.409H241.102L244.069 209.822Z" fill="white"/>
<path d="M249.509 227.917L253.914 206.296H267.148L266.42 209.732H257.391L256.281 215.102H264.891L264.235 218.467H255.625L254.406 224.48H263.434L262.743 227.917H249.509Z" fill="white"/>
<path d="M364.115 227.917L368.521 206.296H381.754L381.026 209.732H371.997L370.887 215.102H379.497L378.842 218.467H370.232L369.012 224.48H378.041L377.349 227.917H364.115Z" fill="white"/>
<path d="M278.597 227.918L281.382 214.262H281.346L271.115 227.918H266.947L271.352 206.297H275.521L272.699 219.972H272.736L283.002 206.297H287.17L282.765 227.918H278.597ZM286.151 200.534C285.933 201.447 285.66 202.199 285.296 202.754C284.931 203.308 284.476 203.81 283.912 204.185C283.348 204.561 282.692 204.866 281.946 205.045C281.2 205.223 280.399 205.313 279.543 205.313C278.415 205.313 277.523 205.206 276.831 204.973C276.139 204.74 275.612 204.4 275.248 203.971C274.883 203.541 274.647 203.022 274.574 202.449C274.501 201.877 274.519 201.25 274.647 200.534H278.342C278.269 200.874 278.233 201.196 278.233 201.483C278.233 201.769 278.306 202.02 278.415 202.252C278.524 202.485 278.688 202.646 278.925 202.789C279.161 202.933 279.452 202.986 279.816 202.986C280.18 202.986 280.526 202.915 280.818 202.789C281.109 202.664 281.364 202.467 281.564 202.235C281.764 202.002 281.928 201.733 282.037 201.465C282.146 201.196 282.256 200.874 282.31 200.57H286.133L286.151 200.534Z" fill="white"/>
<path d="M301.752 227.04C300.696 227.434 299.695 227.72 298.73 227.917C297.766 228.114 296.783 228.221 295.8 228.221C294.216 228.221 292.905 228.007 291.85 227.559C290.794 227.112 289.957 226.539 289.319 225.805C288.682 225.071 288.227 224.23 287.972 223.299C287.718 222.369 287.572 221.402 287.572 220.4C287.572 220.006 287.608 219.505 287.663 218.896C287.718 218.288 287.827 217.59 287.991 216.838C288.155 216.086 288.373 215.299 288.646 214.476C288.919 213.652 289.283 212.829 289.72 212.041C290.157 211.236 290.685 210.484 291.304 209.75C291.922 209.017 292.651 208.372 293.488 207.817C294.325 207.263 295.29 206.815 296.364 206.493C297.438 206.171 298.676 206.01 300.041 206.01C301.042 206.01 302.025 206.081 302.935 206.225C303.845 206.368 304.719 206.547 305.52 206.797L304.737 210.556C304.046 210.305 303.281 210.073 302.462 209.894C301.643 209.715 300.787 209.607 299.914 209.607C298.84 209.607 297.893 209.804 297.092 210.198C296.291 210.592 295.599 211.111 295.017 211.737C294.435 212.364 293.961 213.062 293.579 213.849C293.197 214.637 292.905 215.406 292.687 216.176C292.469 216.946 292.323 217.679 292.232 218.377C292.141 219.075 292.105 219.63 292.105 220.06C292.105 220.543 292.141 221.044 292.232 221.581C292.323 222.118 292.523 222.601 292.833 223.049C293.142 223.496 293.615 223.872 294.216 224.158C294.817 224.445 295.636 224.606 296.673 224.606C297.038 224.606 297.438 224.57 297.875 224.516C298.312 224.463 298.749 224.373 299.185 224.266C299.622 224.158 300.077 224.033 300.532 223.89C300.988 223.747 301.406 223.586 301.807 223.425V227.076L301.752 227.04Z" fill="white"/>
<path d="M318.572 209.679L314.895 227.917H310.654L314.331 209.679H308.306L309.034 206.278H325.325L324.597 209.679H318.572Z" fill="white"/>
<path d="M324.396 227.917L328.801 206.296H335.682C336.92 206.296 337.975 206.403 338.831 206.618C339.686 206.833 340.378 207.137 340.906 207.513C341.434 207.889 341.816 208.354 342.053 208.873C342.289 209.392 342.399 209.965 342.399 210.556C342.399 211.254 342.289 211.934 342.071 212.578C341.853 213.222 341.543 213.795 341.161 214.332C340.779 214.869 340.324 215.317 339.796 215.71C339.268 216.104 338.685 216.39 338.066 216.587C338.576 216.677 339.031 216.838 339.413 217.071C339.796 217.303 340.141 217.59 340.415 217.93C340.688 218.27 340.906 218.646 341.033 219.075C341.161 219.505 341.252 219.934 341.252 220.382C341.252 220.793 341.215 221.277 341.124 221.814C341.033 222.351 340.851 222.887 340.597 223.46C340.342 224.033 339.978 224.57 339.504 225.107C339.031 225.644 338.449 226.127 337.702 226.539C336.956 226.95 336.046 227.29 334.99 227.541C333.934 227.792 332.66 227.917 331.204 227.917H324.396ZM331.841 224.588C332.751 224.588 333.516 224.48 334.153 224.248C334.79 224.015 335.3 223.711 335.682 223.353C336.064 222.995 336.355 222.565 336.537 222.1C336.719 221.635 336.81 221.151 336.81 220.686C336.81 220.382 336.756 220.077 336.647 219.809C336.537 219.541 336.337 219.29 336.064 219.075C335.791 218.86 335.409 218.681 334.935 218.556C334.462 218.431 333.861 218.359 333.133 218.359H330.439L329.165 224.606H331.859L331.841 224.588ZM337.975 211.522C337.975 211.272 337.939 211.039 337.866 210.788C337.793 210.538 337.629 210.323 337.411 210.144C337.193 209.965 336.865 209.804 336.446 209.697C336.028 209.589 335.5 209.518 334.844 209.518H332.241L331.095 215.245H333.406C334.171 215.245 334.844 215.138 335.409 214.923C335.973 214.708 336.464 214.422 336.847 214.064C337.229 213.706 337.52 213.312 337.702 212.865C337.884 212.417 337.994 211.97 337.994 211.522H337.975Z" fill="white"/>
<path d="M354.413 227.917L357.198 214.261H357.161L346.931 227.917H342.763L347.168 206.296H351.336L348.515 219.97H348.551L358.818 206.296H362.986L358.581 227.917H354.413Z" fill="white"/>
<path d="M324.287 198.892H321.247L322.03 195.277H311.345L314.385 181.191H317.516L315.022 192.699H320.883L323.377 181.191H326.508L324.014 192.699H325.598L324.269 198.892H324.287Z" fill="white"/>
<path d="M341.364 181.197L340.836 183.703H333.045L332.39 186.799H339.616L339.088 189.216H331.862L331.097 192.688H339.034L338.47 195.265H327.42L330.46 181.179H341.346L341.364 181.197Z" fill="white"/>
<path d="M356.671 181.194L353.631 195.28H350.5L351.81 189.213H345.985L344.675 195.28H341.544L344.584 181.194H347.715L346.55 186.6H352.375L353.54 181.194H356.671Z" fill="white"/>
<path d="M370.907 181.194L370.361 183.754H365.993L363.499 195.28H360.368L362.862 183.754H358.384L358.93 181.194H370.926H370.907Z" fill="white"/>
<path d="M373.074 181.197H378.644C379.645 181.197 380.482 181.287 381.156 181.466C381.939 181.698 382.557 182.146 383.012 182.826C383.468 183.506 383.704 184.294 383.704 185.189C383.704 186.084 383.504 186.871 383.104 187.623C382.703 188.374 382.157 188.965 381.465 189.395C380.592 189.932 379.208 190.2 377.315 190.2H374.239L373.128 195.265H370.016L373.056 181.179L373.074 181.197ZM375.64 183.703L374.767 187.784H377.97C378.771 187.784 379.427 187.605 379.918 187.229C380.409 186.853 380.646 186.28 380.646 185.493C380.646 185.099 380.573 184.777 380.428 184.526C380.282 184.276 380.082 184.097 379.791 183.989C379.518 183.882 379.226 183.81 378.971 183.775C378.698 183.739 378.353 183.721 377.952 183.721H375.64V183.703Z" fill="white"/>
</svg>
