<svg width="400" height="400" viewBox="0 0 400 400" fill="none" xmlns="http://www.w3.org/2000/svg">
<g clip-path="url(#clip0_36_3)">
<path d="M91.9029 177.795C93.484 177.825 94.5531 177.84 95.1254 177.84C95.8181 177.84 96.8571 177.84 98.2425 177.795L97.2787 194.321C97.2787 194.517 97.2637 194.712 97.2637 194.938C97.2637 196.787 97.5197 198.171 98.0467 199.088C98.5738 200.02 99.3417 200.697 100.366 201.118C101.39 201.539 102.549 201.75 103.859 201.75C104.687 201.75 105.486 201.659 106.239 201.464C106.856 201.298 107.413 201.073 107.925 200.787C108.332 200.547 108.693 200.261 109.009 199.93C109.386 199.539 109.687 199.073 109.928 198.562C110.184 198.05 110.38 197.479 110.5 196.847C110.681 195.885 110.846 194.186 110.997 191.795L111.434 184.667C111.524 182.592 111.599 180.306 111.66 177.81C113.196 177.84 114.355 177.855 115.093 177.855L118.09 177.81L117.457 187.675L117.05 195.524C116.93 197.359 116.734 198.712 116.478 199.614C116.252 200.366 115.951 201.058 115.56 201.704C115.183 202.276 114.716 202.787 114.189 203.238C113.512 203.825 112.699 204.336 111.795 204.757C110.771 205.238 109.687 205.584 108.527 205.795C106.946 206.095 105.305 206.246 103.618 206.246C101.932 206.246 100.275 206.095 98.7846 205.78C97.5046 205.509 96.315 205.088 95.2458 204.516C94.1767 203.945 93.3184 203.298 92.6859 202.592C92.1739 202.02 91.7824 201.298 91.4812 200.441C91.1349 199.479 90.9692 198.426 90.9692 197.253C90.9692 196.847 90.9692 196.321 91.0144 195.659C91.0445 195.013 91.0897 194.171 91.165 193.148L91.3457 190.261C91.421 189.359 91.4963 188.036 91.5716 186.291L91.7824 181.84C91.8426 180.622 91.8878 179.284 91.933 177.81" fill="#4F7853"/>
<path d="M121.794 205.764C122.11 202.666 122.366 199.177 122.577 195.313C122.788 191.448 122.908 187.99 122.938 184.922C124.203 184.952 125.197 184.967 125.95 184.967C126.839 184.967 127.787 184.967 128.781 184.922L128.555 188.411C128.977 187.809 129.353 187.328 129.67 186.982C129.986 186.621 130.407 186.275 130.904 185.944C131.401 185.599 131.943 185.328 132.501 185.132C133.073 184.922 133.705 184.757 134.413 184.636C135.121 184.516 135.859 184.456 136.611 184.456C137.831 184.456 138.991 184.606 140.105 184.922C141.219 185.223 142.123 185.719 142.8 186.381C143.478 187.057 143.93 187.779 144.156 188.576C144.382 189.373 144.487 190.215 144.487 191.102C144.487 191.478 144.472 192.065 144.427 192.862L144.005 201.809C143.945 203.057 143.915 204.38 143.9 205.779C142.816 205.749 141.897 205.734 141.129 205.734C140.09 205.734 139.036 205.734 137.982 205.779C138.087 204.591 138.223 202.516 138.388 199.568C138.554 196.606 138.629 194.651 138.629 193.704C138.629 192.621 138.464 191.764 138.117 191.102C137.771 190.441 137.244 189.944 136.536 189.614C135.813 189.268 135.045 189.102 134.217 189.102C133.389 189.102 132.636 189.253 131.928 189.568C131.221 189.884 130.603 190.335 130.091 190.937C129.549 191.553 129.127 192.305 128.826 193.208C128.51 194.17 128.284 195.734 128.134 197.944C127.998 199.899 127.893 202.516 127.802 205.794C126.748 205.764 125.799 205.749 124.941 205.749C124.083 205.749 123.029 205.749 121.794 205.794" fill="#4F7853"/>
<path d="M148.824 205.764C149.035 203.718 149.185 202.004 149.26 200.621C149.396 198.44 149.516 195.914 149.622 193.057C149.727 190.2 149.803 187.493 149.848 184.922C151.173 184.952 152.182 184.967 152.844 184.967C153.462 184.967 154.441 184.967 155.826 184.922C155.645 187.298 155.495 189.568 155.374 191.719C155.269 193.869 155.178 196.35 155.133 199.132C155.073 201.914 155.058 204.124 155.058 205.749C153.808 205.718 152.814 205.703 152.061 205.703C151.354 205.703 150.269 205.703 148.839 205.749M149.968 181.358C150.028 179.945 150.043 178.877 150.043 178.125V177.463C151.293 177.493 152.302 177.508 153.085 177.508C154.154 177.508 155.148 177.508 156.052 177.463C156.007 177.809 155.976 178.2 155.976 178.636L155.871 181.358C154.832 181.328 153.868 181.313 152.995 181.313C152.122 181.313 151.113 181.313 149.953 181.358" fill="#4F7853"/>
<path d="M171.246 184.441C172.812 184.441 174.333 184.681 175.763 185.147C177.209 185.614 178.429 186.32 179.438 187.238C180.447 188.155 181.2 189.283 181.712 190.621C182.224 191.959 182.464 193.358 182.464 194.831C182.464 196.395 182.193 197.884 181.666 199.343C181.139 200.786 180.356 202.049 179.347 203.102C178.338 204.155 177.074 204.952 175.568 205.478C174.062 206.004 172.451 206.26 170.734 206.26C169.153 206.26 167.647 206.019 166.216 205.553C164.786 205.087 163.566 204.38 162.557 203.433C161.548 202.485 160.78 201.343 160.253 199.989C159.726 198.636 159.47 197.222 159.47 195.749C159.47 194.275 159.711 192.816 160.193 191.448C160.675 190.08 161.413 188.862 162.437 187.809C163.461 186.741 164.756 185.914 166.337 185.328C167.918 184.741 169.559 184.441 171.261 184.441M171.261 188.666C170.071 188.666 169.017 188.952 168.084 189.538C167.15 190.125 166.457 190.982 166.006 192.125C165.554 193.268 165.328 194.516 165.328 195.869C165.328 197.057 165.509 198.11 165.885 199.042C166.262 199.974 166.879 200.726 167.722 201.297C168.581 201.869 169.589 202.155 170.764 202.155C171.939 202.155 173.008 201.854 173.926 201.267C174.83 200.681 175.507 199.794 175.974 198.651C176.426 197.493 176.652 196.23 176.652 194.831C176.652 193.704 176.471 192.666 176.125 191.734C175.763 190.801 175.176 190.065 174.333 189.508C173.49 188.952 172.481 188.666 171.276 188.666" fill="#4F7853"/>
<path d="M185.823 205.764C186.139 202.666 186.395 199.177 186.606 195.313C186.816 191.448 186.937 187.99 186.967 184.922C188.232 184.952 189.226 184.967 189.979 184.967C190.867 184.967 191.816 184.967 192.81 184.922L192.584 188.411C193.005 187.809 193.382 187.328 193.698 186.982C194.014 186.621 194.436 186.275 194.933 185.944C195.43 185.599 195.972 185.328 196.529 185.132C197.101 184.922 197.734 184.757 198.441 184.636C199.149 184.516 199.887 184.456 200.64 184.456C201.86 184.456 203.019 184.606 204.134 184.922C205.248 185.223 206.151 185.719 206.829 186.381C207.507 187.057 207.958 187.779 208.184 188.576C208.41 189.373 208.516 190.215 208.516 191.102C208.516 191.478 208.501 192.065 208.455 192.862L208.034 201.809C207.973 203.057 207.943 204.38 207.928 205.779C206.844 205.749 205.926 205.734 205.158 205.734C204.119 205.734 203.064 205.734 202.01 205.779C202.116 204.591 202.251 202.516 202.417 199.568C202.583 196.606 202.658 194.651 202.658 193.704C202.658 192.621 202.492 191.764 202.146 191.102C201.8 190.441 201.272 189.944 200.565 189.614C199.842 189.268 199.074 189.102 198.246 189.102C197.418 189.102 196.665 189.253 195.957 189.568C195.249 189.884 194.632 190.335 194.12 190.937C193.578 191.553 193.156 192.305 192.855 193.208C192.539 194.17 192.313 195.734 192.162 197.944C192.027 199.899 191.921 202.516 191.831 205.794C190.777 205.764 189.828 205.749 188.97 205.749C188.111 205.749 187.057 205.749 185.823 205.794" fill="#4F7853"/>
<path d="M212.717 205.764L213.259 201.132L214.614 184.877L215.081 177.809C217.039 177.839 218.454 177.854 219.358 177.854C220.08 177.854 221.406 177.854 223.318 177.809C223.544 178.922 223.694 179.704 223.815 180.17C223.92 180.636 224.131 181.373 224.447 182.396C224.764 183.418 225.17 184.666 225.667 186.125C226.39 188.335 227.037 190.516 227.625 192.681L229.191 198.546L231.931 191.027L235.922 181.253C236.057 180.922 236.193 180.546 236.344 180.11C236.494 179.674 236.735 178.907 237.066 177.809C238.693 177.839 240.138 177.854 241.418 177.854C242.261 177.854 243.617 177.854 245.484 177.809C245.288 181.749 245.153 186.08 245.047 190.847C244.957 195.598 244.912 199.162 244.912 201.508C244.912 202.636 244.912 204.064 244.957 205.764C243.602 205.734 242.683 205.719 242.186 205.719C241.478 205.719 240.53 205.719 239.355 205.764C239.43 204.365 239.491 203.222 239.521 202.32L239.867 190.14C239.912 188.426 239.927 186.726 239.927 185.057V183.403L232.368 203.328L231.495 205.764C230.17 205.734 229.251 205.719 228.754 205.719C228.137 205.719 227.173 205.719 225.848 205.764L222.324 193.147C222.204 192.696 221.918 191.749 221.466 190.32L220.201 186.14C220.08 185.749 219.99 185.418 219.93 185.163C219.87 184.907 219.734 184.351 219.523 183.478L219.252 186.095C219.177 186.922 219.087 188.32 218.951 190.275L218.153 202.967C218.123 203.598 218.108 204.531 218.093 205.749L215.442 205.703C214.991 205.703 214.102 205.703 212.762 205.749" fill="#4F7853"/>
<path d="M268.704 201.102C268.523 201.914 268.267 203.357 267.951 205.448C266.475 205.763 265.226 205.974 264.217 206.079C263.208 206.184 262.184 206.245 261.16 206.245C259.368 206.245 257.772 206.064 256.356 205.718C254.941 205.357 253.706 204.711 252.637 203.763C251.567 202.816 250.784 201.658 250.272 200.275C249.76 198.891 249.52 197.448 249.52 195.929C249.52 194.245 249.821 192.621 250.408 191.042C250.995 189.463 251.823 188.185 252.878 187.177C253.932 186.17 255.136 185.463 256.492 185.042C257.847 184.621 259.262 184.426 260.738 184.426C262.139 184.426 263.464 184.606 264.714 184.952C265.978 185.298 267.033 185.869 267.876 186.651C268.734 187.448 269.382 188.395 269.848 189.508C270.3 190.621 270.541 191.854 270.541 193.222C270.541 193.869 270.466 194.531 270.33 195.207H255.302C255.272 195.734 255.257 196.14 255.257 196.44C255.257 197.358 255.407 198.2 255.724 198.967C256.04 199.733 256.492 200.38 257.094 200.906C257.696 201.433 258.419 201.839 259.247 202.079C260.076 202.335 260.904 202.455 261.702 202.455C262.65 202.455 263.674 202.35 264.774 202.154C265.873 201.944 267.183 201.598 268.704 201.117M255.453 192.846H265.045C265.045 192.215 265.03 191.734 264.985 191.418C264.939 191.102 264.849 190.741 264.714 190.35C264.563 189.944 264.382 189.598 264.126 189.283C263.885 188.982 263.599 188.726 263.268 188.516C262.937 188.305 262.56 188.155 262.123 188.05C261.687 187.944 261.235 187.884 260.738 187.884C260.166 187.884 259.609 187.974 259.067 188.155C258.524 188.335 258.028 188.591 257.576 188.937C257.124 189.283 256.763 189.659 256.477 190.08C256.19 190.501 255.995 190.907 255.844 191.298C255.709 191.689 255.573 192.2 255.438 192.861" fill="#4F7853"/>
<path d="M294.846 205.764C293.716 205.733 292.828 205.718 292.195 205.718C291.518 205.718 290.569 205.718 289.364 205.764L289.545 202.2C288.943 202.982 288.431 203.583 287.994 204.004C287.557 204.425 287.03 204.816 286.398 205.177C285.765 205.538 285.073 205.809 284.335 205.989C283.597 206.17 282.829 206.26 282.046 206.26C280.736 206.26 279.501 206.019 278.357 205.538C277.212 205.057 276.233 204.395 275.42 203.523C274.607 202.651 274.02 201.628 273.643 200.425C273.267 199.237 273.071 197.989 273.071 196.681C273.071 194.892 273.417 193.147 274.095 191.448C274.773 189.749 275.721 188.365 276.896 187.328C278.086 186.275 279.426 185.538 280.932 185.102C282.437 184.666 284.049 184.441 285.765 184.441C287.015 184.441 288.416 184.561 289.982 184.787C290.087 183.012 290.132 181.148 290.132 179.193V177.794C291.412 177.824 292.406 177.839 293.084 177.839C293.972 177.839 294.966 177.839 296.08 177.794C295.779 181.268 295.493 185.99 295.237 191.959C294.966 197.929 294.831 202.531 294.831 205.748M289.756 188.666C288.732 188.395 287.753 188.26 286.804 188.26C285.72 188.26 284.696 188.411 283.702 188.711C282.724 189.012 281.85 189.523 281.082 190.245C280.329 190.967 279.742 191.899 279.335 193.027C278.929 194.155 278.718 195.252 278.718 196.305C278.718 197.358 278.899 198.32 279.275 199.192C279.652 200.064 280.239 200.756 281.022 201.267C281.82 201.779 282.708 202.019 283.702 202.019C284.455 202.019 285.133 201.884 285.75 201.613C286.368 201.343 286.925 200.937 287.437 200.38C287.949 199.824 288.37 199.117 288.717 198.245C289.063 197.373 289.319 196.215 289.47 194.756C289.56 193.689 289.65 191.659 289.741 188.651" fill="#4F7853"/>
<path d="M92.9419 217.763H95.1103L96.0439 221.793H96.059L96.9776 217.763H99.0857V223.312H97.7305V218.846H97.7154L96.6764 223.312H95.3663L94.3273 218.846H94.3122V223.312H92.957V217.763H92.9419Z" fill="#878787"/>
<path d="M100.471 217.763H101.917V219.763H104.04V217.763H105.486V223.312H104.04V220.936H101.917V223.312H100.471V217.763Z" fill="#878787"/>
<path d="M106.525 220.545C106.525 220.124 106.585 219.733 106.72 219.372C106.856 219.011 107.037 218.696 107.278 218.44C107.519 218.184 107.82 217.974 108.166 217.823C108.512 217.673 108.919 217.598 109.356 217.598C109.792 217.598 110.199 217.673 110.545 217.823C110.892 217.974 111.193 218.169 111.434 218.44C111.675 218.696 111.87 219.011 111.991 219.372C112.126 219.733 112.187 220.124 112.187 220.545C112.187 220.966 112.126 221.372 111.991 221.733C111.855 222.094 111.675 222.395 111.434 222.665C111.193 222.921 110.892 223.132 110.545 223.282C110.199 223.432 109.792 223.508 109.356 223.508C108.919 223.508 108.527 223.432 108.166 223.282C107.82 223.132 107.519 222.936 107.278 222.665C107.037 222.41 106.841 222.094 106.72 221.733C106.585 221.372 106.525 220.981 106.525 220.545ZM108.031 220.545C108.031 220.756 108.046 220.966 108.106 221.162C108.151 221.372 108.226 221.553 108.332 221.718C108.437 221.884 108.573 222.019 108.738 222.109C108.904 222.199 109.115 222.259 109.371 222.259C109.627 222.259 109.838 222.214 110.018 222.109C110.199 222.019 110.334 221.884 110.425 221.733C110.53 221.583 110.59 221.402 110.636 221.192C110.681 220.981 110.696 220.771 110.696 220.545C110.696 220.32 110.681 220.124 110.636 219.914C110.59 219.703 110.515 219.523 110.425 219.372C110.319 219.222 110.184 219.087 110.018 218.996C109.838 218.906 109.627 218.846 109.371 218.846C109.115 218.846 108.904 218.891 108.738 218.996C108.573 219.087 108.437 219.222 108.332 219.387C108.226 219.553 108.151 219.733 108.106 219.944C108.061 220.154 108.031 220.35 108.031 220.56V220.545Z" fill="#878787"/>
<path d="M113.241 217.763H116.975V218.936H114.686V223.312H113.241V217.763Z" fill="#878787"/>
<path d="M117.337 220.545C117.337 220.124 117.397 219.733 117.532 219.372C117.668 219.011 117.849 218.696 118.09 218.44C118.331 218.184 118.632 217.974 118.978 217.823C119.324 217.673 119.731 217.598 120.168 217.598C120.604 217.598 121.011 217.673 121.357 217.823C121.704 217.974 122.005 218.169 122.246 218.44C122.487 218.696 122.682 219.011 122.803 219.372C122.938 219.733 122.999 220.124 122.999 220.545C122.999 220.966 122.938 221.372 122.803 221.733C122.667 222.094 122.487 222.395 122.246 222.665C122.005 222.921 121.704 223.132 121.357 223.282C121.011 223.432 120.604 223.508 120.168 223.508C119.731 223.508 119.339 223.432 118.978 223.282C118.632 223.132 118.331 222.936 118.09 222.665C117.849 222.41 117.653 222.094 117.532 221.733C117.397 221.372 117.337 220.981 117.337 220.545ZM118.843 220.545C118.843 220.756 118.858 220.966 118.918 221.162C118.963 221.372 119.038 221.553 119.144 221.718C119.249 221.884 119.385 222.019 119.55 222.109C119.716 222.199 119.927 222.259 120.183 222.259C120.439 222.259 120.65 222.214 120.83 222.109C121.011 222.019 121.146 221.884 121.237 221.733C121.342 221.583 121.402 221.402 121.448 221.192C121.493 220.981 121.508 220.771 121.508 220.545C121.508 220.32 121.493 220.124 121.448 219.914C121.402 219.703 121.327 219.523 121.237 219.372C121.131 219.222 120.996 219.087 120.83 218.996C120.65 218.906 120.439 218.846 120.183 218.846C119.927 218.846 119.716 218.891 119.55 218.996C119.385 219.087 119.249 219.222 119.144 219.387C119.038 219.553 118.963 219.733 118.918 219.944C118.873 220.154 118.843 220.35 118.843 220.56V220.545Z" fill="#878787"/>
<path d="M124.053 217.763H129.052V223.312H127.606V218.936H125.483V223.312H124.038V217.763H124.053Z" fill="#878787"/>
<path d="M130.392 217.763H131.762V218.56H131.778C131.973 218.229 132.199 217.989 132.455 217.823C132.696 217.673 133.027 217.598 133.434 217.598C133.69 217.598 133.946 217.643 134.217 217.733C134.488 217.823 134.744 217.989 134.97 218.199C135.196 218.425 135.377 218.711 135.527 219.072C135.678 219.432 135.753 219.884 135.753 220.425C135.753 220.876 135.708 221.282 135.602 221.658C135.512 222.034 135.361 222.35 135.166 222.62C134.97 222.891 134.729 223.102 134.428 223.252C134.127 223.402 133.78 223.477 133.374 223.477C133.103 223.477 132.817 223.417 132.53 223.297C132.244 223.177 132.018 222.951 131.823 222.62H131.808V225.447H130.362V217.763H130.392ZM133.027 218.891C132.802 218.891 132.606 218.936 132.455 219.041C132.305 219.132 132.169 219.267 132.064 219.417C131.958 219.568 131.898 219.748 131.853 219.944C131.808 220.139 131.793 220.335 131.793 220.53C131.793 220.696 131.808 220.861 131.838 221.056C131.868 221.252 131.928 221.432 132.018 221.613C132.109 221.793 132.229 221.944 132.395 222.049C132.561 222.169 132.771 222.229 133.042 222.229C133.314 222.229 133.524 222.169 133.69 222.049C133.856 221.929 133.976 221.778 134.066 221.613C134.157 221.432 134.217 221.252 134.247 221.056C134.277 220.861 134.292 220.681 134.292 220.53C134.292 220.335 134.277 220.139 134.232 219.944C134.187 219.748 134.112 219.568 134.021 219.417C133.916 219.267 133.795 219.132 133.63 219.041C133.479 218.951 133.283 218.891 133.058 218.891H133.027Z" fill="#878787"/>
<path d="M136.476 220.545C136.476 220.124 136.536 219.733 136.672 219.372C136.807 219.011 136.988 218.696 137.229 218.44C137.47 218.184 137.771 217.974 138.117 217.823C138.464 217.673 138.87 217.598 139.307 217.598C139.744 217.598 140.15 217.673 140.496 217.823C140.843 217.974 141.144 218.169 141.385 218.44C141.626 218.696 141.822 219.011 141.942 219.372C142.078 219.733 142.138 220.124 142.138 220.545C142.138 220.966 142.078 221.372 141.942 221.733C141.807 222.094 141.626 222.395 141.385 222.665C141.144 222.921 140.843 223.132 140.496 223.282C140.15 223.432 139.744 223.508 139.307 223.508C138.87 223.508 138.479 223.432 138.117 223.282C137.771 223.132 137.47 222.936 137.229 222.665C136.988 222.41 136.792 222.094 136.672 221.733C136.536 221.372 136.476 220.981 136.476 220.545ZM137.982 220.545C137.982 220.756 137.997 220.966 138.057 221.162C138.102 221.372 138.177 221.553 138.283 221.718C138.388 221.884 138.524 222.019 138.689 222.109C138.855 222.199 139.066 222.259 139.322 222.259C139.578 222.259 139.789 222.214 139.969 222.109C140.15 222.019 140.286 221.884 140.376 221.733C140.481 221.583 140.542 221.402 140.587 221.192C140.632 220.981 140.647 220.771 140.647 220.545C140.647 220.32 140.632 220.124 140.587 219.914C140.542 219.703 140.466 219.523 140.376 219.372C140.271 219.222 140.135 219.087 139.969 218.996C139.789 218.906 139.578 218.846 139.322 218.846C139.066 218.846 138.855 218.891 138.689 218.996C138.524 219.087 138.388 219.222 138.283 219.387C138.177 219.553 138.102 219.733 138.057 219.944C138.012 220.154 137.982 220.35 137.982 220.56V220.545Z" fill="#878787"/>
<path d="M146.128 222.771H146.113C146.008 222.951 145.857 223.117 145.646 223.267C145.436 223.418 145.18 223.493 144.863 223.493C144.592 223.493 144.351 223.433 144.111 223.312C143.87 223.192 143.659 222.996 143.478 222.756C143.297 222.5 143.147 222.199 143.041 221.824C142.936 221.463 142.876 221.027 142.876 220.545C142.876 219.959 142.951 219.478 143.087 219.102C143.222 218.726 143.388 218.425 143.599 218.2C143.809 217.974 144.02 217.824 144.261 217.748C144.502 217.658 144.713 217.628 144.924 217.628C145.15 217.628 145.375 217.673 145.586 217.779C145.797 217.884 145.978 218.064 146.128 218.335H146.143V215.854H147.589V218.335H147.604C147.755 218.064 147.935 217.884 148.146 217.779C148.357 217.673 148.583 217.628 148.824 217.628C149.02 217.628 149.23 217.673 149.471 217.748C149.712 217.839 149.923 217.989 150.134 218.2C150.345 218.41 150.51 218.711 150.646 219.102C150.781 219.478 150.857 219.959 150.857 220.545C150.857 221.027 150.796 221.463 150.691 221.824C150.586 222.184 150.435 222.5 150.254 222.756C150.074 223.012 149.863 223.192 149.622 223.312C149.381 223.433 149.125 223.493 148.869 223.493C148.553 223.493 148.282 223.418 148.086 223.267C147.875 223.117 147.725 222.951 147.619 222.771H147.604V225.463H146.158V222.771H146.128ZM144.306 220.575C144.306 220.741 144.306 220.906 144.336 221.102C144.367 221.297 144.412 221.478 144.487 221.643C144.562 221.809 144.668 221.944 144.788 222.064C144.924 222.184 145.104 222.23 145.315 222.23C145.631 222.23 145.842 222.124 145.963 221.929C146.068 221.733 146.128 221.463 146.128 221.132V219.824C146.128 219.523 146.068 219.282 145.963 219.087C145.857 218.891 145.646 218.801 145.345 218.801C145.134 218.801 144.969 218.846 144.833 218.951C144.698 219.042 144.592 219.177 144.517 219.342C144.442 219.508 144.382 219.688 144.351 219.899C144.321 220.109 144.306 220.335 144.306 220.545V220.575ZM149.396 220.575C149.396 220.35 149.381 220.139 149.351 219.929C149.321 219.718 149.261 219.523 149.185 219.372C149.11 219.207 149.005 219.072 148.869 218.982C148.733 218.891 148.568 218.831 148.357 218.831C148.071 218.831 147.86 218.921 147.74 219.117C147.619 219.297 147.574 219.553 147.574 219.854V221.162C147.574 221.327 147.574 221.478 147.604 221.613C147.634 221.748 147.664 221.869 147.725 221.959C147.785 222.049 147.86 222.124 147.965 222.184C148.071 222.23 148.206 222.26 148.357 222.26C148.568 222.26 148.749 222.199 148.884 222.094C149.02 221.974 149.125 221.839 149.2 221.673C149.276 221.508 149.321 221.327 149.351 221.132C149.381 220.936 149.381 220.756 149.381 220.606L149.396 220.575Z" fill="#878787"/>
<path d="M151.881 217.763H153.326V221.177H153.341L155.359 217.763H156.865V223.312H155.42V219.974H155.404L153.447 223.312H151.866V217.763H151.881Z" fill="#878787"/>
<path d="M163.701 223.312H162.256V218.936H160.434L160.374 220.966C160.374 221.237 160.374 221.523 160.328 221.808C160.298 222.094 160.223 222.38 160.103 222.635C159.997 222.876 159.831 223.071 159.591 223.222C159.35 223.387 159.033 223.462 158.627 223.477C158.295 223.477 158.055 223.432 157.889 223.372V222.169C157.979 222.229 158.13 222.259 158.341 222.259C158.551 222.259 158.702 222.154 158.777 221.959C158.853 221.763 158.898 221.493 158.898 221.147L158.988 217.778H163.671V223.327L163.701 223.312Z" fill="#878787"/>
<path d="M165.192 217.763H166.638V219.688H168.114C168.806 219.688 169.333 219.839 169.725 220.124C170.116 220.41 170.297 220.876 170.297 221.493C170.297 221.778 170.252 222.019 170.177 222.215C170.101 222.41 169.996 222.575 169.861 222.711C169.725 222.846 169.589 222.951 169.439 223.027C169.288 223.102 169.123 223.162 168.972 223.192C168.821 223.222 168.686 223.252 168.565 223.267C168.445 223.267 168.34 223.282 168.279 223.282H165.207V217.733L165.192 217.763ZM166.638 222.23H167.858C167.963 222.23 168.084 222.23 168.189 222.199C168.294 222.184 168.4 222.154 168.49 222.094C168.581 222.034 168.656 221.974 168.701 221.869C168.761 221.778 168.791 221.658 168.791 221.493C168.791 221.327 168.761 221.222 168.701 221.132C168.641 221.042 168.565 220.966 168.475 220.906C168.385 220.846 168.264 220.816 168.144 220.786C168.023 220.771 167.888 220.756 167.737 220.756H166.638V222.199V222.23Z" fill="#878787"/>
<path d="M171.246 217.763H172.691V219.763H174.815V217.763H176.26V223.312H174.815V220.936H172.691V223.312H171.246V217.763Z" fill="#878787"/>
<path d="M177.615 217.763H179.061V219.688H180.522C181.214 219.688 181.741 219.839 182.133 220.124C182.525 220.41 182.705 220.876 182.705 221.493C182.705 221.778 182.66 222.019 182.585 222.215C182.509 222.41 182.404 222.575 182.269 222.711C182.133 222.846 181.997 222.951 181.847 223.027C181.696 223.102 181.531 223.162 181.38 223.192C181.23 223.222 181.094 223.252 180.974 223.267C180.853 223.267 180.748 223.282 180.687 223.282H177.631V217.733L177.615 217.763ZM179.061 222.23H180.266C180.371 222.23 180.492 222.23 180.597 222.199C180.702 222.184 180.808 222.154 180.898 222.094C180.989 222.034 181.064 221.974 181.109 221.869C181.169 221.778 181.199 221.658 181.199 221.493C181.199 221.327 181.169 221.222 181.109 221.132C181.049 221.042 180.974 220.966 180.883 220.906C180.793 220.846 180.672 220.816 180.552 220.786C180.431 220.771 180.296 220.756 180.145 220.756H179.061V222.199V222.23ZM183.503 217.763H184.949V223.312H183.503V217.763Z" fill="#878787"/>
<path d="M186.304 217.763H187.75V221.177H187.765L189.783 217.763H191.289V223.312H189.843V219.974H189.828L187.87 223.312H186.289V217.763H186.304ZM190.506 215.433C190.506 215.974 190.355 216.35 190.039 216.59C189.723 216.816 189.316 216.936 188.804 216.936C188.292 216.936 187.885 216.816 187.569 216.59C187.253 216.365 187.102 215.974 187.102 215.433H187.69C187.735 215.673 187.87 215.854 188.066 215.959C188.277 216.064 188.518 216.124 188.804 216.124C189.09 216.124 189.331 216.064 189.542 215.959C189.753 215.854 189.873 215.673 189.918 215.433H190.506Z" fill="#878787"/>
<path d="M195.595 217.763H197.764L198.697 221.793H198.713L199.631 217.763H201.739V223.312H200.384V218.846H200.369L199.33 223.312H198.02L196.981 218.846H196.966V223.312H195.611V217.763H195.595Z" fill="#878787"/>
<path d="M204.149 220.996C204.149 221.072 204.149 221.177 204.179 221.327C204.209 221.478 204.254 221.613 204.344 221.763C204.435 221.914 204.57 222.034 204.736 222.154C204.917 222.26 205.143 222.32 205.429 222.32C205.624 222.32 205.82 222.26 206.001 222.154C206.182 222.034 206.302 221.884 206.362 221.673H207.853C207.853 221.823 207.808 222.004 207.702 222.214C207.597 222.425 207.446 222.62 207.251 222.816C207.04 222.996 206.784 223.162 206.468 223.297C206.151 223.432 205.775 223.493 205.353 223.493C204.992 223.493 204.631 223.432 204.314 223.327C203.983 223.222 203.697 223.042 203.471 222.801C203.245 222.56 203.034 222.245 202.899 221.869C202.763 221.493 202.688 221.027 202.688 220.485C202.688 220.109 202.733 219.748 202.839 219.402C202.944 219.057 203.095 218.741 203.305 218.485C203.516 218.215 203.787 218.004 204.119 217.854C204.45 217.703 204.841 217.613 205.308 217.613C205.805 217.613 206.212 217.688 206.543 217.854C206.874 218.019 207.145 218.245 207.356 218.545C207.567 218.846 207.702 219.207 207.793 219.613C207.883 220.034 207.928 220.485 207.928 220.996H204.119H204.149ZM206.453 220.034C206.453 219.793 206.422 219.583 206.347 219.418C206.272 219.252 206.182 219.117 206.076 219.027C205.971 218.936 205.85 218.861 205.715 218.816C205.579 218.771 205.459 218.756 205.338 218.756C205.218 218.756 205.097 218.771 204.962 218.816C204.826 218.861 204.706 218.921 204.6 219.027C204.495 219.117 204.39 219.252 204.329 219.418C204.254 219.583 204.224 219.778 204.224 220.034H206.483H206.453Z" fill="#878787"/>
<path d="M208.395 222.154H209.027C209.359 221.192 209.585 220.32 209.69 219.523C209.795 218.741 209.856 218.154 209.871 217.778H214.208V222.154H214.855V224.65H213.5V223.312H209.75V224.65H208.395V222.154ZM212.762 222.154V218.951H211.106C211.075 219.252 211.015 219.688 210.925 220.29C210.834 220.876 210.669 221.508 210.458 222.169H212.747L212.762 222.154Z" fill="#878787"/>
<path d="M215.698 217.763H217.144V221.177H217.159L219.177 217.763H220.683V223.312H219.237V219.974H219.222L217.264 223.312H215.683V217.763H215.698Z" fill="#878787"/>
<path d="M222.068 217.763H223.514V222.139H225.637V217.763H227.083V222.139H227.655V224.635H226.315V223.297H222.083V217.748L222.068 217.763Z" fill="#878787"/>
<path d="M228.453 217.763H229.898V221.177H229.913L231.931 217.763H233.437V223.312H231.992V219.974H231.976L230.019 223.312H228.438V217.763H228.453Z" fill="#878787"/>
<path d="M234.823 217.763H236.268V219.763H238.391V217.763H239.837V223.312H238.391V220.936H236.268V223.312H234.823V217.763Z" fill="#878787"/>
<path d="M244.46 219.733C244.4 219.448 244.309 219.222 244.159 219.072C244.023 218.921 243.782 218.846 243.481 218.846C243.24 218.846 243.044 218.906 242.909 219.012C242.773 219.117 242.653 219.267 242.578 219.433C242.502 219.598 242.442 219.793 242.427 219.989C242.412 220.184 242.397 220.38 242.397 220.545C242.397 220.711 242.397 220.921 242.427 221.117C242.442 221.312 242.502 221.508 242.563 221.673C242.638 221.839 242.743 221.974 242.894 222.094C243.044 222.214 243.24 222.26 243.496 222.26C243.662 222.26 243.812 222.229 243.933 222.154C244.053 222.094 244.159 222.004 244.234 221.899C244.324 221.793 244.385 221.688 244.415 221.583C244.46 221.478 244.475 221.372 244.475 221.282H245.981C245.981 221.417 245.936 221.613 245.86 221.854C245.785 222.094 245.65 222.35 245.469 222.59C245.288 222.831 245.032 223.042 244.701 223.222C244.37 223.402 243.978 223.493 243.496 223.493C242.653 223.493 242.005 223.237 241.554 222.741C241.102 222.229 240.891 221.508 240.891 220.56C240.891 220.094 240.951 219.673 241.072 219.297C241.192 218.936 241.373 218.621 241.599 218.38C241.825 218.139 242.096 217.944 242.412 217.809C242.728 217.673 243.09 217.613 243.481 217.613C243.737 217.613 244.008 217.643 244.279 217.718C244.55 217.778 244.821 217.899 245.047 218.064C245.288 218.23 245.484 218.44 245.65 218.711C245.815 218.981 245.921 219.327 245.951 219.748H244.445L244.46 219.733Z" fill="#878787"/>
<path d="M248.285 223.312H246.839V217.763H248.285V219.959H248.857L250.378 217.763H252.019L250.152 220.32L252.11 223.297H250.363L248.842 220.936H248.27V223.297L248.285 223.312Z" fill="#878787"/>
<path d="M253.179 217.763H254.624V221.177H254.64L256.657 217.763H258.163V223.312H256.718V219.974H256.703L254.745 223.312H253.164V217.763H253.179Z" fill="#878787"/>
<path d="M259.548 217.763H260.994V221.177H261.009L263.027 217.763H264.533V223.312H263.087V219.974H263.072L261.115 223.312H259.533V217.763H259.548ZM263.75 215.433C263.75 215.974 263.599 216.35 263.283 216.59C262.967 216.816 262.56 216.936 262.048 216.936C261.536 216.936 261.13 216.816 260.813 216.59C260.497 216.365 260.347 215.974 260.347 215.433H260.934C260.979 215.673 261.115 215.854 261.31 215.959C261.521 216.064 261.762 216.124 262.048 216.124C262.334 216.124 262.575 216.064 262.786 215.959C262.997 215.854 263.117 215.673 263.163 215.433H263.75Z" fill="#878787"/>
<path d="M268.825 217.763H270.27V222.139H272.394V217.763H273.839V222.139H274.411V224.635H273.071V223.297H268.84V217.748L268.825 217.763Z" fill="#878787"/>
<path d="M276.233 220.996C276.233 221.072 276.233 221.177 276.264 221.327C276.294 221.478 276.339 221.613 276.429 221.763C276.519 221.914 276.655 222.034 276.821 222.154C277.001 222.26 277.227 222.32 277.513 222.32C277.709 222.32 277.905 222.26 278.086 222.154C278.266 222.034 278.387 221.884 278.447 221.673H279.938C279.938 221.823 279.893 222.004 279.787 222.214C279.682 222.425 279.531 222.62 279.335 222.816C279.125 222.996 278.869 223.162 278.552 223.297C278.236 223.432 277.86 223.493 277.438 223.493C277.077 223.493 276.715 223.432 276.399 223.327C276.068 223.222 275.782 223.042 275.556 222.801C275.33 222.56 275.119 222.245 274.984 221.869C274.848 221.493 274.773 221.027 274.773 220.485C274.773 220.109 274.818 219.748 274.923 219.402C275.029 219.057 275.179 218.741 275.39 218.485C275.601 218.215 275.872 218.004 276.203 217.854C276.535 217.703 276.926 217.613 277.393 217.613C277.89 217.613 278.296 217.688 278.628 217.854C278.959 218.019 279.23 218.245 279.441 218.545C279.652 218.846 279.787 219.207 279.878 219.613C279.968 220.034 280.013 220.485 280.013 220.996H276.203H276.233ZM278.537 220.034C278.537 219.793 278.507 219.583 278.432 219.418C278.357 219.252 278.266 219.117 278.161 219.027C278.055 218.936 277.935 218.861 277.799 218.816C277.664 218.771 277.543 218.756 277.423 218.756C277.303 218.756 277.182 218.771 277.047 218.816C276.911 218.861 276.791 218.921 276.685 219.027C276.58 219.117 276.474 219.252 276.414 219.418C276.339 219.583 276.309 219.778 276.309 220.034H278.567H278.537Z" fill="#878787"/>
<path d="M281.007 217.763H282.452V219.763H284.576V217.763H286.021V223.312H284.576V220.936H282.452V223.312H281.007V217.763Z" fill="#878787"/>
<path d="M288.581 218.936H286.895V217.763H291.698V218.936H290.012V223.312H288.566V218.936H288.581Z" fill="#878787"/>
<path d="M292.557 217.763H293.927V218.56H293.942C294.138 218.229 294.364 217.989 294.62 217.823C294.861 217.673 295.192 217.598 295.599 217.598C295.855 217.598 296.111 217.643 296.382 217.733C296.653 217.823 296.909 217.989 297.134 218.199C297.36 218.41 297.541 218.711 297.692 219.072C297.842 219.432 297.918 219.884 297.918 220.425C297.918 220.876 297.872 221.282 297.767 221.658C297.677 222.034 297.526 222.35 297.33 222.62C297.134 222.891 296.894 223.102 296.592 223.252C296.291 223.402 295.945 223.477 295.538 223.477C295.267 223.477 294.981 223.417 294.695 223.297C294.409 223.177 294.183 222.951 293.987 222.62H293.972V225.447H292.527V217.763H292.557ZM295.192 218.891C294.966 218.891 294.77 218.936 294.62 219.041C294.469 219.132 294.334 219.267 294.228 219.417C294.123 219.568 294.063 219.748 294.017 219.944C293.972 220.139 293.957 220.335 293.957 220.53C293.957 220.696 293.972 220.861 294.002 221.056C294.032 221.252 294.093 221.432 294.183 221.613C294.273 221.793 294.394 221.944 294.56 222.049C294.725 222.154 294.936 222.229 295.207 222.229C295.478 222.229 295.689 222.169 295.855 222.049C296.02 221.929 296.141 221.778 296.231 221.613C296.321 221.432 296.382 221.252 296.412 221.056C296.442 220.861 296.457 220.681 296.457 220.53C296.457 220.335 296.442 220.139 296.397 219.944C296.351 219.748 296.276 219.568 296.186 219.417C296.08 219.267 295.96 219.132 295.794 219.041C295.644 218.951 295.448 218.891 295.222 218.891H295.192Z" fill="#878787"/>
<path d="M361.058 229.191C360.591 234.635 359.311 248.544 353.363 264.544C343.53 290.98 326.98 307.445 319.331 314.708C290.057 342.392 254.444 356.557 214.795 360.166C157.181 365.399 105.124 350.392 59.6477 314.287C50.1759 306.769 41.683 298.438 34.1387 289.295C20.3753 272.574 15.3608 261.958 13.8399 258.198C11.9275 253.462 10.7379 249.386 10 246.514C13.6743 251.101 19.276 257.552 26.8956 264.394C46.848 282.333 66.5746 289.671 86.2409 298.017C108.332 307.4 131.552 312.483 154.877 316.423C183.067 321.19 211.572 320.588 239.882 315.566C254.82 312.919 274.984 308.724 298.189 295.972C343.379 271.145 356.661 236.966 357.73 232.77C358.814 228.53 359.446 225.643 359.446 225.643C360.772 219.613 361.178 216.425 361.434 216.455C361.811 216.485 361.555 223.598 361.073 229.176" fill="#4F7853"/>
<path d="M39.1683 173.027C39.5749 167.569 40.6741 153.659 46.4415 137.584C55.9585 111.028 72.2969 94.3672 79.8713 87.0139C108.784 58.9694 144.231 44.3832 183.835 40.2931C241.388 34.3534 293.611 48.744 339.524 84.2922C349.071 91.6905 357.685 99.9159 365.334 108.968C379.309 125.524 384.444 136.081 386.01 139.825C387.982 144.517 389.217 148.577 390 151.449C386.266 146.907 380.589 140.532 372.894 133.78C352.715 116.081 332.913 108.983 313.142 100.878C290.931 91.7657 267.665 86.9538 244.279 83.2997C216.03 78.8788 187.539 79.8261 159.29 85.1794C144.397 88.0064 124.279 92.4424 101.224 105.48C56.35 130.848 43.475 165.178 42.451 169.388C41.412 173.644 40.8097 176.531 40.8097 176.531C39.5447 182.561 39.1833 185.764 38.9424 185.749C38.5659 185.719 38.7316 178.606 39.1382 173.027" fill="#4F7853"/>
<path d="M389.398 163.644C388.991 169.102 387.892 183.012 382.124 199.087C372.607 225.643 356.269 242.304 348.695 249.657C319.767 277.702 284.32 292.288 244.716 296.378C187.163 302.318 134.94 287.927 89.0267 252.379C79.4797 244.981 70.8662 236.755 63.2165 227.703C49.2423 211.147 44.1074 200.591 42.5413 196.846C40.5686 192.155 39.3338 188.095 38.5508 185.222C42.2853 189.764 47.9623 196.14 55.6572 202.891C75.8355 220.59 95.6374 227.688 115.394 235.793C137.605 244.905 160.871 249.717 184.256 253.371C212.506 257.792 240.997 256.845 269.246 251.492C284.139 248.665 304.257 244.229 327.312 231.191C372.186 205.824 385.061 171.493 386.085 167.283C387.124 163.027 387.726 160.14 387.726 160.14C388.991 154.11 389.337 150.907 389.593 150.922C389.97 150.952 389.804 158.065 389.398 163.644Z" fill="#4F7853"/>
<path d="M128.224 269.732C128.013 248.244 145.451 230.56 166.969 230.47C188.548 230.379 206.061 247.732 206.151 269.296C206.242 290.498 188.97 308.002 167.707 308.273C146.189 308.558 128.42 291.22 128.209 269.732" fill="#4F7853"/>
<path d="M10.5421 233.312C11.0089 227.868 12.2889 213.959 18.237 197.959C28.0701 171.523 44.6194 155.058 52.2691 147.81C81.5276 120.126 117.156 105.961 156.805 102.352C214.418 97.119 266.475 112.126 311.952 148.231C321.424 155.749 329.917 164.08 337.461 173.223C351.224 189.944 356.239 200.56 357.76 204.32C359.672 209.042 360.862 213.117 361.6 215.989C357.925 211.402 352.324 204.951 344.704 198.109C324.752 180.155 305.025 172.832 285.359 164.486C263.268 155.103 240.048 150.02 216.722 146.08C188.533 141.314 160.027 141.915 131.717 146.938C116.795 149.584 96.6162 153.779 73.4111 166.531C28.2358 191.343 14.9542 225.522 13.8851 229.718C12.8009 233.958 12.1684 236.845 12.1684 236.845C10.8433 242.875 10.4367 246.063 10.1807 246.033C9.80424 246.003 10.0602 238.891 10.5421 233.312Z" fill="#4F7853"/>
<path d="M268.222 128.938C268.177 150.426 250.514 167.9 229.01 167.734C207.431 167.569 190.129 149.99 190.295 128.427C190.461 107.224 207.943 89.9312 229.206 89.9161C250.724 89.9011 268.283 107.45 268.222 128.938Z" fill="#4F7853"/>
</g>
<defs>
<clipPath id="clip0_36_3">
<rect width="380" height="322.174" fill="white" transform="translate(10 39)"/>
</clipPath>
</defs>
</svg>
