<svg width="529" height="360" viewBox="0 0 529 360" fill="none" xmlns="http://www.w3.org/2000/svg">
<path d="M131.534 136.398H148.986V104.268H159.058V136.398H165.5V153.136H156.013V145.235H121.461V104.268H131.534V136.398ZM178.348 145.235V137.1H199.021V145.235H178.348ZM178.348 112.403V104.268H199.021V112.403H178.348ZM178.348 127.678V119.718H197.849V127.678H178.348ZM171.789 104.268H181.276V145.235H171.789V104.268ZM209.829 128.087V119.192H240.867V128.087H209.829ZM234.601 104.268H244.498V145.235H234.601V104.268ZM207.076 104.268H216.973V145.235H207.076V104.268ZM249.015 113.105V104.268H281.459V113.105H270.156V145.235H260.259V113.105H249.015ZM285.942 104.268H295.839V145.235H285.942V104.268ZM292.15 112.403V104.268H300.173C303.647 104.268 306.556 104.814 308.899 105.906C311.279 106.96 313.076 108.481 314.287 110.471C315.496 112.461 316.102 114.861 316.102 117.67C316.102 120.401 315.496 122.781 314.287 124.81C313.076 126.8 311.279 128.341 308.899 129.433C306.556 130.487 303.647 131.014 300.173 131.014H292.15V122.879H300.173C302.164 122.879 303.725 122.43 304.858 121.533C305.99 120.635 306.556 119.348 306.556 117.67C306.556 115.953 305.99 114.646 304.858 113.749C303.725 112.851 302.164 112.403 300.173 112.403H292.15Z" fill="#133447"/>
<path d="M129.894 192.056C129.894 194.553 130.46 196.719 131.592 198.552C132.724 200.347 134.208 201.713 136.043 202.649C137.917 203.585 139.967 204.054 142.192 204.054C144.144 204.054 145.862 203.8 147.346 203.293C148.829 202.785 150.157 202.122 151.328 201.303C152.499 200.484 153.534 199.606 154.432 198.669V209.321C152.792 210.608 150.996 211.622 149.044 212.364C147.093 213.106 144.613 213.476 141.607 213.476C138.327 213.476 135.301 212.968 132.529 211.955C129.757 210.941 127.376 209.477 125.385 207.565C123.393 205.653 121.851 203.391 120.758 200.776C119.665 198.162 119.118 195.256 119.118 192.056C119.118 188.856 119.665 185.95 120.758 183.336C121.851 180.721 123.393 178.459 125.385 176.547C127.376 174.634 129.757 173.171 132.529 172.157C135.301 171.143 138.327 170.636 141.607 170.636C144.613 170.636 147.093 171.006 149.044 171.748C150.996 172.489 152.792 173.503 154.432 174.791V185.443C153.534 184.506 152.499 183.628 151.328 182.809C150.157 181.95 148.829 181.287 147.346 180.819C145.862 180.311 144.144 180.058 142.192 180.058C139.967 180.058 137.917 180.526 136.043 181.463C134.208 182.399 132.724 183.764 131.592 185.56C130.46 187.355 129.894 189.52 129.894 192.056ZM170.664 192.056C170.664 194.474 171.133 196.621 172.07 198.494C173.046 200.327 174.393 201.771 176.111 202.825C177.868 203.878 179.917 204.405 182.26 204.405C184.563 204.405 186.575 203.878 188.292 202.825C190.049 201.771 191.396 200.327 192.333 198.494C193.309 196.621 193.797 194.474 193.797 192.056C193.797 189.637 193.328 187.51 192.391 185.677C191.454 183.804 190.126 182.341 188.409 181.287C186.692 180.234 184.642 179.707 182.26 179.707C179.917 179.707 177.868 180.234 176.111 181.287C174.393 182.341 173.046 183.804 172.07 185.677C171.133 187.51 170.664 189.637 170.664 192.056ZM160.181 192.056C160.181 188.896 160.728 186.009 161.821 183.394C162.953 180.78 164.515 178.518 166.506 176.605C168.497 174.693 170.84 173.23 173.534 172.216C176.228 171.162 179.137 170.636 182.26 170.636C185.422 170.636 188.331 171.162 190.986 172.216C193.68 173.23 196.022 174.693 198.013 176.605C200.005 178.518 201.546 180.78 202.64 183.394C203.734 186.009 204.28 188.896 204.28 192.056C204.28 195.216 203.734 198.124 202.64 200.776C201.586 203.429 200.063 205.732 198.072 207.682C196.12 209.632 193.797 211.154 191.103 212.247C188.409 213.301 185.462 213.827 182.26 213.827C179.02 213.827 176.052 213.301 173.358 212.247C170.664 211.154 168.322 209.632 166.331 207.682C164.379 205.732 162.856 203.429 161.763 200.776C160.709 198.124 160.181 195.216 160.181 192.056ZM230.225 187.374L221.675 210.784H210.255L230.225 169.524L250.136 210.784H238.716L230.225 187.374ZM243.694 212.54H216.697V218.978H206.858V204.054H253.533V218.978H243.694V212.54ZM267.051 212.54V204.405H287.724V212.54H267.051ZM267.051 179.707V171.572H287.724V179.707H267.051ZM267.051 194.982V187.023H286.553V194.982H267.051ZM260.492 171.572H269.979V212.54H260.492V171.572ZM333.318 181.873L295.779 214.588L296.072 202.239L333.611 169.524L333.318 181.873ZM305.267 171.572V204.873L295.779 214.588V171.572H305.267ZM333.611 169.524V212.54H324.065V179.59L333.611 169.524ZM306.495 158.872H312.294C312.294 159.535 312.449 160.141 312.763 160.686C313.074 161.194 313.524 161.604 314.11 161.915C314.695 162.189 315.358 162.325 316.101 162.325C316.881 162.325 317.544 162.189 318.092 161.915C318.678 161.604 319.126 161.194 319.439 160.686C319.751 160.141 319.907 159.535 319.907 158.872H325.705C325.705 160.433 325.333 161.876 324.592 163.203C323.85 164.49 322.756 165.525 321.313 166.305C319.907 167.047 318.169 167.417 316.101 167.417C314.07 167.417 312.332 167.047 310.889 166.305C309.444 165.525 308.35 164.49 307.609 163.203C306.867 161.876 306.495 160.433 306.495 158.872ZM350.707 192.056C350.707 194.553 351.274 196.719 352.406 198.552C353.539 200.347 355.022 201.713 356.857 202.649C358.731 203.585 360.78 204.054 363.006 204.054C364.959 204.054 366.676 203.8 368.159 203.293C369.644 202.785 370.97 202.122 372.142 201.303C373.313 200.484 374.348 199.606 375.245 198.669V209.321C373.606 210.608 371.811 211.622 369.858 212.364C367.906 213.106 365.427 213.476 362.42 213.476C359.14 213.476 356.116 212.968 353.343 211.955C350.571 210.941 348.189 209.477 346.198 207.565C344.207 205.653 342.665 203.391 341.571 200.776C340.479 198.162 339.932 195.256 339.932 192.056C339.932 188.856 340.479 185.95 341.571 183.336C342.665 180.721 344.207 178.459 346.198 176.547C348.189 174.634 350.571 173.171 353.343 172.157C356.116 171.143 359.14 170.636 362.42 170.636C365.427 170.636 367.906 171.006 369.858 171.748C371.811 172.489 373.606 173.503 375.245 174.791V185.443C374.348 184.506 373.313 183.628 372.142 182.809C370.97 181.95 369.644 181.287 368.159 180.819C366.676 180.311 364.959 180.058 363.006 180.058C360.78 180.058 358.731 180.526 356.857 181.463C355.022 182.399 353.539 183.764 352.406 185.56C351.274 187.355 350.707 189.52 350.707 192.056ZM377.465 180.409V171.572H409.909V180.409H398.606V212.54H388.709V180.409H377.465ZM421.771 192.173V187.842H428.389C429.521 187.842 430.478 187.666 431.258 187.315C432.078 186.964 432.703 186.477 433.132 185.852C433.561 185.189 433.777 184.389 433.777 183.453C433.777 182.048 433.308 180.995 432.371 180.292C431.434 179.59 430.106 179.239 428.389 179.239H424.289V204.873H429.326C430.614 204.873 431.766 204.716 432.781 204.405C433.796 204.054 434.597 203.508 435.182 202.766C435.807 201.986 436.119 200.933 436.119 199.606C436.119 198.747 435.944 198.006 435.592 197.382C435.241 196.757 434.753 196.251 434.128 195.86C433.503 195.469 432.781 195.197 431.961 195.041C431.181 194.846 430.302 194.748 429.326 194.748H421.771V189.364H430.439C432.43 189.364 434.362 189.579 436.236 190.008C438.11 190.436 439.809 191.139 441.331 192.114C442.854 193.051 444.065 194.261 444.962 195.743C445.899 197.187 446.368 198.943 446.368 201.01C446.368 203.742 445.705 205.945 444.377 207.624C443.088 209.302 441.254 210.55 438.872 211.369C436.49 212.149 433.679 212.54 430.439 212.54H414.392V171.572H429.443C432.294 171.572 434.791 171.963 436.939 172.743C439.125 173.484 440.844 174.634 442.093 176.196C443.381 177.717 444.025 179.649 444.025 181.99C444.025 184.136 443.381 185.969 442.093 187.491C440.844 189.013 439.125 190.183 436.939 191.002C434.791 191.782 432.294 192.173 429.443 192.173H421.771ZM490.822 181.873L453.283 214.588L453.575 202.239L491.115 169.524L490.822 181.873ZM462.77 171.572V204.873L453.283 214.588V171.572H462.77ZM491.115 169.524V212.54H481.569V179.59L491.115 169.524ZM518.811 193.987L507.274 212.54H495.678L508.504 193.987H518.811ZM529.001 171.572V212.54H519.104V171.572H529.001ZM522.793 179.941H514.77C513.481 179.941 512.35 180.156 511.373 180.585C510.398 181.014 509.656 181.638 509.148 182.458C508.641 183.238 508.386 184.194 508.386 185.325C508.386 186.456 508.641 187.432 509.148 188.252C509.656 189.032 510.398 189.637 511.373 190.066C512.35 190.457 513.481 190.651 514.77 190.651H522.793V198.318H514.067C510.593 198.318 507.665 197.752 505.283 196.621C502.94 195.49 501.164 193.929 499.953 191.939C498.744 189.909 498.138 187.589 498.138 184.974C498.138 182.322 498.744 180 499.953 178.01C501.164 175.98 502.94 174.4 505.283 173.269C507.665 172.138 510.593 171.572 514.067 171.572H522.793V179.941Z" fill="#133447"/>
<path d="M140.844 256.807V242.972H143.631V259.359H123.392V242.972H126.179V256.807H132.153V242.972H134.87V256.807H140.844ZM147.343 242.972H150.177V259.359H147.343V242.972ZM156.268 242.972H159.594L152.684 250.651L159.946 259.359H156.549L149.334 250.721L156.268 242.972ZM162.67 251.166C162.67 252.289 162.905 253.296 163.373 254.186C163.858 255.059 164.521 255.747 165.364 256.246C166.208 256.745 167.168 256.995 168.246 256.995C169.339 256.995 170.3 256.745 171.127 256.246C171.97 255.747 172.626 255.059 173.095 254.186C173.579 253.296 173.821 252.289 173.821 251.166C173.821 250.042 173.587 249.043 173.118 248.169C172.65 247.28 171.994 246.585 171.15 246.086C170.323 245.587 169.354 245.337 168.246 245.337C167.168 245.337 166.208 245.587 165.364 246.086C164.521 246.585 163.858 247.28 163.373 248.169C162.905 249.043 162.67 250.042 162.67 251.166ZM159.742 251.166C159.742 249.932 159.953 248.801 160.375 247.771C160.796 246.741 161.389 245.852 162.155 245.102C162.935 244.337 163.842 243.745 164.872 243.323C165.919 242.902 167.044 242.691 168.246 242.691C169.48 242.691 170.612 242.902 171.642 243.323C172.673 243.745 173.57 244.337 174.336 245.102C175.117 245.852 175.718 246.741 176.14 247.771C176.562 248.801 176.772 249.932 176.772 251.166C176.772 252.383 176.562 253.514 176.14 254.56C175.718 255.606 175.125 256.51 174.36 257.276C173.594 258.041 172.689 258.641 171.642 259.078C170.612 259.5 169.48 259.71 168.246 259.71C167.027 259.71 165.896 259.5 164.849 259.078C163.802 258.641 162.897 258.041 162.132 257.276C161.382 256.51 160.796 255.606 160.375 254.56C159.953 253.514 159.742 252.383 159.742 251.166ZM192.227 242.972V259.359H189.416V245.524H182.881V253.226C182.881 254.427 182.7 255.496 182.342 256.433C181.983 257.353 181.428 258.072 180.679 258.587C179.945 259.102 179.008 259.359 177.868 259.359V256.995C178.242 256.995 178.57 256.901 178.851 256.714C179.133 256.51 179.367 256.238 179.554 255.894C179.758 255.536 179.906 255.115 179.999 254.63C180.109 254.146 180.163 253.616 180.163 253.038V242.972H192.227ZM197.899 255.145L198.415 252.804H206.028L206.567 255.145H197.899ZM202.186 247.607L199.609 253.624L199.562 254.232L197.29 259.359H194.175L202.186 242.059L210.198 259.359H207.082L204.857 254.373L204.786 253.694L202.186 247.607ZM221.12 251.166C221.12 252.289 221.354 253.296 221.822 254.186C222.307 255.059 222.97 255.747 223.813 256.246C224.657 256.745 225.617 256.995 226.695 256.995C227.788 256.995 228.749 256.745 229.576 256.246C230.419 255.747 231.075 255.059 231.544 254.186C232.028 253.296 232.27 252.289 232.27 251.166C232.27 250.042 232.036 249.043 231.567 248.169C231.099 247.28 230.443 246.585 229.6 246.086C228.772 245.587 227.803 245.337 226.695 245.337C225.617 245.337 224.657 245.587 223.813 246.086C222.97 246.585 222.307 247.28 221.822 248.169C221.354 249.043 221.12 250.042 221.12 251.166ZM218.191 251.166C218.191 249.932 218.402 248.801 218.824 247.771C219.246 246.741 219.838 245.852 220.604 245.102C221.385 244.337 222.291 243.745 223.322 243.323C224.368 242.902 225.493 242.691 226.695 242.691C227.929 242.691 229.061 242.902 230.091 243.323C231.122 243.745 232.02 244.337 232.785 245.102C233.566 245.852 234.168 246.741 234.589 247.771C235.011 248.801 235.222 249.932 235.222 251.166C235.222 252.383 235.011 253.514 234.589 254.56C234.168 255.606 233.575 256.51 232.809 257.276C232.043 258.041 231.138 258.641 230.091 259.078C229.061 259.5 227.929 259.71 226.695 259.71C225.477 259.71 224.345 259.5 223.298 259.078C222.251 258.641 221.347 258.041 220.581 257.276C219.831 256.51 219.246 255.606 218.824 254.56C218.402 253.514 218.191 252.383 218.191 251.166ZM245.705 242.972H249.078L244.112 250.838L249.429 259.359H246.056L242.542 253.062L238.911 259.359H235.561L240.996 250.838L236.147 242.972H239.497L242.565 248.52L245.705 242.972ZM251.429 242.972H254.193V259.359H251.429V242.972ZM253.069 245.407V242.972H256.372C257.559 242.972 258.59 243.183 259.464 243.604C260.354 244.009 261.042 244.595 261.525 245.36C262.01 246.109 262.252 247.006 262.252 248.052C262.252 249.098 262.01 250.002 261.525 250.768C261.042 251.533 260.354 252.125 259.464 252.547C258.59 252.952 257.559 253.155 256.372 253.155H253.069V250.721H256.372C257.325 250.721 258.091 250.494 258.668 250.042C259.246 249.59 259.534 248.926 259.534 248.052C259.534 247.179 259.246 246.523 258.668 246.086C258.091 245.634 257.325 245.407 256.372 245.407H253.069ZM265.293 255.145L265.808 252.804H273.421L273.96 255.145H265.293ZM269.579 247.607L267.003 253.624L266.956 254.232L264.683 259.359H261.568L269.579 242.059L277.591 259.359H274.475L272.25 254.373L272.18 253.694L269.579 247.607ZM280.6 251.845V249.293H292.289V251.845H280.6ZM290.508 242.972H293.273V259.359H290.508V242.972ZM279.499 242.972H282.263V259.359H279.499V242.972ZM309.744 242.972H312.556V259.359H309.744V242.972ZM296.931 242.972H299.696V259.359H296.931V242.972ZM298.571 251.61V249.176H301.874C303.06 249.176 304.091 249.386 304.966 249.808C305.856 250.213 306.543 250.798 307.028 251.564C307.511 252.313 307.754 253.218 307.754 254.279C307.754 255.309 307.511 256.206 307.028 256.971C306.543 257.737 305.856 258.329 304.966 258.75C304.091 259.156 303.06 259.359 301.874 259.359H298.571V256.925H301.874C302.498 256.925 303.045 256.831 303.514 256.644C303.997 256.44 304.372 256.145 304.638 255.754C304.903 255.349 305.037 254.857 305.037 254.279C305.037 253.687 304.903 253.195 304.638 252.804C304.372 252.399 303.997 252.102 303.514 251.915C303.045 251.711 302.498 251.61 301.874 251.61H298.571Z" fill="#133447" fill-opacity="0.6"/>
<path d="M163.978 2.96629C163.978 0.372685 160.827 -0.956804 158.913 0.795164C119.472 36.9034 70.3467 52.8031 2.94283 53.2502C1.32568 53.2609 0 54.57 0 56.1861V104.506C0 106.122 1.31756 107.433 2.93472 107.423C64.4122 107.057 117.333 95.1098 162.647 65.9423C163.478 65.4074 163.978 64.4841 163.978 63.4964V2.96629Z" fill="#3B80A7"/>
<path d="M163.978 304.639C163.978 303.459 163.259 302.393 162.176 301.926C116.948 282.406 94.0435 251.116 81.762 220.82C67.1418 184.755 67.1874 149.083 67.2094 131.965C67.2103 131.331 67.211 130.722 67.211 130.139V116.452C67.211 114.836 65.9001 113.526 64.2828 113.526H16.376C14.7588 113.526 13.4479 114.836 13.4479 116.452V130.139C13.4479 130.859 13.4457 131.643 13.4433 132.488C13.3933 150.269 13.2673 195.117 31.9908 241.305C50.8714 287.88 88.5297 334.886 160.147 359.054C162.028 359.689 163.978 358.286 163.978 356.303V304.639Z" fill="#3B80A7"/>
</svg>
