<svg width="400" height="400" viewBox="0 0 400 400" fill="none" xmlns="http://www.w3.org/2000/svg">
<g clip-path="url(#clip0_36_2)">
<path d="M222.754 154.296H215.781V147.614H197.487V108.82H207.592V139.855H210.583V108.82H220.688V139.855H222.743V154.296H222.754Z" fill="#676766"/>
<path d="M225.434 108.842H242.242V116.6H235.517V123.95H241.812V131.321H235.517V139.844H242.92V147.603H225.434V108.842Z" fill="#676766"/>
<path d="M268.994 108.842V147.614H258.911V131.332H255.898V147.614H245.815V108.842H255.898V122.702H258.911V108.842H268.994Z" fill="#676766"/>
<path d="M293.346 108.842V116.6H287.363V147.614H277.28V116.6H271.319V108.842H293.346Z" fill="#676766"/>
<path d="M295.638 108.842H305.797C308.541 108.842 310.65 109.057 312.135 109.487C313.609 109.918 314.718 110.542 315.46 111.36C316.203 112.178 316.708 113.157 316.967 114.319C317.225 115.481 317.365 117.268 317.365 119.7V123.078C317.365 125.554 317.107 127.361 316.601 128.491C316.084 129.621 315.148 130.493 313.792 131.106C312.426 131.709 310.639 132.021 308.444 132.021H305.743V147.635H295.66V108.842H295.638ZM305.721 115.47V125.338C306.012 125.349 306.26 125.36 306.464 125.36C307.389 125.36 308.035 125.134 308.39 124.682C308.745 124.23 308.928 123.283 308.928 121.841V118.656C308.928 117.332 308.724 116.471 308.304 116.073C307.884 115.675 307.024 115.47 305.721 115.47Z" fill="#676766"/>
<path d="M218.805 200.138C218.805 204.034 218.708 206.788 218.525 208.413C218.342 210.038 217.761 211.512 216.803 212.858C215.835 214.203 214.533 215.225 212.886 215.946C211.24 216.667 209.324 217.022 207.14 217.022C204.955 217.022 203.201 216.678 201.544 216C199.887 215.322 198.563 214.3 197.552 212.944C196.551 211.588 195.948 210.114 195.755 208.51C195.561 206.917 195.464 204.12 195.464 200.127V193.499C195.464 189.603 195.561 186.848 195.744 185.223C195.927 183.598 196.497 182.124 197.466 180.779C198.434 179.434 199.736 178.412 201.383 177.691C203.029 176.97 204.945 176.615 207.129 176.615C209.206 176.615 211.068 176.959 212.725 177.637C214.382 178.315 215.706 179.337 216.717 180.693C217.718 182.049 218.32 183.523 218.514 185.126C218.708 186.719 218.805 189.517 218.805 193.509V200.138ZM208.722 187.397C208.722 185.589 208.625 184.438 208.42 183.932C208.216 183.426 207.807 183.179 207.183 183.179C206.656 183.179 206.257 183.383 205.978 183.792C205.698 184.201 205.558 185.395 205.558 187.397V205.497C205.558 207.746 205.655 209.134 205.838 209.662C206.021 210.189 206.451 210.447 207.118 210.447C207.785 210.447 208.248 210.146 208.431 209.532C208.625 208.93 208.722 207.477 208.722 205.196V187.376V187.397Z" fill="#676766"/>
<path d="M243.006 177.432L239.466 194.575L244.803 216.194H235.463C234.344 212.33 233.321 207.617 232.396 202.064C232.138 204.529 231.783 207.122 231.331 209.877L230.384 216.194H220.57L224.239 194.575L220.57 177.432H230.319C230.491 178.498 230.846 180.284 231.374 182.77C231.793 184.664 232.138 186.418 232.407 188.021L234.559 177.432H243.017H243.006Z" fill="#676766"/>
<path d="M246.224 177.432H256.382C259.126 177.432 261.235 177.648 262.721 178.078C264.195 178.508 265.303 179.133 266.046 179.95C266.788 180.768 267.294 181.748 267.552 182.91C267.81 184.072 267.95 185.858 267.95 188.29V191.669C267.95 194.144 267.692 195.952 267.186 197.082C266.67 198.212 265.734 199.084 264.378 199.697C263.011 200.3 261.225 200.612 259.029 200.612H256.328V216.226H246.245V177.454L246.224 177.432ZM256.307 184.061V193.929C256.597 193.94 256.845 193.951 257.049 193.951C257.975 193.951 258.621 193.725 258.976 193.273C259.331 192.821 259.514 191.874 259.514 190.432V187.246C259.514 185.923 259.309 185.062 258.89 184.664C258.47 184.266 257.609 184.061 256.307 184.061Z" fill="#676766"/>
<path d="M288.267 177.432L294.035 216.204H283.737L283.199 209.231H279.594L278.991 216.204H268.564L273.707 177.432H288.278H288.267ZM282.919 202.366C282.413 197.975 281.897 192.552 281.38 186.084C280.358 193.509 279.712 198.933 279.443 202.366H282.919Z" fill="#676766"/>
<path d="M318.925 177.432V216.204H308.842V199.923H305.829V216.204H295.746V177.432H305.829V191.293H308.842V177.432H318.925Z" fill="#676766"/>
<path d="M346.462 207.122C346.462 210.017 346.086 212.083 345.333 213.353C344.579 214.612 343.449 215.408 341.921 215.72C340.393 216.043 337.961 216.204 334.625 216.204H322.96V177.411H333.065V190.701H334.625C337.735 190.701 340.092 190.884 341.685 191.25C343.277 191.615 344.472 192.423 345.268 193.682C346.054 194.93 346.452 196.899 346.452 199.589V207.133L346.462 207.122ZM336.358 205.949V200.343C336.358 198.718 336.196 197.728 335.863 197.373C335.54 197.017 334.604 196.824 333.076 196.77V209.511C334.356 209.511 335.217 209.35 335.669 209.016C336.121 208.693 336.347 207.66 336.347 205.938L336.358 205.949ZM359.989 216.194H349.884V177.4H359.989V216.194Z" fill="#676766"/>
<path d="M217.707 249.866V257.593H211.746V288.488H201.706V257.593H195.766V249.866H217.718H217.707Z" fill="#676766"/>
<path d="M219.999 249.865H230.115C232.848 249.865 234.957 250.08 236.421 250.51C237.895 250.941 238.992 251.565 239.735 252.372C240.477 253.179 240.972 254.169 241.242 255.32C241.5 256.472 241.64 258.258 241.64 260.679V264.048C241.64 266.512 241.381 268.309 240.876 269.439C240.37 270.569 239.434 271.44 238.067 272.043C236.711 272.646 234.925 272.947 232.73 272.947H230.029V288.507H219.989V249.886L219.999 249.865ZM230.039 256.472V266.297C230.33 266.307 230.577 266.318 230.782 266.318C231.707 266.318 232.342 266.092 232.697 265.64C233.052 265.188 233.235 264.241 233.235 262.81V259.635C233.235 258.312 233.031 257.462 232.611 257.064C232.202 256.665 231.341 256.472 230.039 256.472Z" fill="#676766"/>
<path d="M264.421 249.843L261.688 275.443C261.257 279.479 260.794 282.32 260.299 283.945C259.804 285.58 258.847 286.742 257.437 287.442C256.016 288.141 253.692 288.497 250.442 288.497H244.578V283.514H245.18C246.504 283.514 247.322 283.407 247.634 283.191C247.946 282.976 248.096 282.643 248.096 282.201C248.096 282.169 247.903 281.082 247.526 278.93L242.253 249.843H250.98L254.176 273.915L255.726 249.843H264.442H264.421Z" fill="#676766"/>
<path d="M295.154 295.147H288.213V288.486H271.986V295.147H265.066V280.426H267.122C268.198 277.262 269.091 273.098 269.78 267.932C270.468 262.767 270.813 257.128 270.813 251.005V249.832H293.099V280.372H295.154V295.136V295.147ZM283.037 280.383V257.483H280.056V257.774C280.056 265.167 279.26 272.71 277.668 280.394H283.037V280.383Z" fill="#676766"/>
<path d="M315.643 249.865L321.39 288.486H311.124L310.586 281.545H306.991L306.389 288.486H296.004L301.127 249.865H315.643ZM310.317 274.701C309.811 270.321 309.294 264.919 308.788 258.473C307.766 265.866 307.121 271.279 306.862 274.701H310.317Z" fill="#676766"/>
<path fill-rule="evenodd" clip-rule="evenodd" d="M174.254 290.337C137.419 290.337 105.545 276.875 79.805 251.134C53.2683 224.598 40 192.917 40 155.889V105H93.8588V157.471C93.8588 178.067 101.187 195.887 116.037 210.533C119.599 214.3 123.366 217.27 127.724 220.24C139.604 228.353 153.669 231.926 168.314 231.926H174.254V290.337Z" fill="#016380"/>
<path fill-rule="evenodd" clip-rule="evenodd" d="M99.0133 105V157.471C99.0133 176.679 105.545 192.917 119.61 206.971C121.784 209.145 124.754 212.115 127.724 213.503C139.604 222.413 152.872 226.772 168.314 226.772H174.254V168.565H163.956C158.016 168.565 152.076 166.392 147.718 161.829C143.166 157.471 140.981 152.327 140.981 145.591V105H99.0133Z" fill="#4B6951"/>
<path fill-rule="evenodd" clip-rule="evenodd" d="M146.136 105V145.591C146.136 150.734 148.309 155.297 151.28 158.267C155.046 161.829 159.393 163.411 163.956 163.411H174.254V105H146.136Z" fill="#F9BD6E"/>
</g>
<defs>
<clipPath id="clip0_36_2">
<path d="M40 105H360V295.147H60C48.9543 295.147 40 286.193 40 275.147V105Z" fill="white"/>
</clipPath>
</defs>
</svg>
