<svg width="336" height="336" viewBox="0 0 336 336" fill="none" xmlns="http://www.w3.org/2000/svg">
<path d="M205.322 117.719H116.955V117.853V129.17V204.864L117.22 217.622L163.62 245.022L167.749 247.408L169.785 246.149L213.173 219.402L216.773 217.176V203.736V156.419H205.322V210.792L167.559 234.083L128.406 211.474V129.17H205.322V156.476H216.773V129.17V117.719H205.322Z" fill="#1D1D1B"/>
<path d="M236.98 229.282L238.506 140.669H234.376H227.055H221.836V152.12H227.055V221.846L167.613 259.609L106.401 222.964V152.12H111.885V140.669H106.401H94.9502V152.12V231.148L167.613 273.057L236.98 229.282Z" fill="#0C713F"/>
<path d="M165.296 185.448H169.408C168.802 180.248 168.195 173.827 167.589 166.183C166.377 174.963 165.609 181.384 165.296 185.448Z" fill="#0C713F"/>
<path d="M181.831 134.511V139.664H173.895V134.511H161.316V139.664H152.716V134.511H140.139V140.667L140.289 203.604L167.293 221.798L194.408 203.87V140.667V139.664V134.511H181.831Z" fill="#0C713F"/>
<path d="M216.771 139.664H205.32V154.468H216.771V139.664Z" fill="#1D1D1B"/>
<path d="M148.851 156.911H154.343L168.096 181.252L181.848 156.911H187.293V193.357H184.187V158.276L169.659 183.981L174.953 193.357H171.846L168.106 186.745L164.364 193.357H161.257L166.552 183.981L151.976 158.228V193.357H148.869V156.911H148.851Z" fill="white" stroke="white" stroke-width="1.07043" stroke-miterlimit="10"/>
<path d="M73 75.9866H78.2314L88.8935 92.945L99.4933 75.9866H104.793L104.862 103.806H101.816L101.748 77.4439L90.4877 95.5295L95.6569 103.806H92.4745L88.8997 98.0456L85.2564 103.806H82.074L87.3053 95.5295L76.0455 77.5808L76.1139 103.875H73.0686L73 75.9866Z" fill="#1D1D1B" stroke="#1D1D1C" stroke-width="0.817496" stroke-miterlimit="10"/>
<path d="M164.635 83.8716C164.505 83.1678 164.362 82.4579 164.206 81.7541C164.051 81.0504 163.664 80.4277 163.048 79.8983C162.432 79.2817 161.647 78.8582 160.693 78.6402C159.74 78.4223 158.781 78.2666 157.81 78.1795H142.707L142.776 101.627H164.568V103.813H139.73L139.661 78.1795V75.9934H164.635V83.8778V83.8716ZM164.568 101.621H157.741C158.714 101.534 159.673 101.378 160.625 101.16C161.572 100.942 162.356 100.519 162.979 99.9022C163.595 99.3727 163.982 98.7562 164.137 98.0462C164.292 97.3425 164.436 96.6325 164.568 95.9287V101.627V101.621Z" fill="#1D1D1B"/>
<path d="M164.568 101.627H142.776L142.707 78.1795H157.81C158.781 78.2666 159.74 78.4223 160.693 78.6402C161.647 78.8582 162.432 79.2817 163.048 79.8983C163.664 80.4277 164.051 81.0504 164.206 81.7541C164.362 82.4579 164.505 83.1678 164.635 83.8716V83.8778V75.9934H139.661V78.1795L139.73 103.813H164.568V101.627ZM164.568 101.627V95.9287C164.436 96.6325 164.292 97.3425 164.137 98.0462C163.982 98.7562 163.595 99.3727 162.979 99.9022C162.356 100.519 161.572 100.942 160.625 101.16C159.673 101.378 158.714 101.534 157.741 101.621H164.568V101.627Z" stroke="#1D1D1C" stroke-width="0.817496" stroke-miterlimit="10"/>
<path d="M196.229 83.8716C196.099 83.1678 195.956 82.4579 195.801 81.7541C195.643 81.0504 195.259 80.4277 194.642 79.8983C194.024 79.2817 193.241 78.8582 192.287 78.6402C191.335 78.4223 190.375 78.2666 189.405 78.1795H174.301L174.371 101.627H196.162V103.813H171.325L171.255 78.1795V75.9934H196.229V83.8778V83.8716ZM196.162 101.621H189.335C190.306 101.534 191.265 101.378 192.219 101.16C193.165 100.942 193.95 100.519 194.573 99.9022C195.189 99.3727 195.576 98.7562 195.731 98.0462C195.887 97.3425 196.03 96.6325 196.162 95.9287V101.627V101.621Z" fill="#1D1D1B"/>
<path d="M196.162 101.627H174.371L174.301 78.1795H189.405C190.375 78.2666 191.335 78.4223 192.287 78.6402C193.241 78.8582 194.024 79.2817 194.642 79.8983C195.259 80.4277 195.643 81.0504 195.801 81.7541C195.956 82.4579 196.099 83.1678 196.229 83.8716V83.8778V75.9934H171.255V78.1795L171.325 103.813H196.162V101.627ZM196.162 101.627V95.9287C196.03 96.6325 195.887 97.3425 195.731 98.0462C195.576 98.7562 195.189 99.3727 194.573 99.9022C193.95 100.519 193.165 100.942 192.219 101.16C191.265 101.378 190.306 101.534 189.335 101.621H196.162V101.627Z" stroke="#1D1D1C" stroke-width="0.817496" stroke-miterlimit="10"/>
<path d="M202.854 75.9866H205.9L205.968 102.418L222.528 75.9866H228.227L228.296 103.806H225.25L225.181 76.846L208.291 103.806H202.924L202.854 75.9866Z" fill="#1D1D1B" stroke="#1D1D1C" stroke-width="0.817496" stroke-miterlimit="10"/>
<path d="M234.913 75.9866H262.931L263 103.806H234.98L234.913 75.9866ZM237.957 85.2598H259.885V83.6032C259.574 81.5293 258.889 80.1343 257.83 79.4305C256.771 78.7268 255.203 78.3033 253.128 78.1725H237.957V85.2598ZM238.026 101.62H253.128C254.1 101.533 255.059 101.377 256.012 101.159C256.959 100.942 257.744 100.518 258.365 99.9014C258.983 99.3721 259.368 98.768 259.524 98.0767C259.681 97.3917 259.822 96.719 259.954 96.059V93.0135C259.822 92.3098 259.667 91.6123 259.486 90.9273C259.313 90.2421 258.933 89.6567 258.36 89.1709C257.744 88.5543 256.959 88.1308 256.005 87.9128C255.053 87.6949 254.094 87.5392 253.123 87.4521H237.952L238.019 101.627L238.026 101.62Z" fill="#1D1D1B" stroke="#1D1D1C" stroke-width="0.817496" stroke-miterlimit="10"/>
<path d="M73.229 66.4962C73.229 63.538 75.2406 62.0059 77.2896 62.0059C79.3385 62.0059 81.3502 63.538 81.3502 66.4962C81.3502 69.4543 79.3012 70.9179 77.2896 70.9179C75.278 70.9179 73.229 69.4543 73.229 66.4962ZM79.7497 66.4962C79.7497 64.1109 78.8404 62.8092 77.2896 62.8092C75.7389 62.8092 74.8297 64.1109 74.8297 66.4962C74.8297 68.8814 75.7016 70.1145 77.2896 70.1145C78.8778 70.1145 79.7497 68.8877 79.7497 66.4962Z" fill="#1D1D1B"/>
<path d="M83.897 69.754L85.5723 70.0591V70.682H81.9912V70.0591L83.5233 69.754H83.897ZM83.9654 63.2147L82.1096 62.9096V62.2307H86.0268V62.9096L84.3329 63.2147H83.9593H83.9654ZM82.4334 70.682L86.1764 66.0858L86.7804 66.4968L83.5171 70.682H82.4272H82.4334ZM84.3204 62.237L86.8302 65.8553L90.2182 70.682H88.5803L85.9459 66.8892L82.7573 62.237H84.3267H84.3204ZM90.43 62.237L86.7243 66.746L86.1389 66.285L89.309 62.237H90.43ZM89.0037 69.7042L90.9655 70.0591V70.682H86.6682V70.0591L88.6301 69.7042H89.0037ZM88.8793 63.2022L87.4032 62.9159V62.237H90.7538V62.9159L89.259 63.2022H88.8854H88.8793Z" fill="#1D1D1B"/>
<path d="M96.3411 74.3374V74.9601H91.7822V74.3374L93.7939 73.9823H94.1488L96.3411 74.3374ZM93.277 66.1041C93.277 65.1264 93.2583 64.572 93.221 63.856L91.7947 63.694V63.0712L94.2173 62L94.4851 62.1807L94.6285 63.694L94.6968 63.7313V69.2928L94.6408 69.3987V71.1798C94.6408 72.4254 94.6595 73.7083 94.6968 74.9601H93.2147C93.252 73.7145 93.2708 72.4627 93.2708 71.2171V66.1041H93.277ZM96.914 62.984C96.2539 62.984 95.3633 63.3016 94.0616 64.572L93.8997 64.2482C94.9336 62.6788 96.092 62 97.3001 62C99.1871 62 100.688 63.6753 100.688 66.4217C100.688 69.1682 99.1188 70.912 97.0323 70.912C95.9424 70.912 94.8402 70.4138 93.8935 68.558L94.0554 68.2715C94.9834 69.4485 95.8366 69.928 96.7085 69.928C98.0599 69.928 99.1686 68.8756 99.1686 66.5774C99.1686 64.2794 98.2218 62.9778 96.9077 62.9778L96.914 62.984Z" fill="#1D1D1B"/>
<path d="M105.247 66.0167C105.994 65.7489 107.115 65.4313 108.012 65.2694V65.9109C107.208 66.0728 106.156 66.4091 105.627 66.6209C104.02 67.2436 103.845 67.9225 103.845 68.4393C103.845 69.386 104.468 69.7597 105.29 69.7597C105.913 69.7597 106.268 69.5292 107.395 68.7259L107.75 68.4581L107.999 68.8317L107.482 69.3487C106.411 70.4199 105.807 70.918 104.717 70.918C103.416 70.918 102.332 70.1707 102.332 68.6886C102.332 67.692 102.868 66.8886 105.253 66.0167H105.247ZM107.296 69.0435V64.9829C107.296 63.2392 106.797 62.8093 105.62 62.8093C105.209 62.8093 104.674 62.8654 104.014 63.1332L104.723 62.579L104.263 64.111C104.101 64.628 103.833 64.9145 103.353 64.9145C102.874 64.9145 102.587 64.6467 102.55 64.2045C102.886 62.8531 104.207 62.0122 105.988 62.0122C107.769 62.0122 108.716 62.8531 108.716 65.095V68.8753C108.716 69.6787 108.965 69.9652 109.376 69.9652C109.681 69.9652 109.874 69.8033 110.073 69.5728L110.428 69.9652C109.998 70.6441 109.519 70.8744 108.915 70.8744C107.937 70.8744 107.296 70.1644 107.296 69.056V69.0435Z" fill="#1D1D1B"/>
<path d="M111.27 62.237H115.299V62.8598L113.518 63.2147H113.163L111.276 62.8598V62.237H111.27ZM111.27 70.0591L113.157 69.7042H113.512L115.294 70.0591V70.682H111.264V70.0591H111.27ZM112.572 66.939V65.9737C112.572 64.834 112.553 63.0341 112.515 62.2307H114.048C114.011 63.0341 113.992 64.834 113.992 65.9737V66.4905C113.992 68.0787 114.011 69.8786 114.048 70.6757H112.515C112.553 69.8723 112.572 68.0724 112.572 66.9327V66.939ZM113.282 65.8866H118.912V66.6339H113.282V65.8866ZM116.9 62.2307H120.93V62.8536L119.149 63.2085H118.792L116.906 62.8536V62.2307H116.9ZM116.9 70.0528L118.787 69.6979H119.142L120.923 70.0528V70.6757H116.893V70.0528H116.9ZM118.201 66.4905V65.9737C118.201 64.834 118.183 63.0341 118.146 62.2307H119.677C119.64 63.0341 119.621 64.834 119.621 65.9737V66.939C119.621 68.0787 119.64 69.8786 119.677 70.682H118.146C118.183 69.8786 118.201 68.0787 118.201 66.4968V66.4905Z" fill="#1D1D1B"/>
<path d="M122.531 62.237H126.56V62.8598L124.779 63.2147H124.424L122.536 62.8598V62.237H122.531ZM122.531 70.0591L124.417 69.7042H124.773L126.555 70.0591V70.682H122.524V70.0591H122.531ZM123.833 66.939V65.9737C123.833 64.834 123.814 63.0341 123.776 62.2307H125.309C125.272 63.0341 125.253 64.834 125.253 65.9737V66.4905C125.253 68.0787 125.272 69.8786 125.309 70.6757H123.776C123.814 69.8723 123.833 68.0724 123.833 66.9327V66.939ZM124.542 65.8866H130.173V66.6339H124.542V65.8866ZM128.16 62.2307H132.191V62.8536L130.41 63.2085H130.053L128.167 62.8536V62.2307H128.16ZM128.16 70.0528L130.048 69.6979H130.403L132.184 70.0528V70.6757H128.154V70.0528H128.16ZM129.462 66.4905V65.9737C129.462 64.834 129.444 63.0341 129.407 62.2307H130.938C130.901 63.0341 130.882 64.834 130.882 65.9737V66.939C130.882 68.0787 130.901 69.8786 130.938 70.682H129.407C129.444 69.8786 129.462 68.0787 129.462 66.4968V66.4905Z" fill="#1D1D1B"/>
<path d="M136.737 66.0167C137.483 65.7489 138.604 65.4313 139.501 65.2694V65.9109C138.699 66.0728 137.645 66.4091 137.117 66.6209C135.509 67.2436 135.335 67.9225 135.335 68.4393C135.335 69.386 135.958 69.7597 136.781 69.7597C137.402 69.7597 137.758 69.5292 138.884 68.7259L139.239 68.4581L139.489 68.8317L138.972 69.3487C137.9 70.4199 137.297 70.918 136.207 70.918C134.905 70.918 133.821 70.1707 133.821 68.6886C133.821 67.692 134.358 66.8886 136.742 66.0167H136.737ZM138.785 69.0435V64.9829C138.785 63.2392 138.287 62.8093 137.11 62.8093C136.7 62.8093 136.163 62.8654 135.502 63.1332L136.22 62.579L135.759 64.111C135.597 64.628 135.329 64.9145 134.849 64.9145C134.37 64.9145 134.083 64.6467 134.045 64.2045C134.381 62.8531 135.702 62.0122 137.483 62.0122C139.264 62.0122 140.212 62.8531 140.212 65.095V68.8753C140.212 69.6787 140.46 69.9652 140.872 69.9652C141.177 69.9652 141.37 69.8033 141.569 69.5728L141.924 69.9652C141.495 70.6441 141.015 70.8744 140.411 70.8744C139.433 70.8744 138.792 70.1644 138.792 69.056L138.785 69.0435Z" fill="#1D1D1B"/>
<path d="M142.222 70.0591L144.078 69.7352L143.311 70.3394L144.184 68.4523C144.682 67.3624 145.523 66.7958 146.394 66.6524L146.269 66.8456C144.041 66.8829 143.255 65.8118 143.255 64.616C143.255 63.2458 144.252 62.2307 146.413 62.2307H148.674V62.978H146.538C145.292 62.978 144.701 63.5448 144.701 64.5787C144.701 65.8989 145.417 66.3784 146.712 66.3784H148.674V67.0884H147.124C146.214 67.0884 146.127 67.4248 145.678 68.3154L144.731 70.221C144.502 70.682 144.196 70.8625 143.411 70.8625C142.913 70.8625 142.433 70.738 142.215 70.6695V70.0468L142.222 70.0591ZM146.656 70.0591L148.544 69.7042H148.898L150.68 70.0591V70.682H146.649V70.0591H146.656ZM147.958 66.939V65.9737C147.958 64.834 147.939 63.0341 147.902 62.2307H149.434C149.396 63.0341 149.378 64.834 149.378 65.9737V66.939C149.378 68.0787 149.396 69.8786 149.434 70.682H147.902C147.939 69.8786 147.958 68.0787 147.958 66.939ZM148.674 62.237H150.685V62.8598L148.799 63.2147H148.674V62.237Z" fill="#1D1D1B"/>
<path d="M156.477 66.4962C156.477 63.538 158.489 62.0059 160.537 62.0059C162.587 62.0059 164.598 63.538 164.598 66.4962C164.598 69.4543 162.55 70.9179 160.537 70.9179C158.526 70.9179 156.477 69.4543 156.477 66.4962ZM162.997 66.4962C162.997 64.1109 162.089 62.8092 160.537 62.8092C158.987 62.8092 158.077 64.1109 158.077 66.4962C158.077 68.8814 158.95 70.1145 160.537 70.1145C162.126 70.1145 162.997 68.8877 162.997 66.4962Z" fill="#1D1D1B"/>
<path d="M170.427 74.3374V74.9601H165.869V74.3374L167.88 73.9823H168.236L170.427 74.3374ZM167.363 66.1041C167.363 65.1264 167.344 64.572 167.307 63.856L165.88 63.694V63.0712L168.303 62L168.572 62.1807L168.715 63.694L168.79 63.7313V69.2928L168.734 69.3987V71.1798C168.734 72.4254 168.753 73.7083 168.79 74.9601H167.314C167.351 73.7145 167.37 72.4627 167.37 71.2171V66.1041H167.363ZM171 62.984C170.34 62.984 169.45 63.3016 168.148 64.572L167.986 64.2482C169.019 62.6788 170.178 62 171.393 62C173.279 62 174.78 63.6753 174.78 66.4217C174.78 69.1682 173.212 70.912 171.125 70.912C170.036 70.912 168.933 70.4138 167.986 68.558L168.148 68.2715C169.077 69.4485 169.929 69.928 170.801 69.928C172.153 69.928 173.261 68.8756 173.261 66.5774C173.261 64.2794 172.315 62.9778 171 62.9778V62.984Z" fill="#1D1D1B"/>
<path d="M176.398 62.237H178.411V63.2147H178.286L176.398 62.8598V62.237ZM176.398 70.0591L178.18 69.7042H178.534L180.603 70.0591V70.682H176.398V70.0591ZM177.7 66.939V65.9737C177.7 64.834 177.682 63.0341 177.645 62.2307H179.176C179.139 63.0341 179.12 64.834 179.12 65.9737V66.939C179.12 68.0787 179.139 69.8786 179.176 70.682H177.645C177.682 69.8786 177.7 68.0787 177.7 66.939ZM178.411 62.237H183.044L183.188 65.2637H182.384L181.617 62.237L182.595 62.9843H178.411V62.237Z" fill="#1D1D1B"/>
<path d="M187.285 66.0167C188.033 65.7489 189.154 65.4313 190.051 65.2694V65.9109C189.247 66.0728 188.195 66.4091 187.665 66.6209C186.059 67.2436 185.883 67.9225 185.883 68.4393C185.883 69.386 186.507 69.7597 187.329 69.7597C187.952 69.7597 188.306 69.5292 189.434 68.7259L189.789 68.4581L190.037 68.8317L189.52 69.3487C188.45 70.4199 187.845 70.918 186.756 70.918C185.455 70.918 184.371 70.1707 184.371 68.6886C184.371 67.692 184.906 66.8886 187.292 66.0167H187.285ZM189.335 69.0435V64.9829C189.335 63.2392 188.837 62.8093 187.658 62.8093C187.248 62.8093 186.712 62.8654 186.052 63.1332L186.768 62.579L186.307 64.111C186.145 64.628 185.878 64.9145 185.399 64.9145C184.919 64.9145 184.632 64.6467 184.595 64.2045C184.931 62.8531 186.252 62.0122 188.033 62.0122C189.814 62.0122 190.76 62.8531 190.76 65.095V68.8753C190.76 69.6787 191.01 69.9652 191.42 69.9652C191.726 69.9652 191.918 69.8033 192.117 69.5728L192.474 69.9652C192.043 70.6441 191.563 70.8744 190.959 70.8744C189.981 70.8744 189.34 70.1644 189.34 69.056L189.335 69.0435Z" fill="#1D1D1B"/>
<path d="M193.306 62.237H197.335V62.8598L195.553 63.2147H195.199L193.311 62.8598V62.237H193.306ZM193.306 70.0591L195.192 69.7042H195.548L197.328 70.0591V70.682H193.299V70.0591H193.306ZM194.608 66.939V65.9737C194.608 64.834 194.589 63.0341 194.55 62.2307H196.084C196.046 63.0341 196.028 64.834 196.028 65.9737V66.4905C196.028 68.0787 196.046 69.8786 196.084 70.6757H194.55C194.589 69.8723 194.608 68.0724 194.608 66.9327V66.939ZM195.317 65.8866H200.946V66.6339H195.317V65.8866ZM198.935 62.2307H202.966V62.8536L201.184 63.2085H200.828L198.942 62.8536V62.2307H198.935ZM198.935 70.0528L200.823 69.6979H201.178L202.959 70.0528V70.6757H198.929V70.0528H198.935ZM200.237 66.4905V65.9737C200.237 64.834 200.219 63.0341 200.181 62.2307H201.713C201.676 63.0341 201.657 64.834 201.657 65.9737V66.939C201.657 68.0787 201.676 69.8786 201.713 70.682H200.181C200.219 69.8786 200.237 68.0787 200.237 66.4968V66.4905Z" fill="#1D1D1B"/>
<path d="M204.57 62.237H208.598V62.8598L206.817 63.2147H206.463L204.577 62.8598V62.237H204.57ZM204.57 70.0591L206.425 69.7042H206.78L208.598 70.0591V70.682H204.57V70.0591ZM205.872 66.939V65.9737C205.872 64.834 205.853 63.0341 205.816 62.2307H207.241V70.6757H205.816C205.853 69.8723 205.872 68.0724 205.872 66.9327V66.939ZM212.073 63.2147H213.039L206.942 69.7042H205.983L212.08 63.2147H212.073ZM210.417 62.237H214.447V62.8598L212.666 63.2147H212.311L210.424 62.8598V62.237H210.417ZM210.417 70.0591L212.273 69.7042H212.629L214.447 70.0591V70.682H210.417V70.0591ZM211.788 62.237H213.194C213.157 63.0403 213.139 64.8402 213.139 65.9799V66.9452C213.139 68.0849 213.157 69.8848 213.194 70.6882H211.788V62.2432V62.237Z" fill="#1D1D1B"/>
<path d="M218.843 70.202C220.001 70.202 220.835 69.6291 220.835 68.3648C220.835 67.4183 220.425 66.6211 219.074 66.6211H218.233V65.8176H218.949C220.175 65.8176 220.749 65.2447 220.749 64.3417C220.749 63.2891 220.033 62.8096 218.931 62.8096C218.076 62.8096 217.416 62.9715 216.932 63.2891V62.8407L217.629 62.6975L217.256 64.8523H216.327L216.271 62.6975C216.987 62.2678 218.108 62 219.23 62C220.923 62 222.118 62.9466 222.118 64.1921C222.118 65.3318 221.315 66.0606 219.658 66.2786L219.603 66.0979C221.328 66.2598 222.294 67.0944 222.294 68.3773C222.294 69.7288 220.974 70.9058 218.731 70.9058C217.094 70.9058 215.859 70.0526 215.859 68.6949C216.04 68.3586 216.309 68.2154 216.663 68.2154C217.038 68.2154 217.342 68.6264 217.485 69.1246L217.916 70.5321L216.776 69.8346C217.379 70.0837 218.002 70.1895 218.843 70.1895V70.202Z" fill="#1D1D1B"/>
<path d="M226.608 66.0167C227.356 65.7489 228.477 65.4313 229.374 65.2694V65.9109C228.57 66.0728 227.518 66.4091 226.988 66.6209C225.382 67.2436 225.207 67.9225 225.207 68.4393C225.207 69.386 225.83 69.7597 226.652 69.7597C227.275 69.7597 227.63 69.5292 228.758 68.7259L229.112 68.4581L229.362 68.8317L228.844 69.3487C227.773 70.4199 227.169 70.918 226.08 70.918C224.778 70.918 223.694 70.1707 223.694 68.6886C223.694 67.692 224.229 66.8886 226.615 66.0167H226.608ZM228.658 69.0435V64.9829C228.658 63.2392 228.16 62.8093 226.983 62.8093C226.571 62.8093 226.036 62.8654 225.376 63.1332L226.091 62.579L225.631 64.111C225.468 64.628 225.202 64.9145 224.722 64.9145C224.243 64.9145 223.956 64.6467 223.918 64.2045C224.254 62.8531 225.575 62.0122 227.356 62.0122C229.137 62.0122 230.083 62.8531 230.083 65.095V68.8753C230.083 69.6787 230.333 69.9652 230.743 69.9652C231.049 69.9652 231.241 69.8033 231.441 69.5728L231.797 69.9652C231.366 70.6441 230.887 70.8744 230.282 70.8744C229.305 70.8744 228.663 70.1644 228.663 69.056L228.658 69.0435Z" fill="#1D1D1B"/>
<path d="M232.633 62.237H236.662V62.8598L234.881 63.2147H234.526L232.64 62.8598V62.237H232.633ZM232.633 70.0591L234.521 69.7042H234.644V70.682H232.633V70.0591ZM233.935 66.939V65.9737C233.935 64.834 233.917 63.0341 233.879 62.2307H235.411C235.374 63.0341 235.355 64.834 235.355 65.9737V66.939C235.355 68.0787 235.374 69.8786 235.411 70.682H233.879C233.917 69.8786 233.935 68.0787 233.935 66.939ZM240.885 69.9346L241.739 70.682H234.644V69.9346H242.293L242.112 73.3536H241.309L240.878 69.9346H240.885ZM238.052 62.237H242.08V62.8598L240.299 63.2147H239.944L238.058 62.8598V62.237H238.052ZM239.353 66.939V65.9737C239.353 64.834 239.335 63.0341 239.298 62.2307H240.829C240.792 63.0341 240.773 64.834 240.773 65.9737V66.939C240.773 68.0787 240.792 69.8786 240.829 70.682H239.298C239.335 69.8786 239.353 68.0787 239.353 66.939Z" fill="#1D1D1B"/>
<path d="M243.681 62.237H247.71V62.8598L245.928 63.2147H245.574L243.688 62.8598V62.237H243.681ZM243.681 70.0591L245.537 69.7042H245.891L247.71 70.0591V70.682H243.681V70.0591ZM244.983 66.939V65.9737C244.983 64.834 244.964 63.0341 244.927 62.2307H246.352V70.6757H244.927C244.964 69.8723 244.983 68.0724 244.983 66.9327V66.939ZM251.186 63.2147H252.15L246.053 69.7042H245.094L251.191 63.2147H251.186ZM249.528 62.237H253.559V62.8598L251.777 63.2147H251.423L249.535 62.8598V62.237H249.528ZM249.528 70.0591L251.386 69.7042H251.74L253.559 70.0591V70.682H249.528V70.0591ZM250.899 62.237H252.306C252.269 63.0403 252.25 64.8402 252.25 65.9799V66.9452C252.25 68.0849 252.269 69.8848 252.306 70.6882H250.899V62.2432V62.237Z" fill="#1D1D1B"/>
<path d="M254.534 70.0591L256.392 69.7352L255.625 70.3394L256.496 68.4523C256.994 67.3624 257.835 66.7958 258.708 66.6524L258.583 66.8456C256.353 66.8829 255.569 65.8118 255.569 64.616C255.569 63.2458 256.566 62.2307 258.727 62.2307H260.988V62.978H258.852C257.606 62.978 257.013 63.5448 257.013 64.5787C257.013 65.8989 257.731 66.3784 259.026 66.3784H260.988V67.0884H259.436C258.528 67.0884 258.44 67.4248 257.992 68.3154L257.045 70.221C256.814 70.682 256.51 70.8625 255.725 70.8625C255.227 70.8625 254.747 70.738 254.529 70.6695V70.0468L254.534 70.0591ZM258.97 70.0591L260.856 69.7042H261.211L262.992 70.0591V70.682H258.963V70.0591H258.97ZM260.27 66.939V65.9737C260.27 64.834 260.251 63.0341 260.214 62.2307H261.747C261.71 63.0341 261.69 64.834 261.69 65.9737V66.939C261.69 68.0787 261.71 69.8786 261.747 70.682H260.214C260.251 69.8786 260.27 68.0787 260.27 66.939ZM260.988 62.237H262.999V62.8598L261.111 63.2147H260.988V62.237Z" fill="#1D1D1B"/>
<path d="M110.027 104.212L120.024 75.6321H123.953L133.948 104.212H130.865L121.374 77.2576H122.546L113.116 104.212H110.034H110.027ZM114.48 97.2864V94.546H129.47V97.2864H114.48Z" fill="#1D1D1B" stroke="#1D1D1B" stroke-width="0.817496" stroke-miterlimit="10"/>
</svg>
